0  2  0  1
1684  1
   0       0  3378       1
   1       1  3201       2
   2       2  3353       3
   3       3  3205       4
   4       4  4510       5
   5    2616  2854       6
   6    4101     7       7
   7       7  2583       8
   8       8  4344       9
   9    4115    10      10
  10      10  3960      11
  11    4080    11      12
  12      12  2618      13
  13      13  2619      14
  14    3474  2620      15
  15      15  3059      16
  16    3387  2622      17
  17    4381    17      18
  18      18  4437      19
  19    4260    19      20
  20    2623  4158      21
  21      21  3943      22
  22    2625    23      23
  23    2626  2863      24
  24    3947    25      25
  25    2628    26      26
  26      27    26      27
  27      27    28      28
  28    4085    29      29
  29    2630  2867      30
  30    2631     4      31
  31      31    32      32
  32      32  2632      33
  33    2633    34      34
  34      35  2574      35
  35      36    35      36
  36      36    37      37
  37      37    38      38
  38      38    39      39
  39      39    40      40
  40      40    41      41
  41      41    42      42
  42      42    43      43
  43      43    44      44
  44      44    45      45
  45      45    46      46
  46      46    47      47
  47      48    47      48
  48      48    49      49
  49      49    50      50
  50      51    50      51
  51    2634    52      52
  52    2635  2872      53
  53    3773  2873      54
  54    2637    55      55
  55    4091    55      56
  56    3813  2875      57
  57    3867  3844      58
  58      59  4095      59
  59    4142    60      60
  60      61  4406      61
  61      61  4395      62
  62    2876  3697      63
  63    2642    64      64
  64    2643    65      65
  65    2570    66      66
  66      66  4230      67
  67      67    68      68
  68      69    68      69
  69      69    70      70
  70    4376    71      71
  71      71  2573      72
  72      72  4807      73
  73      73    74      74
  74      74    75      75
  75      75    76      76
  76      76    77      77
  77      77    78      78
  78      79    78      79
  79    2645    79      80
  80    4609    80      81
  81      81  2569      82
  82    2564    83      83
  83    2646  4258      84
  84      84  2647      85
  85      86  2648      86
  86    2649    87      87
  87    2578    88      88
  88    2650    89      89
  89      90  4563      90
  90      91    90      91
  91      91    92      92
  92      92    93      93
  93      94    93      94
  94    2651  2886      95
  95    2652  4167      96
  96    2653    97      97
  97      98    97      98
  98      99    98      99
  99     100    99     100
 100     101   100     101
 101     101   102     102
 102     102   103     103
 103     103   104     104
 104     104   105     105
 105    2654  2889     106
 106     106  2608     107
 107     108  2655     108
 108     108   109     109
 109     109   110     110
 110     111   110     111
 111     111   112     112
 112    2656   112     113
 113     113  2579     114
 114     114  4527     115
 115     115  2657     116
 116    3838  2893     117
 117    2659   118     118
 118    3109  2568     119
 119    2660   119     120
 120     120  2661     121
 121     121  4817     122
 122     122  4816     123
 123     124   123     124
 124     124   125     125
 125     126   125     126
 126     127   126     127
 127     128   127     128
 128    2662   129     129
 129    3832  2898     130
 130    2664  2899     131
 131    2665   132     132
 132     133   132     133
 133     134   133     134
 134     135   134     135
 135     135   136     136
 136     136   137     137
 137     137   138     138
 138     138   139     139
 139     140  2666     140
 140    2600   141     141
 141    2667   142     142
 142     142   143     143
 143     143   144     144
 144     145   144     145
 145     145   146     146
 146    2668   147     147
 147    2669  2904     148
 148    2670   149     149
 149    4667   150     150
 150     150   151     151
 151     152   151     152
 152     152   153     153
 153     154   153     154
 154     154    67     155
 155     156   155     156
 156     157   156     157
 157    4505   157     158
 158    2671   159     159
 159    3095  2907     160
 160    2562  2673      58
 161     160  2908     161
 162    3934  2909     161
 163    2675  4443     162
 164    3244    63      63
 165    2676  3827     163
 166    3706  2910     163
 167    2678   164     164
 168    2679   165     165
 169    2680  2913     166
 170    2586  2577     167
 171    2681  2914     168
 172    2682   169     169
 173     169   170     170
 174     171   170     171
 175     171   172     172
 176     172   173     173
 177    2683   173     174
 178    4102  2684      83
 179     174  2917     175
 180    2685   175     175
 181    2686  2919     176
 182    2565   117     117
 183    2687  2920     177
 184    2921  2591     177
 185    2689   178     178
 186    2690   178     179
 187    2691  4422     180
 188    2692  4045     181
 189    2693   182     182
 190    2694   183     183
 191    2695   184     184
 192    4608   184     185
 193     185   186     186
 194     186   187     187
 195    4508   187     188
 196    2609   189     189
 197    3435   190     190
 198    2696   191     191
 199     192   191     192
 200     192   193     193
 201     194   193     194
 202     194   195     195
 203     195   196     196
 204     197   196     197
 205     197   198     198
 206     199   198     199
 207     199   200     200
 208     200   201     201
 209     201   202     202
 210     203   202     203
 211     203   204     204
 212     204  4536     205
 213    3341  2611     206
 214    4089   207     207
 215     207  3339     208
 216     208  4352     209
 217     210   209     210
 218     210  2698     211
 219    3258    30      30
 220     212  2566     212
 221    4001  2932     212
 222    2700  4353     213
 223    2701  2934     214
 224     214  2582     215
 225    2567    22      22
 226    2702  2931     216
 227    2703  4059     216
 228    2704   217     217
 229    2590   218     218
 230    2705   218     219
 231    2706   119     119
 232     220  2568     220
 233    2938  2568     220
 234    2708   221     221
 235    2569  2709      82
 236     221  2569     222
 237    2710   222     222
 238     222   223     223
 239     224   223     224
 240     224   225     225
 241     226   225     226
 242    2711   227     227
 243    2712  2943     228
 244     228  2588     229
 245     230  4035     230
 246    2944   231     231
 247    2570  2715      66
 248     231  2570     232
 249    2716   232     232
 250     232  2717     233
 251     233  4515     234
 252     234  4516     235
 253    2719  2949     236
 254    2571    54      54
 255    2720  2950     237
 256    2721  2951     237
 257     237  2722     238
 258     239   238     239
 259     240   239     240
 260     240   241     241
 261     241  2723     242
 262    2724  2954     243
 263    4235   244     244
 264    2726   245     245
 265     246   245     246
 266     246   247     247
 267     247   248     248
 268    2727  4378     249
 269    2584  2728     250
 270     250  2729     251
 271     251  2730     252
 272    3942  2961     253
 273    2732  4332     254
 274    4574   254     255
 275     256  4709     256
 276     257   256     257
 277     257   258     258
 278    2733  2963     259
 279    4058   260     260
 280    2735  2604     261
 281    2736   261     262
 282     155   262     263
 283    2572   130     131
 284    4562  2966     264
 285    2738    72      72
 286    2968  2573     264
 287    2574    34      35
 288    2740  2969     264
 289    2741  2970     264
 290    2575    31      67
 291    2742  4229     265
 292    3299   230     231
 293    4312  2576     265
 294    2577   167     167
 295    2587  2577     265
 296    2744  3132     265
 297     265   266     266
 298    2745  4166      88
 299    4239  2975     267
 300    2579   114     114
 301    2747  4310     267
 302    2580   180     181
 303    4564  2977     267
 304    2581    24      25
 305    2749  3816     267
 306    2750  2979     215
 307    2980  2582     267
 308    4450     8       8
 309    2598  4386     267
 310    2752  2981     267
 311    3454   268     268
 312    3141  3293     269
 313    2584   249     250
 314    3142  2983     270
 315    2585   253     253
 316    2755  4057     270
 317    4640   270     270
 318    3145  4753     271
 319     271   272     272
 320    2586  3504     167
 321    2758  2987     273
 322    4397  2988     265
 323    2586  2587     273
 324    4233   229     229
 325    3110  2588     273
 326    2762  2990     273
 327     273   274     274
 328    2763  2991     264
 329    2764  2992     275
 330    2765  4975     275
 331    2590   217     218
 332    3102  4487     276
 333    2591   177     177
 334    2767  2993     276
 335    2768   116     117
 336    2769  2592     276
 337    2593    85      85
 338    2770  2996     276
 339    2771  4732     265
 340    2772  2998     276
 341    2773  4671     276
 342     276   277     277
 343    3161  3000     278
 344     279   278     279
 345    3162  3001     280
 346     280   281     281
 347    2595  2776     190
 348    3164  3002     282
 349    4117  4292     208
 350    2595  2778     282
 351    2597  3501       7
 352    3166  3004     282
 353    4478  3005     267
 354    2781  4130     282
 355    3320    11      11
 356    2782  3007     282
 357    2783   275     282
 358    2784   140     141
 359    4491  2600     283
 360    2601   148     148
 361    2786  3011     283
 362    4668  3012     275
 363    2788  3013     283
 364    2603   243     244
 365    3176  3014     283
 366    2790   283     283
 367    2604  3016     261
 368    2792  2891     284
 369    3179  3017     273
 370    3082  4922     284
 371    4820  3018     276
 372    2796  4944     284
 373    3183  3334     284
 374    2607  4061      96
 375    3184  4726     285
 376    3022   107     107
 377    2800  3914     285
 378    2609  4502     189
 379    2801  3024     285
 380    2802  3025     282
 381    2609  2610     285
 382    2611   206     206
 383    2610  2803     285
 384    2804  4925     285
 385    2805  3028     286
 386    2806  3192     286
 387    3177  3437     287
 388    3151  3461     288
 389    3423  3274     289
 390    3498  3417     290
 391    2612  4802       1
 392    2613  4821       2
 393    2614  4818       3
 394    2615  4814       4
 395    4337     5       6
 396    3980  2597       7
 397    2618    13      13
 398    2619    14      14
 399    2620  2857      15
 400    3511  2856      16
 401    2622    17      17
 402    2623    20      21
 403    2624  2861      22
 404    2625  2862      23
 405    2626    23      24
 406    3062  2581      25
 407    2628    25      26
 408    2629    28      29
 409    3893    29      30
 410    2631  2868      31
 411    2632    33      33
 412    2633    33      34
 413    2634    51      52
 414    2635    52      53
 415    2871    53      54
 416    2874  3068      55
 417    3881    56      57
 418    2639  3736      58
 419    2640  3930      59
 420    2641  3809      63
 421    2877  3072      64
 422    2643    64      65
 423    2644    70      71
 424    2645    80      80
 425    3076    83      84
 426    2647  2593      85
 427    2648    85      86
 428    2649    86      87
 429    2650  2885      89
 430    4366    94      95
 431    2887  4065      96
 432    2653    96      97
 433    2654   105     106
 434    2655   107     108
 435    2656   113     113
 436    2657   116     116
 437    3912  2592     117
 438    2894  3086     118
 439    2660   120     120
 440    2661   121     121
 441    2662   128     129
 442    2897   129     130
 443    3242  3088     131
 444    2665   131     132
 445    2666   139     140
 446    2667   141     142
 447    2668   146     147
 448    4155   147     148
 449    4053   148     149
 450    2671   158     159
 451    2906   159     160
 452    2673    57      58
 453    2903  3737     161
 454    2675  4199     162
 455    2676  2901     163
 456    3092  2563     163
 457    3768  3096     164
 458    2679   164     165
 459    2680   165     166
 460    2912   167     168
 461    2682   168     169
 462    2683   174     174
 463    2684    82      83
 464    2685  2564     175
 465    4037   175     176
 466    2918   176     177
 467    2916  3238     177
 468    2689  2922     178
 469    2690   179     179
 470    4479   179     180
 471    3965  2580     181
 472    4134   181     182
 473    2694   182     183
 474    2695   183     184
 475    4494   190     191
 476    2697   206     207
 477    2698   211     211
 478    4238   211     212
 479    2933  3108     213
 480    4393   213     214
 481    2702  2930     216
 482    2929  3105     216
 483    2704  2935     217
 484    2705   219     219
 485    2937  2568     119
 486    2707   219     220
 487    2939   220     221
 488    2709    82      82
 489    2710  2569     222
 490    2711   226     227
 491    2712  4308     228
 492    2713   229     230
 493    4311  2576     231
 494    2715    65      66
 495    2716  2570     232
 496    2717   233     233
 497    2718   235     235
 498    2719   235     236
 499    2720   236     237
 500    2948  3812     237
 501    2722   238     238
 502    2723   242     242
 503    2724   242     243
 504    2955  2603     244
 505    2726   244     245
 506    2727   248     249
 507    2728   250     250
 508    2729   251     251
 509    2730   252     252
 510    2731  4097     253
 511    3125   253     254
 512    2733   258     259
 513    2734   259     260
 514    3236   260     261
 515    2736   262     262
 516    4806   263     264
 517    2738  2573      72
 518    3779  3128     264
 519    2960  3123     264
 520    2959  3122     264
 521    2742  4427     265
 522    2972  2575     265
 523    3283  4441     265
 524    2974  2578      88
 525    4626   266     267
 526    2976  4164     267
 527    3121  2579     267
 528    2749  3964     267
 529    2750  2957     215
 530    2956  3120     267
 531    2953  3118     267
 532    3269  3117     269
 533    2947  4963     270
 534    2946  2584     270
 535    2985  3144     270
 536    3265  3113     271
 537    2942   272     273
 538    2941  3111     265
 539    2760  2989     229
 540    2936  2587     273
 541    2928  3104     273
 542    2927  2589     264
 543    4756   274     275
 544    2765  4976     275
 545    3252  3389     276
 546    2767  2590     276
 547    2768  2592     117
 548    2769  2591     276
 549    2995  4012     276
 550    4678  2594     265
 551    3158  2593     276
 552    4675  2606     276
 553    3310  3160     278
 554    2994  3305     280
 555    2776   189     190
 556    2923   281     282
 557    2778  2610     282
 558    3003  3165     282
 559    3247  2598     267
 560    3979  2597     282
 561    2782  4391     282
 562    3008  3170     282
 563    2784  2600     141
 564    2785   282     283
 565    2786  3010     283
 566    3171  2602     275
 567    2895  3241     283
 568    2892  2602     283
 569    3015  2603     283
 570    2791  4236     261
 571    2792  4379     284
 572    2890  2605     273
 573    2884  4951     284
 574    2883  3078     276
 575    2882  3077     284
 576    2880  3075     284
 577    2879  3074     285
 578    3750  3073     107
 579    4063  4068     285
 580    2866  4408     285
 581    2802  2865     282
 582    2803  2611     285
 583    3190  2611     285
 584    4942   285     286
 585    2860  3061     286
 586    4822  3213     287
 587    4819  3366     288
 588    4813  2834     289
 589    4801  3047     290
 590    2811  3445       1
 591    2812  3210       1
 592    2813  3453       2
 593    2814  3369       2
 594    2815  3427       3
 595    2816  3255       3
 596    2817  3448       4
 597    2818  3207       4
 598    2844  2836     289
 599    3216  2840     290
 600    2821  3215       1
 601    2822  3431       2
 602    2823  3364       2
 603    2824  3500       3
 604    2825  3459       3
 605    2826  3422       4
 606    2827  3046       4
 607    2828  3045     289
 608    2837  2846     289
 609    4825  3048     290
 610    2841  2851     290
 611    2832  3053       1
 612    2833  2843       4
 613    4828  2828     289
 614    2835  3044     289
 615    2845  4759     289
 616    3208  2829     289
 617    4830  2847     290
 618    4849  2848     290
 619    3051   286     290
 620    2841  2852     290
 621    2842  2853       1
 622    2843     0       4
 623    2844  2829     289
 624    2845  2836     289
 625    2846  2819     289
 626    4832  2830     290
 627    2848  2820     290
 628    2849  3052     290
 629    2850  3050     290
 630    2851  2820     290
 631    3358  2831     290
 632    2853     1       1
 633    2854  4023       6
 634    3460  3224     288
 635    3814    16      16
 636    3510    15      15
 637    3251  2621      16
 638    3361  4902     287
 639    2860  4962     286
 640    2861  2567      22
 641    3853    22      23
 642    3774    24      24
 643    2864  3818      25
 644    2865  2610     282
 645    4688  2801     285
 646    2867  2566      30
 647    2868    30      31
 648    2869  4070     285
 649    2870    62      63
 650    2871  2636      54
 651    2872    53      53
 652    3067  2571      54
 653    2874  2637      55
 654    3069    57      57
 655    2876  3778      63
 656    2877  2642      64
 657    3071  2799     107
 658    3070  2798     285
 659    3066  4969     284
 660    2881  2646      84
 661    2882  4954     284
 662    2883  4949     276
 663    4754  2794     284
 664    2885    88      89
 665    4066    95      95
 666    2887  2652      96
 667    4955  2605     284
 668    3083  3235     106
 669    2890  4774     273
 670    3233  2604     284
 671    2892  2789     283
 672    2893  3085     117
 673    2894  2659     118
 674    3080  2788     283
 675    3079  2664     131
 676    2897  2663     130
 677    3689  3243     130
 678    2899   131     131
 679    2900  3091     163
 680    2901   162     163
 681    3093  3696     163
 682    2903  3843     161
 683    2904  2601     148
 684    2905  2670     149
 685    2906  2672     160
 686    3094  3245     160
 687    2908  2562     161
 688    4122   161     161
 689    2910   163     163
 690    4073  2678     164
 691    2912  2681     168
 692    2913   166     166
 693    2914   168     168
 694    2915  4511     267
 695    2916  2688     177
 696    2917  4103     175
 697    2918  2687     177
 698    3098   176     176
 699    2920  2565     177
 700    2921  2688     177
 701    2922   177     178
 702    2923  4776     282
 703    3384  3472     276
 704    3099  2590     276
 705    2926  2693     182
 706    2927  2763     264
 707    2928  3103     273
 708    2929  2703     216
 709    2930   215     216
 710    2931  3106     216
 711    3107  2566     212
 712    2933  2700     213
 713    2934   214     214
 714    2935   216     217
 715    2936  2761     273
 716    2937  2706     119
 717    2938  2707     220
 718    2939  2708     221
 719    2940  2761     273
 720    2941  2759     265
 721    2942  2758     273
 722    2943  4156     228
 723    2944  2714     231
 724    3112  3264     271
 725    2946  2755     270
 726    4965  2754     270
 727    3851  2721     237
 728    3267   236     236
 729    2950  2571     237
 730    2951   237     237
 731    3116  4923     269
 732    4611  2752     267
 733    2954  4054     243
 734    2955  2725     244
 735    2956  2751     267
 736    2957  2582     215
 737    2958  2748     267
 738    3119  2741     264
 739    2960  2740     264
 740    3124  2585     253
 741    2962  2732     254
 742    2963   259     259
 743    2964  2734     260
 744    2965  4964     264
 745    3997  3279     264
 746    2967  3949     264
 747    2968  2739     264
 748    4765  2589     264
 749    2970  4429     264
 750    4691  3129     265
 751    2972  2743     265
 752    3131  4679     265
 753    2974  2745      88
 754    3134  2578     267
 755    2976  2747     267
 756    3288  2580     267
 757    3137  2581     267
 758    2979   215     215
 759    2980  2751     267
 760    2981  4396     267
 761    3292   263     269
 762    3415  3291     270
 763    3143  2585     270
 764    4565  2756     270
 765    3138  3290     271
 766    2987  4968     273
 767    3147  2576     265
 768    2989  2588     229
 769    2990   273     273
 770    2991  2574     264
 771    2992  2589     275
 772    2993  2591     276
 773    3154  3304     280
 774    2995  2770     276
 775    2996  2593     276
 776    2997  4566     276
 777    2998  4677     276
 778    3159  3309     278
 779    3307   278     278
 780    3156  3306     280
 781    3313  2595     282
 782    3003  4716     282
 783    3153  4099     282
 784    3167  3317     267
 785    3006  2598     282
 786    3169  3959     282
 787    3008  2783     282
 788    3168  2787     275
 789    3010  2600     283
 790    3011  3173     283
 791    4650  2589     275
 792    4977  2602     283
 793    3444  3325     283
 794    3015  2790     283
 795    3016  2791     261
 796    4314  3329     273
 797    3018  4769     276
 798    4676  2606     284
 799    3181  4970     284
 800    4315  3331     285
 801    3022  2799     107
 802    3721  3337     285
 803    3187  3338     285
 804    3188  2596     282
 805    3026  2805     286
 806    3027  3189     285
 807    3028  4567     286
 808    3029  3185     286
 809    3455  3260     287
 810    3031  3398     288
 811    3449  3300     289
 812    3033  3377     290
 813    3034  3497       1
 814    3035  3347       4
 815    3036  4826       1
 816    3037  3442       2
 817    3038  3202       2
 818    3039  3483       3
 819    3040  3391       3
 820    3041  3403       4
 821    3042  3206       4
 822    3043  3357       1
 823    3044  2819     289
 824    3045  2835     289
 825    3046  2833       4
 826    4834  2838     290
 827    4836  2839     290
 828    3049  3214       1
 829    3050  2840     290
 830    3051  2850     290
 831    3052  2831     290
 832    3053  2842       1
 833    3223  3316     288
 834    4838  3221     288
 835    3056  4841       3
 836    3217  3363     287
 837    3456  3212     287
 838    3059  2858      16
 839    3060  3360       2
 840    3061   263     286
 841    3062  2864      25
 842    3228  3969     285
 843    3064  3229     284
 844    3230  3371     284
 845    3066  2880     284
 846    3067  2873      54
 847    3068    54      55
 848    3069  2875      57
 849    3070  2879     285
 850    3071  2878     107
 851    3231    63      64
 852    3232  3372     107
 853    3074   284     285
 854    3075  4674     284
 855    3076  2881      84
 856    3077  2605     284
 857    3078  2606     276
 858    3079  2896     131
 859    3080  2895     283
 860    3081  4956     284
 861    3082  3234     284
 862    3083  2889     106
 863    3084  2891     284
 864    3085  2565     117
 865    3240   117     118
 866    3239  4170     283
 867    3466  3652     131
 868    3089  3747     130
 869    3090  2663     130
 870    3091  2677     163
 871    3092  2900     163
 872    3093  2902     163
 873    3820  2907     160
 874    3095  2672     160
 875    3246   163     164
 876    3097  4316     267
 877    3098  2919     176
 878    4579  2925     276
 879    3464  3386     276
 880    3248   275     276
 881    3253  2766     276
 882    3103  2762     273
 883    3104  2588     273
 884    3105  2567     216
 885    3106  2567     216
 886    3107  2932     212
 887    3817   212     213
 888    3109   118     119
 889    3110  2940     273
 890    3111  2587     265
 891    3263  2945     271
 892    3262   270     271
 893    3266  2571     237
 894    3115  2949     236
 895    4924  2952     269
 896    3268  4624     269
 897    3118  4382     267
 898    3119  2959     264
 899    3120  2581     267
 900    3121  2958     267
 901    3122  2574     264
 902    3276  2573     264
 903    3124  2961     253
 904    3125  2962     254
 905    3278  2966     264
 906    3127  2737     264
 907    3681  3409     264
 908    3129  2744     265
 909    3282  3410     265
 910    3131  2973     265
 911    3132  2973     265
 912    3133  3488       1
 913    3134  2975     267
 914    4843  3412     290
 915    3136  2977     267
 916    3137  3289     267
 917    3284  2986     271
 918    3139  3280     270
 919    4805  2982     269
 920    4953  2753     269
 921    3142  2754     270
 922    3143  2984     270
 923    3944  2585     270
 924    3295  2757     271
 925    3277  3490     290
 926    3147  2988     265
 927    4845  3275     289
 928    3273  3396     289
 929    3150  3476     288
 930    3261  3478     288
 931    4846  3259     287
 932    3153  4266     282
 933    3154  4971     280
 934    4905   279     280
 935    3156  3257     280
 936    3157  4848     278
 937    3158  2997     276
 938    3159  2999     278
 939    4734   277     278
 940    3311  2774     278
 941    3162  3312     280
 942    3163  3308     282
 943    3164  2777     282
 944    3165  4116     282
 945    3166  2779     282
 946    4318  3005     267
 947    3168  3009     275
 948    4046  3007     282
 949    3440  2599     282
 950    3171  3009     275
 951    3172  4669     275
 952    3173  2601     283
 953    3174  2787     275
 954    4460  3324     283
 955    3176  2789     283
 956    3323  3439     287
 957    3328  3017     273
 958    3179  2793     273
 959    4572  3021     285
 960    3181  3020     284
 961    3182  3019     284
 962    4972  2797     284
 963    3184  2798     285
 964    3185  4554     286
 965    3821  3023     285
 966    3187  4612     285
 967    3188  3025     282
 968    3189  2804     285
 969    3190  3027     285
 970    3191  3342     286
 971    3192  3029     286
 972    3193  4847       2
 973    3194  3513       3
 974    3195  4844       4
 975    3196  4842       1
 976    3197  4850       1
 977    3198  4829       1
 978    3199  3319       4
 979    3200  4827       4
 980    3201  3037       2
 981    3202     2       2
 982    3203  3481       3
 983    3204  3354       3
 984    3205  3041       4
 985    3206  2827       4
 986    3207  3042       4
 987    3208  2837     289
 988    3209  3356       1
 989    3210  3043       1
 990    3211  3359       2
 991    3355  2859     287
 992    4851  3058     287
 993    3214  2832       1
 994    3215  3049       1
 995    3216  2849     290
 996    3217  3362     287
 997    3352   287     287
 998    3219  4868       3
 999    3220  4854       3
1000    3348  2855     288
1001    4853  3318     288
1002    3223  3315     288
1003    3388   288     288
1004    3225  3436       3
1005    3226  3368       2
1006    3227  4852       2
1007    3228  4147     285
1008    3229  2884     284
1009    3230  3065     284
1010    3231  3072      64
1011    3232  3709     107
1012    3233  3084     284
1013    3234  2794     284
1014    3235  3708     106
1015    3236  2735     261
1016    3373  3088     131
1017    3238  2565     177
1018    4493  3087     283
1019    3240  3086     118
1020    3241  3087     283
1021    3242  2896     131
1022    3658  3469     130
1023    3244  2563      63
1024    3245   160     160
1025    3764  3096     164
1026    3247  3097     267
1027    3248  3101     276
1028    3385  3473     276
1029    3383  2766     276
1030    3251  2858      16
1031    3999  2924     276
1032    3253  3102     276
1033    3254  3390       3
1034    3255  3225       3
1035    3256  3382     288
1036    3257  3001     280
1037    3258  2566      30
1038    4855  2807     287
1039    3505  3152     287
1040    3480  3151     288
1041    3262  3113     271
1042    3263  3112     271
1043    3264  2757     271
1044    3265  4966     271
1045    3266  3114     237
1046    3267  3115     236
1047    3268  3117     269
1048    3269  2952     269
1049    3401  3031     288
1050    3271  4823     288
1051    3397  4809     288
1052    3395  3149     289
1053    3381  3032     289
1054    4857  2809     289
1055    3276  3123     264
1056    3468  3146     290
1057    3278  4307     264
1058    3516  3720     264
1059    3280  2983     270
1060    3281  3710     264
1061    3282  4168     265
1062    3283  2971     265
1063    3284  3138     271
1064    4859  3411     290
1065    3286  3491       1
1066    4861  3135     290
1067    3288  3136     267
1068    3289  2978     267
1069    3290  4811     271
1070    3291  3414     270
1071    3292  3140     269
1072    3293  2982     269
1073    3416  3033     290
1074    3295  3145     271
1075    3296  3144     270
1076    3297  3420     271
1077    3298  3418       1
1078    3299  2576     231
1079    3502  3148     289
1080    3301  3421       4
1081    3302  3413       3
1082    3425  3518     282
1083    3304  2775     280
1084    3305  3155     280
1085    3306   280     280
1086    3307  3157     278
1087    3308  3002     282
1088    3309  2774     278
1089    3310  2999     278
1090    3311  3161     278
1091    3312  2775     280
1092    3313  3163     282
1093    3314  3434     288
1094    3433  3054     288
1095    3316  2855     288
1096    3317  2582     267
1097    4863  3055     288
1098    3319  2818       4
1099    3320  2599      11
1100    3321  4831       1
1101    3322  4860       1
1102    3438  3177     287
1103    3324  3014     283
1104    3443  3503     283
1105    3432  3030     287
1106    3327  3430       2
1107    3328  3178     273
1108    3446  2586     273
1109    3330  4866       1
1110    3447  4060     285
1111    3332  4858       4
1112    3333  3428       4
1113    3334  3020     284
1114    3335  4824       3
1115    3336  4758       3
1116    3451  2608     285
1117    4501  2609     285
1118    3339  2596     208
1119    3340  4856       2
1120    3341   205     206
1121    3342   268     286
1122    3343  3452       2
1123    3344  2812       1
1124    3345  4835       1
1125    3346  4833       1
1126    3347  3199       4
1127    3348  4867     288
1128    3349  4840     288
1129    3350  4864       3
1130    3351  2816       3
1131    3352  3218     287
1132    3353  3203       3
1133    3354     3       3
1134    3355  3212     287
1135    3356  2821       1
1136    3357  3209       1
1137    3358  2852     290
1138    3359  2814       2
1139    3360  3211       2
1140    3361  3057     287
1141    3362  3057     287
1142    3363  2859     287
1143    3364  3038       2
1144    3365  4839       3
1145    4869  3222     288
1146    3367  3457       3
1147    3368  2823       2
1148    3369  3226       2
1149    3722  3506     285
1150    3463  2604     284
1151    3372  2608     107
1152    3373  3237     131
1153    3619  3508     131
1154    3375  4865     290
1155    3467  2601     283
1156    4872  3287     290
1157    3378  3286       1
1158    3379  3492     290
1159    3380  3667     130
1160    3381  3274     289
1161    3382  3224     288
1162    3383  3250     276
1163    3471  3100     276
1164    3470  3249     276
1165    3386  2924     276
1166    3387    16      17
1167    3388  3256     288
1168    3389  3101     276
1169    3390  2825       3
1170    3391  3204       3
1171    3479  3261     288
1172    3393  3477     288
1173    3394  3482       3
1174    3395  3273     289
1175    3396   288     289
1176    4757  3272     288
1177    3398  3484     288
1178    4875  2808     288
1179    3400  3475     288
1180    3401  3270     288
1181    3402  3270     288
1182    3403  2826       4
1183    3404  3489     290
1184    3405  3487       1
1185    3486  3279     264
1186    3407  3126     264
1187    3408  3130     265
1188    3494  3517     264
1189    3410  2577     265
1190    4876  2810     290
1191    4879  3285     290
1192    3413  2815       3
1193    3414  2584     270
1194    3415  3139     270
1195    3416  3294     290
1196    3417  3294     290
1197    3418  2811       1
1198    3419  3496       1
1199    3420  2986     271
1200    3421  2817       4
1201    3422  3301       4
1202    4917  3149     289
1203    3424  3499       3
1204    3425  3303     282
1205    3426  4810       3
1206    3427  3514       3
1207    3428  3195       4
1208    3429  4862       1
1209    3430  2813       2
1210    3431  3327       2
1211    3432  3326     287
1212    3433  3315     288
1213    3434  3054     288
1214    3435  2595     190
1215    3436  3254       3
1216    3437  3326     287
1217    3438  3323     287
1218    3439   286     287
1219    3440  3170     282
1220    3441  4878       1
1221    3442  2822       2
1222    4242  3325     283
1223    3444  3175     283
1224    3445  4871       1
1225    3446  3329     273
1226    3447  3331     285
1227    3448  3333       4
1228    3449  3032     289
1229    3450  3512       3
1230    3451  3337     285
1231    3452  3193       2
1232    3453  3343       2
1233    3454   267     268
1234    3455  3030     287
1235    3456  3058     287
1236    3457  3040       3
1237    3458  4870       3
1238    3459  3367       3
1239    3460  3314     288
1240    3461  3402     288
1241    3783  3370     285
1242    3463  3371     284
1243    3464  3249     276
1244    3507  3374     131
1245    3466  3237     131
1246    3467  3376     283
1247    3468  3379     290
1248    3509  3529     130
1249    3470  3385     276
1250    3471  3384     276
1251    3472  3250     276
1252    3473  3100     276
1253    3474    14      15
1254    3475  3271     288
1255    3476  3400     288
1256    3477   287     288
1257    3478  3393     288
1258    3479  3392     288
1259    3480  3392     288
1260    3481  3039       3
1261    3482  2824       3
1262    3483  3394       3
1263    3484  3272     288
1264    3485  4874       3
1265    3486  3811     264
1266    3487  3034       1
1267    3488  3405       1
1268    3489   289     290
1269    3490  3404     290
1270    3491  3133       1
1271    3492  3277     290
1272    3524  3657     264
1273    3670  3409     264
1274    3495  4877       1
1275    3496  3298       1
1276    3497  3419       1
1277    3498  3146     290
1278    3499  3302       3
1279    3500  3424       3
1280    3501     6       7
1281    3502  3300     289
1282    3503  2603     283
1283    3504   166     167
1284    3505  3260     287
1285    3519  2608     285
1286    3507  3642     131
1287    3508  3536     131
1288    3509  3469     130
1289    3510  2857      15
1290    3511  2621      16
1291    3512  3335       3
1292    3513  3450       3
1293    3514  3336       3
1294    3520  3493     264
1295    3516  3406     264
1296    3534  2572     264
1297    3518  2597     282
1298    3519  3506     285
1299    3520  3677     264
1300    3530  3615     264
1301    3522  3517     264
1302    3527  3521     264
1303    3524  3515     264
1304    3525  3522     264
1305    3600  3535     264
1306    3527  3629     264
1307    3528  3525     264
1308    3529  3532     130
1309    3530  3523     264
1310    3531  3528     264
1311    3532  3546     130
1312    3533  3531     264
1313    3534  3533     264
1314    3535  3537     264
1315    3591  3538     131
1316    3537  3539     264
1317    3581  3540     131
1318    3539  3541     264
1319    3540  3571     131
1320    3541  3543     264
1321    3542  3544     131
1322    3543  2572     264
1323    3544  3556     131
1324    3546  3548     130
1325    3548  3549     130
1326    3549   130     130
1327    3556  2572     131
1328    3571  3542     131
1329    3581  3538     131
1330    3591  3536     131
1331    3599  3526     264
1332    3600  3599     264
1333    3615  3526     264
1334    3619  3465     131
1335    3629  3523     264
1336    3642  3465     131
1337    3652  3374     131
1338    3657  3521     264
1339    3658  3380     130
1340    3667  3243     130
1341    3670  3494     264
1342    3677  3515     264
1343    3681  3281     264
1344    3689  3089     130
1345    3696  3702     163
1346    3697  3703      63
1347    3702  2563     163
1348    3703  2563      63
1349    3706  2677     163
1350    3708   106     106
1351    3709  3073     107
1352    3710  3128     264
1353    3720  3493     264
1354    3721  3186     285
1355    3722  3462     285
1356    3736  3744      58
1357    3737  3745     161
1358    3744  2562      58
1359    3745  2562     161
1360    3747  2898     130
1361    3750  2878     107
1362    3764  3246     164
1363    3768  2911     164
1364    3773  2636      54
1365    3774  2863      24
1366    3778  2641      63
1367    3779  2967     264
1368    3783  3462     285
1369    3809  2870      63
1370    3811  3406     264
1371    3812  3114     237
1372    3813  2638      57
1373    3814  2856      16
1374    3816  2978     267
1375    3817  3108     213
1376    3818  2627      25
1377    3820  3094     160
1378    3821  3186     285
1379    3827  2902     163
1380    3832  3090     130
1381    3838  2658     117
1382    3843  2674     161
1383    3844  3937      58
1384    3851  2948     237
1385    3853  2862      23
1386    3867  2639      58
1387    3881  2638      57
1388    3893  2630      30
1389    3912  2658     117
1390    3914  3023     285
1391    3930  3932      59
1392    3932    58      59
1393    3934  3939     161
1394    3937    58      58
1395    3939  2674     161
1396    3942  2731     253
1397    3943  2624      22
1398    3944  3296     270
1399    3947  2627      25
1400    3949  2739     264
1401    3956  2781     282
1402    3957  2617       7
1403    3959  3983     282
1404    3960  3984      11
1405    3964  2580     267
1406    3965  2692     181
1407    4024  3370     285
1408    3979  3956     282
1409    3980  3957       7
1410    3983  2599     282
1411    3984  2599      11
1412    3997  3407     264
1413    3999  3252     276
1414    4001  2699     212
1415    4012  2592     276
1416    4023     6       6
1417    4024  3969     285
1418    4035  2713     230
1419    4037  2686     176
1420    4045   181     181
1421    4046  3169     282
1422    4053  2905     149
1423    4054   243     243
1424    4057  2984     270
1425    4058  2964     260
1426    4059   216     216
1427    4060  2607     285
1428    4061    95      96
1429    4063  2869     285
1430    4065  2607      96
1431    4066  2886      95
1432    4068  2607     285
1433    4070  2800     285
1434    4073  2911     164
1435    4080    12      12
1436    4085  2629      29
1437    4087     9      10
1438    4089  2697     207
1439    4091    56      56
1440    4095  2640      59
1441    4097   252     253
1442    4099  3303     282
1443    4101  2617       7
1444    4102  2564      83
1445    4103  2564     175
1446    4106  3063     285
1447    4115  4087      10
1448    4116  4140     282
1449    4117  4141     208
1450    4122  2909     161
1451    4130  3006     282
1452    4134  2926     182
1453    4140  2596     282
1454    4141  2596     208
1455    4198    59      60
1456    4147  4106     285
1457    4155  2669     148
1458    4156   228     228
1459    4158    21      21
1460    4164  2578     267
1461    4166    87      88
1462    4167    96      96
1463    4168  3408     265
1464    4170  3376     283
1465    4198  4142      60
1466    4199   161     162
1467    4229  2575     265
1468    4230  2575      67
1469    4233  2760     229
1470    4235  2725     244
1471    4236   261     261
1472    4238  2699     212
1473    4239  2746     267
1474    4242  3443     283
1475    4258    84      84
1476    4260    20      20
1477    4266  3004     282
1478    4292   208     208
1479    4307  3126     264
1480    4308   227     228
1481    4310  2579     267
1482    4311  2714     231
1483    4312  2743     265
1484    4314  3178     273
1485    4315  3180     285
1486    4316  2915     267
1487    4318  3167     267
1488    4332   254     254
1489    4337  2616       6
1490    4344     9       9
1491    4352   209     209
1492    4353   213     213
1493    4366  2651      95
1494    4369  4387     282
1495    4376  2644      71
1496    4378   249     249
1497    4379   283     284
1498    4381    18      18
1499    4382  2583     267
1500    4383  4384       8
1501    4384  2583       8
1502    4386  2583     267
1503    4387  2598     282
1504    4391  4369     282
1505    4393  2701     214
1506    4395    62      62
1507    4396   267     267
1508    4397  2759     265
1509    4406    60      61
1510    4408  4530     285
1511    4422   180     180
1512    4427   264     265
1513    4429   264     264
1514    4437    19      19
1515    4441  3130     265
1516    4443   162     162
1517    4450  4383       8
1518    4460  3175     283
1519    4478  2780     267
1520    4479  2691     180
1521    4487  2925     276
1522    4491  2785     283
1523    4493  3239     283
1524    4494  2696     191
1525    4501  3338     285
1526    4502   188     189
1527    4505   158     158
1528    4508   188     188
1529    4510     5       5
1530    4511  2780     267
1531    4515   234     234
1532    4516  2718     235
1533    4527   115     115
1534    4530  3063     285
1535    4536   205     205
1536    4554   282     286
1537    4562  3127     264
1538    4563    89      90
1539    4564  2748     267
1540    4565  2985     270
1541    4566  2772     276
1542    4567  3191     286
1543    4572  3180     285
1544    4574   255     255
1545    4579  3099     276
1546    4608   185     185
1547    4609    81      81
1548    4611  2953     267
1549    4612  3024     285
1550    4624   268     269
1551    4626  2746     267
1552    4640  2756     270
1553    4650  3172     275
1554    4667   149     150
1555    4668  3174     275
1556    4669  3012     275
1557    4671   276     276
1558    4674  2606     284
1559    4675  2773     276
1560    4676  3182     284
1561    4677  2594     276
1562    4678  2771     265
1563    4679  2594     265
1564    4688  4736     285
1565    4691  2971     265
1566    4709   255     256
1567    4711  3160     278
1568    4716  2779     282
1569    4726  3021     285
1570    4732   265     265
1571    4734  4711     278
1572    4736  2866     285
1573    4753  3297     271
1574    4754  3064     284
1575    4756  2764     275
1576    4757  3397     288
1577    4758  3426       3
1578    4759   289     289
1579    4765  2969     264
1580    4769  2594     276
1581    4774  2793     273
1582    4776  2777     282
1583    4801  2810     290
1584    4802  3346       1
1585    4805  3140     269
1586    4806  2965     264
1587    4807    73      73
1588    4809  3150     288
1589    4810  3194       3
1590    4811   271     271
1591    4813  2809     289
1592    4814  3200       4
1593    4816   123     123
1594    4817   122     122
1595    4818  3458       3
1596    4819  2808     288
1597    4820  2795     276
1598    4821  3227       2
1599    4822  2807     287
1600    4823  3399     288
1601    4824  3485       3
1602    4825  2830     290
1603    4826  3345       1
1604    4827  3035       4
1605    4828  2834     289
1606    4829  3321       1
1607    4830  2838     290
1608    4831  3036       1
1609    4832  2847     290
1610    4833  3198       1
1611    4834  3047     290
1612    4835  3197       1
1613    4836  3048     290
1614    4838  3349     288
1615    4839  3219       3
1616    4840  3055     288
1617    4841  3365       3
1618    4842  3441       1
1619    4843  3135     290
1620    4844  3332       4
1621    4845  3148     289
1622    4846  3152     287
1623    4847  3340       2
1624    4848  3000     278
1625    4849  2839     290
1626    4850  3344       1
1627    4851  3213     287
1628    4852  3060       2
1629    4853  3222     288
1630    4854  3350       3
1631    4855  3259     287
1632    4856  2613       2
1633    4857  3275     289
1634    4858  2615       4
1635    4859  3285     290
1636    4860  3495       1
1637    4861  3375     290
1638    4862  3196       1
1639    4863  3318     288
1640    4864  3056       3
1641    4865  3287     290
1642    4866  3429       1
1643    4867  3221     288
1644    4868  3351       3
1645    4869  3366     288
1646    4870  3220       3
1647    4871  3330       1
1648    4872  3377     290
1649    4874  2614       3
1650    4875  3399     288
1651    4876  3411     290
1652    4877  2612       1
1653    4878  3322       1
1654    4879  3412     290
1655    4886  3155     280
1656    4902  3218     287
1657    4905  4886     280
1658    4917  3423     289
1659    4922  2888     284
1660    4923  2753     269
1661    4924  3116     269
1662    4925   285     285
1663    4942  3026     286
1664    4944  3019     284
1665    4949  2795     276
1666    4951  3065     284
1667    4953  3141     269
1668    4954  2796     284
1669    4955  3081     284
1670    4956  2888     284
1671    4962  2806     286
1672    4963   269     270
1673    4964  2737     264
1674    4965  2947     270
1675    4966  2945     271
1676    4968  2605     273
1677    4969  2797     284
1678    4970   284     284
1679    4971  2994     280
1680    4972  3183     284
1681    4975   269     275
1682    4976  2602     275
1683    4977  3013     283
0
9
   0   3350.4752217016103  1510.7847803161792  0  2500
   1   1649.9851737594738  2545.2030385999128  0  2500
   2   2154.7517954968307  1727.1363222691466  0  3000
   3   3898.151289523254  1417.9359638971368  0  3000
   4   2477.3843807387311  1499.8567805982807  0  5500
   5   1275  3284.4771086481642  0  5500
   6   3468.0713771318824  2358.7463216549768  0  5500
   7   1999.96  2169.9492168063407  0  10000
   8   485.29460682628036  1879.0802055258553  0  20000
# Generated by C:\Users\lukem\Python\PATH\modflow_exe\triangle.exe -a -q30 -A -p -V -D -e -n _triangle.0
