230 2 0 0
0 1212297.9599487258 666145.8548231823
1 1213192.5725487971 666957.7721408935
2 1214302.140344002 666876.5842534396
3 1215232.2033177107 666681.4371116346
4 1216029.625625013 666595.1409222948
5 1216447.8755230557 666508.3343396821
6 1216866.9409943856 666335.9562811094
7 1217285.617746147 666215.1540991196
8 1217868.4372775664 666258.770893876
9 1218135.5261180159 666411.6348745698
10 1218403.6551706293 666496.4858405868
11 1219169.6135590721 666401.7281018102
12 1219907.0668257237 666253.2463753066
13 1220513.1250435412 666281.6423774577
14 1220814.676813606 666315.6027782616
15 1220884.646300735 666353.9449158752
16 1220924.1334336633 666399.1413857144
17 1221170.5807366865 667268.5576629408
18 1223369.6191361242 667840.148871459
19 1232319.1234413993 668137.3648815972
20 1234125.4232001011 661686.876804252
21 1233607.6179679546 660157.3598108348
22 1232909.6930689611 659196.6867145739
23 1232872.8085087705 659101.974584622
24 1232880.2341610375 659020.6764945147
25 1233723.9847160254 656260.0557466442
26 1233130.405798358 655096.6410680176
27 1232512.2950930193 653964.102743396
28 1231274.1842577294 653424.7689140778
29 1230343.048091286 652451.6090986951
30 1229392.487739666 651346.237829654
31 1229361.3846900635 651278.1374164651
32 1229357.50268722 651203.3711404777
33 1229575.2972953955 649616.5818523421
34 1227966.8349562723 648657.0101879264
35 1227909.2806380074 648605.2249698163
36 1227869.6491548114 648497.0403613774
37 1227809.7699856497 647482.8369336877
38 1226187.836356484 646832.5336115028
39 1224292.1415029378 645434.8362678395
40 1222731.3607285765 644638.7596417207
41 1219755.6282276574 646482.4199955508
42 1218439.515300844 648056.5890102821
43 1216418.4304297066 649305.1255448142
44 1214862.8909170276 651075.792862438
45 1212662.5730260056 654272.4811192062
46 1211829.6538064466 658970.1455175172
47 1211662.6758805872 660990.5784204258
48 1211662.6758805863 663718.743896188
49 1217050.101468153 658622.4488475476
50 1217012.831625202 658637.5068415268
51 1216996.3397448708 658673.1865153259
52 1216986.2202256443 658855.2544188928
53 1217027.6774804634 658935.6722264271
54 1217408.5364947135 658968.9926770858
55 1217454.1216777922 658948.4382729095
56 1217463.0548349281 658898.5306495507
57 1217391.373680378 658753.9661886431
58 1217284.4873528066 658646.9156242332
59 1216427.5746631324 662745.5125528872
60 1216683.1866847277 662515.410650894
61 1216885.658392638 662496.256161645
62 1217003.8323688954 662434.7933580577
63 1217215.1754501313 662224.2245534807
64 1217369.7056528926 662163.4051213115
65 1217479.0771533102 662054.8311914802
66 1217550.3033888042 662057.0536279827
67 1217837.8677743077 661911.7763594687
68 1217889.03663522 661818.4642101377
69 1217867.3933058083 661762.0574988127
70 1217754.1838865578 661707.9709928036
71 1217565.1839364767 661749.9905938059
72 1217163.370763719 661948.4439370632
73 1216937.1530403048 662153.9087492228
74 1216722.5182989687 662289.9619548023
75 1216517.869758144 662299.9980239719
76 1216208.2509548068 662554.6572915614
77 1216201.7348917276 662628.743429482
78 1216283.5567960835 662744.4674892233
79 1216037.1678347788 663026.8686416436
80 1215977.1949826956 663044.8894343358
81 1215833.606567586 663193.5078869152
82 1215692.6180747377 663281.2815440195
83 1215602.1465623914 663309.2555008925
84 1215328.0828683688 663287.7673576473
85 1215284.4092062446 663320.0735693369
86 1215089.4379876677 663339.953810079
87 1214854.2102833246 663279.026169957
88 1214451.2700528703 663358.4781134295
89 1214327.5899276708 663446.6096064434
90 1214190.5937135986 663473.4699234157
91 1213827.3778076808 663632.0114686533
92 1213445.008493878 663870.9828951721
93 1213245.0301693573 663902.8386747307
94 1213069.6201756434 663988.7374625729
95 1212995.3254762555 664045.2614526763
96 1212873.23498033 664246.0189393105
97 1212819.724191214 664262.588395628
98 1212651.7403299503 664251.6117179639
99 1212449.9110038567 664070.5495968263
100 1212292.3574138905 663985.3631529412
101 1212182.5631649245 663970.3281385367
102 1212121.4540419835 664009.5391364507
103 1212085.709280585 664134.9249069559
104 1212028.6207957675 664201.3267059231
105 1211697.7878323717 664485.8238693636
106 1211667.3644505711 664619.0759530591
107 1211743.2330725868 664746.6080202536
108 1211789.5141175017 664749.9001857709
109 1211796.600745611 664688.1576573481
110 1211731.2921397102 664598.364331797
111 1211735.0489003719 664548.4689170981
112 1212078.6422232795 664244.1509789252
113 1212143.7881153275 664165.6342069507
114 1212182.1082864264 664042.5108549818
115 1212268.426384061 664046.5326359202
116 1212421.7225962766 664130.5214257671
117 1212626.0658470166 664312.494361905
118 1212704.7339158787 664339.1754404596
119 1212850.9126209102 664322.8422848997
120 1212919.4074062756 664293.4102224292
121 1213047.9683635836 664084.6547748263
122 1213101.1941648473 664046.2777752778
123 1213266.075148734 663965.0768778544
124 1213473.2416062155 663930.2280254621
125 1213857.3634692738 663690.8783483767
126 1214214.3089280538 663534.7404416386
127 1214356.7894563153 663505.4980740644
128 1214472.8384758928 663421.0102875885
129 1214855.3544962916 663344.7022011657
130 1215089.6531646738 663405.6878969957
131 1215348.7300194276 663358.7630246675
132 1215604.9565493485 663375.4920110671
133 1215701.190279031 663349.3784464846
134 1215874.988088633 663244.4925048833
135 1216012.4164279695 663101.2917067547
136 1216075.6651188473 663083.5978224719
137 1216272.85968383 662830.5498950551
138 1217066.279506858 658894.2179612643
139 1217062.4191048448 658890.2203979562
140 1217058.279506858 658894.2179612643
141 1217062.1399088711 658898.2155245724
142 1217166.101636995 658900.1797005346
143 1217162.241234982 658896.1821372265
144 1217158.101636995 658900.1797005346
145 1217161.9620390083 658904.1772638427
146 1217265.923767131 658906.1414398047
147 1217262.0633651179 658902.1438764966
148 1217257.923767131 658906.1414398047
149 1217261.7841691442 658910.1390031128
150 1217365.745897267 658912.1031790748
151 1217361.8854952538 658908.1056157667
152 1217357.745897267 658912.1031790748
153 1217361.6062992802 658916.1007423829
154 1217343.373783096 658867.356521139
155 1217339.5133810828 658863.3589578309
156 1217335.373783096 658867.356521139
157 1217339.2341851091 658871.3540844471
158 1217271.090603857 658819.6289935682
159 1217267.230201844 658815.6314302601
160 1217263.090603857 658819.6289935682
161 1217266.9510058702 658823.6265568763
162 1217370.912733993 658825.5907328381
163 1217367.0523319799 658821.59316953
164 1217362.912733993 658825.5907328381
165 1217366.7731360062 658829.5882961462
166 1217348.540619822 658780.8440749025
167 1217344.6802178088 658776.8465115944
168 1217340.540619822 658780.8440749025
169 1217344.4010218352 658784.8416382106
170 1217253.885326412 658688.369889396
171 1217250.0249243989 658684.3723260879
172 1217245.885326412 658688.369889396
173 1217249.7457284252 658692.3674527041
174 1217248.718489686 658774.8823356325
175 1217244.8580876729 658770.8847723244
176 1217240.718489686 658774.8823356325
177 1217244.5788916992 658778.8798989406
178 1217154.063196276 658682.4081501259
179 1217150.202794263 658678.4105868178
180 1217146.063196276 658682.4081501259
181 1217149.9235982893 658686.405713434
182 1217049.074229414 658762.9588570923
183 1217045.213827401 658758.9612937842
184 1217041.074229414 658762.9588570923
185 1217044.9346314273 658766.9564204004
186 1217071.446343585 658807.705515028
187 1217067.5859415717 658803.7079517199
188 1217063.446343585 658807.705515028
189 1217067.306745598 658811.7030783361
190 1217171.268473721 658813.6672542983
191 1217167.408071708 658809.6696909902
192 1217163.268473721 658813.6672542983
193 1217167.1288757343 658817.6648176064
194 1217243.55165296 658861.3947818689
195 1217239.6912509468 658857.3972185608
196 1217235.55165296 658861.3947818689
197 1217239.4120549732 658865.392345177
198 1217143.729522824 658855.4330425987
199 1217139.8691208109 658851.4354792906
200 1217135.729522824 658855.4330425987
201 1217139.5899248372 658859.4306059068
202 1217148.89635955 658768.9205963622
203 1217145.035957537 658764.9230330541
204 1217140.89635955 658768.9205963622
205 1217144.7567615632 658772.9181596703
206 1217043.907392688 658849.4713033288
207 1217040.046990675 658845.4737400207
208 1217035.907392688 658849.4713033288
209 1217039.7677947013 658853.4688666369
210 1217054.24106614 658676.4464108557
211 1217050.3806641267 658672.4488475476
212 1217046.24106614 658676.4464108557
213 1217050.101468153 658680.4439741638
214 1217076.613180311 658721.1930687915
215 1217072.7527782978 658717.1955054834
216 1217068.613180311 658721.1930687915
217 1217072.473582324 658725.1906320996
218 1217176.435310447 658727.1548080615
219 1217172.5749084337 658723.1572447534
220 1217168.435310447 658727.1548080615
221 1217172.29571246 658731.1523713697
222 1217276.257440583 658733.1165473317
223 1217272.39703857 658729.1189840236
224 1217268.257440583 658733.1165473317
225 1217272.1178425963 658737.1141106398
226 1217415.656962335 658915.0840487097
227 1217411.796560322 658911.0864854016
228 1217407.656962335 658915.0840487097
229 1217411.5173643483 658919.0816120178
