0 0 0 0
230 1
0 0 1 1
1 1 2 2
2 2 3 3
3 3 4 4
4 4 5 5
5 5 6 6
6 6 7 7
7 7 8 8
8 8 9 9
9 9 10 10
10 10 11 11
11 11 12 12
12 12 13 13
13 13 14 14
14 14 15 15
15 15 16 16
16 16 17 17
17 17 18 18
18 18 19 19
19 19 20 20
20 20 21 21
21 21 22 22
22 22 23 23
23 23 24 24
24 24 25 25
25 25 26 26
26 26 27 27
27 27 28 28
28 28 29 29
29 29 30 30
30 30 31 31
31 31 32 32
32 32 33 33
33 33 34 34
34 34 35 35
35 35 36 36
36 36 37 37
37 37 38 38
38 38 39 39
39 39 40 40
40 40 41 41
41 41 42 42
42 42 43 43
43 43 44 44
44 44 45 45
45 45 46 46
46 46 47 47
47 47 48 48
48 48 0 49
49 49 50 50
50 50 51 51
51 51 52 52
52 52 53 53
53 53 54 54
54 54 55 55
55 55 56 56
56 56 57 57
57 57 58 58
58 58 49 59
59 59 60 60
60 60 61 61
61 61 62 62
62 62 63 63
63 63 64 64
64 64 65 65
65 65 66 66
66 66 67 67
67 67 68 68
68 68 69 69
69 69 70 70
70 70 71 71
71 71 72 72
72 72 73 73
73 73 74 74
74 74 75 75
75 75 76 76
76 76 77 77
77 77 78 78
78 78 79 79
79 79 80 80
80 80 81 81
81 81 82 82
82 82 83 83
83 83 84 84
84 84 85 85
85 85 86 86
86 86 87 87
87 87 88 88
88 88 89 89
89 89 90 90
90 90 91 91
91 91 92 92
92 92 93 93
93 93 94 94
94 94 95 95
95 95 96 96
96 96 97 97
97 97 98 98
98 98 99 99
99 99 100 100
100 100 101 101
101 101 102 102
102 102 103 103
103 103 104 104
104 104 105 105
105 105 106 106
106 106 107 107
107 107 108 108
108 108 109 109
109 109 110 110
110 110 111 111
111 111 112 112
112 112 113 113
113 113 114 114
114 114 115 115
115 115 116 116
116 116 117 117
117 117 118 118
118 118 119 119
119 119 120 120
120 120 121 121
121 121 122 122
122 122 123 123
123 123 124 124
124 124 125 125
125 125 126 126
126 126 127 127
127 127 128 128
128 128 129 129
129 129 130 130
130 130 131 131
131 131 132 132
132 132 133 133
133 133 134 134
134 134 135 135
135 135 136 136
136 136 137 137
137 137 59 138
138 138 139 139
139 139 140 140
140 140 141 141
141 141 138 142
142 142 143 143
143 143 144 144
144 144 145 145
145 145 142 146
146 146 147 147
147 147 148 148
148 148 149 149
149 149 146 150
150 150 151 151
151 151 152 152
152 152 153 153
153 153 150 154
154 154 155 155
155 155 156 156
156 156 157 157
157 157 154 158
158 158 159 159
159 159 160 160
160 160 161 161
161 161 158 162
162 162 163 163
163 163 164 164
164 164 165 165
165 165 162 166
166 166 167 167
167 167 168 168
168 168 169 169
169 169 166 170
170 170 171 171
171 171 172 172
172 172 173 173
173 173 170 174
174 174 175 175
175 175 176 176
176 176 177 177
177 177 174 178
178 178 179 179
179 179 180 180
180 180 181 181
181 181 178 182
182 182 183 183
183 183 184 184
184 184 185 185
185 185 182 186
186 186 187 187
187 187 188 188
188 188 189 189
189 189 186 190
190 190 191 191
191 191 192 192
192 192 193 193
193 193 190 194
194 194 195 195
195 195 196 196
196 196 197 197
197 197 194 198
198 198 199 199
199 199 200 200
200 200 201 201
201 201 198 202
202 202 203 203
203 203 204 204
204 204 205 205
205 205 202 206
206 206 207 207
207 207 208 208
208 208 209 209
209 209 206 210
210 210 211 211
211 211 212 212
212 212 213 213
213 213 210 214
214 214 215 215
215 215 216 216
216 216 217 217
217 217 214 218
218 218 219 219
219 219 220 220
220 220 221 221
221 221 218 222
222 222 223 223
223 223 224 224
224 224 225 225
225 225 222 226
226 226 227 227
227 227 228 228
228 228 229 229
229 229 226 230
0
26
0 1222689.8707616315 657615.1006320807 0 40000
1 1217202.760122437 658804.610303768 0 50
2 1215846.055872797 663219.0001958993 0 1000
3 1217062.2097078646 658896.2167429184 0 0.2
4 1217162.0318380017 658902.1784821886 0 0.2
5 1217261.8539681376 658908.1402214587 0 0.2
6 1217361.6760982736 658914.1019607289 0 0.2
7 1217339.3039841026 658869.3553027931 0 0.2
8 1217267.0208048637 658821.6277752223 0 0.2
9 1217366.8429349996 658827.5895144922 0 0.2
10 1217344.4708208286 658782.8428565565 0 0.2
11 1217249.8155274186 658690.3686710501 0 0.2
12 1217244.6486906926 658776.8811172865 0 0.2
13 1217149.9933972827 658684.4069317799 0 0.2
14 1217045.0044304207 658764.9576387464 0 0.2
15 1217067.3765445915 658809.704296682 0 0.2
16 1217167.1986747277 658815.6660359524 0 0.2
17 1217239.4818539666 658863.393563523 0 0.2
18 1217139.6597238306 658857.4318242527 0 0.2
19 1217144.8265605567 658770.9193780163 0 0.2
20 1217039.8375936947 658851.4700849828 0 0.2
21 1217050.1712671465 658678.4451925098 0 0.2
22 1217072.5433813175 658723.1918504456 0 0.2
23 1217172.3655114535 658729.1535897156 0 0.2
24 1217272.1876415897 658735.1153289857 0 0.2
25 1217411.5871633417 658917.0828303638 0 0.2
