0  2  0  1
1857  1
   0       0  11869       1
   1    11881     1       2
   2    18418     2       3
   3       3  12512       4
   4    11443     4       5
   5    11441     5       6
   6    11205     6       7
   7    11198     7       8
   8       8     9       9
   9      10     9      10
  10      10  11195      11
  11    11452    11      12
  12    11223    12      13
  13      14    13      14
  14      14    15      15
  15      15    16      16
  16      16  10815      17
  17      17  11505      18
  18      18  12982      19
  19      19  18234      20
  20      20  12607      21
  21    11566    21      22
  22      22    23      23
  23      23    24      24
  24      24  10958      25
  25      25  17955      26
  26      26  17563      27
  27    18689    27      28
  28      28  16242      29
  29      29  18687      30
  30      30    31      31
  31      31    32      32
  32    10947    32      33
  33      33  11844      34
  34      34    35      35
  35      35    36      36
  36    11004    36      37
  37      37  11587      38
  38      38  15074      39
  39      39  15852      40
  40      40  18203      41
  41    18142    41      42
  42      42  18759      43
  43      43  18312      44
  44      44  18816      45
  45      45  15959      46
  46      46  12144      47
  47      47  11928      48
  48      48  10856      49
  49      49  8779      50
  50      50  8231      51
  51      51  8464      52
  52      52  8596      53
  53    7940    53      54
  54      54  8356      55
  55      55  8717      56
  56    8109  8747      57
  57      57  7506      58
  58    8888    58      59
  59    9165    59      60
  60    9364    60      61
  61    9447    61      62
  62    9492    62      63
  63      63  9627      64
  64    9639    64      65
  65      66  9643      66
  66    9659  9697      67
  67    9766    67      68
  68    9775    68      69
  69      69  9776      70
  70      70  9836      71
  71      71  9744      72
  72    9511    73      73
  73    9414  9503      74
  74    9440  9592      75
  75      75  9432      76
  76    9191    76      77
  77    9095    78      78
  78      78  9093      79
  79      79  9114      80
  80    9123    80      81
  81    9154    81      82
  82      82  10032      83
  83    9290  10049      84
  84      85    84      85
  85    9263    85      86
  86    9912    86      87
  87      87  9941      88
  88    10005    88      89
  89      89  10466      90
  90    10487    90      91
  91      91  10641      92
  92    10539    92      93
  93    10522    93      94
  94      94  10314      95
  95    10091    95      96
  96      96    97      97
  97      97  10399      98
  98      98  10344      99
  99      99  10391     100
 100    10281   100     101
 101     101  10240     102
 102    10266  10223     103
 103    10211   103     104
 104     231  10224      49
 105     104  10207     105
 106     230  10228     105
 107     243   105     106
 108     106  10333     107
 109     108   107     108
 110     108   109     109
 111     109  10334     110
 112     111   110     111
 113    10225   230      49
 114     111  10200     112
 115     231  10188     112
 116     112  10210     113
 117     114  10247     114
 118     114  10245     115
 119     115  10286     116
 120     116  10370     117
 121     117  10338     118
 122    9882  10408     119
 123    9865   119     120
 124    9875   120     121
 125     121  10315     122
 126     122  10322     123
 127     123  10526     124
 128    10546  10612     125
 129     125  10672     126
 130     126  10473     127
 131     127  10460     128
 132     128  9987     129
 133     129  9932     130
 134    9893   130     131
 135     131  9276     132
 136    10035   132     133
 137    10059   133     134
 138     134  9143     135
 139    9113   135     136
 140    9090   136     137
 141     249  9092     138
 142    1585   138     139
 143     139  1611     140
 144    1574   140     141
 145    1440   141     142
 146     142  5588     143
 147    5615   143     144
 148    5577   144     145
 149     145  5443     146
 150    6160   146     147
 151     147  6186     148
 152     148  6149     149
 153    6015   149     150
 154     150  6440     151
 155    6467   151     152
 156     152  6429     153
 157     153  6295     154
 158    5869   154     155
 159     155  5735     156
 160    5880   156     157
 161    5906   157     158
 162    4152   158     159
 163     159  4018     160
 164    4163   160     161
 165    4189   161     162
 166    5004   162     163
 167     163  5030     164
 168     164  4993     165
 169    4859   165     166
 170    4723   166     167
 171     167  4749     168
 172    4712   168     169
 173    4578   169     170
 174     170  3287     171
 175    3314   171     172
 176     172  3276     173
 177    3142   173     174
 178    3860   174     175
 179    3726   175     176
 180     176  3871     177
 181     177  3898     178
 182    2448   178     179
 183     179  2474     180
 184    2437   180     181
 185     181  2303     182
 186     182   696     183
 187     562   183     184
 188     707   184     185
 189     734   185     186
 190    1865   186     187
 191    1731   187     188
 192     188  1876     189
 193     189  1903     190
 194    3568   190     191
 195    3434   191     192
 196     192  3579     193
 197    3606   193     194
 198     194  5285     195
 199     195  5151     196
 200     196  5296     197
 201    5323   197     198
 202     198  2168     199
 203    2194   199     200
 204     200  2157     201
 205    2023   201     202
 206     202  3007     203
 207     203  3033     204
 208     204  2996     205
 209     205  2862     206
 210    1291   206     207
 211    1318   207     208
 212    1280   208     209
 213     209  1146     210
 214     416   210     211
 215     211   282     212
 216     427   212     213
 217     213   453     214
 218     988   214     215
 219     215   854     216
 220     216   999     217
 221    1026   217     218
 222    2719   218     219
 223     219  2585     220
 224     220  2730     221
 225    2756   221     222
 226     222  4432     223
 227     223  4298     224
 228     224  4443     225
 229    4469   225     226
 230     226  6732     227
 231     227  6598     228
 232     228  6743     229
 233    6770   229     230
 234     232  10163      49
 235     233  8151      52
 236     234  7878      54
 237     235  8625      57
 238     236  7769      58
 239     237  7566      59
 240     238  9060      79
 241     239  9283      84
 242     240  9983      88
 243     241  10361      99
 244     242  10233     105
 245     243   106     106
 246     244  10174     112
 247     245  10350     117
 248     246  9262     131
 249     247  9152     134
 250     248  9065     137
 251     249  9105     138
 252     250  8573      54
 253     251  7721      54
 254     252  9063     137
 255     253  9064      79
 256     254  7729      59
 257     255  10047     132
 258     256  9952     129
 259     257  9271     131
 260     258  10164     105
 261     259  9889      86
 262    10056    82      82
 263     261  9079      79
 264     262  8299      54
 265     263  7847      54
 266     264  8049      54
 267    9963  9981     129
 268     266  9955      88
 269     267  10206     112
 270     268  9897      86
 271     269  9892     131
 272     270  9075      79
 273     271  9074     137
 274     272  9989      88
 275    9132    79      79
 276     274   312     212
 277     275   400     214
 278     276   296     211
 279     278   287     211
 280     279   302     212
 281     282   279     212
 282     287   211     211
 283     296   278     211
 284     302   274     212
 285     309   469     212
 286     310   331     212
 287     312   310     212
 288     316   455     211
 289     322   325     211
 290     325   276     211
 291     330   433     213
 292     331   309     212
 293     337   442     212
 294     371   387     213
 295     384   414     214
 296     387   330     213
 297     390   392     214
 298     392   401     214
 299     395   454     213
 300     400   384     214
 301     401   275     214
 302     414   210     214
 303     416   420     211
 304     420   316     211
 305     427   371     213
 306     433   395     213
 307     442   212     212
 308     453   390     214
 309     454   213     213
 310     455   322     211
 311     469   337     212
 312     554   591     184
 313     555   680     186
 314     556   576     183
 315     558   567     183
 316     559   582     184
 317     562   559     184
 318     567   183     183
 319     576   558     183
 320     582   554     184
 321     588   755     184
 322     589   610     184
 323     591   589     184
 324     602   608     183
 325     736   599     183
 326     608   556     183
 327     609   713     185
 328     610   588     184
 329     616   723     184
 330     651   667     185
 331     664   694     186
 332     667   609     185
 333     670   672     186
 334     672   681     186
 335     675   735     185
 336     680   664     186
 337     681   555     186
 338     694   182     186
 339     696   700     183
 340     700   599     183
 341     707   651     185
 342     713   675     185
 343     723   184     184
 344     734   670     186
 345     735   185     185
 346     736   602     183
 347     755   616     184
 348     846   883     216
 349     847   972     218
 350     848   868     215
 351     850   859     215
 352     851   874     216
 353     854   851     216
 354     859   215     215
 355     868   850     215
 356     874   846     216
 357     880  1047     216
 358     881   902     216
 359     883   881     216
 360     894   900     215
 361    1028   891     215
 362     900   848     215
 363     901  1005     217
 364     902   880     216
 365     908  1015     216
 366     943   959     217
 367     956   986     218
 368     959   901     217
 369     962   964     218
 370     964   973     218
 371     967  1027     217
 372     972   956     218
 373     973   847     218
 374     986   214     218
 375     988   992     215
 376     992   891     215
 377     999   943     217
 378    1005   967     217
 379    1015   216     216
 380    1026   962     218
 381    1027   217     217
 382    1028   894     215
 383    1047   908     216
 384    1138  1175     210
 385    1139  1264     208
 386    1140  1160     209
 387    1142  1151     209
 388    1143  1166     210
 389    1146  1143     210
 390    1151   209     209
 391    1160  1142     209
 392    1166  1138     210
 393    1172  1339     210
 394    1173  1194     210
 395    1175  1173     210
 396    1186  1192     209
 397    1320  1183     209
 398    1192  1140     209
 399    1193  1297     207
 400    1194  1172     210
 401    1200  1307     210
 402    1235  1251     207
 403    1248  1278     208
 404    1251  1193     207
 405    1254  1256     208
 406    1256  1265     208
 407    1259  1319     207
 408    1264  1248     208
 409    1265  1139     208
 410    1278   208     208
 411    1280  1284     209
 412    1284  1183     209
 413    1291  1235     207
 414    1297  1259     207
 415    1307   206     210
 416    1318  1254     208
 417    1319   207     207
 418    1320  1186     209
 419    1339  1200     210
 420    1402  8506      53
 421    1428  8537      52
 422    1432  1469     142
 423    1433  1558     140
 424    1434  1454     141
 425    1436  1445     141
 426    1437  1460     142
 427    1440  1437     142
 428    1445   141     141
 429    1454  1436     141
 430    1460  1432     142
 431    1466  1635     142
 432    1467  1488     142
 433    1469  1467     142
 434    1480  1486     141
 435    1613  1477     141
 436    1486  1434     141
 437    1487  1591     139
 438    1488  1466     142
 439    1494  1601     142
 440    1529  1545     139
 441    1542  1572     140
 442    1545  1487     139
 443    1548  1550     140
 444    1550  1559     140
 445    1553  1612     139
 446    1558  1542     140
 447    1559  1433     140
 448    1572   140     140
 449    1574  1578     141
 450    1578  1477     141
 451    1585  1529     139
 452    1591  1553     139
 453    1601   138     142
 454    1611  1548     140
 455    1612   139     139
 456    1613  1480     141
 457    1635  1494     142
 458    1723  1760     188
 459    1724  1849     190
 460    1725  1745     187
 461    1727  1736     187
 462    1728  1751     188
 463    1731  1728     188
 464    1736   187     187
 465    1745  1727     187
 466    1751  1723     188
 467    1757  1924     188
 468    1758  1779     188
 469    1760  1758     188
 470    1771  1777     187
 471    1905  1768     187
 472    1777  1725     187
 473    1778  1882     189
 474    1779  1757     188
 475    1785  1892     188
 476    1820  1836     189
 477    1833  1863     190
 478    1836  1778     189
 479    1839  1841     190
 480    1841  1850     190
 481    1844  1904     189
 482    1849  1833     190
 483    1850  1724     190
 484    1863   186     190
 485    1865  1869     187
 486    1869  1768     187
 487    1876  1820     189
 488    1882  1844     189
 489    1892   188     188
 490    1903  1839     190
 491    1904   189     189
 492    1905  1771     187
 493    1924  1785     188
 494    2015  2053     202
 495    2016  2141     200
 496    2017  2037     201
 497    2019  2028     201
 498    2020  2043     202
 499    2023  2020     202
 500    2028   201     201
 501    2037  2019     201
 502    2043  2015     202
 503    2050  2210     202
 504    2051  2072     202
 505    2053  2051     202
 506    2057  2196     201
 507    2063  2066     201
 508    2066  2017     201
 509    2071  2174     199
 510    2072  2050     202
 511    2078  2183     202
 512    2112  2128     199
 513    2125  2155     200
 514    2128  2071     199
 515    2131  2133     200
 516    2133  2142     200
 517    2136  2195     199
 518    2141  2125     200
 519    2142  2016     200
 520    2155   200     200
 521    2157  2161     201
 522    2161  2057     201
 523    2168  2112     199
 524    2174  2136     199
 525    2183   198     202
 526    2194  2131     200
 527    2195   199     199
 528    2196  2063     201
 529    2210  2078     202
 530    2295  2333     182
 531    2296  2421     180
 532    2297  2317     181
 533    2299  2308     181
 534    2300  2323     182
 535    2303  2300     182
 536    2308   181     181
 537    2317  2299     181
 538    2323  2295     182
 539    2330  2490     182
 540    2331  2352     182
 541    2333  2331     182
 542    2337  2476     181
 543    2343  2346     181
 544    2346  2297     181
 545    2351  2454     179
 546    2352  2330     182
 547    2358  2463     182
 548    2392  2408     179
 549    2405  2435     180
 550    2408  2351     179
 551    2411  2413     180
 552    2413  2422     180
 553    2416  2475     179
 554    2421  2405     180
 555    2422  2296     180
 556    2435   180     180
 557    2437  2441     181
 558    2441  2337     181
 559    2448  2392     179
 560    2454  2416     179
 561    2463   178     182
 562    2474  2411     180
 563    2475   179     179
 564    2476  2343     181
 565    2490  2358     182
 566    2554  8652      59
 567    2577  2615     220
 568    2578  2703     222
 569    2579  2599     219
 570    2581  2590     219
 571    2582  2605     220
 572    2585  2582     220
 573    2590   219     219
 574    2599  2581     219
 575    2605  2577     220
 576    2612  2772     220
 577    2613  2634     220
 578    2615  2613     220
 579    2619  2758     219
 580    2625  2628     219
 581    2628  2579     219
 582    2633  2736     221
 583    2634  2612     220
 584    2640  2745     220
 585    2674  2690     221
 586    2687  2717     222
 587    2690  2633     221
 588    2693  2695     222
 589    2695  2704     222
 590    2698  2757     221
 591    2703  2687     222
 592    2704  2578     222
 593    2717   218     222
 594    2719  2723     219
 595    2723  2619     219
 596    2730  2674     221
 597    2736  2698     221
 598    2745   220     220
 599    2756  2693     222
 600    2757   221     221
 601    2758  2625     219
 602    2772  2640     220
 603    2854  2892     206
 604    2855  2980     204
 605    2856  2876     205
 606    2858  2867     205
 607    2859  2882     206
 608    2862  2859     206
 609    2867   205     205
 610    2876  2858     205
 611    2882  2854     206
 612    2889  3049     206
 613    2890  2911     206
 614    2892  2890     206
 615    2896  3035     205
 616    2902  2905     205
 617    2905  2856     205
 618    2910  3013     203
 619    2911  2889     206
 620    2917  3022     206
 621    2951  2967     203
 622    2964  2994     204
 623    2967  2910     203
 624    2970  2972     204
 625    2972  2981     204
 626    2975  3034     203
 627    2980  2964     204
 628    2981  2855     204
 629    2994   204     204
 630    2996  3000     205
 631    3000  2896     205
 632    3007  2951     203
 633    3013  2975     203
 634    3022   202     206
 635    3033  2970     204
 636    3034   203     203
 637    3035  2902     205
 638    3049  2917     206
 639    3134  3171     174
 640    3135  3260     172
 641    3136  3156     173
 642    3138  3147     173
 643    3139  3162     174
 644    3142  3139     174
 645    3147   173     173
 646    3156  3138     173
 647    3162  3134     174
 648    3168  3335     174
 649    3169  3190     174
 650    3171  3169     174
 651    3182  3188     173
 652    3316  3179     173
 653    3188  3136     173
 654    3189  3293     171
 655    3190  3168     174
 656    3196  3303     174
 657    3231  3247     171
 658    3244  3274     172
 659    3247  3189     171
 660    3250  3252     172
 661    3252  3261     172
 662    3255  3315     171
 663    3260  3244     172
 664    3261  3135     172
 665    3274   172     172
 666    3276  3280     173
 667    3280  3179     173
 668    3287  3231     171
 669    3293  3255     171
 670    3303   170     174
 671    3314  3250     172
 672    3315   171     171
 673    3316  3182     173
 674    3335  3196     174
 675    3426  3463     192
 676    3427  3552     194
 677    3428  3448     191
 678    3430  3439     191
 679    3431  3454     192
 680    3434  3431     192
 681    3439   191     191
 682    3448  3430     191
 683    3454  3426     192
 684    3460  3627     192
 685    3461  3482     192
 686    3463  3461     192
 687    3474  3480     191
 688    3608  3471     191
 689    3480  3428     191
 690    3481  3585     193
 691    3482  3460     192
 692    3488  3595     192
 693    3523  3539     193
 694    3536  3566     194
 695    3539  3481     193
 696    3542  3544     194
 697    3544  3553     194
 698    3547  3607     193
 699    3552  3536     194
 700    3553  3427     194
 701    3566   190     194
 702    3568  3572     191
 703    3572  3471     191
 704    3579  3523     193
 705    3585  3547     193
 706    3595   192     192
 707    3606  3542     194
 708    3607   193     193
 709    3608  3474     191
 710    3627  3488     192
 711    3718  3755     176
 712    3719  3844     178
 713    3720  3740     175
 714    3722  3731     175
 715    3723  3746     176
 716    3726  3723     176
 717    3731   175     175
 718    3740  3722     175
 719    3746  3718     176
 720    3752  3919     176
 721    3753  3774     176
 722    3755  3753     176
 723    3766  3772     175
 724    3900  3763     175
 725    3772  3720     175
 726    3773  3877     177
 727    3774  3752     176
 728    3780  3887     176
 729    3815  3831     177
 730    3828  3858     178
 731    3831  3773     177
 732    3834  3836     178
 733    3836  3845     178
 734    3839  3899     177
 735    3844  3828     178
 736    3845  3719     178
 737    3858   174     178
 738    3860  3864     175
 739    3864  3763     175
 740    3871  3815     177
 741    3877  3839     177
 742    3887   176     176
 743    3898  3834     178
 744    3899   177     177
 745    3900  3766     175
 746    3919  3780     176
 747    4010  4048     160
 748    4011  4136     162
 749    4012  4032     159
 750    4014  4023     159
 751    4015  4038     160
 752    4018  4015     160
 753    4023   159     159
 754    4032  4014     159
 755    4038  4010     160
 756    4045  4205     160
 757    4046  4067     160
 758    4048  4046     160
 759    4052  4191     159
 760    4058  4061     159
 761    4061  4012     159
 762    4066  4169     161
 763    4067  4045     160
 764    4073  4178     160
 765    4107  4123     161
 766    4120  4150     162
 767    4123  4066     161
 768    4126  4128     162
 769    4128  4137     162
 770    4131  4190     161
 771    4136  4120     162
 772    4137  4011     162
 773    4150   158     162
 774    4152  4156     159
 775    4156  4052     159
 776    4163  4107     161
 777    4169  4131     161
 778    4178   160     160
 779    4189  4126     162
 780    4190   161     161
 781    4191  4058     159
 782    4205  4073     160
 783    4290  4328     224
 784    4291  4416     226
 785    4292  4312     223
 786    4294  4303     223
 787    4295  4318     224
 788    4298  4295     224
 789    4303   223     223
 790    4312  4294     223
 791    4318  4290     224
 792    4325  4485     224
 793    4326  4347     224
 794    4328  4326     224
 795    4332  4471     223
 796    4338  4341     223
 797    4341  4292     223
 798    4346  4449     225
 799    4347  4325     224
 800    4353  4458     224
 801    4387  4403     225
 802    4400  4430     226
 803    4403  4346     225
 804    4406  4408     226
 805    4408  4417     226
 806    4411  4470     225
 807    4416  4400     226
 808    4417  4291     226
 809    4430   222     226
 810    4432  4436     223
 811    4436  4332     223
 812    4443  4387     225
 813    4449  4411     225
 814    4458   224     224
 815    4469  4406     226
 816    4470   225     225
 817    4471  4338     223
 818    4485  4353     224
 819    4570  4608     170
 820    4571  4696     168
 821    4572  4592     169
 822    4574  4583     169
 823    4575  4598     170
 824    4578  4575     170
 825    4583   169     169
 826    4592  4574     169
 827    4598  4570     170
 828    4605  4765     170
 829    4606  4627     170
 830    4608  4606     170
 831    4612  4751     169
 832    4618  4621     169
 833    4621  4572     169
 834    4626  4729     167
 835    4627  4605     170
 836    4633  4738     170
 837    4667  4683     167
 838    4680  4710     168
 839    4683  4626     167
 840    4686  4688     168
 841    4688  4697     168
 842    4691  4750     167
 843    4696  4680     168
 844    4697  4571     168
 845    4710   168     168
 846    4712  4716     169
 847    4716  4612     169
 848    4723  4667     167
 849    4729  4691     167
 850    4738   166     170
 851    4749  4686     168
 852    4750   167     167
 853    4751  4618     169
 854    4765  4633     170
 855    4847  8185      58
 856    4851  4888     166
 857    4852  4977     164
 858    4853  4873     165
 859    4855  4864     165
 860    4856  4879     166
 861    4859  4856     166
 862    4864   165     165
 863    4873  4855     165
 864    4879  4851     166
 865    4885  5054     166
 866    4886  4907     166
 867    4888  4886     166
 868    4899  4905     165
 869    5032  4896     165
 870    4905  4853     165
 871    4906  5010     163
 872    4907  4885     166
 873    4913  5020     166
 874    4948  4964     163
 875    4961  4991     164
 876    4964  4906     163
 877    4967  4969     164
 878    4969  4978     164
 879    4972  5031     163
 880    4977  4961     164
 881    4978  4852     164
 882    4991   164     164
 883    4993  4997     165
 884    4997  4896     165
 885    5004  4948     163
 886    5010  4972     163
 887    5020   162     166
 888    5030  4967     164
 889    5031   163     163
 890    5032  4899     165
 891    5054  4913     166
 892    5122  8442      57
 893    5143  5180     196
 894    5144  5269     198
 895    5145  5165     195
 896    5147  5156     195
 897    5148  5171     196
 898    5151  5148     196
 899    5156   195     195
 900    5165  5147     195
 901    5171  5143     196
 902    5177  5344     196
 903    5178  5199     196
 904    5180  5178     196
 905    5191  5197     195
 906    5325  5188     195
 907    5197  5145     195
 908    5198  5302     197
 909    5199  5177     196
 910    5205  5312     196
 911    5240  5256     197
 912    5253  5283     198
 913    5256  5198     197
 914    5259  5261     198
 915    5261  5270     198
 916    5264  5324     197
 917    5269  5253     198
 918    5270  5144     198
 919    5283   194     198
 920    5285  5289     195
 921    5289  5188     195
 922    5296  5240     197
 923    5302  5264     197
 924    5312   196     196
 925    5323  5259     198
 926    5324   197     197
 927    5325  5191     195
 928    5344  5205     196
 929    5435  5472     146
 930    5436  5561     144
 931    5437  5457     145
 932    5439  5448     145
 933    5440  5463     146
 934    5443  5440     146
 935    5448   145     145
 936    5457  5439     145
 937    5463  5435     146
 938    5469  5636     146
 939    5470  5491     146
 940    5472  5470     146
 941    5483  5489     145
 942    5617  5480     145
 943    5489  5437     145
 944    5490  5594     143
 945    5491  5469     146
 946    5497  5604     146
 947    5532  5548     143
 948    5545  5575     144
 949    5548  5490     143
 950    5551  5553     144
 951    5553  5562     144
 952    5556  5616     143
 953    5561  5545     144
 954    5562  5436     144
 955    5575   144     144
 956    5577  5581     145
 957    5581  5480     145
 958    5588  5532     143
 959    5594  5556     143
 960    5604   142     146
 961    5615  5551     144
 962    5616   143     143
 963    5617  5483     145
 964    5636  5497     146
 965    5727  5765     156
 966    5728  5853     158
 967    5729  5749     155
 968    5731  5740     155
 969    5732  5755     156
 970    5735  5732     156
 971    5740   155     155
 972    5749  5731     155
 973    5755  5727     156
 974    5762  5922     156
 975    5763  5784     156
 976    5765  5763     156
 977    5769  5908     155
 978    5775  5778     155
 979    5778  5729     155
 980    5783  5886     157
 981    5784  5762     156
 982    5790  5895     156
 983    5824  5840     157
 984    5837  5867     158
 985    5840  5783     157
 986    5843  5845     158
 987    5845  5854     158
 988    5848  5907     157
 989    5853  5837     158
 990    5854  5728     158
 991    5867   154     158
 992    5869  5873     155
 993    5873  5769     155
 994    5880  5824     157
 995    5886  5848     157
 996    5895   156     156
 997    5906  5843     158
 998    5907   157     157
 999    5908  5775     155
1000    5922  5790     156
1001    6007  6045     150
1002    6008  6133     148
1003    6009  6029     149
1004    6011  6020     149
1005    6012  6035     150
1006    6015  6012     150
1007    6020   149     149
1008    6029  6011     149
1009    6035  6007     150
1010    6042  6202     150
1011    6043  6064     150
1012    6045  6043     150
1013    6049  6188     149
1014    6055  6058     149
1015    6058  6009     149
1016    6063  6166     147
1017    6064  6042     150
1018    6070  6175     150
1019    6104  6120     147
1020    6117  6147     148
1021    6120  6063     147
1022    6123  6125     148
1023    6125  6134     148
1024    6128  6187     147
1025    6133  6117     148
1026    6134  6008     148
1027    6147   148     148
1028    6149  6153     149
1029    6153  6049     149
1030    6160  6104     147
1031    6166  6128     147
1032    6175   146     150
1033    6186  6123     148
1034    6187   147     147
1035    6188  6055     149
1036    6202  6070     150
1037    6287  6324     154
1038    6288  6413     152
1039    6289  6309     153
1040    6290  8085      54
1041    6291  6300     153
1042    6292  6315     154
1043    6295  6292     154
1044    6300   153     153
1045    6309  6291     153
1046    6315  6287     154
1047    6321  6488     154
1048    6322  6343     154
1049    6324  6322     154
1050    6335  6341     153
1051    6469  6332     153
1052    6341  6289     153
1053    6342  6446     151
1054    6343  6321     154
1055    6349  6456     154
1056    6384  6400     151
1057    6397  6427     152
1058    6400  6342     151
1059    6403  6405     152
1060    6405  6414     152
1061    6408  6468     151
1062    6413  6397     152
1063    6414  6288     152
1064    6427   152     152
1065    6429  6433     153
1066    6433  6332     153
1067    6440  6384     151
1068    6446  6408     151
1069    6456   150     154
1070    6467  6403     152
1071    6468   151     151
1072    6469  6335     153
1073    6488  6349     154
1074    6590  6627     228
1075    6591  6716     230
1076    6592  6612     227
1077    6594  6603     227
1078    6595  6618     228
1079    6598  6595     228
1080    6603   227     227
1081    6612  6594     227
1082    6618  6590     228
1083    6624  6791     228
1084    6625  6646     228
1085    6627  6625     228
1086    6638  6644     227
1087    6772  6635     227
1088    6644  6592     227
1089    6645  6749     229
1090    6646  6624     228
1091    6652  6759     228
1092    6687  6703     229
1093    6700  6730     230
1094    6703  6645     229
1095    6706  6708     230
1096    6708  6717     230
1097    6711  6771     229
1098    6716  6700     230
1099    6717  6591     230
1100    6730   226     230
1101    6732  6736     227
1102    6736  6635     227
1103    6743  6687     229
1104    6749  6711     229
1105    6759   228     228
1106    6770  6706     230
1107    6771   229     229
1108    6772  6638     227
1109    6791  6652     228
1110    6913  8276      52
1111    6961  7988      59
1112    6981  8870      54
1113    7016  8658      59
1114    7058  7900      54
1115    7061  8693      57
1116    7099  8865      58
1117    7112  8347      54
1118    7114  8110      56
1119    7115  8340      55
1120    7117  8387      59
1121    7169  7710      54
1122    7177  7169      54
1123    7182  8160      59
1124    7184  7501      58
1125    7205  7840      54
1126    7287  8443      57
1127    7290  8732      57
1128    7307  8399      53
1129    7380  8548      52
1130    7409  8377      52
1131    7441  7446      59
1132    7446  7117      59
1133    7489  8153      59
1134    7501  4847      58
1135    7506  7184      58
1136    7515  8586      54
1137    7526  8193      58
1138    7566  7441      59
1139    7637  8435      59
1140    7638  7733      59
1141    7646  7409      52
1142    7647  7696      51
1143    7683  7717      54
1144    7696    51      51
1145    7701  8482      50
1146    7710  7683      54
1147    7717   251      54
1148    7721  7205      54
1149    7729  7637      59
1150    7733   254      59
1151    7749  7755      58
1152    7755  7099      58
1153    7769  7749      58
1154    7781  8254      58
1155    7813  8270      52
1156    7822  8274      52
1157    7829  7865      54
1158    7830  7842      54
1159    7840  7860      54
1160    7842  7829      54
1161    7847  7830      54
1162    7857   234      54
1163    7860   263      54
1164    7865  7857      54
1165    7878  7058      54
1166    7900  8670      54
1167    7916  8680      54
1168    7934  8341      54
1169    7939  7947      53
1170    8876  6981      54
1171    7947  7951      53
1172    7951    53      53
1173    7988  7638      59
1174    7990  7996      59
1175    7996  6961      59
1176    8023  8147      52
1177    8049  7177      54
1178    8085  7112      54
1179    8089  8362      54
1180    8739  7290      57
1181    8110  8531      56
1182    8125  6913      52
1183    8131  8589      59
1184    8136  1402      53
1185    8147  1428      52
1186    8151  8412      52
1187    8153   237      59
1188    8160  7489      59
1189    8164  8440      57
1190    8185  7526      58
1191    8193   236      58
1192    8231  7647      51
1193    8254    58      58
1194    8270  7822      52
1195    8274   233      52
1196    8276  7813      52
1197    8299  8691      54
1198    8337  8513      55
1199    8340  8711      55
1200    8341   264      54
1201    8347  8350      54
1202    8350    54      54
1203    8356  8337      55
1204    8362  6290      54
1205    8374  7380      52
1206    8377  8125      52
1207    8387  8131      59
1208    8397  8408      53
1209    8399  8136      53
1210    8408  7307      53
1211    8412  8023      52
1212    8435  7182      59
1213    8440    57      57
1214    8442  8164      57
1215    8443  5122      57
1216    8464  7646      52
1217    8482    50      50
1218    8503  8629      57
1219    8504  8503      57
1220    8506  8703      53
1221    8513  7115      55
1222    8528  7061      57
1223    8531    56      56
1224    8537  8374      52
1225    8548  8601      52
1226    8564  7515      54
1227    8573  8564      54
1228    8576   250      54
1229    8586  8089      54
1230    8589  2554      59
1231    8596  8397      53
1232    8601    52      52
1233    8625  7287      57
1234    8629   235      57
1235    8648  8895      59
1236    8652  8648      59
1237    8656  8789      59
1238    8658  8656      59
1239    8670   262      54
1240    8680  8576      54
1241    8691  7916      54
1242    8693  8504      57
1243    8703  7939      53
1244    8711    55      55
1245    8712  7114      56
1246    8717  8712      56
1247    8732  8528      57
1248    8739  8109      57
1249    8747    56      57
1250    8779  7701      50
1251    8789    49      59
1252    8865  7781      58
1253    8870  7934      54
1254    8876  7940      54
1255    8888  7990      59
1256    8895  7016      59
1257    9060   270      79
1258    9063   137     137
1259    9064   238      79
1260    9065   252     137
1261    9074   248     137
1262    9075   261      79
1263    9079   273      79
1264    9185    77      78
1265    9090   271     137
1266    9092   137     138
1267    9093   253      79
1268    9095  9086      78
1269    9105  9158     138
1270    9113   136     136
1271    9114    80      80
1272    9120  9142      81
1273    9121  9124     135
1274    9122  9120      81
1275    9123  9122      81
1276    9124   135     135
1277    9132   273      79
1278    9142    81      81
1279    9143  9144     135
1280    9144  9121     135
1281    9152   134     134
1282    9154   260      82
1283    9158    59     138
1284    9161  9353      60
1285    9163  9325      60
1286    9164  9163      60
1287    9165  9164      60
1288    9185  9086      78
1289    9205  9188      76
1290    9188  9200      76
1291    9191    77      77
1292    9192    76      76
1293    9200  9192      76
1294    9247  9187      76
1295    9220  9232      76
1296    9232  9239      76
1297    9239  9187      76
1298    9247  9205      76
1299    9262   257     131
1300    9263   268      86
1301    9271   131     131
1302    9273  9294     132
1303    9274  9275      84
1304    9275    84      84
1305    9276  9273     132
1306    9283  9274      84
1307    9290    83      84
1308    9294   255     132
1309    9321  9336      60
1310    9322  9161      60
1311    9325  9322      60
1312    9336    60      60
1313    9346  9435      75
1314    9353  9321      60
1315    9380  9443      61
1316    9362  9356      61
1317    9364  9362      61
1318    9380  9356      61
1319    9393  9404      74
1320    9394  9402      74
1321    9402    74      74
1322    9404  9394      74
1323    9505    73      74
1324    9432  9220      76
1325    9435    75      75
1326    9590    74      75
1327    9442  9455      62
1328    9443    61      61
1329    9447  9442      62
1330    9455    62      62
1331    9480  9704      63
1332    9489  9596      63
1333    9492  9489      63
1334    9503  9393      74
1335    9505  9414      74
1336    9548    72      73
1337    9532  9509      73
1338    9511  9510      73
1339    9532  9510      73
1340    9542  9543      73
1341    9543  9509      73
1342    9548  9542      73
1343    9560  9661      64
1344    9563  9567      63
1345    9567    63      63
1346    9590  9440      75
1347    9592  9346      75
1348    9596  9480      63
1349    9605  9739      72
1350    9607  9716      72
1351    9609  9710      72
1352    9622  9637      65
1353    9627  9560      64
1354    9637    65      65
1355    9639  9622      65
1356    9643    65      66
1357    9653  9723      72
1358    9680  9666      67
1359    9661    64      64
1360    9666  9671      67
1361    9671    66      67
1362    9680  9659      67
1363    9687  9797      72
1364    9689  9765      67
1365    9697  9689      67
1366    9704  9563      63
1367    9710    72      72
1368    9716  9609      72
1369    9723  9607      72
1370    9739  9653      72
1371    9744  9801      72
1372    9747  9752      71
1373    9752    71      71
1374    9759    68      68
1375    9765    67      67
1376    9766  9759      68
1377    9775    69      69
1378    9776  9839      70
1379    9789  9807      72
1380    9797  9789      72
1381    9801  9687      72
1382    9807  9605      72
1383    9826  9846      71
1384    9836  9826      71
1385    9839    70      70
1386    9846  9747      71
1387    9865   120     120
1388    9868  10087      96
1389    9869  10097     121
1390    9871  10092     121
1391    9872    96      96
1392    9875  9871     121
1393    10398   118     119
1394    9889    86      86
1395    9892   246     131
1396    9893   269     131
1397    9897   259      86
1398    9899  9976      87
1399    9900  9904     130
1400    9904  9911     130
1401    9910  9899      87
1402    9911   130     130
1403    9912  9910      87
1404    9926  9927     130
1405    9927  9900     130
1406    9928  9934      87
1407    9932  9926     130
1408    9934    87      87
1409    9939   266      88
1410    9940  9942     129
1411    9941  9939      88
1412    9942   129     129
1413    9952  9940     129
1414    9955   240      88
1415    9996   265     129
1416    9976  9928      87
1417    9981   256     129
1418    9983   272      88
1419    9987  9988     129
1420    9988   265     129
1421    9989    88      88
1422    9996  9963     129
1423    10003  10463      89
1424    10004  10007     128
1425    10005  10003      89
1426    10007   128     128
1427    10025  10026     132
1428    10026   132     132
1429    10031   133     133
1430    10032    83      83
1431    10035  10031     133
1432    10047  10025     132
1433    10049   239      84
1434    10056   260      82
1435    10059   247     134
1436    10087  9872      96
1437    10090  10113     121
1438    10091  9868      96
1439    10092  9869     121
1440    10097  10090     121
1441    10113   121     121
1442    10162  10194     105
1443    10163  10166      49
1444    10164  10162     105
1445    10165  10170     112
1446    10166  10195      49
1447    10170   244     112
1448    10173  10180     105
1449    10174   267     112
1450    10180   258     105
1451    10181  11174      49
1452    10182  10916      49
1453    10183  10740      49
1454    10184  10183      49
1455    10187   231      49
1456    10188  10165     112
1457    10189  10190     112
1458    10190   231     112
1459    10192   105     105
1460    10194   230     105
1461    10195   230      49
1462    10200  10189     112
1463    10206   112     112
1464    10207  10173     105
1465    10210   113     113
1466    10211   104     104
1467    10250   102     103
1468    10224  10184      49
1469    10225  10187      49
1470    10226   242     105
1471    10228  10226     105
1472    10233  10192     105
1473    10240   102     102
1474    10244  10270     101
1475    10245   115     115
1476    10259   113     114
1477    10247  10246     114
1478    10250  10223     103
1479    10259  10246     114
1480    10266   103     103
1481    10270   101     101
1482    10281  10244     101
1483    10283  10285     100
1484    10386   116     116
1485    10285   100     100
1486    10286  10284     116
1487    10312  10352      99
1488    10313  10340     117
1489    10314    95      95
1490    10315   122     122
1491    10319  10523     123
1492    10320  10321      94
1493    10321    94      94
1494    10322  10319     123
1495    10333   107     107
1496    10334   110     110
1497    10335  10359     117
1498    10336  10373      99
1499    10337  10424      98
1500    10338   118     118
1501    10340   117     117
1502    10341    98      98
1503    10344  10312      99
1504    10350  10313     117
1505    10352   241      99
1506    10359   245     117
1507    10361  10336      99
1508    10370  10335     117
1509    10373    99      99
1510    10386  10284     116
1511    10391  10283     100
1512    10398  9882     119
1513    10399  10337      98
1514    10408   119     119
1515    10424  10341      98
1516    10439  10462     127
1517    10440  10475      90
1518    10441  10525      93
1519    10442  10535     124
1520    10443  10600      92
1521    10444  10664     125
1522    10445  10679      91
1523    10446  10587     126
1524    10460  10004     128
1525    10462   127     127
1526    10463    89      89
1527    10466  10440      90
1528    10473  10439     127
1529    10475    90      90
1530    10483  10586      91
1531    10484  10486     126
1532    10486   126     126
1533    10487  10483      91
1534    10519  10709      49
1535    10522  10320      94
1536    10523   123     123
1537    10525    93      93
1538    10526  10529     124
1539    10529  10442     124
1540    10535   124     124
1541    10536  10441      93
1542    10539  10536      93
1543    10543  10604     125
1544    10549    92      92
1545    10546  10543     125
1546    10547  10544      92
1547    10549  10547      92
1548    10576  10652      92
1549    10577  10645     125
1550    10578  10673      91
1551    10579  10678     126
1552    10586  10445      91
1553    10587  10484     126
1554    10600  10544      92
1555    10601  10444     125
1556    10604  10601     125
1557    10612   124     125
1558    10641  10576      92
1559    10642   125     125
1560    10645  10642     125
1561    10649  10443      92
1562    10650  10577     125
1563    10652  10649      92
1564    10664  10650     125
1565    10672  10579     126
1566    10673    91      91
1567    10678  10446     126
1568    10679  10578      91
1569    10709   232      49
1570    10740  10182      49
1571    10777  11501      17
1572    10815  10777      17
1573    10824  11473      48
1574    10844  10966      48
1575    10854  10886      30
1576    10856  10519      49
1577    10886  10897      30
1578    10897    30      30
1579    10904  11841      33
1580    10906  11081      34
1581    10908  17936      25
1582    10916  10181      49
1583    10931  11146      33
1584    10933  10948      34
1585    10934  11306      25
1586    10937  10951      48
1587    10947  10931      33
1588    10948    34      34
1589    10949  10934      25
1590    10951    48      48
1591    10958  10949      25
1592    10966  10937      48
1593    10972  11865      22
1594    10978  11117      37
1595    11000    22      22
1596    11004  10978      37
1597    11065  11348      49
1598    11081  10933      34
1599    11083  15863      38
1600    11117    37      37
1601    11134  11279      48
1602    11138  12195      18
1603    11139  11786      18
1604    11146  10904      33
1605    11174  11065      49
1606    11193  11661      11
1607    11195  11193      11
1608    11198     8       8
1609    11205     7       7
1610    11223    13      13
1611    11253  11258      12
1612    11258    12      12
1613    11279  10844      48
1614    11283  11475      48
1615    11305  10908      25
1616    11306  11305      25
1617    11348     0      49
1618    11441     6       6
1619    11443     5       5
1620    11452  11253      12
1621    11473  11134      48
1622    11475  11478      48
1623    11478  10824      48
1624    11501    17      17
1625    11505  11139      18
1626    11520  12006      33
1627    11566  11859      22
1628    11572  12245      21
1629    11574  11584      38
1630    11584  11083      38
1631    11587  11574      38
1632    11589  11876       1
1633    11592  11874       1
1634    11661    11      11
1635    11681  18359       4
1636    11786  11138      18
1637    11839  18347      34
1638    11841  11520      33
1639    11844  11839      34
1640    11859  10972      22
1641    11865  11000      22
1642    11867  12042      21
1643    11869  11592       1
1644    11874  11589       1
1645    11876     1       1
1646    11880  12517       2
1647    11881  11880       2
1648    11928  11283      48
1649    11931  11955      47
1650    11932  11935      47
1651    11935    47      47
1652    11955  11932      47
1653    11956  12140      47
1654    11976  12522      18
1655    12006    33      33
1656    12042    21      21
1657    12140  11931      47
1658    12144  11956      47
1659    12180  18414       3
1660    12195  11976      18
1661    12245  11867      21
1662    12246  12380      21
1663    12380  11572      21
1664    12386  14026      20
1665    12387  18459      20
1666    12388  18430      20
1667    12391  12393      20
1668    12393    20      20
1669    12512  11681       4
1670    12517     2       2
1671    12521  18024      19
1672    12522    18      18
1673    12607  12246      21
1674    12668  18563      19
1675    12781  14795      19
1676    12863  12866      20
1677    12866  12388      20
1678    12981  12990      19
1679    12982  12981      19
1680    12990  12781      19
1681    13254  13634      20
1682    13492  13496      20
1683    13496  12387      20
1684    13634  13492      20
1685    13636  13798      20
1686    13758  15985      46
1687    13798  13254      20
1688    14020  16473      20
1689    14021  18512      20
1690    14026  13636      20
1691    14027  14028      20
1692    14028  12386      20
1693    14315  15592      39
1694    14557  15023      19
1695    14599  15281      39
1696    14709  15393      46
1697    14788  17691      19
1698    14795  14557      19
1699    14849  15854      39
1700    15023  12668      19
1701    15048  17524      41
1702    15074  15278      39
1703    15115  16696      46
1704    15221  17481      19
1705    15272  18608      40
1706    15278  14599      39
1707    15281  14315      39
1708    15287  15594      38
1709    15359  17577      45
1710    15383  15395      46
1711    15393  15383      46
1712    15394  15677      46
1713    15395  15671      46
1714    15402  15681      46
1715    15513  17436      19
1716    15583  15846      40
1717    15586  17528      41
1718    15592  16166      39
1719    15594    38      38
1720    15630  16971      29
1721    15647  17015      46
1722    15654  16323      45
1723    15655  15960      45
1724    15671    46      46
1725    15677  15402      46
1726    15681  14709      46
1727    15846  15272      40
1728    15850  18205      40
1729    15852  15583      40
1730    15854    39      39
1731    15863  15287      38
1732    15959  15647      46
1733    15960    45      45
1734    15985  16348      46
1735    16066  16480      20
1736    16071  18619      20
1737    16072  16474      20
1738    16166  14849      39
1739    16242  17277      29
1740    16261  18631      28
1741    16262  18630      28
1742    16323  15655      45
1743    16348  15394      46
1744    16355  16701      46
1745    16473  16066      20
1746    16474  14020      20
1747    16476  18200      20
1748    16477  17885      19
1749    16480  14021      20
1750    16550  18718      41
1751    16686  18705      45
1752    16688  17012      45
1753    16690  15115      46
1754    16696  16355      46
1755    16701  17019      46
1756    16880  17927      42
1757    16889  18667      41
1758    16899  18700      41
1759    16968    29      29
1760    16971  16968      29
1761    16974  17288      27
1762    17012  15654      45
1763    17015  16690      46
1764    17019  13758      46
1765    17237  18064      42
1766    17277  15630      29
1767    17282  18684      30
1768    17287  18637      28
1769    17288  18692      27
1770    17300  17302      45
1771    17302  15359      45
1772    17407  17870      19
1773    17413  17420      19
1774    17420  15513      19
1775    17431  17433      19
1776    17433  16477      19
1777    17436  17431      19
1778    17481  14788      19
1779    17524  16889      41
1780    17525  17931      41
1781    17528  16899      41
1782    17535  17956      25
1783    17563  16974      27
1784    17577  16688      45
1785    17687  17897      19
1786    17691  17687      19
1787    17723  18065      41
1788    17746  17958      26
1789    17753    26      26
1790    17870  17413      19
1791    17875  18235      19
1792    17885  17875      19
1793    17897  12521      19
1794    17915  18780      43
1795    17920  18734      42
1796    17927  17920      42
1797    17931    41      41
1798    17936  18147      25
1799    17944  17953      26
1800    17953  17746      26
1801    17955  17944      26
1802    17956    25      25
1803    17958  17753      26
1804    18018  18195      19
1805    18024  18018      19
1806    18064  16880      42
1807    18065  15586      41
1808    18091  18302      44
1809    18137  18770      43
1810    18142  17237      42
1811    18147  17535      25
1812    18187  18285      44
1813    18195  17407      19
1814    18200  16071      20
1815    18203  17723      41
1816    18205    40      40
1817    18220  18221      45
1818    18221  16686      45
1819    18234  16476      20
1820    18235    19      19
1821    18260  18306      44
1822    18285    44      44
1823    18302  18187      44
1824    18306  18316      44
1825    18312  18260      44
1826    18316  18091      44
1827    18328  18794      43
1828    18347  10906      34
1829    18359     4       4
1830    18414     3       3
1831    18418  12180       3
1832    18430  12391      20
1833    18459  12863      20
1834    18512  14027      20
1835    18563  15221      19
1836    18608  15850      40
1837    18619  16072      20
1838    18630    28      28
1839    18631  16262      28
1840    18637  16261      28
1841    18667  16550      41
1842    18684  10854      30
1843    18687  17282      30
1844    18689  17287      28
1845    18692    27      27
1846    18700  15048      41
1847    18705  17300      45
1848    18718  17525      41
1849    18734    42      42
1850    18759  18137      43
1851    18769  17915      43
1852    18770  18769      43
1853    18780  18328      43
1854    18793    43      43
1855    18794  18793      43
1856    18816  18220      45
0
26
   0   1222689.8707616315  657615.10063208069  0  40000
   1   1217202.760122437  658804.61030376796  0  50
   2   1215846.055872797  663219.00019589928  0  1000
   3   1217062.2097078646  658896.21674291836  0  0.20000000000000001
   4   1217162.0318380017  658902.17848218861  0  0.20000000000000001
   5   1217261.8539681376  658908.14022145874  0  0.20000000000000001
   6   1217361.6760982736  658914.10196072888  0  0.20000000000000001
   7   1217339.3039841026  658869.35530279309  0  0.20000000000000001
   8   1217267.0208048637  658821.6277752223  0  0.20000000000000001
   9   1217366.8429349996  658827.5895144922  0  0.20000000000000001
  10   1217344.4708208286  658782.84285655653  0  0.20000000000000001
  11   1217249.8155274186  658690.36867105006  0  0.20000000000000001
  12   1217244.6486906926  658776.88111728651  0  0.20000000000000001
  13   1217149.9933972827  658684.40693177993  0  0.20000000000000001
  14   1217045.0044304207  658764.95763874636  0  0.20000000000000001
  15   1217067.3765445915  658809.70429668203  0  0.20000000000000001
  16   1217167.1986747277  658815.6660359524  0  0.20000000000000001
  17   1217239.4818539666  658863.39356352296  0  0.20000000000000001
  18   1217139.6597238306  658857.43182425271  0  0.20000000000000001
  19   1217144.8265605567  658770.91937801626  0  0.20000000000000001
  20   1217039.8375936947  658851.47008498281  0  0.20000000000000001
  21   1217050.1712671465  658678.4451925098  0  0.20000000000000001
  22   1217072.5433813175  658723.19185044558  0  0.20000000000000001
  23   1217172.3655114535  658729.1535897156  0  0.20000000000000001
  24   1217272.1876415897  658735.11532898573  0  0.20000000000000001
  25   1217411.5871633417  658917.08283036377  0  0.20000000000000001
# Generated by C:\Users\lukem\mf6\modflow_exe\triangle.exe -a -q32 -A -p -V -D -e -n _triangle.0
