894 2 0 0
0 1359512.1265478705 108054.7859625428
1 1359623.4320036862 108306.25384420098
2 1359635.6952331983 108327.87639251517
3 1360225.2461681685 109135.6075947575
4 1360245.359287201 109149.83947798445
5 1361066.7624996165 109626.86297682981
6 1361457.1268067153 109714.13099928462
7 1361877.9012965697 109873.11129848071
8 1362182.8111749745 110131.84808075964
9 1362860.0048229801 110966.7335597931
10 1362877.6483899327 110984.20045735048
11 1363254.3777608976 111273.43094057027
12 1363517.2875033738 111540.83226313826
13 1363532.1124697975 111560.32294976254
14 1363620.4147084295 111820.76049439186
15 1363624.0586720586 111845.27641861007
16 1363636.9726572467 112094.94265378527
17 1363605.2046673053 112367.76385666842
18 1363643.5764898893 112589.46772048587
19 1363649.7868340805 112613.4087067586
20 1363809.118722578 112896.67245189342
21 1363824.0682411995 112916.22096124403
22 1364073.6517025155 113124.3869907433
23 1364270.7322130476 113316.15976492337
24 1364290.1793263482 113331.7545635392
25 1364392.1822519295 113404.0069210985
26 1364992.7775271207 113712.01312856968
27 1365013.350456928 113725.79481998557
28 1365451.6880257968 114135.33360723278
29 1365695.992659143 114261.58829477211
30 1365714.3551047377 114277.82904067167
31 1365762.0353290688 114335.72201267813
32 1365773.7394894478 114357.03608596273
33 1365804.7503355332 114503.79550618876
34 1365801.647290323 114528.06137072701
35 1365732.2400261355 114794.15840505474
36 1365686.519334592 114910.42987133679
37 1365627.5564976386 115557.75002694636
38 1365634.3907128328 115757.40779507806
39 1365593.3244547222 116155.29416383777
40 1365579.9324792034 116479.9171048994
41 1365562.5838983315 116603.70735791526
42 1365461.4473666723 116912.52110410032
43 1365449.611348098 116934.13884329058
44 1365281.8170875502 117152.01515252863
45 1365147.380684594 117218.09446123158
46 1365127.640350957 117232.48204382209
47 1365032.8894082825 117348.76729164958
48 1364960.085100623 117868.1496819734
49 1364736.5333375165 118103.26744249398
50 1364717.6003700586 118118.55634476485
51 1364306.6755961154 118227.02675621292
52 1364282.1784865917 118229.77193043902
53 1364057.8931393821 118211.8531406607
54 1363911.8547986576 118245.86925422984
55 1363893.4855808243 118258.39660627906
56 1363831.5544637765 118422.07170133397
57 1363826.588380631 118671.93531696983
58 1363831.0688707407 118695.6464504011
59 1363933.4096995746 118867.32720498185
60 1364105.200837652 119082.06612757866
61 1364124.936387223 119093.83871901981
62 1364274.4457444402 119105.96109933475
63 1364298.1448218504 119101.83425572966
64 1364498.4951579932 118999.43922261048
65 1364794.7176131213 118953.6130600663
66 1365238.6786766453 118784.87297361839
67 1365737.9061755817 118452.04883941874
68 1365755.1936812839 118434.52415219946
69 1366107.7076035703 117948.9997608511
70 1366157.7113362527 117893.38298215829
71 1366284.3618423333 117813.39235469674
72 1366344.087880462 117675.79584177051
73 1366420.21580543 117611.19119816467
74 1366442.0694158338 117601.08993300483
75 1366763.3658223525 117552.16530568754
76 1367058.3933236059 117605.51647575061
77 1367083.1237951962 117607.22455182193
78 1367207.729697873 117597.30643617037
79 1367231.6629334388 117591.0770945258
80 1367324.6100758258 117554.18768246687
81 1367343.5433402886 117538.49898102874
82 1367448.4354155164 117431.27519093014
83 1367508.1515436498 117385.89916156734
84 1367576.2106226946 117354.79052538784
85 1367599.7939272749 117347.2520118535
86 1367649.4661695878 117341.53638908642
87 1367673.7176170787 117344.97456703651
88 1367793.4307415292 117380.45312239307
89 1367967.6266376858 117397.20990496747
90 1368092.1907643669 117387.72336954331
91 1368108.849585119 117400.12677237454
92 1368196.0692617148 117580.10657128121
93 1368209.9000827346 117600.6779345536
94 1368291.6010021155 117695.28216158564
95 1368305.4322438496 117715.83569474162
96 1368348.5080217558 117805.8719859825
97 1368488.4822000868 117859.79071557256
98 1368509.9084526629 117872.20014754708
99 1368610.539160779 117946.12465044933
100 1368699.8643280219 117990.34658393863
101 1368799.8621388872 117989.68490262987
102 1368824.2979395583 117992.30369714645
103 1368847.2645627807 118002.17963850705
104 1368869.1700822439 118013.77645690231
105 1369003.2436632598 118126.20396168718
106 1369184.426354668 118210.89653712329
107 1369303.0453280245 118248.80382366154
108 1369408.9603837205 118315.12879741543
109 1369550.8133736162 118363.89076269216
110 1369647.577434443 118389.01556346986
111 1369970.9742447853 118419.35539782864
112 1370164.7432418054 118468.88898031377
113 1370188.7297445852 118475.50189616307
114 1370260.7887698908 118544.83801137014
115 1370277.8717470604 118562.92894750374
116 1370450.4435970546 118838.32676265424
117 1370497.8016418873 119134.35387265173
118 1370627.0056569858 119668.96244205777
119 1370755.758679164 119967.22302619972
120 1370772.5724421549 119976.44201763479
121 1370942.6868286552 119935.37992434161
122 1371566.619189609 119753.14864416867
123 1371844.27559265 119639.7261741258
124 1371860.3165427179 119622.18359879252
125 1371946.4110940378 119469.85963956312
126 1371946.4143071144 119294.85963959261
127 1371969.3687533368 119146.75913480841
128 1371969.6789789302 119122.10246570849
129 1371936.463974956 118924.87984147135
130 1371924.638957852 118906.49899677094
131 1371854.6368311138 118879.57870234195
132 1371834.9150348413 118865.47990195699
133 1371753.42873051 118770.69075592002
134 1371744.0463293795 118748.4160620831
135 1371723.5366856798 118625.65503178742
136 1371737.497733381 118577.64368784583
137 1371827.3442652798 118490.98527251251
138 1371842.8927719032 118471.661619337
139 1372014.6451659861 118195.75200528413
140 1372030.4282574034 118176.69886484089
141 1372309.7253803937 117926.99572774033
142 1372377.4527903912 117765.71272667666
143 1372520.224441181 117501.86380071566
144 1372535.8617439421 117482.83202758654
145 1372834.162428221 117216.3424372479
146 1372883.7279398132 117160.13901598068
147 1372909.73352467 117090.10026852948
148 1373015.2100197272 116984.38049355146
149 1373135.8653363504 116952.35455211235
150 1373215.5611794714 116891.95113673514
151 1373237.7623438213 116886.80156370532
152 1373433.8299229816 116926.26679400113
153 1373452.4775666336 116938.23119984295
154 1373498.80895187 117054.32772322795
155 1373498.7000509268 117178.9051171482
156 1373530.602216794 117376.23146616059
157 1373524.4031961483 117397.25791918873
158 1373375.3114524942 117530.56827877917
159 1373355.38550092 117545.25599919198
160 1373218.8384594265 117607.3438841563
161 1373101.679563487 117701.00161320691
162 1373090.631257719 117719.39172808331
163 1373175.30123706 118033.16871034681
164 1373188.3874570471 118053.94287063087
165 1373440.568176751 118364.43423059062
166 1373452.348520938 118385.92807418834
167 1373571.4423163838 118793.900705484
168 1373667.0641802647 119637.5591565044
169 1374016.437125203 119832.33735175518
170 1374036.715402095 119824.32980077245
171 1374549.1604365234 119424.45591377992
172 1374956.6795388565 119233.59423288585
173 1374980.9128332606 119235.38154011854
174 1375669.3223337594 119362.23720464678
175 1375693.209031176 119357.64009725762
176 1376283.4306957861 119152.05948867515
177 1376299.0076311438 119135.38797899603
178 1376477.700271703 118695.28124170387
179 1376482.8082713292 118671.02371202417
180 1376533.520938419 118223.89037017118
181 1376545.8847322993 118203.30839323753
182 1376911.142237604 117792.10655129293
183 1376917.1797203196 117768.7018888162
184 1377005.8912753249 116973.94168820672
185 1376715.6209320507 116017.11656653459
186 1376741.788037981 114742.3860722278
187 1376887.8562152842 112447.0290003152
188 1376515.6669061638 110994.1601321656
189 1376507.8106174155 110970.53953914503
190 1375346.3834868658 108533.10502301477
191 1373361.626367335 106119.3863590944
192 1373342.7452354839 106129.677479691
193 1372934.6675425947 106459.97673274236
194 1372913.8834241263 106472.83539763991
195 1372203.3337035854 106616.86350128334
196 1372179.7808796477 106610.8263846953
197 1371201.6112528187 106229.14041279005
198 1370377.7997257174 105619.32729133699
199 1370361.7933751645 105600.690152331
200 1369967.8763178324 104962.600049191
201 1369631.2504148048 103968.02325406109
202 1369645.967905372 103018.23999071721
203 1369754.1776415478 102150.08168046958
204 1371498.8291404403 99992.11593759691
205 1371497.9754896215 99974.57799665164
206 1369703.8378428714 98575.7588144431
207 1369682.1156208715 98564.53450555402
208 1368346.1902035032 98239.06825656827
209 1368321.516602201 98235.90463716231
210 1365323.6994049174 98121.48413344761
211 1363559.8221124774 98318.74877262813
212 1363539.4509082048 98326.16685147892
213 1363263.7761765316 100231.21670511829
214 1363417.1659556911 101673.08062922812
215 1363690.2138082576 102530.64775847062
216 1363693.9557864848 102555.03078263879
217 1363675.0797522124 103604.86110003782
218 1363559.6309786802 104396.42507054668
219 1362473.8503988034 106452.14239505626
220 1361956.742377686 106803.02253272796
221 1368150.7776955874 116579.82638422708
222 1368156.6927367887 116629.4752743213
223 1368206.341374526 116623.56034662788
224 1368229.3199533818 116596.6532829393
225 1368202.4129433343 116573.6747021154
226 1368143.6776914725 116630.11953987158
227 1368137.7625796348 116580.47065819286
228 1368096.8604235793 116575.27310097909
229 1368047.2115540125 116581.18831447788
230 1368025.3447758916 116608.97044136535
231 1368044.3801323748 116641.94994541808
232 1370678.237120795 107775.73234261553
233 1370744.804763782 107850.35639307626
234 1370780.1833023792 107850.95858371054
235 1370814.6713575528 107817.5137190383
236 1370748.1038361948 107742.88956007971
237 1370712.5642511752 107745.11115961621
238 1366312.1790466905 114743.26638418436
239 1366312.1790466905 114893.26638418436
240 1366358.179046601 114897.26638427377
241 1366401.1791767776 114890.26651445031
242 1366401.1791767776 114790.26651445031
243 1366398.1793070436 114743.26638418436
244 1365628.4921375623 113552.38079369855
245 1365775.069907597 113584.23918869268
246 1365804.0445490715 113563.92980756408
247 1365814.664056894 113515.07056019364
248 1365793.1652125411 113486.86067915884
249 1365695.4466991841 113465.62174916443
250 1365648.8816570807 113458.57074193371
251 1367389.2766100317 112605.38054810464
252 1367389.2766100317 112355.38054810464
253 1367371.2763541192 112323.38080401719
254 1367321.2763541192 112323.38080401719
255 1367282.2768440247 112334.38129392266
256 1367282.2768440247 112584.38129392266
257 1367311.2775898427 112605.38054810464
258 1366165.3184522358 114483.727893709
259 1366292.6387412087 114698.87794371093
260 1366324.4266174876 114717.24985825349
261 1366367.4566593373 114691.78585427887
262 1366395.417935847 114662.45731271381
263 1366268.097646889 114447.30726270302
264 1366232.4452378575 114444.00409464733
265 1368174.288618347 110841.39556722643
266 1368090.0446112861 110895.2745731038
267 1368093.503094846 110932.23451815719
268 1368201.2609987978 111100.72260122509
269 1368230.022373891 111134.55725825192
270 1368314.2663809517 111080.67825237454
271 1368302.5205389543 111041.8964093817
272 1368328.5522493823 108977.49766143045
273 1368228.6937123493 108982.81485821241
274 1368223.9900141573 109026.12630920796
275 1368237.2825664887 109275.77267519897
276 1368273.976151673 109287.83853743448
277 1368323.9054201897 109285.17993904983
278 1368343.3335530732 109255.10414808063
279 1370772.258588529 107878.12846891819
280 1370971.9614238313 108102.0007038475
281 1371008.7095355345 108078.60019490005
282 1371046.0215946685 108045.31641141338
283 1371032.5044420445 108009.13227306513
284 1370866.0854126194 107822.57207729651
285 1370830.4652010466 107826.20594483812
286 1365342.1896700042 113353.55070120447
287 1365320.9506575386 113451.26919663644
288 1365331.7435551588 113486.36210021497
289 1365576.0398060014 113539.45957495976
290 1365616.486363175 113536.99382533535
291 1365637.7253756507 113439.27532990556
292 1365613.8472304405 113412.59512126436
293 1374193.7052613248 115202.15550194544
294 1374401.8851549528 115418.16738099158
295 1374437.051739337 115428.71768805111
296 1374509.0557712372 115359.32446511036
297 1374494.1542078129 115323.68796148186
298 1374320.6710829532 115143.67794679131
299 1374285.8700234308 115113.33226511782
300 1370004.0954949828 116859.25615693456
301 1369658.2197695514 116805.68393878688
302 1369625.5119947845 116820.85632537077
303 1369610.2057147596 116919.67797174341
304 1369648.2039198452 116935.68254479143
305 1369944.668827358 116981.60158891627
306 1369985.7280069108 116977.84182303617
307 1366163.351999998 105462.85099999607
308 1366053.1169999987 105477.6589999944
309 1365947.8180000037 105538.53499999642
310 1365840.875 105684.9660000056
311 1365946.172999993 106269.04600000381
312 1366054.7619999945 106382.57099999487
313 1366150.1889999956 106402.31499999762
314 1366290.0390000045 106288.78900000453
315 1366452.7169999927 105978.42000000179
316 1366517.3419999927 105961.04500000179
317 1366660.2310000062 105826.4619999975
318 1366650.3589999974 105765.58599999547
319 1366576.3209999949 105778.74799999595
320 1366546.7049999982 105740.90700000525
321 1366536.1544999927 105636.09700000286
322 1366476.2047500014 105576.14724999666
323 1366427.4954999983 105579.8939999938
324 1366388.2202499956 105657.99824999273
325 1365326.6040000021 101941.3410000056
326 1365300.5620000064 102253.8410000056
327 1365396.047999993 102449.15299999714
328 1365370.0069999993 102581.53200000525
329 1365491.5330000073 102844.11800000072
330 1365519.7450000048 103035.09000000358
331 1365613.0610000044 103154.4469999969
332 1365626.0820000023 103234.74199999869
333 1365662.974999994 103291.16500000656
334 1365782.3320000023 103315.03700000048
335 1365838.7549999952 103243.42200000584
336 1365819.224000007 103186.99899999797
337 1365675.9960000068 103171.80799999833
338 1365636.9319999963 103113.21400000155
339 1365710.7169999927 102991.68700000644
340 1365890.8379999995 102889.68999999762
341 1365958.1120000035 102761.65299999714
342 1365875.648000002 102360.1780000031
343 1365901.6889999956 102301.58300000429
344 1366029.726999998 102227.798999995
345 1366264.101999998 101993.42499999702
346 1366335.7160000056 101963.04299999774
347 1366355.246999994 101908.78900000453
348 1366300.9940000027 101733.00800000131
349 1366207.678000003 101654.88400000334
350 1366142.574000001 101513.82500000298
351 1366183.8069999963 101333.70399999619
352 1366170.7859999985 101192.64499999583
353 1366105.6809999943 101103.67000000179
354 1365975.474000007 101086.30799999833
355 1365856.561499998 100998.39524999261
356 1365862.8435000032 100905.73624999821
357 1365947.6502500027 100765.96224999428
358 1365928.804250002 100585.35549999774
359 1365875.648000002 100519.90299999714
360 1365754.1200000048 100513.39300000668
361 1365534.9360000044 100600.19799999893
362 1365404.7280000001 100741.25800000131
363 1365398.2179999948 100838.9130000025
364 1365493.3819999993 100948.70825000107
365 1365320.0929999948 101073.28700000048
366 1365319.4527499974 101293.64824999869
367 1365270.4790000021 101592.0842500031
368 1367192.7135129927 104563.01480146924
369 1367165.5227101627 104710.52975068272
370 1367138.3319073324 104858.04469989619
371 1367111.1411045024 105005.55964910967
372 1367078.8710057323 105152.00137106032
373 1367032.9315665648 105293.80524375454
374 1366903.1587079524 105301.88122976224
375 1366762.1234622132 105342.6276289515
376 1366693.7715681558 105469.55216506746
377 1366631.9623178954 105605.82796556572
378 1366588.3745421686 105687.71719647685
379 1366684.2217149977 105583.64123712896
380 1366739.5135149225 105444.34607701043
381 1366846.486157608 105348.91656563277
382 1366994.8644920767 105363.23339804108
383 1367088.2350951692 105280.37385102376
384 1367122.4457164952 105134.32716880032
385 1367155.9632104568 104988.13730078138
386 1367182.4237781223 104840.48961756621
387 1367208.884345788 104692.84193435105
388 1366036.540828974 102289.20016911632
389 1366162.0435826613 102371.35282468445
390 1366287.5463363486 102453.50548025258
391 1366347.7509852971 102590.47085169822
392 1366386.3384862253 102733.42030803216
393 1366403.198573764 102876.7160978232
394 1366384.1531667989 103020.12991604631
395 1366316.370130778 103153.38875851243
396 1366278.9119607701 103294.31527732077
397 1366223.650423867 103429.77989364635
398 1366179.6696201926 103568.2235916985
399 1366244.3840670069 103696.78224862355
400 1366300.4729690617 103820.37124087481
401 1366274.2258108787 103967.52575575348
402 1366305.8266039824 104079.69742692087
403 1366448.0881838913 104120.26277011189
404 1366572.8039430145 104203.6053128276
405 1366697.5197021377 104286.94785554332
406 1366822.235461261 104370.29039825902
407 1366949.2057645407 104449.22733549734
408 1367091.7738603351 104495.36750026362
409 1367233.6622873947 104539.19876549835
410 1367379.3555852056 104563.31543704777
411 1367443.9202911395 104688.28037929824
412 1367443.710429588 104838.28023249193
413 1367538.3956010726 104946.18983793205
414 1367640.4708588547 105050.0833971979
415 1367748.696862062 105153.5750234138
416 1367847.8558291013 105264.9075544544
417 1367962.6262330066 105345.70185532002
418 1368097.7485036922 105300.7539538997
419 1368243.5827434468 105335.85914604005
420 1368379.3024146147 105359.4442354671
421 1368465.4739931393 105473.06692605419
422 1368611.9537692904 105481.90134044616
423 1368755.7321558013 105447.11352602819
424 1368888.578699734 105493.13120703137
425 1369002.8808746384 105567.60256825527
426 1369135.3299510563 105628.32020064165
427 1369285.0614538884 105629.3599134036
428 1369429.3440144933 105632.22412679576
429 1369539.54389804 105696.7350851671
430 1369645.4654376984 105801.88126092036
431 1369735.4974277548 105921.34770578903
432 1369775.1666654546 106065.23411112344
433 1369860.6719870213 106179.61692137842
434 1369893.2316125087 106316.50867450092
435 1369976.8539417959 106430.07618918536
436 1370107.4808590685 106495.10954580583
437 1370217.1341571931 106588.15557629353
438 1370318.182736229 106682.33865397044
439 1370392.090640175 106810.89628198757
440 1370495.3062908167 106914.96443224553
441 1370557.5563621772 107050.88932455609
442 1370666.6225119124 107152.88889988225
443 1370805.638363194 107202.41103157256
444 1370934.8427871964 107266.4432407497
445 1371031.655022487 107380.75155894917
446 1371156.658651575 107447.76058554334
447 1371285.0919115087 107514.07782324139
448 1371376.0574722106 107631.39897558007
449 1371501.1692439623 107712.77835078212
450 1371625.9220925393 107792.9433011265
451 1371711.9366182867 107914.358937441
452 1371835.9766583773 107991.27836199799
453 1371970.4296778175 107932.27166527002
454 1372107.8227137113 107934.56912989994
455 1372254.8871226786 107964.0997854136
456 1372395.3983361423 107997.28026919406
457 1372375.6308829377 107900.06427461944
458 1372446.7425400116 107852.59060529887
459 1372578.5608874212 107911.88560644332
460 1372694.3179238103 107916.78370819644
461 1372842.2576095182 107912.16682683397
462 1372977.363553305 107903.3657727248
463 1373102.8704526818 107943.31343232928
464 1373174.1180498824 107813.97812007561
465 1373301.554779182 107739.01238963004
466 1373440.6119710305 107682.77096899327
467 1373539.9199971582 107575.71132436674
468 1373595.1026289426 107438.71999240712
469 1373682.7621464103 107326.2314475686
470 1373825.7613988575 107280.94111968788
471 1373972.5900799634 107260.06680768396
472 1374105.4115370861 107260.81937751903
473 1373963.4938508875 107220.01931118924
474 1373816.363074033 107242.35991181692
475 1373673.6890767158 107288.6646684786
476 1373573.562207237 107391.69755321191
477 1373512.6994035374 107527.43956578725
478 1373427.4855703018 107644.34271954709
479 1373288.5435828816 107700.86814861858
480 1373158.8558523986 107769.52353165302
481 1373087.51820663 107900.00069227652
482 1372961.2684879464 107843.0107710105
483 1372823.4528543614 107874.55513478596
484 1372693.0040849578 107835.33475608188
485 1372556.2470868432 107864.22442027499
486 1372420.7638167017 107802.12326578003
487 1372321.407149982 107868.55642958311
488 1372350.1353292074 107953.67561635816
489 1372207.185173766 107911.86978606594
490 1372060.189228125 107882.55141051793
491 1371925.0582866096 107913.21174328822
492 1371793.0254142159 107929.31894585656
493 1371687.0001415291 107825.47114231736
494 1371604.92731987 107710.6087833865
495 1371468.018048968 107651.24110810872
496 1371358.760230007 107550.0657382581
497 1371260.3253517908 107439.08615972915
498 1371117.27342849 107397.36099357506
499 1371013.6119292567 107298.832011329
500 1370908.954534565 107193.2755267773
501 1370767.5223615288 107151.16258504328
502 1370636.5800412444 107081.66910637302
503 1370557.8258125738 106957.10492169332
504 1370482.2755611273 106832.96920149647
505 1370381.7621495668 106722.82837292115
506 1370316.202277404 106588.26470057778
507 1370197.3839597236 106500.93023126839
508 1370072.7378563671 106435.42435596672
509 1369969.496815015 106352.136887146
510 1369929.8669277756 106208.46904112422
511 1369842.3457485824 106091.13541648186
512 1369790.489854448 105952.42827169632
513 1369714.1208143933 105824.28184150896
514 1369620.1744601794 105707.34560875835
515 1369505.1165631467 105611.84278419593
516 1369375.03067867 105607.51687528292
517 1369227.204385208 105591.2651190265
518 1369080.2553456007 105576.79171397441
519 1368972.6795124582 105472.25731712967
520 1368835.014027603 105436.20063834921
521 1368700.1882786034 105427.40116242695
522 1368552.0743046987 105444.90894290114
523 1368436.7056673025 105379.61009131762
524 1368331.1732600576 105299.10951213741
525 1368184.0407430178 105280.6924524674
526 1368041.7387286695 105279.8137344599
527 1367906.9732641801 105273.35672640975
528 1367811.6989549836 105157.888501321
529 1367701.968455647 105056.15442611417
530 1367608.2959389912 104939.08905538633
531 1367496.7224431592 104849.06329827839
532 1367483.6291225578 104703.66144098167
533 1367439.3470357163 104565.06725238852
534 1367312.3246321876 104499.50164243345
535 1367165.9527903604 104478.93639424273
536 1367022.5894467446 104435.85851034502
537 1366889.3596706449 104368.19591615813
538 1366764.751234586 104284.69299607207
539 1366640.1427985267 104201.190075986
540 1366515.5343624675 104117.68715589994
541 1366382.816145984 104055.0779515633
542 1366310.176102397 103954.27660589214
543 1366358.1530537487 103814.09212755098
544 1366288.7762182215 103686.19709447512
545 1366213.2925286288 103560.04544995479
546 1366260.5146898327 103418.60309483903
547 1366328.4354961573 103288.5851231951
548 1366363.4503300644 103142.85257242796
549 1366433.404704947 103012.62494046791
550 1366434.7358670996 102865.36197631327
551 1366413.0922127625 102718.38023908761
552 1366383.797520364 102577.65127131937
553 1366329.702787372 102444.25808367715
554 1366209.311944346 102355.4449492957
555 1366079.2724712912 102282.35133754641
556 1359570.126371167 108075.33049747045
557 1359673.3303110548 108303.5827615211
558 1360257.0533926592 109103.32934576603
559 1361082.5239774534 109584.56128449291
560 1361470.9301386252 109671.59315697702
561 1361899.0304253092 109833.69607402735
562 1362213.1885159027 110099.02709420945
563 1362893.2010007114 110936.6676328178
564 1362907.0898224334 110950.41738233637
565 1363282.5321963255 111238.68431820585
566 1363549.1769718823 111509.4784468116
567 1363570.4134291478 111537.23536624154
568 1363662.76787597 111806.40050834487
569 1363668.2940584433 111838.70142116466
570 1363681.590026667 112097.99066067724
571 1363650.1849326424 112365.4181959222
572 1363687.328189866 112580.0236821017
573 1363691.6155576361 112596.55156039272
574 1363846.554368009 112872.00519435648
575 1363856.5539481041 112885.08099230965
576 1364104.4236435385 113091.9356788178
577 1364300.4058238952 113282.63064392601
578 1364415.7405015512 113365.89006468035
579 1365013.1590643835 113672.20618270843
580 1365041.1755534369 113690.78390734005
581 1365477.0579630851 114098.10426677183
582 1365722.7635028416 114225.7648118641
583 1365746.5294791383 114246.76765577123
584 1365796.5560279556 114307.291019935
585 1365814.8571514327 114339.44808229855
586 1365848.5055408617 114494.54985820387
587 1365849.1104659042 114509.4681452104
588 1365844.920821768 114539.34859697087
589 1365775.5135575803 114805.44563129898
590 1365730.4802649422 114920.81077334145
591 1365672.2170658964 115560.44999393608
592 1365679.1113097991 115757.66895973138
593 1365637.8788687517 116159.21343520394
594 1365624.2210265147 116486.12392188208
595 1365605.3476266083 116616.79412771792
596 1365503.9249070797 116926.50890453262
597 1365485.0430745084 116961.42607040457
598 1365314.1272148548 117182.9353024887
599 1365302.7026248295 117191.55999204729
600 1365170.4830243476 117256.59565363471
601 1365158.655961138 117265.2157130451
602 1365074.3116014989 117368.72924532923
603 1365001.0167713491 117886.166294629
604 1364976.6687676117 117917.97045057837
605 1364764.6299683151 118138.0608231542
606 1364741.8840757075 118156.11032777539
607 1364729.0143565782 118161.79661432606
608 1364311.6559496908 118271.46993429757
609 1364278.6169193012 118274.35124445836
610 1364061.0079946988 118256.9658529366
611 1363930.299811653 118287.47189632448
612 1363875.965376055 118431.07004754774
613 1363871.384586934 118668.14316483084
614 1363873.5815725233 118679.76979878829
615 1363969.317717314 118840.62312183966
616 1364135.0645910576 119047.80671401916
617 1364272.3838879748 119060.92580076847
618 1364283.8124602519 119058.93568403942
619 1364482.2180703941 118957.78521416837
620 1364782.1883391968 118910.53629245838
621 1365217.7357667452 118745.08648365692
622 1365709.2864981683 118417.38028367895
623 1365720.9869465637 118405.51930720311
624 1366073.360594623 117920.35917816893
625 1366129.6838603483 117858.5338703414
626 1366248.6106124297 117783.43960006928
627 1366307.9076524219 117649.50913222053
628 1366391.505490683 117576.90245617653
629 1366423.3056223441 117560.49535142207
630 1366760.908999017 117507.51148144931
631 1366796.0911500673 117511.58794037932
632 1367064.01380053 117561.07676824341
633 1367082.8890283315 117562.38043626408
634 1367200.265983329 117553.03771501665
635 1367301.5294779395 117515.23321677798
636 1367416.5006361778 117399.96752623601
637 1367481.0945073285 117350.29134240486
638 1367558.446299648 117313.7487317295
639 1367594.6817188584 117302.82380769098
640 1367655.743636816 117297.25780052267
641 1367686.9234567573 117302.24745856447
642 1367800.955570035 117336.2491762843
643 1367968.6999993185 117352.38535969383
644 1368097.703365019 117343.34306722292
645 1368118.8984068225 117351.85274319723
646 1368147.0417645117 117376.85968331652
647 1368234.9400897203 117557.76862899245
648 1368328.70369136 117670.31437332112
649 1368344.3110926617 117693.73512653522
650 1368380.8279569875 117770.39719953551
651 1368510.8956612935 117821.0914034762
652 1368536.8666845742 117836.51746642271
653 1368633.0467255816 117907.40707170843
654 1368709.2015039057 117945.56246165627
655 1368804.627655824 117945.21817519997
656 1368837.7840470872 117949.66422126176
657 1368864.93118376 117961.09569391583
658 1368897.9452126329 117979.54209008912
659 1369027.3455188766 118088.10416511518
660 1369201.722999317 118169.61569252312
661 1369292.0129776967 118196.5852504648
662 1369323.2884994084 118208.9263361238
663 1369428.1572397829 118274.43788559177
664 1369564.171512273 118321.19279176035
665 1369655.7067735146 118344.9443775156
666 1369977.6129165972 118375.12952263578
667 1370200.6156854387 118432.38896991087
668 1370219.7377979648 118443.2761203678
669 1370313.2489521361 118535.57107183621
670 1370492.0871407506 118822.02292051695
671 1370541.5152092709 119124.85648954882
672 1370669.88979007 119656.0331014888
673 1370786.9592422498 119926.96360359761
674 1370931.1693198879 119892.1542745126
675 1371552.9273051762 119710.55783899587
676 1371817.9845981067 119602.20634825547
677 1371823.8934802352 119595.7443239092
678 1371901.6899488186 119458.18571152851
679 1371901.90214863 119290.5390207654
680 1371924.6939298876 119142.77912791901
681 1371924.9105465983 119125.56247440119
682 1371894.1093940926 118942.67271375716
683 1371835.1187841282 118919.81607106635
684 1371804.7373925105 118898.48459712828
685 1371716.6776388623 118796.17324525508
686 1371702.831913602 118765.77612925219
687 1371681.744598063 118658.3133746927
688 1371678.8157490534 118625.46053948482
689 1371697.8892064367 118556.87918464227
690 1371806.3552665166 118445.73247367439
691 1371976.678848899 118172.11815737821
692 1371995.9884752445 118148.16990753716
693 1372271.7291067422 117901.77920091688
694 1372338.1205147752 117744.42958558156
695 1372480.892165565 117480.58065962055
696 1372503.5921998967 117451.86952563509
697 1372802.854685561 117184.34332760047
698 1372845.2349710076 117136.32907907032
699 1372874.177440477 117062.9752823198
700 1372985.984072218 116950.53017609082
701 1373004.02967988 116941.07922335187
702 1373115.3717476192 116911.77209416174
703 1373192.4382231536 116853.6715221717
704 1373237.1074120316 116842.08500005883
705 1373442.6546167505 116882.42475048255
706 1373476.6276007185 116900.59111677049
707 1373486.9679417105 116909.76342811677
708 1373494.013521552 116921.65517954201
709 1373542.8584510277 117046.60492425553
710 1373545.259002622 117079.74734379163
711 1373543.469597994 117176.70669973199
712 1373575.1949427158 117372.84195368156
713 1373573.4981806949 117388.87805783623
714 1373562.1992213028 117421.16315883474
715 1373405.120555109 117563.9062061486
716 1373381.9205379873 117581.25449649179
717 1373242.3785181344 117645.76764946099
718 1373139.3186659769 117728.16161546797
719 1373216.7259075835 118015.02374612709
720 1373475.282166116 118336.23956899701
721 1373495.2781461868 118373.39622372648
722 1373615.2273871854 118784.79754257797
723 1373707.2026581434 119608.73481940388
724 1374018.1503610516 119782.09063663962
725 1374525.7778098907 119386.33436119142
726 1374941.947697673 119191.36896964995
727 1374955.3959868897 119188.89129680388
728 1374989.0173443812 119191.40067041935
729 1375669.14256046 119316.729760424
730 1376260.683211477 119110.90006234552
731 1376434.7615974229 118682.1578923718
732 1376489.0844696462 118218.85050479656
733 1376492.9445153142 118205.08734147868
734 1376512.449267897 118173.60873465013
735 1376870.5356736241 117770.4800173155
736 1376960.813781063 116979.42149130133
737 1376679.387201839 116054.14818420883
738 1376670.9089597727 116016.20030510463
739 1376697.1569558468 114739.5459124558
740 1376842.8532836975 112450.03218908409
741 1376472.7412296806 111006.8012022938
742 1376466.2481195638 110987.27912050448
743 1375308.1995287347 108556.93499266672
744 1373352.80877509 106179.06693297421
745 1372962.8036028894 106494.73823603394
746 1372930.347442243 106514.41587511974
747 1372212.2180244245 106660.6935006357
748 1372196.1761861332 106661.0083757754
749 1372163.5241981384 106652.48836144031
750 1371178.5998604246 106267.48719648947
751 1370351.1808834597 105655.26386375086
752 1370323.770558362 105624.23299418131
753 1369928.9409220864 104984.6008436788
754 1369586.8191833743 103973.10908472807
755 1369601.4655405085 103013.81963761318
756 1369711.697840932 102136.1007456066
757 1369719.400285914 102121.965216696
758 1371443.8009829896 99989.04776376241
759 1369679.6169149503 98613.58221919258
760 1369666.3356089704 98606.71950133756
761 1368338.0282731024 98283.10921555018
762 1368317.8125917236 98280.51718526118
763 1365323.8438527002 98166.24356926631
764 1363579.507151951 98361.5332995845
765 1363308.7589889832 100231.30225926594
766 1363461.1682491486 101663.94930482739
767 1363732.8253402968 102517.07361624106
768 1363738.576356389 102552.02999250693
769 1363719.5436407367 103609.65303256077
770 1363601.4225191083 104412.34572218671
771 1362525.386376684 106451.20298048953
772 1362510.8512683986 106477.26082751522
773 1362502.4002639933 106486.56484699741
774 1361977.1251628452 106842.82883962971
775 1373462.0325628608 118351.82659426167
776 1369628.4540082088 105900.80853230527
777 1370263.266939579 106611.05521504176
778 1366756.7855282973 104350.11928431052
779 1372301.6972158747 107888.22310152283
780 1372922.2442769133 107966.65187510436
781 1368264.0039684302 109226.76252685027
782 1365759.5220383524 113700.8290072562
783 1371863.6751169772 118188.58696800067
784 1369250.6373915698 118026.78161811734
785 1371002.9134851205 119679.08075699986
786 1374438.0768442978 115723.68586202845
787 1364052.8178315563 118448.74342479711
788 1363493.547871111 99994.38355845204
789 1366476.4033666872 105392.27050447407
790 1365625.5379722584 113104.55262860208
791 1373497.2080328104 108246.32466805617
792 1370938.4124007898 106719.82599686408
793 1365454.3972161948 103480.0909051416
794 1365976.9634146395 116608.38120936704
795 1366556.7271442916 114253.08781059341
796 1369382.9521841796 106777.91843701305
797 1368465.4417846166 98470.26185585975
798 1367770.728595348 112055.40537339065
799 1376564.9329168787 112614.20644151786
800 1363344.8418652846 104992.9527323821
801 1365399.8121107721 112107.82121265453
802 1365047.1323757074 99759.73001268167
803 1372678.1865516412 107547.96917286792
804 1368232.7614527475 109451.33089123068
805 1365584.3898248784 117294.79395167228
806 1366978.4417757154 114922.71256118627
807 1370028.3878204362 107215.49792371062
808 1372148.2164792425 110145.26888183584
809 1372145.1280607663 107045.46191772132
810 1374057.5218153268 114646.4094145713
811 1374720.3692303703 114736.56933206732
812 1374777.5265171523 118723.62206627672
813 1373763.7225546448 108041.6600581227
814 1366226.1196945193 113414.73032317136
815 1366550.9591255372 115606.30858133384
816 1363181.622865005 105916.95756869292
817 1372082.00819331 116485.23692215276
818 1362395.646527926 109960.7310992931
819 1369304.9524013486 99082.1935513331
820 1368092.2599411465 116967.13618565237
821 1375732.1189243735 112329.38357656894
822 1369443.743235468 103294.6332648662
823 1367118.7600320496 103967.95016224384
824 1376135.6037986085 116812.37406114407
825 1375543.6085693035 118275.16173437757
826 1376255.859696873 116494.4950540895
827 1366895.094729523 101615.01912363124
828 1368898.688771591 110074.95797530412
829 1370967.8502192372 118162.96988586645
830 1367032.9858274434 113513.5893458738
831 1367556.4040251144 115216.07017166272
832 1372594.7206086288 116559.61674835454
833 1368067.383008311 115402.35805511412
834 1361391.4171351073 107711.48386819399
835 1368329.3793822085 103882.74251524438
836 1365440.4002378895 118003.84391834094
837 1369232.1409098422 108015.1962468215
838 1368895.5023617826 103919.69206234773
839 1366756.4801509576 106427.93233304961
840 1375777.542806679 115520.61527597712
841 1375696.469920491 116548.9712282687
842 1366566.8914385503 99414.12107518746
843 1362402.1058167284 108054.89515719141
844 1364368.835105615 99123.17364436293
845 1371646.6729553204 116543.73520008664
846 1362903.9866773314 109740.71059525177
847 1361957.9305524554 108653.67408127649
848 1373559.995610727 115307.46146900971
849 1371478.278031791 110756.69401957018
850 1373681.7754102692 109279.53993879637
851 1367874.8927343825 113380.2887712383
852 1368282.6136842966 100526.52825683895
853 1366639.575764689 100162.55478373417
854 1363095.8372943727 108392.02139703314
855 1367780.9973610577 115278.65041628672
856 1368343.9090166655 108419.14603152117
857 1362952.142561218 109032.80216344548
858 1368326.2302946304 101536.38694986951
859 1368189.4682942873 105904.32941712599
860 1372626.148504866 110604.01205876718
861 1366743.1662401366 108147.08632481334
862 1368059.002501709 100033.20576482039
863 1366406.1192559027 111344.00620190376
864 1368130.1552201777 107590.05718337564
865 1367639.6175858397 109435.82406914783
866 1368735.963318381 113640.5461830208
867 1367778.6945176434 103387.20968740992
868 1370412.7036276532 111742.32268821671
869 1366965.9138337148 107370.56777740638
870 1368127.7448553666 100430.71544360646
871 1372700.7032101136 115341.46295486341
872 1368500.6118669433 107324.50106510456
873 1367040.9927529728 109773.62108229892
874 1372569.6234308132 113764.18561475945
875 1369880.353274859 112113.02271603054
876 1372228.235737295 115688.73974437907
877 1363688.4147138188 109341.09863840428
878 1366318.4310303307 108611.3755937349
879 1372516.7294697822 114118.82758744013
880 1365013.3312534161 107825.25924790808
881 1364389.2169529856 109432.10799075446
882 1374341.5179850548 112614.72700246554
883 1371161.7153738856 111490.44876781254
884 1374796.6172240695 114269.42142861882
885 1365487.90085383 109483.92685385408
886 1372444.0289706755 114717.57889549562
887 1374701.9314490254 114254.9000349186
888 1363572.9580723727 106308.50038375777
889 1364795.8958144041 108524.43750150182
890 1372187.220872006 113521.12587993122
891 1370298.157087378 113881.09138664382
892 1368441.851929098 111440.78250088195
893 1364850.4935759366 108335.13942402469
