67 2 0 0
0 5000.0 0.0
1 4975.0208263901295 499.16708323414076
2 4900.332889206208 993.346653975306
3 4776.68244562803 1477.601033306698
4 4605.304970014426 1947.0917115432526
5 4387.912809451864 2397.127693021015
6 4126.678074548391 2823.2123669751772
7 3824.210936422442 3221.0884361884555
8 3483.533546735827 3586.780454497614
9 3108.049841353322 3916.634548137417
10 2701.511529340699 4207.354924039482
11 2267.9806071278867 4456.036800307177
12 1811.788772383367 4660.195429836132
13 1337.4941431229367 4817.7909270859645
14 849.835714501204 4927.248649942301
15 353.6860083385145 4987.474933020272
16 -145.9976115064441 4997.868015207526
17 -644.2224714776243 4958.324052262343
18 -1136.0104734654356 4869.238154390976
19 -1616.4478343175178 4731.500438437072
20 -2080.7341827357122 4546.487134128409
21 -2524.230522999288 4316.046833244369
22 -2942.505586276729 4042.4820190979503
23 -3331.3801063991223 3728.5260608836
24 -3686.968577706229 3377.315902755753
25 -4005.7180777346684 2992.3607205197823
26 -4284.443766844736 2577.506859107321
27 -4520.360710085306 2136.899401169149
28 -4711.111703343291 1674.9407507795233
29 -4854.790825747953 1196.24664606991
30 -4949.962483002227 705.6000402993361
31 -4995.675751366397 207.90331216645245
32 -4991.473878973766 -291.87071713790044
33 -4937.398849544325 -788.7284707162432
34 -4833.990962897305 -1277.7055101341584
35 -4682.283436453981 -1753.9161384480992
36 -4483.792081670735 -2212.602216474262
37 -4240.50015855204 -2649.180704542467
38 -3954.8385595720824 -3059.289454713596
39 -3629.6615210006994 -3438.8307959198705
40 -3268.21810431806 -3784.012476539641
41 -2874.1197326663428 -4091.385555322054
42 -2451.304106703497 -4357.878862067941
43 -2003.9958603998773 -4580.829683747274
44 -1536.6643498920969 -4758.01036944758
45 -1053.9789971538985 -4887.650588325485
46 -560.7626346752699 -4968.455018167323
47 -61.9433173144528 -4999.616287820504
48 437.49491719723636 -4980.823044179203
49 932.5618471128788 -4912.2630631216625
50 1418.3109273161313 -4794.621373315692
51 1889.8887135649054 -4629.07341163866
52 2342.5833565018856 -4417.2732786007655
53 2771.871680895808 -4161.337211119504
54 3173.4643797131735 -3863.8224377799356
55 3543.3488714563 -3527.7016278519595
56 3877.8293925512507 -3156.333189361604
57 4173.563924195799 -2753.427712988188
58 4427.5975847065965 -2323.010897068783
59 4637.3921537201795 -1869.38332415118
60 4800.85143325183 -1397.0774909946292
61 4916.342192212924 -910.8125213604751
62 4982.7104851160875 -415.447014087482
63 -150.0 -150.0
64 -150.0 150.0
65 -140.0 150.0
66 -140.0 -150.0
