0  2  0  1
478  1
   0       1  6445       1
   1       2  6321       2
   2       3  5682       3
   3       4  5821       4
   4       5  5706       5
   5       6  6130       6
   6       7  6607       7
   7       8  6968       8
   8       9  6701       9
   9      10  6754      10
  10      11  7411      11
  11      12  6973      12
  12      13  6285      13
  13      14  6079      14
  14      15  11784      15
  15      16  5293      16
  16      17  11673      17
  17      18  4700      18
  18      19  12717      19
  19      20  11600      20
  20      21  12722      21
  21      22  11242      22
  22      23  12575      23
  23      24  12619      24
  24      25  11400      25
  25      26  12887      26
  26      27  12869      27
  27      28  10692      28
  28      29  10627      29
  29      30  12482      30
  30      31  12467      31
  31      32  10612      32
  32      33  10472      33
  33      34  12458      34
  34      35  12433      35
  35      36  12357      36
  36      37  10669      37
  37      38  10607      38
  38      39  10569      39
  39      40  10475      40
  40      41  11986      41
  41      42  7034      42
  42      43  7130      43
  43      44  7496      44
  44      45  12914      45
  45      46  8273      46
  46      47  8510      47
  47      48  12051      48
  48      49  7569      49
  49      50  7912      50
  50      51  8036      51
  51      52  8463      52
  52      53  12127      53
  53      54  8688      54
  54      55  8443      55
  55      56  12155      56
  56      57  4810      57
  57      58  4735      58
  58      59  4619      59
  59      60  4996      60
  60      61  4607      61
  61      62  4610      62
  62       0  3823      63
  63      63   213      64
  64      64   301      65
  65      65   227      66
  66      66    63      67
  67      68   245      64
  68      69   131      66
  69      70   105      66
  70      71   157      64
  71      72   108      66
  72      73   102      64
  73      74   148      66
  74      75   174      64
  75      76   109      64
  76      77   168      66
  77      78   236      64
  78      79   133      64
  79      80   114      64
  80      81   142      66
  81      82   126      66
  82      83   115      66
  83      84   219      66
  84      85   284      64
  85      86   132      66
  86      87   159      64
  87      88   204      64
  88      89   340      66
  89      90   337      64
  90      91   210      66
  91     202    74      66
  92      93   147      64
  93      94   270      64
  94      95   344      64
  95      96   212      66
  96      97   292      64
  97      98   273      64
  98      99   218      64
  99     100   230      66
 100     102    79      64
 101     105    89      66
 102     108    86      66
 103     109    80      64
 104     114    68      64
 105     115    72      66
 106     122    87      64
 107     123   177      66
 108     126    69      66
 109     127   180      64
 110     130    78      64
 111     131   246      66
 112     132    70      66
 113     133    76      64
 114     142    77      66
 115     147    71      64
 116     148   150      66
 117     150    81      66
 118     157    94      64
 119     159    93      64
 120     168   123      66
 121     174   122      64
 122     177    82      66
 123     180    75      64
 124     202    92      66
 125     204    98      64
 126     210   274      66
 127     212    66      66
 128     213    99      64
 129     218    90      64
 130     219    96      66
 131     226   300      64
 132     227   293      66
 133     230    91      66
 134     231   305      64
 135     236   127      64
 136     245   130      64
 137     246    83      66
 138     270    88      64
 139     273    85      64
 140     274    92      66
 141     284   231      64
 142     292   226      64
 143     293   100      66
 144     300    64      64
 145     301    65      65
 146     305    97      64
 147     337    95      64
 148     340    84      66
 149     344    73      64
 150    3613  4455      62
 151    3819  4714      63
 152    3823  3819      63
 153    3933  4027       1
 154    3936     0       1
 155    4027  3936       1
 156    4029  11654       1
 157    4135  4428      18
 158    4189    61      62
 159    4198  4989      61
 160    4273  6069      17
 161    4283  4425      18
 162    4284  6070      17
 163    4321  4621      60
 164    4423  11590      19
 165    4425    17      18
 166    4428  4283      18
 167    4430  4135      18
 168    4455  4189      62
 169    4460  11700      62
 170    4471  4630      59
 171    4476  4627      59
 172    4607  4198      61
 173    4610  4460      62
 174    4619  4476      59
 175    4621  4623      60
 176    4623    59      60
 177    4627  4471      59
 178    4630  4635      59
 179    4635    58      59
 180    4693  4701      19
 181    4700  4430      18
 182    4701    18      19
 183    4714    62      63
 184    4721  4799      58
 185    4735  4721      58
 186    4787  4993      61
 187    4799    57      58
 188    4806  8711      57
 189    4810  8732      57
 190    4989  4787      61
 191    4993    60      61
 192    4995  11745      60
 193    4996  4995      60
 194    5049  5673       4
 195    5206  5635      15
 196    5275  5279      16
 197    5279  11785      16
 198    5293  5295      16
 199    5295  5275      16
 200    5447  5638      15
 201    5543     3       4
 202    5563  5574       5
 203    5570  5704       5
 204    5571  5584       6
 205    5572     4       5
 206    5574  5572       5
 207    5584  5818       6
 208    5634  11797      15
 209    5635  5634      15
 210    5638  5206      15
 211    5672  5049       4
 212    5673  5543       4
 213    5677  5812       3
 214    5680  5677       3
 215    5682  5680       3
 216    5701     2       3
 217    5704  5563       5
 218    5706  5570       5
 219    5739    16      17
 220    5747  6157      14
 221    5812  5701       3
 222    5818     5       6
 223    5821  5672       4
 224    6040  6342       2
 225    6042  5571       6
 226    6069  5739      17
 227    6070  4273      17
 228    6077  5747      14
 229    6079  6077      14
 230    6129  6040       2
 231    6130  6042       6
 232    6132  6134       7
 233    6134  6135       7
 234    6135     6       7
 235    6157  11881      14
 236    6163  6626      13
 237    6285  6460      13
 238    6321  6129       2
 239    6342  11899       2
 240    6361  6695      10
 241    6445  4029       1
 242    6460  6163      13
 243    6530  6132       7
 244    6607  6530       7
 245    6617  6707       9
 246    6623  6703       9
 247    6626  6710      13
 248    6693  11931      10
 249    6695  6693      10
 250    6697  6753      10
 251    6701  6623       9
 252    6703  6617       9
 253    6707     8       9
 254    6710    12      13
 255    6753  6361      10
 256    6754  6697      10
 257    6834  7039      43
 258    6839  6841       8
 259    6841  11953       8
 260    6858  7136      12
 261    6938  7284      42
 262    6941    42      43
 263    6968  6839       8
 264    6973  6858      12
 265    7034  7120      42
 266    7039  6941      43
 267    7061  7287      12
 268    7120  6938      42
 269    7130  7131      43
 270    7131  6834      43
 271    7136  7061      12
 272    7190  7285      44
 273    7284  11983      42
 274    7285  7327      44
 275    7286  11933      11
 276    7287    11      12
 277    7327    43      44
 278    7411  11998      11
 279    7493  7190      44
 280    7496  7493      44
 281    7510  12099      50
 282    7511  7832      49
 283    7557  12179      48
 284    7569  7511      49
 285    7721  12059      49
 286    7832  7721      49
 287    7909  7969      50
 288    7912  7909      50
 289    7914  7916      51
 290    7916  7917      51
 291    7917    50      51
 292    7969  7510      50
 293    7973    49      50
 294    8033  7914      51
 295    8036  8033      51
 296    8269  12117      46
 297    8273  12114      46
 298    8299  12128      53
 299    8306  8299      53
 300    8311  8465      53
 301    8315  12147      52
 302    8321  8315      52
 303    8324  8468      47
 304    8384    51      52
 305    8421  8425      56
 306    8425  12136      56
 307    8435  8444      55
 308    8441  12139      55
 309    8443  8435      55
 310    8444  8441      55
 311    8463  8321      52
 312    8465    52      53
 313    8468    46      47
 314    8502  8585      54
 315    8510  8590      47
 316    8574  8421      56
 317    8585    53      54
 318    8590  8324      47
 319    8680    56      57
 320    8688  8717      54
 321    8711  8680      57
 322    8717  8502      54
 323    8732  4806      57
 324    10127  12350      37
 325    10279  10330      36
 326    10330  12430      36
 327    10342  10343      41
 328    10343    40      41
 329    10361  10502      34
 330    10364  12455      34
 331    10372  10567      40
 332    10419  10578      39
 333    10432  10659      32
 334    10436  10530      31
 335    10440  12470      31
 336    10460    33      34
 337    10462  10588      33
 338    10470  10462      33
 339    10472  10470      33
 340    10475  10508      40
 341    10502  10460      34
 342    10508  10372      40
 343    10522  12495      30
 344    10530  12483      31
 345    10545  12491      30
 346    10564  12489      40
 347    10567  10564      40
 348    10569  10581      39
 349    10573  10639      38
 350    10578  10583      39
 351    10581  10419      39
 352    10583    38      39
 353    10588    32      33
 354    10589  10432      32
 355    10596  10573      38
 356    10607  10596      38
 357    10612  10589      32
 358    10622  10625      30
 359    10623  10677      29
 360    10625    29      30
 361    10626  10623      29
 362    10627  10626      29
 363    10639    37      38
 364    10657    31      32
 365    10659  10657      32
 366    10666  10127      37
 367    10669  10666      37
 368    10675  12498      29
 369    10677  10675      29
 370    10691  10725      28
 371    10692  10721      28
 372    10721  10691      28
 373    10725  12829      28
 374    11228  12553      22
 375    11242  12545      22
 376    11319  11349      24
 377    11342  11319      24
 378    11349    23      24
 379    11366  12843      25
 380    11374  11414      26
 381    11400  12696      25
 382    11409  11415      26
 383    11413  11374      26
 384    11414  11409      26
 385    11415    25      26
 386    11581  11593      20
 387    11582    19      20
 388    11586  11591      19
 389    11590  4693      19
 390    11591  4423      19
 391    11593  11582      20
 392    11600  11603      20
 393    11603  11581      20
 394    11608  11632      21
 395    11613  11616      21
 396    11616    20      21
 397    11627  11608      21
 398    11632  11613      21
 399    11654  3933       1
 400    11673  4284      17
 401    11700  3613      62
 402    11745  4321      60
 403    11784  5447      15
 404    11785    15      16
 405    11797    14      15
 406    11881    13      14
 407    11899     1       2
 408    11931     9      10
 409    11933  12007      11
 410    11953     7       8
 411    11983    41      42
 412    11985  10342      41
 413    11986  11985      41
 414    11998  7286      11
 415    12007    10      11
 416    12019  12899      45
 417    12051  12052      48
 418    12052  7557      48
 419    12059    48      49
 420    12099  7973      50
 421    12114  8269      46
 422    12117  12917      46
 423    12127  8306      53
 424    12128  8311      53
 425    12136    55      56
 426    12139    54      55
 427    12147  8384      52
 428    12155  8574      56
 429    12178    47      48
 430    12179  12178      48
 431    12342    36      37
 432    12350  12342      37
 433    12356  10279      36
 434    12357  12356      36
 435    12427  12442      35
 436    12429  12427      35
 437    12430    35      36
 438    12433  12429      35
 439    12441    34      35
 440    12442  12441      35
 441    12455  10361      34
 442    12458  10364      34
 443    12467  10440      31
 444    12470  10436      31
 445    12482  10545      30
 446    12483    30      31
 447    12489    39      40
 448    12491  10522      30
 449    12495  10622      30
 450    12498    28      29
 451    12537  12582      23
 452    12545  11228      22
 453    12549  12580      22
 454    12553  12549      22
 455    12560    22      23
 456    12573  12537      23
 457    12575  12573      23
 458    12580    21      22
 459    12582  12560      23
 460    12619  11342      24
 461    12621  12623      25
 462    12623    24      25
 463    12696  11366      25
 464    12700  12944      27
 465    12717  11586      19
 466    12722  11627      21
 467    12749    44      45
 468    12829    27      28
 469    12843  12621      25
 470    12857    26      27
 471    12869  12700      27
 472    12887  11413      26
 473    12899  12749      45
 474    12901  12019      45
 475    12914  12901      45
 476    12917    45      46
 477    12944  12857      27
0
2
   0   -145  0  0  50
   1   -500  -500  0  5000
# Generated by C:\Users\lukem\mf6\modflow_exe\triangle.exe -a -q30 -A -p -V -D -e -n _triangle.0
