34 2 0 0
0 0.0 0.0
1 0.0 420.0
2 520.0 420.0
3 520.0 0.0
4 231.74960578695425 154.90310870286285
5 225.85990574611446 135.48736968504812
6 212.98845077650958 119.80345642513768
7 195.09480321723203 110.23910254192513
8 174.90310870286285 108.25039421304575
9 155.48736968504812 114.14009425388554
10 139.80345642513768 127.01154922349043
11 130.23910254192515 144.90519678276794
12 128.25039421304575 165.09689129713715
13 134.14009425388554 184.51263031495188
14 147.01154922349042 200.1965435748623
15 164.90519678276794 209.76089745807485
16 185.09689129713712 211.74960578695425
17 204.51263031495188 205.85990574611446
18 220.1965435748623 192.98845077650958
19 229.76089745807485 175.09480321723206
20 45.30344866938465 381.0353403188312
21 151.67326602691105 325.4884056119864
22 258.04308338443747 269.9414709051416
23 364.4129007419639 214.39453619829686
24 470.7827180994903 158.84760149145208
25 470.0402846334114 96.22498199895715
26 363.6840346318184 151.79788983720732
27 257.3277846302254 207.37079767545748
28 150.97153462863236 262.94370551370764
29 44.61528462703933 318.5166133519578
30 45.0 375.0
31 475.0 375.0
32 475.0 45.0
33 45.0 45.0
