3036  3  1
   0    1508    48    73  0
   1       8  1408     7  0
   2      11  1429    12  0
   3      13  1458    12  0
   4    1433    11  1410  0
   5    1406  1403   114  0
   6    1430  1429    10  0
   7    1411     9    10  0
   8    1429  1428    13  0
   9       9  1430    10  0
  10      14    13  1428  0
  11       8  1427  1408  0
  12      76    90    56  0
  13     114  1287  1354  0
  14     943  1032   973  0
  15     781   834   569  0
  16    1171  1040  1276  0
  17     962   994   958  0
  18     989   473   966  0
  19      72     0    33  0
  20    1451  1436  1449  0
  21    1428    15    14  0
  22    1452    28  1447  0
  23    1436    15    16  0
  24      17    42    16  0
  25     282   276   270  0
  26      15  1428  1443  0
  27     804  1174  1160  0
  28    1354  1406   114  0
  29    1033  1007   981  0
  30    1430  1409  1429  0
  31     282   326   276  0
  32       4    19  1445  0
  33       7  1408  1426  0
  34    1431  1445    19  0
  35       5  1415     4  0
  36       5     6  1442  0
  37      19    18  1431  0
  38    1246    83  1323  0
  39    1474  1510  1480  0
  40     117   110  1288  0
  41    1284  1285  1282  0
  42    1470  1465  1468  0
  43      79  1185  1196  0
  44      32  1342  1363  0
  45    1416    19  1463  0
  46      18    19  1416  0
  47      15  1443    16  0
  48      21  1424  1454  0
  49      17  1417    42  0
  50       4  1415  1463  0
  51      18    17  1431  0
  52      24  1154  1213  0
  53    1437  1478  1491  0
  54    1545    39  1543  0
  55    1395  1405  1361  0
  56     110   134   168  0
  57    1483    23  1470  0
  58      63     2    31  0
  59    1520  1505  1514  0
  60    1373  1394    98  0
  61      28  1448  1447  0
  62    1454  1507  1487  0
  63       4  1445     5  0
  64    1062   477  1057  0
  65     521   525   526  0
  66     120   138    29  0
  67     372   247   369  0
  68    1399  1407  1425  0
  69      11    12  1410  0
  70    1418  1438  1370  0
  71      50  1404  1494  0
  72    1496  1374  1492  0
  73    1421  1489    54  0
  74    1516  1417  1505  0
  75    1417    17    18  0
  76    1512    51    74  0
  77    1542  1507  1522  0
  78    1195  1204   113  0
  79    1189  1357  1361  0
  80    1541  1539  1540  0
  81      90  1426  1408  0
  82      37    29   827  0
  83      12  1432  1410  0
  84     650   544   166  0
  85     166   544   545  0
  86      48  1508    58  0
  87     868   128   879  0
  88      39    81  1543  0
  89      51  1512    62  0
  90    1500  1496  1498  0
  91    1209  1183  1193  0
  92    1379  1396  1359  0
  93      66    55  1528  0
  94    1528    55    56  0
  95       9  1411  1427  0
  96     755   107   687  0
  97      89   121   680  0
  98      46    38    58  0
  99      30   527   530  0
 100    1069  1145  1033  0
 101    1548    61    43  0
 102      31     2    62  0
 103      75  1500  1502  0
 104    1363  1397    32  0
 105    1363  1342  1359  0
 106      33     0    66  0
 107    1386  1393  1487  0
 108    1308  1369  1272  0
 109     193   134  1193  0
 110     117    25   103  0
 111    1536    99  1531  0
 112    1416  1463    27  0
 113    1457  1458    13  0
 114      70  1370  1438  0
 115     122   510   224  0
 116     214    71   200  0
 117    1549    72    33  0
 118    1546  1549  1528  0
 119      72  1549    48  0
 120    1465  1470    23  0
 121    1548    51    61  0
 122    1513  1497    75  0
 123    1504  1502  1503  0
 124      56    55    76  0
 125     667   664   678  0
 126     163   106   130  0
 127     539    78   190  0
 128      47   183   484  0
 129      32  1400  1265  0
 130    1297  1264   142  0
 131    1356    80  1404  0
 132      80  1368  1393  0
 133      67  1487  1507  0
 134      82    81    39  0
 135      81    82    67  0
 136    1402  1235  1323  0
 137      83  1213  1154  0
 138    1157  1275  1165  0
 139     112   169    96  0
 140      85  1538  1536  0
 141    1230  1249   788  0
 142     549   154   211  0
 143     245   258   226  0
 144     183   584   123  0
 145     158   485   486  0
 146     789   105   676  0
 147     159    57   136  0
 148    1426     6     7  0
 149    1540    41  1537  0
 150    1407  1355   114  0
 151     137   128   161  0
 152     645   639   648  0
 153     104   190    78  0
 154    1206   103  1185  0
 155     103    93   117  0
 156     276   326    87  0
 157    1169  1054  1172  0
 158     401   209   375  0
 159      95   225   244  0
 160    1233  1190  1204  0
 161     170  1155   135  0
 162    1184    96   169  0
 163      69  1382  1420  0
 164    1316  1311  1309  0
 165    1511  1420  1480  0
 166    1538    99  1536  0
 167     347   305   313  0
 168     336    36   335  0
 169     172   430   428  0
 170     175   201   141  0
 171     623   151   176  0
 172     167   192   133  0
 173    1206  1185  1197  0
 174      25  1185   103  0
 175     655   656   653  0
 176      78   145   104  0
 177     129   661   665  0
 178     662   126   661  0
 179     160   711   797  0
 180     127   147    77  0
 181     660   656   655  0
 182     178   107   149  0
 183     683   829   850  0
 184     120   108   138  0
 185     188   111   573  0
 186     177   102   118  0
 187    1156  1157  1158  0
 188     193    84   168  0
 189     547   574   118  0
 190     179   111   151  0
 191    1157   112  1262  0
 192      96   119   112  0
 193      96  1205   144  0
 194     144    24   119  0
 195     822   968   825  0
 196     754   886   660  0
 197     453   425   426  0
 198     218   101   197  0
 199    1335  1383  1380  0
 200     110   168  1223  0
 201    1166  1223   168  0
 202      93   110   117  0
 203      88   485   602  0
 204     102   143   118  0
 205    1267    24  1210  0
 206      24   144   113  0
 207     164   107   755  0
 208      29    37   120  0
 209     754   660   659  0
 210     187    89   160  0
 211     226   299   488  0
 212     235   254   266  0
 213     198   101   495  0
 214     123   154   484  0
 215     427   417   422  0
 216     153   485    88  0
 217     640   632   622  0
 218     164   131   107  0
 219     623   641   607  0
 220     136   105   159  0
 221     682   684   680  0
 222      77   160   127  0
 223     127   839   163  0
 224     137   161    91  0
 225     661   146   663  0
 226     129   162   662  0
 227     658   656   660  0
 228     106   148   130  0
 229     570   706   539  0
 230     150   164   125  0
 231     616   597   191  0
 232     213   540   191  0
 233     192   543   608  0
 234     542   543   192  0
 235    1193  1183   193  0
 236     110   152   134  0
 237      68  1203  1155  0
 238    1155    84    68  0
 239     661   663   665  0
 240      57   669   136  0
 241     797   839   127  0
 242     148   137    91  0
 243     856   106   838  0
 244     108   128   138  0
 245     453   427   422  0
 246     218   197   429  0
 247     384   376   257  0
 248     247   208   228  0
 249     563    71   499  0
 250     171   199   115  0
 251    1277  1285  1265  0
 252    1288   110  1223  0
 253     575   547   143  0
 254      88   487   153  0
 255     144  1205  1195  0
 256     119    96   144  0
 257     162   670   673  0
 258     146   145    78  0
 259     663    78   539  0
 260     145   146   126  0
 261     108   862   161  0
 262     163   147   127  0
 263     709   667   678  0
 264     137   148   106  0
 265     674   676   136  0
 266     107   131   149  0
 267     674   669   671  0
 268     125   105   150  0
 269     426   467   453  0
 270     111   176   151  0
 271    1212  1193  1201  0
 272     110    93   152  0
 273     151   607   177  0
 274     487    88   143  0
 275     124   578   211  0
 276     211   158   124  0
 277     434   101   218  0
 278     198   173   101  0
 279     205   323   325  0
 280     225   156   209  0
 281     390   378   157  0
 282     157   284   238  0
 283     183   558   584  0
 284     186   211   154  0
 285     678   664   675  0
 286     105   125   159  0
 287     150   789   836  0
 288      89   187   121  0
 289     678   675   679  0
 290     128   108   161  0
 291     685   178   681  0
 292     670   129   669  0
 293     711   160    89  0
 294     147   163   130  0
 295     641   649   634  0
 296     131   164   150  0
 297     570   539   190  0
 298     132   189   166  0
 299     651   646   653  0
 300     189   212   165  0
 301     179   574   601  0
 302     133   188   167  0
 303      84  1156  1158  0
 304      84   193    68  0
 305     135  1202   169  0
 306     112   135   169  0
 307      84  1166   168  0
 308     135   112   170  0
 309     374   439   208  0
 310     115   196   171  0
 311     572   141   201  0
 312     216   139   194  0
 313     576    47   484  0
 314     195   198   155  0
 315     422   416   425  0
 316     200   174   214  0
 317     429   432   435  0
 318     141   194   175  0
 319     151   623   607  0
 320     111   133   176  0
 321     177   607   579  0
 322     179   177   118  0
 323     647   652   643  0
 324     680   178   149  0
 325     118   143   547  0
 326     177   179   151  0
 327     207   385   246  0
 328     207   227   181  0
 329     323   232   324  0
 330     243   180   224  0
 331     156   496   221  0
 332     241   184   221  0
 333     101   434   495  0
 334      47   155   183  0
 335     217   246   400  0
 336     242   257   223  0
 337     266   254   297  0
 338     273   230   268  0
 339     198   559   155  0
 340     154   123   186  0
 341     652   654   658  0
 342     160    77   187  0
 343     574   179   118  0
 344     133   111   188  0
 345     578   604   631  0
 346     165   104   189  0
 347     854   896   836  0
 348     104   165   190  0
 349     542   167   617  0
 350     540    92   109  0
 351     541   635    92  0
 352     543   109    92  0
 353     152  1201   134  0
 354     168   134   193  0
 355     197   173   432  0
 356     139   216   172  0
 357     384   397   449  0
 358     155    47   195  0
 359     208   247   374  0
 360     200   196   115  0
 361     619   705   725  0
 362     101   173   197  0
 363     218   428   431  0
 364     173   198   195  0
 365     236   421   416  0
 366     201   199   171  0
 367     416   410   228  0
 368     196   200    71  0
 369     439   499   214  0
 370     199   201   175  0
 371     240   265   317  0
 372     284   202   238  0
 373     225   340   436  0
 374     221   203   241  0
 375     331   554   299  0
 376     204   217   243  0
 377     489   181   227  0
 378     323   215   232  0
 379     391   258   219  0
 380     219   245   122  0
 381      95   244   403  0
 382     181   231   207  0
 383     182   371   369  0
 384     370   247   228  0
 385     404   241   223  0
 386     156   375   209  0
 387     251   380   235  0
 388     250   210   233  0
 389     550   194   455  0
 390     158   211   186  0
 391     191   540   616  0
 392     189   132   212  0
 393     432   725   705  0
 394     191   544   213  0
 395     371   372   369  0
 396     174   208   214  0
 397     386   244   209  0
 398     322   323   205  0
 399     196   563   588  0
 400     194   141   216  0
 401     411   231   215  0
 402     246   204   227  0
 403     216   141   546  0
 404     429   139   172  0
 405     251   229   328  0
 406     122   237   219  0
 407     380   393   235  0
 408     256   226   206  0
 409     340   225   205  0
 410     375   221   184  0
 411     309   291   318  0
 412     261   229   260  0
 413     384   257   140  0
 414     257   182   140  0
 415     554   488   299  0
 416     180   122   224  0
 417     323   324   325  0
 418      95   205   225  0
 419     239   255   299  0
 420     239   256   220  0
 421     488   245   226  0
 422     204   246   217  0
 423     140   397   384  0
 424     208   236   228  0
 425     234   253   293  0
 426     234   291   222  0
 427     269   305   273  0
 428     262   271   278  0
 429     328   380   251  0
 430     232   231   181  0
 431     204   512   227  0
 432     231   232   215  0
 433     302   297   254  0
 434     210   263   233  0
 435     157   238   390  0
 436     222   253   234  0
 437     296   229   261  0
 438     251   266   185  0
 439     370   410   397  0
 440     208   174   236  0
 441     400   246   385  0
 442     122   180   237  0
 443     406   206   415  0
 444     202   220   238  0
 445     202   307   255  0
 446     220   255   239  0
 447     255   307   299  0
 448     253   240   157  0
 449     241   404   387  0
 450     203   223   241  0
 451     156   225   436  0
 452     223   203   242  0
 453     379   279   327  0
 454     204   243   224  0
 455     375   413   401  0
 456     225   209   244  0
 457     226   239   299  0
 458     226   258   206  0
 459     385   207   398  0
 460     227   207   246  0
 461     491   242   203  0
 462     370   140   182  0
 463     185   310   260  0
 464     260   248   261  0
 465     285   288   259  0
 466     268   249   269  0
 467     229   296   328  0
 468     235   264   254  0
 469     249   268   327  0
 470     185   229   251  0
 471     230   273   298  0
 472     286   259   230  0
 473     220   405   238  0
 474     240   253   265  0
 475     297   283   266  0
 476     264   235   250  0
 477     316   202   284  0
 478     220   202   255  0
 479     238   405   390  0
 480     226   256   239  0
 481     370   397   140  0
 482     182   257   242  0
 483     243   412   180  0
 484     245   219   258  0
 485     210   287   267  0
 486     286   252   267  0
 487     266   283   185  0
 488     229   185   260  0
 489     157   378   253  0
 490     292   248   291  0
 491     305   269   313  0
 492     276   277   274  0
 493     230   304   286  0
 494     210   252   263  0
 495     286   304   312  0
 496     250   233   264  0
 497     291   309   222  0
 498     253   222   265  0
 499     264   302   254  0
 500     235   266   251  0
 501     377   210   250  0
 502     252   210   267  0
 503     287   288   285  0
 504     230   259   268  0
 505     298   273   305  0
 506     249   272   269  0
 507     280   278   279  0
 508     278   270   275  0
 509     290   327   268  0
 510     272   271   262  0
 511     275   321   314  0
 512     271   272   249  0
 513     313   269   272  0
 514     268   269   273  0
 515     315   277   100  0
 516     277    87   100  0
 517     277   306   274  0
 518     270   274   275  0
 519     280   270   278  0
 520     274   270   276  0
 521     297   302   341  0
 522      87   277   276  0
 523     262   278   275  0
 524     249   279   271  0
 525     714   691   379  0
 526     278   271   279  0
 527     280   279   281  0
 528     270   280   282  0
 529     290   268   259  0
 530     379   289   493  0
 531     280   281   282  0
 532     282   281   326  0
 533     441   349   395  0
 534     310   301   260  0
 535     157   240   284  0
 536     317   308   240  0
 537     267   285   286  0
 538     287   285   267  0
 539     304   230   298  0
 540     259   286   285  0
 541     294   261   292  0
 542     292   293   294  0
 543     288   287   289  0
 544     259   288   290  0
 545     207   231   398  0
 546     388   289   287  0
 547     288   289   290  0
 548     327   279   249  0
 549     248   292   261  0
 550     248   260   301  0
 551     293   292   234  0
 552     291   234   292  0
 553     412   243   399  0
 554     243   217   399  0
 555     294   293   295  0
 556     261   294   296  0
 557     293   253   378  0
 558     377   388   287  0
 559     294   295   296  0
 560     296   295   328  0
 561     311   264   233  0
 562     319   311   233  0
 563     277   315   306  0
 564     329   283   297  0
 565     316   343   307  0
 566     436   496   156  0
 567     222   309   300  0
 568     222   300   265  0
 569     333   345   301  0
 570     310   333   301  0
 571     303   263   252  0
 572     311   302   264  0
 573     305   334   298  0
 574     341   302   311  0
 575     342   298   330  0
 576     286   312   252  0
 577     320   272   262  0
 578     274   321   275  0
 579     338   306   355  0
 580     338   314   321  0
 581     308   284   240  0
 582     202   316   307  0
 583     300   309   344  0
 584     344   349   300  0
 585     318   291   248  0
 586     309   318   344  0
 587     185   283   310  0
 588     333   310   283  0
 589     319   233   263  0
 590     329   297   341  0
 591     342   312   304  0
 592     303   252   312  0
 593     314   262   275  0
 594     272   320   313  0
 595     303   354   360  0
 596     347   313   320  0
 597     492   748   581  0
 598     368   100   366  0
 599     284   308   316  0
 600     308   350   343  0
 601     265   300   317  0
 602     337   317   300  0
 603     248   301   318  0
 604     301   345   344  0
 605     263   303   319  0
 606     353   341   352  0
 607     262   314   320  0
 608     347   334   305  0
 609     274   306   321  0
 610     338   321   306  0
 611     205    95   322  0
 612     386   403   244  0
 613     324   232   181  0
 614     215   323   322  0
 615     299   307   343  0
 616     439   214   208  0
 617     325   324   339  0
 618     205   325   340  0
 619     561   365   497  0
 620     326   498   437  0
 621     290   289   327  0
 622     327   289   379  0
 623     328   295   392  0
 624     210   377   287  0
 625     342   303   312  0
 626     245   488   511  0
 627     330   298   334  0
 628     381   345   346  0
 629     308   317   337  0
 630     331   350   394  0
 631     341   353   329  0
 632     332   344   345  0
 633     329   346   283  0
 634     283   346   333  0
 635     338   351   314  0
 636     334   347   358  0
 637     943   356   335  0
 638     336   356   357  0
 639     497   365   367  0
 640     356   336   335  0
 641     337   300   349  0
 642     308   337   350  0
 643     348   306   315  0
 644     306   348   355  0
 645     324   181   489  0
 646     431   428   430  0
 647     325   339   340  0
 648     340   339   436  0
 649     319   352   311  0
 650     341   311   352  0
 651     298   342   304  0
 652     342   330   354  0
 653     308   343   316  0
 654     299   343   331  0
 655     301   344   318  0
 656     344   332   349  0
 657     345   333   346  0
 658     337   349   350  0
 659     363   334   358  0
 660     332   395   349  0
 661     320   314   347  0
 662     358   314   351  0
 663     492   351   383  0
 664     382   360   354  0
 665     381   332   345  0
 666     350   331   343  0
 667     382   409   353  0
 668     332   381   395  0
 669     438   348   368  0
 670     353   360   382  0
 671     319   303   352  0
 672     342   354   303  0
 673     363   490   334  0
 674     329   353   409  0
 675     359   354   330  0
 676     303   360   352  0
 677     355   348   383  0
 678     351   338   355  0
 679     688   438   548  0
 680     361   362   357  0
 681     379   691   281  0
 682     361   357   356  0
 683     314   358   347  0
 684     363   358   351  0
 685     334   490   330  0
 686     546   693   430  0
 687     382   354   359  0
 688     353   352   360  0
 689     688   348   438  0
 690     364   365   362  0
 691     497   367   437  0
 692     364   362   361  0
 693     351   355   383  0
 694     490   359   330  0
 695     438   368   366  0
 696     366   367   365  0
 697     437   367    87  0
 698     366   365   364  0
 699     100   368   315  0
 700     367   100    87  0
 701     326   437    87  0
 702     100   367   366  0
 703     438   366   364  0
 704     348   315   368  0
 705     182   369   370  0
 706     371   182   242  0
 707     174   421   236  0
 708     247   370   369  0
 709     245   511   122  0
 710     563   196    71  0
 711     372   371   373  0
 712     247   372   374  0
 713     513   221   496  0
 714     198   495   559  0
 715     372   373   374  0
 716     374   373   439  0
 717     221   375   156  0
 718     184   241   387  0
 719     293   378   389  0
 720     223   257   376  0
 721     293   389   295  0
 722     281   279   379  0
 723     446   500   408  0
 724     380   408   393  0
 725     388   515   289  0
 726     561   362   365  0
 727     392   380   328  0
 728     235   393   250  0
 729     556   359   490  0
 730     555   324   489  0
 731     382   359   396  0
 732     382   396   409  0
 733     787   748   773  0
 734     409   447   346  0
 735     410   370   228  0
 736     236   416   228  0
 737     452   411   423  0
 738     237   407   219  0
 739     376   461   445  0
 740     398   231   411  0
 741     459   387   445  0
 742     401   386   209  0
 743     295   389   494  0
 744     405   420   451  0
 745     456   457   386  0
 746     377   408   500  0
 747     414   220   256  0
 748     258   415   206  0
 749     391   219   407  0
 750     405   451   390  0
 751     378   390   451  0
 752     377   500   388  0
 753     408   380   392  0
 754     377   250   393  0
 755     381   346   447  0
 756     371   491   557  0
 757     440   395   381  0
 758     349   441   350  0
 759     359   556   396  0
 760     394   441   440  0
 761     424   174   200  0
 762     397   417   449  0
 763     411   215   418  0
 764     322    95   402  0
 765     398   411   452  0
 766     464   399   442  0
 767     442   400   385  0
 768     399   217   400  0
 769     413   375   184  0
 770     401   413   456  0
 771     386   401   456  0
 772     378   451   501  0
 773     444   403   386  0
 774     402    95   403  0
 775     223   376   404  0
 776     445   404   376  0
 777     406   256   206  0
 778     220   414   405  0
 779     448   406   415  0
 780     414   420   405  0
 781     419   180   412  0
 782     419   450   463  0
 783     446   408   392  0
 784     377   393   408  0
 785     409   396   447  0
 786     329   409   346  0
 787     410   422   417  0
 788     397   410   417  0
 789     418   215   322  0
 790     418   423   411  0
 791     450   419   412  0
 792     180   419   237  0
 793     184   387   413  0
 794     387   459   456  0
 795     256   406   414  0
 796     420   414   406  0
 797     258   391   415  0
 798     448   415   391  0
 799     455   194   139  0
 800     416   422   410  0
 801     484   154   577  0
 802     391   462   448  0
 803     322   402   418  0
 804     423   418   402  0
 805     450   412   399  0
 806     407   237   419  0
 807     398   452   385  0
 808     403   444   402  0
 809     115   469   200  0
 810     421   425   416  0
 811     421   174   424  0
 812     424   426   421  0
 813     445   387   404  0
 814     442   399   400  0
 815     550   694   175  0
 816     194   550   175  0
 817     425   421   426  0
 818     425   453   422  0
 819     470   466   467  0
 820     139   429   435  0
 821     579   102   177  0
 822     450   464   551  0
 823     172   428   429  0
 824     430   172   216  0
 825     432   429   197  0
 826     218   429   428  0
 827     557   373   371  0
 828      88   575   143  0
 829     431   430   433  0
 830     218   431   434  0
 831     486   604   124  0
 832     606   102   579  0
 833     430   216   546  0
 834     706   596   628  0
 835     431   433   434  0
 836     434   433   495  0
 837     435   432   454  0
 838     139   435   455  0
 839     436   339   560  0
 840     242   491   371  0
 841     498   326   281  0
 842     379   493   714  0
 843     361   548   364  0
 844     438   364   548  0
 845     373   557   721  0
 846     214   499    71  0
 847     689   381   447  0
 848     791   447   582  0
 849     440   441   395  0
 850     394   350   441  0
 851     385   452   465  0
 852     460   406   448  0
 853     494   389   501  0
 854     423   568   518  0
 855     444   386   457  0
 856     402   444   458  0
 857     449   376   384  0
 858     376   449   461  0
 859     295   494   392  0
 860     514   712   733  0
 861     581   490   363  0
 862     582   447   396  0
 863     463   407   419  0
 864     407   463   391  0
 865     503   417   427  0
 866     443   456   459  0
 867     444   457   458  0
 868     460   420   406  0
 869     420   460   516  0
 870     501   389   378  0
 871     402   458   423  0
 872     442   385   465  0
 873     424   467   426  0
 874     467   424   469  0
 875     576   195    47  0
 876     453   468   427  0
 877     435   454   455  0
 878     455   454   550  0
 879     387   456   413  0
 880     456   443   457  0
 881     443   459   517  0
 882     442   504   464  0
 883     461   503   567  0
 884     494   690   392  0
 885     461   459   445  0
 886     503   461   449  0
 887     464   450   399  0
 888     448   462   460  0
 889     503   449   417  0
 890     502   443   517  0
 891     502   457   443  0
 892     506   551   464  0
 893     450   462   463  0
 894     462   391   463  0
 895     504   442   465  0
 896     457   502   594  0
 897     465   518   505  0
 898     523   568   594  0
 899     472   466   470  0
 900     453   466   468  0
 901     424   200   469  0
 902     453   467   466  0
 903     466   472   552  0
 904     506   504   505  0
 905     471   115   199  0
 906     467   469   470  0
 907     469   115   471  0
 908     470   469   471  0
 909     471   694   553  0
 910     470   471   472  0
 911     619   576   603  0
 912     552   472   580  0
 913     569   530   781  0
 914     478   474   477  0
 915    1042  1023  1004  0
 916     507   768   955  0
 917     991   995   997  0
 918     955   768   942  0
 919     742   770   538  0
 920    1011   475   978  0
 921    1049   887  1015  0
 922     474  1035   477  0
 923    1042  1073  1023  0
 924     479    35   478  0
 925    1035  1049  1057  0
 926     478   477   479  0
 927     482   508   509  0
 928     905   613   834  0
 929    1017   954  1002  0
 930     483    36   481  0
 931    1052   479  1062  0
 932     480   481   482  0
 933     905  1046   941  0
 934     481   480   483  0
 935     123   484   183  0
 936     577   154   549  0
 937     158   486   124  0
 938     123   584   609  0
 939     578   549   211  0
 940     485   153   486  0
 941     143   102   487  0
 942     604   578   124  0
 943     511   565   510  0
 944     522   512   204  0
 945     554   394   590  0
 946     695   339   555  0
 947     492   363   351  0
 948     363   492   581  0
 949     339   324   555  0
 950     611   563   499  0
 951     348   688   383  0
 952     556   581   582  0
 953     516   501   451  0
 954     691   714   761  0
 955     745   460   462  0
 956     506   464   504  0
 957     433   585   495  0
 958     155   558   183  0
 959     560   496   436  0
 960     221   513   203  0
 961     498   497   437  0
 962     498   746   497  0
 963     691   498   281  0
 964     746   561   497  0
 965     439   373   587  0
 966     572   201   599  0
 967     514   500   446  0
 968     388   500   515  0
 969     516   451   420  0
 970     450   551   462  0
 971     589   468   552  0
 972     446   392   690  0
 973     468   564   427  0
 974     468   466   552  0
 975     518   465   452  0
 976     465   505   504  0
 977     523   692   505  0
 978     501   516   713  0
 979     518   523   505  0
 980     493   289   515  0
 981     739   530   524  0
 982     740   741   536  0
 983     482   509   480  0
 984     888  1015   887  0
 985     751   526   614  0
 986     508   520   509  0
 987     554   590   488  0
 988     512   489   227  0
 989     565   511   488  0
 990     510   122   511  0
 991     522   204   224  0
 992     512   522   591  0
 993     586   496   560  0
 994     491   203   513  0
 995     701   523   594  0
 996     357   362   747  0
 997     500   514   515  0
 998     514   493   515  0
 999     772   551   506  0
1000     690   712   446  0
1001     567   459   461  0
1002     517   459   567  0
1003     452   423   518  0
1004     568   423   458  0
1005     519   739   524  0
1006     527   536   524  0
1007     529   532   528  0
1008     528   532   595  0
1009     887   771   786  0
1010     520   508   521  0
1011     224   510   522  0
1012     510   592   591  0
1013     567   503   750  0
1014     505   692   506  0
1015     527   524   530  0
1016     527    34   537  0
1017     521   526   520  0
1018     887   531   771  0
1019     532   569   595  0
1020     525   528   526  0
1021      30    34   527  0
1022     767   531   942  0
1023     533    30   532  0
1024     532    30   569  0
1025     534   535   743  0
1026     528   525   529  0
1027     834   781   891  0
1028     614   526   528  0
1029     767   741   740  0
1030     529   525   742  0
1031      30   533    34  0
1032     530   569    30  0
1033     538   535   537  0
1034     532   529   533  0
1035     740   535   534  0
1036     537   533   538  0
1037     537   536   527  0
1038      34   533   537  0
1039     536   535   740  0
1040     524   536   741  0
1041     538   533   529  0
1042     535   536   537  0
1043     538   529   742  0
1044     535   538   743  0
1045     165   570   190  0
1046     165   212   596  0
1047      92   540   541  0
1048     571   540   109  0
1049     543   624   608  0
1050     540   213   541  0
1051     192   167   542  0
1052     573   600   188  0
1053     624   543    92  0
1054     109   543   542  0
1055     166   545   132  0
1056     635   541   642  0
1057     165   596   570  0
1058     544   191   545  0
1059     586   513   496  0
1060     602   575    88  0
1061     693   433   430  0
1062     628   596   615  0
1063     356   744   361  0
1064     361   744   548  0
1065     635   624    92  0
1066     580   472   553  0
1067     550   454   715  0
1068     175   694   199  0
1069     506   692   772  0
1070     462   551   745  0
1071     472   471   553  0
1072     427   564   503  0
1073     725   432   173  0
1074     517   593   502  0
1075     331   394   554  0
1076     749   394   440  0
1077     510   565   592  0
1078     546   141   572  0
1079     556   490   581  0
1080     396   556   582  0
1081     566   696   489  0
1082     702   586   610  0
1083     559   585   558  0
1084     583   609   719  0
1085     585   559   495  0
1086     558   155   559  0
1087     696   555   489  0
1088     700   587   373  0
1089     761   498   691  0
1090     362   561   747  0
1091     499   439   587  0
1092     702   491   586  0
1093     611   499   587  0
1094     588   563   562  0
1095     564   468   589  0
1096     502   593   701  0
1097     590   565   488  0
1098     512   591   489  0
1099     560   695   794  0
1100     590   394   749  0
1101     503   564   750  0
1102     517   567   593  0
1103     594   568   458  0
1104     518   568   523  0
1105     781   530   739  0
1106     751   520   526  0
1107     615   212   132  0
1108     191   597   545  0
1109     598   109   542  0
1110     571   109   598  0
1111     599   201   171  0
1112     572   599   717  0
1113     602   707   575  0
1114     547   575   707  0
1115     547   758   718  0
1116     179   601   111  0
1117     602   485   618  0
1118     158   186   583  0
1119     577   603   576  0
1120     173   195   725  0
1121     603   577   549  0
1122     576   484   577  0
1123     620   486   153  0
1124     487   102   606  0
1125     642   213   646  0
1126     621   630   549  0
1127     454   432   705  0
1128     626   564   589  0
1129     773   492   383  0
1130     817   734   796  0
1131     812   916   748  0
1132     557   491   702  0
1133     795   558   585  0
1134     629   707   602  0
1135     719   558   699  0
1136     123   609   186  0
1137     611   625   562  0
1138     573   601   718  0
1139     610   586   560  0
1140     491   513   586  0
1141     339   695   560  0
1142     717   729   697  0
1143     717   562   729  0
1144     171   196   588  0
1145     580   612   552  0
1146     589   552   612  0
1147     381   689   440  0
1148     592   566   591  0
1149     510   591   522  0
1150     489   591   566  0
1151     565   590   592  0
1152     792   806   689  0
1153     589   612   626  0
1154     692   523   701  0
1155     457   594   458  0
1156     701   594   502  0
1157     595   569   613  0
1158     528   595   614  0
1159     132   627   615  0
1160     596   212   615  0
1161     718   730   573  0
1162     706   570   596  0
1163     188   600   167  0
1164     704   724   617  0
1165     171   588   599  0
1166     562   599   588  0
1167     704   617   600  0
1168     542   617   598  0
1169     718   601   574  0
1170     573   111   601  0
1171     618   485   158  0
1172     618   629   602  0
1173     578   621   549  0
1174     630   603   549  0
1175     605   153   487  0
1176     631   604   620  0
1177     622   605   606  0
1178     620   604   486  0
1179     622   606   579  0
1180     605   487   606  0
1181     633   176   133  0
1182     133   639   633  0
1183     790    57   159  0
1184     553   694   715  0
1185     719   609   584  0
1186     583   186   609  0
1187     794   807   610  0
1188     433   693   756  0
1189     625   611   587  0
1190     562   563   611  0
1191     580   553   636  0
1192     750   593   567  0
1193     781   739   766  0
1194     905   751   613  0
1195     595   613   614  0
1196     614   613   751  0
1197     627   132   545  0
1198     627   637   615  0
1199     540   571   616  0
1200     703   616   571  0
1201     167   600   617  0
1202     573   736   600  0
1203     158   583   618  0
1204     629   618   583  0
1205     603   630   619  0
1206     630   644   828  0
1207     153   605   620  0
1208     631   621   578  0
1209     632   605   622  0
1210     621   631   638  0
1211     634   579   607  0
1212     579   634   640  0
1213     633   623   176  0
1214     641   623   633  0
1215     642   541   213  0
1216     544   646   213  0
1217     373   721   700  0
1218     737   629   731  0
1219     580   636   612  0
1220     460   745   516  0
1221     545   597   627  0
1222     615   637   628  0
1223     597   616   703  0
1224     680   684    89  0
1225     757   756   693  0
1226     732   637   597  0
1227     638   644   621  0
1228     621   644   630  0
1229     620   605   631  0
1230     638   605   632  0
1231     579   640   622  0
1232     636   626   612  0
1233     639   133   192  0
1234     607   641   634  0
1235     643   608   624  0
1236     656   658   654  0
1237     646   544   650  0
1238     635   647   624  0
1239     828   644   799  0
1240     895   953   774  0
1241     627   597   637  0
1242     732   597   703  0
1243     605   638   631  0
1244     644   638   632  0
1245     192   608   639  0
1246     649   641   645  0
1247     121   187   683  0
1248     753   634   649  0
1249     639   645   633  0
1250     641   633   645  0
1251     652   647   651  0
1252     642   647   635  0
1253     162   673   664  0
1254     608   752   648  0
1255     840   640   753  0
1256     858   753   776  0
1257     608   648   639  0
1258     643   752   608  0
1259     657   655   650  0
1260     647   643   624  0
1261     646   651   642  0
1262     646   650   653  0
1263     775   652   658  0
1264     645   648   649  0
1265     643   652   775  0
1266     634   753   640  0
1267     654   652   651  0
1268     647   642   651  0
1269     653   654   651  0
1270     104   145   754  0
1271     675   672   679  0
1272     776   649   648  0
1273     650   166   657  0
1274     104   659   189  0
1275     653   650   655  0
1276     659   655   657  0
1277     664   666   662  0
1278     653   656   654  0
1279     659   660   655  0
1280     668   145   126  0
1281     166   189   657  0
1282     659   657   189  0
1283     866   147   130  0
1284     632   640   840  0
1285     754   145   668  0
1286     662   666   126  0
1287     875   108   120  0
1288     679   709   678  0
1289     126   146   661  0
1290     663   146    78  0
1291     664   662   162  0
1292     129   662   661  0
1293     760   706   628  0
1294     105   789   150  0
1295     673   675   664  0
1296     107   178   687  0
1297     674   136   669  0
1298     129   671   669  0
1299     666   664   667  0
1300     126   666   668  0
1301      77   829   187  0
1302     147   851    77  0
1303     666   667   668  0
1304     754   659   104  0
1305     129   670   162  0
1306     665   671   129  0
1307     672   670    57  0
1308     669    57   670  0
1309     674   708   677  0
1310     676   105   136  0
1311     790   159   125  0
1312     164   755   831  0
1313     670   672   673  0
1314     675   673   672  0
1315     671   665   708  0
1316     671   708   674  0
1317     790   672    57  0
1318     683   685   681  0
1319     676   674   677  0
1320     682   680   149  0
1321     706   760   778  0
1322     127   160   797  0
1323     848   161   862  0
1324     667   886   754  0
1325     883   862   875  0
1326     790   831   867  0
1327     178   680   681  0
1328     682   149   131  0
1329     683   681   121  0
1330     680   121   681  0
1331     677   708   726  0
1332     137   106   856  0
1333     864    91   848  0
1334      91   161   848  0
1335     684   682   710  0
1336      89   684   711  0
1337     683   686   685  0
1338     178   685   687  0
1339     829   683   187  0
1340     798   626   853  0
1341     685   686   687  0
1342     687   686   755  0
1343     548   744   784  0
1344     688   773   383  0
1345     696   716   808  0
1346     716   696   566  0
1347     713   494   501  0
1348     713   727   494  0
1349     759   493   514  0
1350     712   727   764  0
1351     636   832   853  0
1352     712   514   446  0
1353     572   717   546  0
1354     546   697   757  0
1355     694   550   715  0
1356     471   199   694  0
1357     695   555   696  0
1358     791   689   447  0
1359     592   716   566  0
1360     716   592   590  0
1361     796   625   587  0
1362     723   738   779  0
1363     731   583   719  0
1364     722   628   637  0
1365     757   693   546  0
1366     734   697   729  0
1367     610   560   794  0
1368     587   700   796  0
1369     774   593   750  0
1370     701   593   774  0
1371     720   702   610  0
1372     557   702   721  0
1373     724   598   617  0
1374     571   598   724  0
1375     736   735   738  0
1376     723   703   571  0
1377     630   828   619  0
1378     830   553   715  0
1379     760   628   722  0
1380     778   663   539  0
1381     629   737   765  0
1382     547   707   758  0
1383     665   663   708  0
1384     726   708   663  0
1385     686   850   894  0
1386     799   644   632  0
1387     836   131   150  0
1388     855    29   138  0
1389     684   710   711  0
1390     711   710   797  0
1391     494   727   690  0
1392     904   885   746  0
1393     764   780   785  0
1394     761   762   728  0
1395     712   690   727  0
1396     498   728   746  0
1397     889   454   705  0
1398     889   715   454  0
1399     821   590   749  0
1400     625   796   734  0
1401     562   717   599  0
1402     546   717   697  0
1403     547   718   574  0
1404     718   698   730  0
1405     558   719   584  0
1406     719   699   731  0
1407     815   821   749  0
1408     756   585   433  0
1409     702   720   721  0
1410     720   700   721  0
1411     763   732   703  0
1412     892   789   676  0
1413     758   698   718  0
1414     558   795   699  0
1415     704   723   724  0
1416     723   571   724  0
1417     195   576   725  0
1418     619   725   576  0
1419     539   706   778  0
1420     949   778   932  0
1421     759   714   493  0
1422     747   746   885  0
1423     759   514   733  0
1424     764   733   712  0
1425     562   625   729  0
1426     734   729   625  0
1427     735   730   698  0
1428     600   736   704  0
1429     737   731   699  0
1430     629   583   731  0
1431     763   703   723  0
1432     637   732   722  0
1433     802   713   516  0
1434     762   733   835  0
1435     807   720   610  0
1436     704   736   738  0
1437     758   707   765  0
1438     735   698   777  0
1439     573   730   736  0
1440     735   736   730  0
1441     737   699   810  0
1442     758   765   777  0
1443     801   738   735  0
1444     723   704   738  0
1445     507   766   519  0
1446     519   766   739  0
1447     767   534   531  0
1448     524   741   519  0
1449     740   534   767  0
1450     519   741   768  0
1451     521   769   525  0
1452     525   769   782  0
1453     743   538   770  0
1454     743   783   534  0
1455     787   773   784  0
1456     748   492   773  0
1457     551   772   745  0
1458     516   745   802  0
1459     747   940   357  0
1460     561   746   747  0
1461     904   746   728  0
1462     728   762   904  0
1463     744   356   943  0
1464     791   792   689  0
1465     812   787   803  0
1466     806   815   749  0
1467     626   798   564  0
1468     750   564   798  0
1469     891   905   834  0
1470     520   751   941  0
1471     775   752   643  0
1472     648   752   776  0
1473     776   752   775  0
1474     776   753   649  0
1475     668   667   754  0
1476     667   709   886  0
1477     852   755   686  0
1478     679   672   790  0
1479     757   800   841  0
1480     810   699   795  0
1481     734   800   697  0
1482     757   697   800  0
1483     707   629   765  0
1484     698   758   777  0
1485     762   759   733  0
1486     761   728   498  0
1487     779   722   763  0
1488     789   854   836  0
1489     714   759   761  0
1490     762   761   759  0
1491     692   860   772  0
1492     747   885   940  0
1493     779   763   723  0
1494     722   732   763  0
1495     713   780   727  0
1496     772   844   745  0
1497     809   810   795  0
1498     915   722   779  0
1499     927   766   948  0
1500     948   957   962  0
1501     531   476   942  0
1502     519   768   507  0
1503     741   767   768  0
1504     768   767   942  0
1505     521   508   888  0
1506     783   743   770  0
1507     742   782   770  0
1508     771   531   534  0
1509     783   782   786  0
1510     786   771   783  0
1511     780   802   843  0
1512     764   727   780  0
1513     784   688   548  0
1514     773   688   784  0
1515     619   828   925  0
1516     835   733   785  0
1517     833   658   660  0
1518     775   922   776  0
1519     658   833   775  0
1520     553   830   636  0
1521     779   738   801  0
1522     842   735   777  0
1523     760   915   932  0
1524     663   778   726  0
1525     765   893   777  0
1526     906   947   801  0
1527     844   802   745  0
1528     764   785   733  0
1529     927   891   781  0
1530     613   569   834  0
1531     525   782   742  0
1532     782   769   786  0
1533     782   783   770  0
1534     534   783   771  0
1535     943   803   744  0
1536     803   787   784  0
1537     780   713   802  0
1538     885   913   954  0
1539     888   769   521  0
1540     476   531   887  0
1541     744   803   784  0
1542     440   689   806  0
1543     804  1056  1140  0
1544    1287  1299  1354  0
1545     837   892   677  0
1546     837   677   726  0
1547     164   831   125  0
1548     831   852   867  0
1549     916   582   581  0
1550     792   791   793  0
1551     582   793   791  0
1552     794   695   816  0
1553     787   812   748  0
1554     874   847   861  0
1555     808   695   696  0
1556     808   816   695  0
1557     756   809   585  0
1558     585   809   795  0
1559     720   811   700  0
1560     796   700   811  0
1561     710   857   797  0
1562     163   838   106  0
1563     626   636   853  0
1564     774   750   798  0
1565     872   858   922  0
1566     799   869   871  0
1567     807   818   720  0
1568     817   846   734  0
1569     737   810   845  0
1570     722   915   760  0
1571     844   919   802  0
1572     934   918   843  0
1573     973   933   812  0
1574     916   581   748  0
1575     971   987  1021  0
1576    1218   805  1138  0
1577    1294  1306  1318  0
1578    1147  1173  1218  0
1579     815   806   792  0
1580     749   440   806  0
1581     821   824   969  0
1582     796   811   817  0
1583     817   811   818  0
1584     735   842   801  0
1585     841   756   757  0
1586     841   859   756  0
1587     756   859   809  0
1588     765   737   845  0
1589     794   816   807  0
1590     720   818   811  0
1591     943   973   803  0
1592     847   816   861  0
1593     938   909   931  0
1594    1083  1105   814  0
1595    1019   935   960  0
1596    1045  1060  1029  0
1597     792   793   824  0
1598     821   716   590  0
1599     818   807   847  0
1600     847   807   816  0
1601     899   716   821  0
1602     893   765   845  0
1603     815   824   821  0
1604     893   842   777  0
1605     855   952   827  0
1606    1006  1065  1063  0
1607     872   972   900  0
1608    1029  1065  1006  0
1609     824   815   792  0
1610     916   933   793  0
1611     825   827   917  0
1612    1006   823   992  0
1613     686   683   850  0
1614     968   822   983  0
1615     899   969   929  0
1616     959   923   936  0
1617     825    37   827  0
1618     826   849   968  0
1619     829   876   901  0
1620     825   968   849  0
1621     138   128   868  0
1622     822   825   917  0
1623     799   840   869  0
1624     890   636   830  0
1625      91   864   148  0
1626     850   901   894  0
1627     830   715   889  0
1628     830   889   926  0
1629     831   755   852  0
1630     790   125   831  0
1631     908   970   870  0
1632     843   918   785  0
1633     679   867   921  0
1634     873   900   908  0
1635     927   781   766  0
1636     905   941   751  0
1637     780   843   785  0
1638    1017   940   954  0
1639     892   854   789  0
1640     682   131   836  0
1641     947   779   801  0
1642     896   710   682  0
1643     896   682   836  0
1644     827    29   855  0
1645     857   839   797  0
1646     838   163   839  0
1647     869   753   858  0
1648     632   840   799  0
1649     846   800   734  0
1650     897   859   841  0
1651     809   859   898  0
1652     800   846   841  0
1653     844   860   935  0
1654     919   843   802  0
1655     692   701   920  0
1656     772   860   844  0
1657     818   936   817  0
1658     930   845   907  0
1659     874   936   818  0
1660     847   874   818  0
1661     808   861   816  0
1662     899   808   716  0
1663     882   848   883  0
1664      77   851   829  0
1665      37   849   865  0
1666      37   825   849  0
1667     880   829   851  0
1668     867   679   790  0
1669     863   130   148  0
1670     851   866   880  0
1671     829   901   850  0
1672     679   921   709  0
1673     895   853   832  0
1674     774   798   853  0
1675     949   837   726  0
1676     945   838   857  0
1677     857   838   839  0
1678     909   855   868  0
1679     902   909   879  0
1680     868   855   138  0
1681     854   837   961  0
1682     868   879   909  0
1683     872   873   871  0
1684     970   799   870  0
1685     897   841   846  0
1686     809   898   810  0
1687     895   774   853  0
1688     860   692   920  0
1689     899   929   861  0
1690     817   923   846  0
1691      37   865   120  0
1692     865   849   884  0
1693     877   881   863  0
1694     866   851   147  0
1695     877   864   848  0
1696     863   148   864  0
1697     884   878   883  0
1698     108   875   862  0
1699     130   863   866  0
1700     863   881   880  0
1701     686   894   852  0
1702     928   867   852  0
1703     879   128   137  0
1704     902   879   856  0
1705     753   869   840  0
1706     869   858   871  0
1707     799   871   870  0
1708     871   873   870  0
1709     858   776   922  0
1710     871   858   872  0
1711     886   924   833  0
1712    1019   934   935  0
1713     922   972   872  0
1714     872   900   873  0
1715     808   899   861  0
1716     907   898   859  0
1717     120   865   875  0
1718     865   884   883  0
1719     863   864   877  0
1720     881   882   903  0
1721     883   848   862  0
1722     882   877   848  0
1723     826   946   911  0
1724     876   880   881  0
1725     137   856   879  0
1726     902   856   838  0
1727     863   880   866  0
1728     829   880   876  0
1729     882   881   877  0
1730     876   881   910  0
1731     884   911   878  0
1732     882   878   903  0
1733     865   883   875  0
1734     883   878   882  0
1735     849   826   884  0
1736     878   911   903  0
1737     913   904   912  0
1738     336   357   940  0
1739     924   886   709  0
1740     833   660   886  0
1741     888   786   769  0
1742    1015   888   508  0
1743    1015   508   482  0
1744     887   786   888  0
1745     925   705   619  0
1746     890   832   636  0
1747     925   889   705  0
1748     870   873   908  0
1749     891   927   958  0
1750     941   509   520  0
1751     677   892   676  0
1752     854   892   837  0
1753     893   845  1000  0
1754     842   893   906  0
1755     833   972   922  0
1756     852   894   928  0
1757     925   926   889  0
1758     913   912   914  0
1759     854   956   896  0
1760     710   896   944  0
1761     923   897   846  0
1762     801   842   906  0
1763     907   859   897  0
1764     845   810   898  0
1765     936   874   950  0
1766     899   821   969  0
1767     996   998   999  0
1768     890   937   832  0
1769     910   881   903  0
1770     876   910   901  0
1771     944   857   710  0
1772     917   827   952  0
1773    1063   820  1064  0
1774     910  1001   901  0
1775     835   912   762  0
1776     904   762   912  0
1777    1018   891   958  0
1778    1031   480   509  0
1779     897   923   967  0
1780     956   944   896  0
1781     907   897   930  0
1782     845   898   907  0
1783     900  1008   908  0
1784     926   937   890  0
1785     945   902   838  0
1786     971   822   917  0
1787     946   903   911  0
1788     928  1067   924  0
1789     884   826   911  0
1790     946   826   823  0
1791     918   835   785  0
1792     904   913   885  0
1793     912   835   914  0
1794    1002   954   913  0
1795     914   918   934  0
1796    1080  1002  1022  0
1797     947   915   779  0
1798     932   778   760  0
1799     933   916   812  0
1800     582   916   793  0
1801     909   938   855  0
1802     987   952   974  0
1803     934   843   919  0
1804     914   835   918  0
1805     920   939   860  0
1806     935   919   844  0
1807     774   920   701  0
1808     939   935   860  0
1809     894   901  1001  0
1810     709   921   924  0
1811     775   833   922  0
1812     833   924   972  0
1813     861   929   874  0
1814     845   930  1000  0
1815     921   867   928  0
1816     921   928   924  0
1817     970   828   799  0
1818     830   926   890  0
1819     993   970   985  0
1820     925   993   926  0
1821     948   766   507  0
1822     927   948   958  0
1823     903  1016   910  0
1824    1012  1008   900  0
1825     824   793   933  0
1826     988   965   977  0
1827     936   950   959  0
1828    1010   947   906  0
1829     971   819   822  0
1830     909   902   931  0
1831     915   947   977  0
1832     902   945   931  0
1833     973   812   803  0
1834     969   984   976  0
1835     935   934   919  0
1836    1009  1019   960  0
1837     895   832   937  0
1838     935   939   960  0
1839     950   874   929  0
1840     817   936   923  0
1841     975   895   999  0
1842     999   895   937  0
1843     938   931   951  0
1844     855   938   952  0
1845     953   920   774  0
1846     953   939   920  0
1847     940   885   954  0
1848     336   940  1017  0
1849    1018  1046   905  0
1850     509   941  1031  0
1851    1035  1048   476  0
1852     963   989   978  0
1853      36  1032   335  0
1854    1032   943   335  0
1855     837   949   961  0
1856     956   854   961  0
1857     857   944   945  0
1858     944  1005  1050  0
1859    1001   928   894  0
1860     903   946  1016  0
1861     893  1000   906  0
1862     988  1037   961  0
1863     473   962   957  0
1864     962   958   948  0
1865     778   949   726  0
1866     965   949   932  0
1867     976   929   969  0
1868     923   959   967  0
1869    1005  1036  1050  0
1870    1020   813  1028  0
1871     951   974   938  0
1872     952   938   974  0
1873     953   895   975  0
1874     939   953   960  0
1875    1002   913   914  0
1876     336  1017    36  0
1877    1011   978   955  0
1878     957   955   966  0
1879     949   965   961  0
1880    1037   956   961  0
1881     948   507   957  0
1882     507   955   957  0
1883     990   994   962  0
1884     958   994  1038  0
1885     964   959   950  0
1886     959   964   967  0
1887     953   975   960  0
1888     975  1009   960  0
1889     930   897   967  0
1890     988   961   965  0
1891     979   990   473  0
1892     473   990   962  0
1893     966   473   957  0
1894     991   963   995  0
1895     950   929   976  0
1896     984  1034  1055  0
1897     977   932   915  0
1898     965   932   977  0
1899     978   966   955  0
1900     963   980   989  0
1901    1014  1010  1013  0
1902    1013   930   967  0
1903     983   822   819  0
1904     968   983   992  0
1905     933   984   824  0
1906     984   969   824  0
1907     908   985   970  0
1908     925   828   970  0
1909     917   987   971  0
1910     819   971  1020  0
1911    1079   928  1001  0
1912     998   985  1008  0
1913     483  1133  1144  0
1914     950   976   964  0
1915     986   974   951  0
1916     987   917   952  0
1917     993   937   926  0
1918     993   996   937  0
1919     984  1055   976  0
1920    1025  1109  1030  0
1921    1026  1044  1003  0
1922     956  1005   944  0
1923    1011   955   942  0
1924     963   978   475  0
1925     980    20   979  0
1926     981   979    20  0
1927     989   979   473  0
1928     980   991   982  0
1929      20   982  1033  0
1930    1018   905   891  0
1931      20   980   982  0
1932     991   980   963  0
1933    1024  1006   983  0
1934     968   992   826  0
1935     973  1034   933  0
1936     984   933  1034  0
1937     972  1012   900  0
1938    1012  1084  1008  0
1939    1050   951   931  0
1940    1114  1056   813  0
1941     974   986   987  0
1942    1021   987   986  0
1943     947  1003   977  0
1944     931   945  1050  0
1945     989   966   978  0
1946     980   979   989  0
1947     979   981   990  0
1948     994   990   981  0
1949     475   995   963  0
1950     475  1004  1023  0
1951    1006   992   983  0
1952     823   826   992  0
1953     970   993   925  0
1954     993   985   996  0
1955      20  1033   981  0
1956     994  1007  1038  0
1957    1023   997   995  0
1958     982   991   997  0
1959     998   996   985  0
1960     937   996   999  0
1961    1023   995   475  0
1962     982  1069  1033  0
1963     908  1008   985  0
1964    1164  1142  1153  0
1965     998  1066   999  0
1966     975   999  1009  0
1967    1010  1003   947  0
1968    1000  1010   906  0
1969    1063  1064  1076  0
1970     946  1076  1016  0
1971     914   934  1022  0
1972    1052    35   479  0
1973    1003  1010  1014  0
1974    1003  1014  1026  0
1975     942  1048  1011  0
1976     474  1042  1004  0
1977     988  1058  1037  0
1978     951  1070   986  0
1979    1024   983   819  0
1980    1006  1024  1029  0
1981    1018  1103  1119  0
1982     994   981  1007  0
1983    1067   972   924  0
1984    1094  1118  1078  0
1985    1078   998  1008  0
1986    1068  1022  1019  0
1987     930  1013  1000  0
1988    1010  1000  1013  0
1989    1048   942   476  0
1990    1004   475  1011  0
1991    1001   910  1016  0
1992    1066   998  1078  0
1993     964  1025   967  0
1994    1025  1030  1013  0
1995    1013   967  1025  0
1996     977  1003  1044  0
1997    1015  1101  1061  0
1998    1049  1035   476  0
1999    1064   820  1083  0
2000    1012   972  1067  0
2001    1068  1080  1022  0
2002    1136  1146  1017  0
2003    1038  1018   958  0
2004    1133   480  1031  0
2005     914  1022  1002  0
2006     934  1019  1022  0
2007    1020  1021  1027  0
2008    1020  1027  1114  0
2009    1027  1021   986  0
2010    1020   971  1021  0
2011    1009  1068  1019  0
2012    1009   999  1066  0
2013    1072   474   478  0
2014     478    35  1059  0
2015     813  1045  1028  0
2016    1028  1045  1024  0
2017    1043   964   976  0
2018    1117  1030  1099  0
2019    1030  1014  1013  0
2020    1005  1051  1036  0
2021     951  1036  1070  0
2022    1056  1114  1140  0
2023    1024   819  1028  0
2024     819  1020  1028  0
2025    1060  1115  1077  0
2026    1077  1090  1065  0
2027    1043  1109  1025  0
2028    1026  1014  1030  0
2029    1031   941  1046  0
2030    1034   973  1047  0
2031    1133  1031  1127  0
2032    1119  1127  1046  0
2033    1069   982   997  0
2034    1071  1007  1134  0
2035    1047   973  1032  0
2036    1043  1025   964  0
2037    1048   474  1004  0
2038    1049   476   887  0
2039     956  1037  1005  0
2040    1051  1122  1036  0
2041    1044   988   977  0
2042    1005  1037  1051  0
2043    1071  1038  1007  0
2044    1038  1071  1103  0
2045    1136  1002  1080  0
2046      94  1385  1393  0
2047    1356  1303  1289  0
2048    1040  1224  1302  0
2049    1057  1061  1041  0
2050    1121  1108  1086  0
2051    1059    35  1088  0
2052    1042  1072  1104  0
2053    1055  1034  1047  0
2054    1113  1099  1109  0
2055    1051  1037  1058  0
2056    1044  1058   988  0
2057    1060   813  1056  0
2058    1024  1045  1029  0
2059    1018  1038  1103  0
2060    1046  1127  1031  0
2061    1133   483   480  0
2062    1043   976  1055  0
2063     474  1048  1035  0
2064    1004  1011  1048  0
2065    1061  1049  1015  0
2066    1035  1057   477  0
2067    1050   945   944  0
2068     951  1050  1036  0
2069    1100  1058  1044  0
2070    1070  1027   986  0
2071    1159  1074  1108  0
2072    1081  1093  1108  0
2073    1042   474  1072  0
2074    1040  1171  1224  0
2075      35  1052  1087  0
2076    1088    35  1087  0
2077    1144  1032    36  0
2078    1112  1113  1109  0
2079    1060  1045   813  0
2080    1114   813  1020  0
2081    1061  1057  1049  0
2082    1062  1057  1041  0
2083    1026  1100  1044  0
2084    1026  1030  1117  0
2085    1111  1123  1104  0
2086    1135   997  1073  0
2087    1115  1056   804  0
2088    1029  1077  1065  0
2089     482  1101  1015  0
2090    1101   482   481  0
2091    1052  1062  1041  0
2092     479   477  1062  0
2093     946   823  1063  0
2094     823  1006  1063  0
2095    1094  1084  1091  0
2096    1084  1078  1008  0
2097    1029  1060  1077  0
2098     820  1063  1065  0
2099    1079  1091  1067  0
2100    1078  1102  1066  0
2101    1085  1001  1016  0
2102    1092  1016  1076  0
2103    1102  1009  1066  0
2104    1191  1149  1142  0
2105    1023  1073   997  0
2106    1145  1177  1178  0
2107    1051  1058  1110  0
2108    1027  1070  1176  0
2109    1134  1007  1033  0
2110    1228  1186  1367  0
2111     478  1059  1072  0
2112    1072  1059  1104  0
2113    1089  1111  1059  0
2114    1073  1123  1135  0
2115    1093  1087  1052  0
2116    1168  1075  1159  0
2117    1088  1089  1059  0
2118    1159  1075  1074  0
2119    1063  1076   946  0
2120    1067   928  1079  0
2121    1060  1056  1115  0
2122    1065  1090   820  0
2123    1078  1084  1094  0
2124    1009  1102  1068  0
2125    1064  1092  1076  0
2126    1085  1079  1001  0
2127    1142  1080  1148  0
2128    1081  1108  1074  0
2129    1086  1052  1041  0
2130    1074  1075  1081  0
2131    1082  1075  1107  0
2132    1081  1075  1082  0
2133    1083  1090  1105  0
2134     814  1137  1083  0
2135    1091  1012  1067  0
2136    1079  1085  1098  0
2137    1095  1092  1064  0
2138    1012  1091  1084  0
2139    1106  1041  1061  0
2140    1136  1080  1149  0
2141    1093  1052  1086  0
2142    1081  1082  1087  0
2143    1089  1088  1082  0
2144    1087  1082  1088  0
2145    1089  1107  1111  0
2146    1073  1042  1104  0
2147    1105  1090  1077  0
2148    1083   820  1090  0
2149    1095  1096  1092  0
2150    1098  1116  1091  0
2151    1064  1083  1095  0
2152    1016  1092  1085  0
2153    1093  1086  1108  0
2154    1081  1087  1093  0
2155    1091  1079  1098  0
2156    1116  1094  1091  0
2157    1137  1097  1095  0
2158    1085  1092  1096  0
2159    1096  1095  1097  0
2160    1085  1096  1098  0
2161    1095  1083  1137  0
2162    1294  1266  1164  0
2163    1096  1097  1098  0
2164    1098  1097  1116  0
2165    1109  1099  1030  0
2166    1110  1058  1100  0
2167    1113  1128  1099  0
2168    1110  1122  1051  0
2169      36  1146   481  0
2170    1041  1106  1086  0
2171    1118  1094  1116  0
2172    1102  1148  1068  0
2173    1071  1130  1103  0
2174    1046  1018  1119  0
2175    1089  1082  1107  0
2176    1111  1104  1059  0
2177    1077  1115  1141  0
2178     814  1105  1147  0
2179    1061  1101  1106  0
2180    1101   481  1121  0
2181    1168  1120  1075  0
2182    1107  1120  1111  0
2183    1121  1086  1106  0
2184    1108  1121  1167  0
2185    1055  1112  1043  0
2186    1109  1043  1112  0
2187    1129  1110  1100  0
2188    1036  1122  1070  0
2189    1107  1075  1120  0
2190    1104  1123  1073  0
2191    1139  1055  1047  0
2192    1125  1100  1117  0
2193    1055  1139  1112  0
2194    1128  1125  1099  0
2195    1122  1182  1176  0
2196    1175  1140  1114  0
2197    1141  1173  1147  0
2198    1138   814  1147  0
2199    1137  1162  1221  0
2200    1151  1078  1118  0
2201    1125  1117  1099  0
2202    1100  1026  1117  0
2203    1220  1116  1097  0
2204    1148  1080  1068  0
2205    1130  1071  1126  0
2206    1112  1139  1124  0
2207    1263  1053  1171  0
2208    1111  1217  1123  0
2209    1101  1121  1106  0
2210    1136  1017  1002  0
2211    1129  1100  1125  0
2212    1027  1176  1114  0
2213    1217  1111  1120  0
2214    1135  1069   997  0
2215    1129  1125  1219  0
2216    1113  1112  1124  0
2217    1125  1128  1150  0
2218    1110  1129  1122  0
2219    1071  1134  1187  0
2220    1188  1229  1139  0
2221    1103  1130  1119  0
2222    1119  1132  1127  0
2223    1113  1124  1128  0
2224    1150  1128  1124  0
2225    1219  1125  1150  0
2226    1226  1182  1122  0
2227    1131  1130  1126  0
2228    1119  1130  1132  0
2229    1186  1131  1126  0
2230    1188  1270  1229  0
2231    1130  1131  1132  0
2232    1131  1127  1132  0
2233    1139  1047  1188  0
2234    1144    36   483  0
2235    1134  1033  1145  0
2236    1145  1178  1134  0
2237    1135  1225  1177  0
2238    1069  1177  1145  0
2239    1149  1080  1142  0
2240    1017  1146    36  0
2241    1138  1162   814  0
2242     814  1162  1137  0
2243    1141  1105  1077  0
2244    1220  1152  1118  0
2245    1032  1188  1047  0
2246    1144  1270  1188  0
2247    1175  1114  1176  0
2248    1181  1192  1174  0
2249     804  1179  1115  0
2250    1105  1141  1147  0
2251    1148  1153  1142  0
2252    1167  1054  1159  0
2253    1127  1228  1270  0
2254    1124  1139  1229  0
2255    1032  1144  1188  0
2256    1177  1069  1135  0
2257    1367  1365  1366  0
2258    1149  1146  1136  0
2259     481  1146  1121  0
2260    1179  1141  1115  0
2261    1138  1147  1218  0
2262    1151  1102  1078  0
2263    1151  1148  1102  0
2264    1142  1164  1191  0
2265    1149  1200  1146  0
2266    1291  1124  1229  0
2267      49  1239  1279  0
2268    1152  1151  1118  0
2269    1148  1151  1153  0
2270    1116  1220  1118  0
2271    1300  1222   805  0
2272    1151  1152  1153  0
2273    1164  1153  1152  0
2274      24   113  1154  0
2275     113  1204  1154  0
2276      84  1155  1156  0
2277    1183    68   193  0
2278    1157  1156   170  0
2279    1155   170  1156  0
2280     170   112  1157  0
2281     112   119  1262  0
2282    1165  1158  1157  0
2283      84  1158  1166  0
2284    1167  1159  1108  0
2285    1054  1170  1172  0
2286    1160  1173  1179  0
2287    1140  1174   804  0
2288    1182  1161  1176  0
2289    1174  1140  1181  0
2290    1222  1138   805  0
2291    1137  1221  1097  0
2292    1170  1266  1039  0
2293    1177  1248  1324  0
2294    1167  1200  1199  0
2295     119    24  1267  0
2296     142  1288  1301  0
2297    1158  1165  1166  0
2298    1223  1309  1301  0
2299    1200  1149  1191  0
2300    1266  1170  1199  0
2301    1169  1159  1054  0
2302    1053  1120  1168  0
2303    1053  1168  1169  0
2304    1159  1169  1168  0
2305    1172  1053  1169  0
2306    1054  1167  1170  0
2307    1263  1217  1120  0
2308    1171  1172  1224  0
2309    1224  1172  1170  0
2310    1053  1172  1171  0
2311    1160   788  1173  0
2312     788  1352  1173  0
2313    1227  1161  1182  0
2314    1174  1192  1230  0
2315    1180  1175  1161  0
2316    1140  1175  1181  0
2317    1122  1176  1070  0
2318    1175  1176  1161  0
2319    1225  1135  1123  0
2320    1225  1248  1177  0
2321    1346  1364  1351  0
2322    1134  1178  1187  0
2323    1160  1179   804  0
2324    1141  1179  1173  0
2325    1330  1249  1192  0
2326    1230  1160  1174  0
2327    1175  1180  1181  0
2328    1192  1181  1180  0
2329    1226  1122  1129  0
2330    1161  1227  1180  0
2331    1232  1250  1241  0
2332    1203  1194  1155  0
2333    1202   135  1194  0
2334    1231  1184  1202  0
2335    1196  1185    25  0
2336    1197  1185    79  0
2337    1187  1126  1071  0
2338    1365  1298  1364  0
2339    1187  1178  1298  0
2340    1186  1126  1187  0
2341    1270  1228  1229  0
2342    1228  1127  1131  0
2343    1357  1271  1274  0
2344    1441  1422  1464  0
2345    1190  1233  1243  0
2346      83  1154  1190  0
2347    1199  1191  1164  0
2348    1200  1121  1146  0
2349    1180  1227  1280  0
2350    1240  1249  1370  0
2351    1208   152    93  0
2352    1201  1193   134  0
2353    1241  1194  1232  0
2354    1155  1194   135  0
2355    1184  1231  1245  0
2356     144  1195   113  0
2357    1297  1313  1317  0
2358      79  1196  1282  0
2359    1197    79  1329  0
2360    1253  1237  1197  0
2361    1271  1207  1236  0
2362    1373  1332  1296  0
2363    1199  1164  1266  0
2364    1170  1167  1199  0
2365    1199  1200  1191  0
2366    1167  1121  1200  0
2367    1201   152  1208  0
2368    1208    93  1211  0
2369    1231  1202  1194  0
2370    1184   169  1202  0
2371      68  1183  1203  0
2372    1232  1203  1183  0
2373    1233  1204  1195  0
2374    1190  1154  1204  0
2375      96  1184  1205  0
2376    1234  1205  1184  0
2377    1212  1214  1215  0
2378     103  1206  1211  0
2379    1357  1274  1328  0
2380    1262  1278  1332  0
2381    1211    93   103  0
2382    1214  1216  1215  0
2383    1212  1201  1208  0
2384    1231  1194  1241  0
2385    1210    24  1213  0
2386    1267  1210  1278  0
2387    1206  1197  1237  0
2388    1212  1209  1193  0
2389    1211  1214  1208  0
2390    1212  1208  1214  0
2391    1207  1271  1198  0
2392    1210  1213  1236  0
2393    1237  1211  1206  0
2394    1209  1212  1215  0
2395    1214  1211  1216  0
2396    1258  1242  1273  0
2397    1247  1253  1197  0
2398    1215  1216  1257  0
2399    1120  1053  1263  0
2400    1248  1225  1238  0
2401    1218  1352  1299  0
2402     805  1218  1299  0
2403    1268    49  1279  0
2404    1227  1182  1239  0
2405    1221  1162  1222  0
2406    1221  1222  1315  0
2407    1162  1138  1222  0
2408    1220  1097  1221  0
2409    1300   805  1287  0
2410    1290  1307  1321  0
2411    1309  1166  1165  0
2412     142  1264  1288  0
2413    1170  1039  1224  0
2414    1302  1224  1039  0
2415    1217  1238  1123  0
2416    1225  1123  1238  0
2417    1129  1219  1226  0
2418    1279  1239  1219  0
2419    1239  1182  1226  0
2420      49  1280  1239  0
2421    1186  1228  1131  0
2422    1291  1314  1143  0
2423    1314    59  1304  0
2424    1291  1279  1150  0
2425    1249  1230  1192  0
2426     788  1160  1230  0
2427    1203  1232  1194  0
2428    1233  1244  1251  0
2429    1209  1242  1183  0
2430    1242  1250  1232  0
2431    1244  1195  1234  0
2432    1244  1233  1195  0
2433    1245  1231  1241  0
2434    1234  1195  1205  0
2435    1236  1207  1210  0
2436    1243  1323  1190  0
2437    1252  1213    83  0
2438    1281  1252  1274  0
2439    1329    79  1277  0
2440    1211  1237  1216  0
2441    1272  1238  1217  0
2442    1272  1248  1238  0
2443    1219  1239  1226  0
2444    1280    49  1269  0
2445    1240   788  1249  0
2446    1354  1299  1352  0
2447    1183  1242  1232  0
2448    1251  1259  1243  0
2449    1273  1209  1215  0
2450    1347  1340    97  0
2451    1344  1243  1259  0
2452    1246  1323  1235  0
2453    1245  1244  1234  0
2454    1243  1233  1251  0
2455    1261  1241  1250  0
2456    1245  1234  1184  0
2457    1213  1252  1236  0
2458    1190  1323    83  0
2459    1260  1292  1333  0
2460    1237  1253  1216  0
2461    1350  1338  1324  0
2462    1177  1324  1178  0
2463    1192  1280  1330  0
2464    1249  1330  1370  0
2465    1255  1347  1325  0
2466    1258  1261  1250  0
2467    1255  1251  1244  0
2468    1251  1255  1259  0
2469      83  1246  1252  0
2470    1274  1246  1235  0
2471    1253  1260  1257  0
2472    1253  1247  1260  0
2473    1244  1245  1255  0
2474    1258  1250  1242  0
2475    1245  1241  1261  0
2476    1327  1341  1334  0
2477    1305  1333  1293  0
2478    1216  1253  1257  0
2479    1209  1273  1242  0
2480    1326  1341  1254  0
2481    1255  1325  1259  0
2482    1401  1402  1344  0
2483    1292  1260  1247  0
2484    1260  1305  1257  0
2485    1326  1261  1258  0
2486    1245  1261  1255  0
2487    1262  1267  1278  0
2488    1157  1262  1275  0
2489    1263  1171  1276  0
2490      60  1349  1272  0
2491    1196    25  1264  0
2492      25   117  1264  0
2493    1282  1285  1277  0
2494    1400  1292  1329  0
2495    1306  1164  1152  0
2496    1306  1152  1220  0
2497    1278  1210  1207  0
2498    1262   119  1267  0
2499    1144  1133  1270  0
2500    1279  1219  1150  0
2501    1280  1192  1180  0
2502    1127  1270  1133  0
2503    1274  1252  1246  0
2504    1252  1281  1236  0
2505    1217  1263  1272  0
2506    1263  1276  1308  0
2507    1215  1257  1273  0
2508    1334  1257  1305  0
2509      44  1328  1235  0
2510    1274  1235  1328  0
2511    1278  1296  1332  0
2512    1322  1311  1316  0
2513    1303  1040  1289  0
2514    1303  1276  1040  0
2515    1277    79  1282  0
2516    1400  1329  1265  0
2517    1198  1296  1207  0
2518    1207  1296  1278  0
2519    1150  1124  1291  0
2520    1143  1268  1279  0
2521    1239  1280  1227  0
2522    1269  1330  1280  0
2523    1274  1271  1281  0
2524    1271  1236  1281  0
2525    1264  1297  1196  0
2526    1331  1362  1377  0
2527    1282  1196  1284  0
2528    1381  1283  1390  0
2529    1196  1297  1284  0
2530    1265  1348    32  0
2531    1335  1358  1317  0
2532    1265  1285  1348  0
2533    1287   805  1299  0
2534    1186  1187  1298  0
2535    1355  1320  1300  0
2536    1288  1223  1301  0
2537    1264   117  1288  0
2538    1368  1290    94  0
2539    1295  1308  1356  0
2540    1294  1307  1266  0
2541    1040  1302  1289  0
2542    1304  1143  1314  0
2543    1143  1279  1291  0
2544    1247  1197  1329  0
2545      64  1256  1292  0
2546    1220  1315  1306  0
2547    1260  1333  1305  0
2548    1266  1307  1039  0
2549    1353  1198  1189  0
2550    1308  1276  1303  0
2551    1275  1332  1316  0
2552    1310  1313   142  0
2553     142  1313  1297  0
2554    1338  1178  1324  0
2555    1364  1298  1351  0
2556    1218  1173  1352  0
2557    1240  1372  1352  0
2558    1287   114  1355  0
2559    1318  1306  1315  0
2560    1223  1166  1309  0
2561    1310   142  1301  0
2562    1039  1290  1302  0
2563    1368  1302  1290  0
2564    1356  1289    80  0
2565    1308  1272  1263  0
2566    1293    53  1305  0
2567    1314  1291  1229  0
2568    1334  1305    53  0
2569    1220  1221  1315  0
2570    1164  1306  1294  0
2571    1294  1318  1321  0
2572    1290  1039  1307  0
2573    1356  1308  1303  0
2574    1272  1369    60  0
2575    1316  1165  1275  0
2576    1301  1311  1310  0
2577    1311  1301  1309  0
2578    1312  1310   116  0
2579    1309  1165  1316  0
2580     116  1310  1311  0
2581    1319  1312   116  0
2582    1284  1297  1317  0
2583    1310  1312  1313  0
2584    1317  1313  1312  0
2585    1229  1228  1314  0
2586    1314  1228  1367  0
2587    1222  1300  1315  0
2588    1320  1318  1315  0
2589    1275  1262  1332  0
2590    1311  1322   116  0
2591    1335  1317  1312  0
2592    1358  1284  1317  0
2593    1320  1315  1300  0
2594    1320  1321  1318  0
2595    1316  1343  1322  0
2596    1319    98  1371  0
2597    1300  1287  1355  0
2598    1321  1307  1294  0
2599    1399  1321  1320  0
2600    1290  1321    94  0
2601    1316  1332  1343  0
2602    1319   116  1322  0
2603    1259  1339  1344  0
2604    1323  1344  1402  0
2605    1345  1324  1248  0
2606    1178  1338  1298  0
2607    1347  1326  1340  0
2608    1339  1325    97  0
2609    1341  1326  1258  0
2610      97  1325  1347  0
2611    1328    44  1395  0
2612    1341  1273  1334  0
2613    1271  1357  1198  0
2614    1265  1329  1277  0
2615    1292  1247  1329  0
2616    1269    86  1330  0
2617    1370    70  1240  0
2618    1362  1285  1284  0
2619    1379  1359  1331  0
2620    1296  1198  1353  0
2621    1343  1319  1322  0
2622    1292  1256  1333  0
2623    1293  1333  1256  0
2624    1327  1334    53  0
2625    1273  1257  1334  0
2626    1371  1312  1319  0
2627    1312  1371  1335  0
2628    1350  1324  1345  0
2629    1339  1336  1344  0
2630    1337  1345  1349  0
2631    1351  1163  1346  0
2632    1273  1341  1258  0
2633    1325  1339  1259  0
2634    1326  1254  1340  0
2635    1254  1341  1327  0
2636    1331  1342  1348  0
2637    1331  1359  1342  0
2638    1296  1353  1373  0
2639      98  1319  1343  0
2640    1486  1493    40  0
2641    1323  1243  1344  0
2642    1349  1345  1248  0
2643    1350  1337  1163  0
2644    1255  1261  1347  0
2645    1338  1351  1298  0
2646    1326  1347  1261  0
2647    1284  1358  1362  0
2648      32  1348  1342  0
2649    1272  1349  1248  0
2650    1337  1349    60  0
2651    1337  1350  1345  0
2652    1351  1350  1163  0
2653    1351  1338  1350  0
2654    1346     1  1360  0
2655     788  1240  1352  0
2656    1372  1240    70  0
2657    1441  1394  1422  0
2658    1343  1332  1373  0
2659    1354  1352  1372  0
2660    1434  1403  1406  0
2661     114  1403  1407  0
2662    1320  1355  1399  0
2663    1404    80  1386  0
2664    1295  1356    50  0
2665    1361  1357  1328  0
2666    1189  1198  1357  0
2667    1380  1283  1376  0
2668    1285  1362  1348  0
2669    1379  1331  1376  0
2670      64  1400  1397  0
2671    1468  1509  1479  0
2672    1360  1364  1346  0
2673    1405  1468  1361  0
2674    1331  1377  1376  0
2675    1331  1348  1362  0
2676    1398    65  1392  0
2677    1391    64  1397  0
2678    1360  1286  1364  0
2679    1365  1364  1286  0
2680    1367  1366    59  0
2681    1186  1298  1365  0
2682    1367    59  1314  0
2683    1365  1286  1366  0
2684    1365  1367  1186  0
2685      80  1289  1368  0
2686    1368  1289  1302  0
2687    1330    86  1370  0
2688    1308  1295  1369  0
2689      38  1419  1438  0
2690    1484    98  1387  0
2691    1383  1283  1380  0
2692    1439    70  1419  0
2693    1457  1453  1455  0
2694    1394  1373  1353  0
2695      98  1343  1373  0
2696    1388  1374  1405  0
2697    1375  1492  1486  0
2698    1493  1388    44  0
2699    1376  1377  1380  0
2700    1376  1381  1379  0
2701    1362  1358  1377  0
2702    1358  1335  1380  0
2703    1381  1376  1283  0
2704    1378  1381  1390  0
2705    1396    65  1359  0
2706    1358  1380  1377  0
2707    1383  1382  1283  0
2708    1283  1382  1390  0
2709    1396  1378  1389  0
2710    1382  1383  1420  0
2711      54  1390  1421  0
2712    1335  1371  1383  0
2713    1383  1371  1420  0
2714    1393  1368    94  0
2715    1384  1397  1398  0
2716    1399    94  1321  0
2717    1494    82  1488  0
2718    1385  1487  1393  0
2719    1353  1422  1394  0
2720    1481  1387    26  0
2721    1328  1395  1361  0
2722    1493    44  1402  0
2723    1421  1390  1382  0
2724    1396  1381  1378  0
2725    1378  1390    54  0
2726    1487  1385    21  0
2727       3  1391  1397  0
2728    1359  1398  1363  0
2729    1386    80  1393  0
2730    1422  1353  1189  0
2731      98  1394  1387  0
2732      44  1388  1395  0
2733    1405  1395  1388  0
2734    1381  1396  1379  0
2735      65  1396  1389  0
2736    1398  1397  1363  0
2737       3  1397  1384  0
2738      65  1398  1359  0
2739    1384  1398  1392  0
2740    1407  1399  1355  0
2741    1385    94  1399  0
2742    1397  1400    32  0
2743      64  1292  1400  0
2744    1402    44  1235  0
2745    1344  1336  1401  0
2746    1401    40  1402  0
2747    1372  1423  1354  0
2748    1407  1403  1424  0
2749    1488    50  1494  0
2750      50  1356  1404  0
2751    1499  1495  1497  0
2752    1468  1465  1440  0
2753    1456  1446  1460  0
2754      15  1451  1453  0
2755    1424  1403    28  0
2756    1385  1425    21  0
2757    1427     8     9  0
2758      56    90  1408  0
2759    1430     9     8  0
2760      16  1443    17  0
2761    1523  1410  1517  0
2762    1411    10  1433  0
2763      11  1433    10  0
2764    1528    56  1411  0
2765    1434    28  1403  0
2766    1354  1423  1406  0
2767      42  1413  1436  0
2768    1450  1515  1414  0
2769    1507  1414  1522  0
2770      42  1516  1450  0
2771       6  1426  1442  0
2772    1474  1476  1472  0
2773      19     4  1463  0
2774    1417  1416    27  0
2775    1416  1417    18  0
2776      27  1505  1417  0
2777    1517  1432  1462  0
2778    1370    86  1418  0
2779      38    46  1419  0
2780    1484  1387  1481  0
2781    1476    26  1472  0
2782    1382    69  1421  0
2783      69  1530  1489  0
2784    1464  1440  1467  0
2785    1394  1441  1387  0
2786      70  1439  1372  0
2787    1432  1458  1461  0
2788    1447  1450  1452  0
2789    1425  1424    21  0
2790    1399  1425  1385  0
2791    1424  1425  1407  0
2792    1506  1426  1541  0
2793       5  1442  1415  0
2794    1411    56  1427  0
2795      56  1408  1427  0
2796    1429    13    12  0
2797    1431  1443  1409  0
2798      10  1429    11  0
2799    1428  1429  1409  0
2800       7  1444     8  0
2801    1444     7     6  0
2802    1409  1430  1431  0
2803    1444  1430     8  0
2804    1457    14  1453  0
2805    1461  1462  1432  0
2806    1523  1433  1410  0
2807    1433  1523  1546  0
2808    1446  1406  1423  0
2809    1434  1412  1448  0
2810    1456  1434  1446  0
2811    1446  1434  1406  0
2812      42  1436    16  0
2813    1413  1447  1449  0
2814    1471  1474  1472  0
2815    1467  1469  1464  0
2816      38  1438  1418  0
2817    1419    70  1438  0
2818    1517  1462    46  0
2819    1423  1372  1439  0
2820    1189  1440  1464  0
2821    1468  1189  1361  0
2822    1422  1189  1464  0
2823      26  1387  1441  0
2824    1426  1506  1442  0
2825    1532  1511  1480  0
2826    1409  1443  1428  0
2827      17  1443  1431  0
2828       5  1444     6  0
2829    1431  1430  1444  0
2830    1431  1444  1445  0
2831    1444     5  1445  0
2832    1460  1423  1439  0
2833    1434  1456  1455  0
2834    1449  1436  1413  0
2835    1450  1413    42  0
2836    1434  1448    28  0
2837    1451  1449  1448  0
2838    1447  1448  1449  0
2839    1451  1448  1412  0
2840    1414  1454  1459  0
2841    1447  1413  1450  0
2842    1453  1451  1412  0
2843      15  1436  1451  0
2844    1459  1452  1450  0
2845    1424    28  1452  0
2846    1455  1453  1412  0
2847      15  1453    14  0
2848    1424  1452  1459  0
2849    1507  1454  1414  0
2850    1434  1455  1412  0
2851    1455  1435  1457  0
2852    1446  1423  1460  0
2853    1435  1455  1456  0
2854    1458  1457  1435  0
2855      13    14  1457  0
2856    1461  1458  1435  0
2857      12  1458  1432  0
2858    1414  1459  1450  0
2859    1424  1459  1454  0
2860    1439  1419  1462  0
2861    1456  1460  1461  0
2862    1456  1461  1435  0
2863    1439  1462  1460  0
2864    1460  1462  1461  0
2865    1419    46  1462  0
2866    1529  1463  1415  0
2867    1463  1529  1490  0
2868    1466  1465    23  0
2869    1441  1464  1469  0
2870    1440  1465  1467  0
2871    1440  1189  1468  0
2872    1471  1478  1437  0
2873      26  1473  1472  0
2874    1465  1466  1467  0
2875    1469  1467  1466  0
2876    1499  1374  1495  0
2877    1482  1485  1477  0
2878    1475  1472  1473  0
2879    1469  1473  1441  0
2880    1405  1509  1468  0
2881    1526  1524  1527  0
2882    1471  1475  1478  0
2883    1490  1529  1437  0
2884    1475  1471  1472  0
2885    1471  1437  1474  0
2886    1441  1473    26  0
2887    1475  1469  1466  0
2888    1506  1533  1535  0
2889    1371    98  1484  0
2890    1469  1475  1473  0
2891    1475  1466  1478  0
2892    1476  1474  1480  0
2893      26  1476  1481  0
2894    1491  1478  1482  0
2895    1482    23  1483  0
2896    1466    23  1478  0
2897    1482  1478    23  0
2898    1485  1525  1524  0
2899    1470  1468  1479  0
2900    1437  1529  1474  0
2901    1420  1511    69  0
2902    1476  1480  1481  0
2903    1480  1420  1484  0
2904    1482  1483  1485  0
2905    1491  1482  1477  0
2906    1470  1479  1483  0
2907    1483  1479  1485  0
2908    1480  1484  1481  0
2909    1420  1371  1484  0
2910    1479  1518  1547  0
2911    1520  1477  1524  0
2912    1454  1487    21  0
2913    1493  1402    40  0
2914      67  1386  1487  0
2915    1514  1505    27  0
2916    1494  1404  1386  0
2917      69  1489  1421  0
2918      27  1463  1490  0
2919    1505  1520    22  0
2920    1490  1437  1491  0
2921    1374  1496  1495  0
2922    1388  1492  1374  0
2923    1486  1492  1493  0
2924    1388  1493  1492  0
2925    1386    67  1494  0
2926      82  1494    67  0
2927    1496  1500  1495  0
2928    1495    75  1497  0
2929    1492  1375  1496  0
2930    1500  1498    52  0
2931    1513    75  1501  0
2932    1479  1509  1518  0
2933    1518  1509  1499  0
2934    1496  1375  1498  0
2935    1405  1374  1499  0
2936      75  1502  1501  0
2937    1495  1500    75  0
2938      31  1501  1504  0
2939    1519  1513  1512  0
2940    1500    52  1502  0
2941    1504  1503    63  0
2942      31  1504    63  0
2943    1502    52  1503  0
2944    1502  1504  1501  0
2945    1490  1514    27  0
2946      22  1515  1516  0
2947    1541  1426    90  0
2948    1532  1531    99  0
2949    1522  1414  1515  0
2950      81    67  1507  0
2951    1517  1410  1432  0
2952      46    58  1508  0
2953    1405  1499  1509  0
2954    1518  1499  1497  0
2955    1535  1415  1442  0
2956      45  1533  1506  0
2957    1532  1480  1510  0
2958      99  1530  1511  0
2959    1501    31  1512  0
2960      31    62  1512  0
2961    1501  1512  1513  0
2962    1519  1512    74  0
2963    1490  1491  1514  0
2964    1477  1514  1491  0
2965    1516    42  1417  0
2966    1515    22  1521  0
2967      22  1516  1505  0
2968    1450  1516  1515  0
2969      46  1508  1517  0
2970    1523  1517  1508  0
2971    1513  1519  1497  0
2972    1547  1519  1550  0
2973    1544  1551    43  0
2974    1518  1497  1519  0
2975    1514  1477  1520  0
2976    1485  1524  1477  0
2977    1526  1520  1524  0
2978      81  1542  1543  0
2979    1515  1521  1522  0
2980    1507  1542    81  0
2981    1508    73  1523  0
2982    1523    73  1546  0
2983    1485  1479  1547  0
2984    1520  1526    22  0
2985    1550    74  1548  0
2986      43  1543  1544  0
2987    1527  1524  1525  0
2988    1521    22  1526  0
2989    1551  1544  1527  0
2990    1521  1526  1527  0
2991    1411  1433  1546  0
2992      66  1528    33  0
2993    1415  1510  1529  0
2994    1474  1529  1510  0
2995    1530  1538  1489  0
2996      69  1511  1530  0
2997      45  1531  1533  0
2998      45  1537  1531  0
2999    1511  1532    99  0
3000    1535  1533  1532  0
3001    1531  1532  1533  0
3002    1535  1532  1510  0
3003    1534  1536  1537  0
3004    1415  1535  1510  0
3005    1442  1506  1535  0
3006    1537  1536  1531  0
3007      85  1536  1534  0
3008    1534  1537    41  0
3009    1540  1537    45  0
3010    1489  1538    85  0
3011    1530    99  1538  0
3012    1539  1541    90  0
3013      90    76  1539  0
3014    1539    41  1540  0
3015    1540    45  1541  0
3016      45  1506  1541  0
3017    1522  1521  1542  0
3018    1543  1542  1521  0
3019    1544  1543  1521  0
3020    1545    43    61  0
3021    1521  1527  1544  0
3022    1551  1527  1525  0
3023    1528  1549    33  0
3024      43  1545  1543  0
3025    1411  1546  1528  0
3026    1519  1547  1518  0
3027    1485  1547  1525  0
3028    1550  1525  1547  0
3029      51  1548    74  0
3030    1546    73  1549  0
3031      73    48  1549  0
3032      74  1550  1519  0
3033    1551  1548    43  0
3034    1525  1550  1551  0
3035    1548  1551  1550  0
# Generated by C:\Users\lukem\Python\PATH\modflow_exe\triangle.exe -a -q32 -A -p -V -D -e -n _triangle.0
