1552  2  0  1
   0    0  0    1
   1    0  420    1
   2    520  420    2
   3    520  0    3
   4    231.74960578695425  154.90310870286285    5
   5    225.85990574611446  135.48736968504812    5
   6    212.98845077650958  119.80345642513768    6
   7    195.09480321723203  110.23910254192513    7
   8    174.90310870286285  108.25039421304575    8
   9    155.48736968504812  114.14009425388554    9
  10    139.80345642513768  127.01154922349043    10
  11    130.23910254192515  144.90519678276794    11
  12    128.25039421304575  165.09689129713715    12
  13    134.14009425388554  184.51263031495188    13
  14    147.01154922349042  200.19654357486229    14
  15    164.90519678276794  209.76089745807485    15
  16    185.09689129713712  211.74960578695425    16
  17    204.51263031495188  205.85990574611446    17
  18    220.19654357486229  192.98845077650958    18
  19    229.76089745807485  175.09480321723206    19
  20    45.30344866938465  381.03534031883117    21
  21    151.67326602691105  325.48840561198642    21
  22    258.04308338443747  269.94147090514161    22
  23    364.41290074196388  214.39453619829686    23
  24    470.7827180994903  158.84760149145208    24
  25    470.04028463341137  96.224981998957148    25
  26    363.68403463181841  151.79788983720732    26
  27    257.32778463022538  207.37079767545748    27
  28    150.97153462863236  262.94370551370764    28
  29    44.61528462703933  318.5166133519578    29
  30    45  375    31
  31    475  375    31
  32    475  45    32
  33    45  45    33
  34    45.23701570773882  375    30
  35    56.860846945143678  375    21
  36    45  353.46745919986927    30
  37    45  318.31559317716619    29
  38    0  210    1
  39    260  420    2
  40    520  210    3
  41    260  0    4
  42    204.14965962942887  235.15725159458256    28
  43    312.86084694514363  375    31
  44    475  210    32
  45    260  45    33
  46    45  181.6577965885831    34
  47    45  334.31559317716619    34
  48    0  105    1
  49    0  315    1
  50    130  420    2
  51    390  420    2
  52    520  315    3
  53    520  105    3
  54    390  0    4
  55    130  0    4
  56    152.5  45    33
  57    45  326.31559317716619    34
  58    0  157.5    1
  59    0  367.5    1
  60    65  420    2
  61    325  420    2
  62    455  420    2
  63    520  367.5    3
  64    520  52.5    3
  65    455  0    4
  66    65  0    4
  67    184.86084694514369  375    31
  68    475  127.5    32
  69    367.5  45    33
  70    45  254.31559317716619    34
  71    44.823893443743486  337.46842840169768    30
  72    0  52.5    1
  73    45  113.32889829429155    34
  74    393.93042347257182  375    31
  75    475  311    32
  76    195  0    4
  77    45  322.31559317716619    34
  78    44.719589035391408  327.99252087682771    30
  79    475  86.25    32
  80    120.86084694514368  375    31
  81    248.86084694514366  375    31
  82    195  420    2
  83    475  168.75    32
  84    470.41963959516431  128.22273332327671    25
  85    325  0    4
  86    0  262.5    1
  87    45  345.46745919986927    34
  88    44.771741239567447  332.7304746392627    30
  89    44.667436831215369  323.25456711439278    30
  90    206.25  45    33
  91    45  320.31559317716619    34
  92    45  330.31559317716619    34
  93    475  106.875    32
  94    113.59141620249109  345.3749681563495    21
  95    45  339.89152618851773    34
  96    475  148.125    32
  97    520  157.5    3
  98    413.31695129922844  125.86386617935725    26
  99    313.75  45    33
 100    44.911946721871743  345.46794380078347    30
 101    44.797817341655467  335.09945152048022    30
 102    45  332.31559317716619    34
 103    475  96.5625    32
 104    45  328.31559317716619    34
 105    44.693512933303388  325.62354399561025    30
 106    44.641360729127349  320.88559023317532    30
 107    45  324.31559317716619    34
 108    45  319.31559317716619    34
 109    44.745665137479428  330.36149775804518    30
 110    470.22996211428784  112.22385766111692    25
 111    44.758703188523441  331.54598619865396    30
 112    470.60117884732728  143.53516740736438    25
 113    475  158.4375    32
 114    101.72333333418295  288.67670899676608    29
 115    45  337.10355968284193    34
 116    441.67861796631991  111.04442408915719    26
 117    470.13512337384964  104.22441983003704    25
 118    44.765222214045444  332.1382304189583    30
 119    470.69194847340879  151.19138444940825    25
 120    45  318.81559317716619    34
 121    45  323.31559317716619    34
 122    44.867920082807615  341.46818610124058    30
 123    44.784779290611453  333.91496307987143    30
 124    45  333.31559317716619    34
 125    45  325.31559317716619    34
 126    45  327.31559317716619    34
 127    44.654398780171363  322.07007867378405    30
 128    44.628322678083336  319.70110179256653    30
 129    44.706550984347402  326.80803243621898    30
 130    45  321.31559317716619    34
 131    44.680474882259375  324.43905555500152    30
 132    44.732627086435414  329.17700931743644    30
 133    45  331.31559317716619    34
 134    475  117.1875    32
 135    475  137.8125    32
 136    44.700031958825392  326.21578821591459    30
 137    44.634841703605346  320.29334601287093    30
 138    44.621803652561333  319.1088575722622    30
 139    45  335.70957643000406    34
 140    45  338.4975429356798    34
 141    44.81085539269948  336.28393996108895    30
 142    455.85945129986561  103.63470304405718    26
 143    44.768481726806442  332.43435252911047    30
 144    475  153.28125    32
 145    45  327.81559317716619    34
 146    44.713070009869405  327.40027665652337    30
 147    45  321.81559317716619    34
 148    45  320.81559317716619    34
 149    44.673955856737372  323.84681133469712    30
 150    44.686993907781385  325.03129977530591    30
 151    45  331.81559317716619    34
 152    475  112.03125    32
 153    45  332.81559317716619    34
 154    45  333.81559317716619    34
 155    44.791298316133464  334.50720730017582    30
 156    44.845906763275551  339.46830725146913    30
 157    45  342.67949269419353    34
 158    44.77826026508945  333.32271885956709    30
 159    45  325.81559317716619    34
 160    44.660917805693366  322.66232289408845    30
 161    45  319.81559317716619    34
 162    45  326.81559317716619    34
 163    44.647879754649352  321.47783445347966    30
 164    45  324.81559317716619    34
 165    44.726108060913411  328.58476509713205    30
 166    45  329.31559317716619    34
 167    44.752184163001431  330.95374197834957    30
 168    470.32480085472611  120.22329549219683    25
 169    475  142.96875    32
 170    470.51040922124582  135.87895036532055    25
 171    44.817374418221483  336.87618418139334    30
 172    44.80433636717747  335.69169574078455    30
 173    45  335.01258480358513    34
 174    45  337.80055130926087    34
 175    45  336.406568056423    34
 176    45  331.56559317716619    34
 177    45  332.06559317716619    34
 178    45  323.81559317716619    34
 179    44.761962701284446  331.84210830880613    30
 180    45  341.28550944135566    34
 181    44.856913423041583  340.46824667635485    30
 182    44.834900103509518  338.4683678265834    30
 183    44.788038803372459  334.2110851900236    30
 184    45  339.19453456209874    34
 185    44.889933402339679  343.46806495101202    30
 186    44.781519777850448  333.61884096971926    30
 187    45  322.81559317716619    34
 188    44.755443675762436  331.24986408850179    30
 189    45  328.81559317716619    34
 190    44.722848548152413  328.28864298697988    30
 191    44.739146111957425  329.76925353774084    30
 192    45  330.81559317716619    34
 193    475  122.34375    32
 194    45  336.05807224321353    34
 195    45  334.66408899037566    34
 196    44.820633930982481  337.17230629154551    30
 197    45  335.3610806167946    34
 198    44.794557828894469  334.80332941032805    30
 199    45  336.75506386963247    34
 200    45  337.4520554960514    34
 201    44.814114905460485  336.58006207124117    30
 202    44.878926742573647  342.4681255261263    30
 203    44.840403433392538  338.96833753902627    30
 204    44.862416752924602  340.96821638879771    30
 205    44.851410093158563  339.96827696391199    30
 206    45  341.98250106777459    34
 207    45  340.58851781493672    34
 208    44.829396773626499  337.96839811414054    30
 209    45  339.54303037530826    34
 210    45  344.0734759470314    34
 211    45  333.56559317716619    34
 212    44.729367573674409  328.88088720728422    30
 213    45  329.81559317716619    34
 214    44.826645108684993  337.71841325791911    30
 215    45  340.2400220017272    34
 216    44.807595879938475  335.98781785093672    30
 217    45  340.93701362814619    34
 218    44.801076854416465  335.39557363063238    30
 219    45  341.63400525456512    34
 220    45  342.33099688098406    34
 221    44.843155098334044  339.2183223952477    30
 222    44.884430072456666  342.96809523856916    30
 223    45  338.84603874888927    34
 224    44.865168417866109  341.21820124501915    30
 225    44.848658428217057  339.71829210769056    30
 226    44.873423412690627  341.96815581368344    30
 227    44.859665087983089  340.71823153257628    30
 228    45  338.14904712247034    34
 229    45  343.37648432061246    34
 230    44.900940062105711  344.46800437589775    30
 231    45  340.41426990833196    34
 232    44.854161758100076  340.21826182013342    30
 233    44.895436732222691  343.96803466345489    30
 234    45  343.02798850740299    34
 235    45  343.72498013382193    34
 236    45  337.97479921586557    34
 237    45  341.45975734796036    34
 238    45  342.50524478758882    34
 239    44.876175077632141  342.21814066990487    30
 240    44.881678407515153  342.71811038234773    30
 241    45  339.02028665549403    34
 242    44.837651768451025  338.71835268280483    30
 243    45  341.11126153475095    34
 244    45  339.71727828191297    34
 245    44.870671747749121  341.71817095746201    30
 246    45  340.76276572154143    34
 247    44.832148438568012  338.21838297036197    30
 248    44.887181737398173  343.21808009479059    30
 249    45  344.77046757345033    34
 250    45  343.89922804042669    34
 251    45  343.55073222721717    34
 252    44.898188397164205  344.21801951967632    30
 253    45  342.85374060079823    34
 254    44.892685067281185  343.71804980723346    30
 255    44.877550910102897  342.34313309801558    30
 256    45  342.1567489743793    34
 257    45  338.67179084228451    34
 258    45  341.80825316116989    34
 259    45  344.42197176024087    34
 260    44.888557569868922  343.34307252290131    30
 261    45  343.20223641400776    34
 262    44.906443391988731  344.96797408834061    30
 263    44.896812564693448  344.0930270915656    30
 264    44.894060899751935  343.84304223534417    30
 265    44.88305423998591  342.84310281045845    30
 266    44.891309234810436  343.59305737912274    30
 267    45  344.2477238536361    34
 268    45  344.59621966684563    34
 269    44.903691727047217  344.71798923211918    30
 270    45  345.1189633866598    34
 271    45  344.94471548005504    34
 272    44.905067559517974  344.8429816602299    30
 273    44.902315894576461  344.59299680400846    30
 274    44.909195056930237  345.21795894456204    30
 275    44.907819224459487  345.09296651645133    30
 276    45  345.29321129326456    34
 277    44.910570889400987  345.34295137267276    30
 278    45  345.03183943335739    34
 279    45.144322733246796  344.98827745670621    0
 280    45.091884307359074  345.07540141000857    0
 281    45.262426253549727  345.11870483218763    0
 282    45.097573543856569  345.20608733996221    0
 283    44.683568628972132  343.53284026163203    0
 284    44.880302575044396  342.59311795423702    30
 285    45  344.33484780693846    34
 286    44.899564229634962  344.34301194778703    30
 287    45.144322733246796  344.29128583028728    0
 288    45.091884307359074  344.37840978358963    0
 289    45.262426253549727  344.4217132057687    0
 290    45.097573543856569  344.50909571354327    0
 291    44.885805904927423  343.09308766667988    30
 292    45  343.1151124607054    34
 293    45.144322733246888  343.07155048405423    0
 294    45.091884307359102  343.15867443735658    0
 295    45.262426253549791  343.20197785953576    0
 296    45.097573543856477  343.28936036731011    0
 297    44.760175278337357  343.6570045995756    0
 298    44.694575288738157  344.53277968651776    0
 299    44.669810304264594  342.28291598052488    0
 300    44.676689466618363  342.90787812107845    0
 301    44.680816964030619  343.2828554054106    0
 302    44.783018245564733  343.78176073192424    0
 303    44.690447791325902  344.15780240218561    0
 304    44.768430273161854  344.40695916823989    0
 305    44.771181938103382  344.65694402446132    0
 306    44.702830283562683  345.28273425518205    0
 307    44.746416953629819  342.40708031846845    0
 308    44.67393780167685  342.65789326485702    0
 309    44.753296115983588  343.03204245902202    0
 310    44.757423613395844  343.40701974335417    0
 311    44.78648206212754  343.90673017691228    0
 312    44.788521575447746  344.2817304443671    0
 313    44.794024905330758  344.78170015680996    0
 314    44.700078618621184  345.03274939896062    0
 315    44.779436932927908  345.40689859312562    0
 316    44.769259920857195  342.53183645081708    0
 317    44.750544451042074  342.78205760280059    0
 318    44.776139083210964  343.15679859137066    0
 319    44.787878028561032  344.03172238340187    0
 320    44.797488721893579  344.906669601798    0
 321    44.776685267986409  345.15691373690419    0
 322    45  340.06577409512249    34
 323    44.85278592562932  340.09326939202271    30
 324    44.646421152261773  340.15804470264271    0
 325    44.72027613668547  340.03222418436485    0
 326    45.16547695667019  345.38033524656691    0
 327    45.16547695667019  344.68334362014798    0
 328    45.165476956670261  343.46360827391482    0
 329    44.564935501443621  343.75722254032814    0
 330    44.523078341882467  344.34752703115015    0
 331    44.502432688808895  342.47189873885469    0
 332    44.509311851162664  343.09686087940827    0
 333    44.61597371444369  343.40857672858044    0
 334    44.575942161209646  344.75716196521387    0
 335    44.955973360935872  349.46770150032637    30
 336    45  349.46745919986927    34
 337    44.609094552089921  342.78361458802686    0
 338    44.635235369034255  345.15847072213046    0
 339    44.474924205406083  339.97279204727511    0
 340    44.710050321670899  339.84482538472787    0
 341    44.665192875821312  343.8475592602839    0
 342    44.658390220600623  344.32507863398519    0
 343    44.63820591619573  342.49136321373754    0
 344    44.645085078549499  343.11632535429112    0
 345    44.50579925622737  343.27216932752771    0
 346    44.474680609233246  343.56595149451698    0
 347    44.67619953558733  344.84749868516963    0
 348    44.535452668106984  345.47171701351186    0
 349    44.502429634553209  342.92215285922839    0
 350    44.4989200938736  342.64720718697413    0
 351    44.459396873625103  344.9881958000779    0
 352    44.680333332914273  343.97041958995032    0
 353    44.499809165095201  343.93030307211552    0
 354    44.57173166769892  344.22176105392253    0
 355    44.528570451497515  345.29700899333199    0
 356    44.933960041403807  347.46782265055492    30
 357    45  347.46745919986927    34
 358    44.548616797071183  344.88829027397884    0
 359    44.339070914165198  344.20404874471956    0
 360    44.566832009383248  344.07051049203397    0
 361    44.922953381637775  346.4678832256692    30
 362    45  346.46745919986927    34
 363    44.33851114734788  344.79044828341887    0
 364    44.917450051754756  345.96791351322634    30
 365    45  345.96745919986927    34
 366    44.914698386813249  345.7179286570049    30
 367    45  345.71745919986927    34
 368    44.773338615325592  345.59447707782078    0
 369    44.833524271038769  338.34337539847269    30
 370    45  338.3232950290751    34
 371    44.627159497671215  338.40815070909269    0
 372    44.701014482094919  338.28233019081483    0
 373    44.455662550815525  338.22289805372503    0
 374    44.690788667080355  338.09493139117785    0
 375    45  339.3687824687035    34
 376    45.288645466493684  338.75891479558686    0
 377    45.288645466493591  343.98635199372904    0
 378    45.288645466493591  342.76661664749588    0
 379    45.419430292133185  344.8578500812248    0
 380    45.151544885509011  343.63785618051952    0
 381    44.217153276997962  343.17869641316946    0
 382    44.407863681892962  344.06037849139494    0
 383    44.242603905112922  345.39576354568646    0
 384    45.183768614718169  338.58466688898216    0
 385    45.288645466493591  340.67564176823907    0
 386    45.288645466493591  339.63015432861062    0
 387    45.288645466493591  339.10741060879639    0
 388    45.365750962648853  344.20946571809088    0
 389    45.365750962649173  342.98973037185783    0
 390    45.183768614718133  342.59236874089117    0
 391    45.288645466493684  341.72112920786753    0
 392    45.447156387583227  343.57381100766236    0
 393    45.150904472583917  343.81210408712434    0
 394    44.210274114644193  342.55373427261588    0
 395    44.32925163884827  343.01646436863581    0
 396    44.13547438264667  344.01825689444956    0
 397    45.153841975571403  338.41041898237745    0
 398    45.183768614718147  340.50139386163437    0
 399    45.288645466493684  341.0241375814486    0
 400    45.183768614718147  340.84988967484378    0
 401    45.183768614718147  339.45590642200591    0
 402    45.288645466493684  339.97865014182014    0
 403    45.183768614718147  339.80440223521532    0
 404    45.183768614718147  338.93316270219168    0
 405    45.15384197557141  342.41812083428647    0
 406    45.288645466493591  342.06962502107694    0
 407    45.183768614718211  341.54688130126272    0
 408    45.325302725868099  343.72561992246176    0
 409    44.295749587707647  343.88359506850043    0
 410    45.15093118439335  338.23617107577275    0
 411    45.153841975571467  340.32714595502955    0
 412    45.183768614718169  341.1983854880533    0
 413    45.153841975571467  339.28165851540109    0
 414    45.150931184393414  342.24387292768165    0
 415    45.183768614718133  341.89537711447224    0
 416    45.150903116286358  338.06192316916793    0
 417    45.441032046475968  338.31847323985636    0
 418    45.150931184393336  340.15289804842485    0
 419    45.153841975571403  341.37263339465801    0
 420    45.434302990907113  342.32628749986242    0
 421    45.15090311367593  337.88767526256322    0
 422    45.332381778714065  338.14901789188326    0
 423    45.434302990906517  340.23531262060533    0
 424    45.201204151567929  337.62630340265616    0
 425    45.30435385370707  337.97479921356671    0
 426    45.31173492755056  337.78310120999339    0
 427    45.606964865405871  338.01547968223736    0
 428    44.802706610796967  335.54363468570847    30
 429    45  335.53532852339936    34
 430    44.558255114516953  335.62036494031861    0
 431    44.645740789302927  335.4713229625923    0
 432    45.288645466493684  335.448204570097    0
 433    44.355106657625797  335.40092201866349    0
 434    44.633627695870324  335.24933780386198    0
 435    45.183768614718169  335.62245247670171    0
 436    44.60988098773143  339.59591283659944    0
 437    45.171486700914386  345.59245919986927    0
 438    44.678672611269228  345.84553424213522    0
 439    44.590619333140864  337.84601884304942    0
 440    44.00446152962688  342.91188700393502    0
 441    44.316572989228789  342.78702998923876    0
 442    45.380959349824415  340.84988967484384    0
 443    45.52485250709946  339.36929957764778    0
 444    45.380959349824415  339.80440223521538    0
 445    45.380959349824415  338.93316270219162    0
 446    45.637704342758909  343.85156871951466    0
 447    43.992541726673878  343.68542660054339    0
 448    45.380959349824295  341.89537711447224    0
 449    45.423576395196861  338.55901641410566    0
 450    45.457450761638377  341.33508357332329    0
 451    45.423279688748288  342.56689684858037    0
 452    45.423279688748458  340.47592196932351    0
 453    45.470438291089714  337.88520297053964    0
 454    45.524852507099517  335.70905932105995    0
 455    45.195147087712961  335.88382433660877    0
 456    45.335897012096723  339.34008488710811    0
 457    45.531765058139477  339.61293047398169    0
 458    45.544948708429459  340.00285849329862    0
 459    45.532438483949612  339.12499123414858    0
 460    45.544948708429295  342.09383337255542    0
 461    45.502016299789247  338.7574513794109    0
 462    45.623447874652577  341.65533319537514    0
 463    45.395697907372082  341.53801041411458    0
 464    45.580322258015613  341.06708629998866    0
 465    45.501965961661952  340.67420502043507    0
 466    45.560220407693656  337.57125649917754    0
 467    45.38325007539266  337.61533147108713    0
 468    45.700197263628212  337.78109808709809    0
 469    45.27515869625492  337.33761882571832    0
 470    45.432616748829673  337.43622496489974    0
 471    45.517230947707802  337.12608918905613    0
 472    45.674375144265966  337.33557328091348    0
 473    45.281042346802948  378.9997576995429    30
 474    52.394769826553073  377.33221133837486    21
 475    48.849109247968862  379.18377582860302    21
 476    49.23701570773882  375    31
 477    52.860846945143678  375    31
 478    55.088016655851575  375.92578224511408    21
 479    54.860846945143678  375    31
 480    45  367    34
 481    45.088053278128257  361.46697459895506    30
 482    45.148962429610563  367.00048460091421    30
 483    45  361.46745919986927    34
 484    45  334.06559317716619    34
 485    44.775000752328452  333.02659674941492    30
 486    45  333.06559317716619    34
 487    45  332.56559317716619    34
 488    44.457942201014021  341.84772157870196    0
 489    44.444183876306482  340.59779729759481    0
 490    44.258452314881247  344.49717182412604    0
 491    44.424922221715931  338.84790330404485    0
 492    44.111903818689903  345.06479969881133    0
 493    45.665681211342651  344.48674910131581    0
 494    45.631549912043532  343.25039821531931    0
 495    44.514971090078127  334.95448590719411    0
 496    44.627116976438046  339.34570796974765    0
 497    45.222415756393211  345.84245919986927    0
 498    45.519869794642133  345.47644195049963    0
 499    44.607855321847488  337.59581397619763    0
 500    45.508128920757827  344.03538131794636    0
 501    45.553545562773046  342.79995051090572    0
 502    45.931888688368844  339.47966423390289    0
 503    45.791508205473122  338.52829648004001    0
 504    45.586111482978666  340.86167736113691    0
 505    45.854590752992841  340.62855229523439    0
 506    45.918960857103187  340.97384440546006    0
 507    45.259029027270884  376.99987884977145    30
 508    45.192989068674692  371.0002423004571    30
 509    45  371    34
 510    44.452438871131008  341.3477518662591    0
 511    44.60565216986145  341.5960805421463    0
 512    44.597397175036889  340.846125973482    0
 513    44.625284080256122  339.09571300033843    0
 514    45.877406219355422  344.15811953790086    0
 515    45.600607862161311  344.25628217682669    0
 516    45.827365985897721  342.46485251522597    0
 517    45.774385065963223  339.25477582353278    0
 518    45.658342714701902  340.49739438219819    0
 519    45.248022367504852  375.99993942488572    30
 520    45  373    34
 521    45.215002388206756  373.00012115022855    30
 522    44.643083109491677  341.09563823817933    0
 523    45.973732684011928  340.23788417314341    0
 524    45.24251903762184  375.49996971244286    30
 525    45.226009047972788  374.00006057511428    30
 526    45  374    34
 527    45.239767372680333  375.24998485622143    30
 528    45  374.5    34
 529    45.2315123778558  374.50003028755714    30
 530    44.854812250754073  375.37922975529818    0
 531    47.23701570773882  375    31
 532    45  374.75    34
 533    45.234264042797307  374.75001514377857    30
 534    46.23701570773882  375    31
 535    45.73701570773882  375    31
 536    45.612015707738827  375.37089496959288    0
 537    45.48701570773882  375    31
 538    45.612015707738806  374.62084953550504    0
 539    44.23068604283138  328.14598138604805    0
 540    44.74240562471843  330.06537564789301    30
 541    45  330.06559317716619    34
 542    44.748924650240426  330.65761986819734    30
 543    45  330.56559317716619    34
 544    45  329.56559317716619    34
 545    44.735886599196419  329.47313142758867    30
 546    44.318692887378354  336.14127836015706    0
 547    44.276319221485416  332.29169092817864    0
 548    44.636978995423235  346.22101589442326    0
 549    45.414130465206107  333.69059317716619    0
 550    45.330953913340636  336.23232014981829    0
 551    45.83143249301353  341.34438114322921    0
 552    45.81824581548053  337.55074541142454    0
 553    45.942818023643532  336.97051843808453    0
 554    44.3508460956972  342.16902943190456    0
 555    44.330041095649392  340.27892469305272    0
 556    44.074932799348495  344.28904991328005    0
 557    44.310779441058735  338.5290306995027    0
 558    44.299135810812338  334.36454569924393    0
 559    44.535388156229629  334.65810318120657    0
 560    44.20402915046008  339.44225861108811    0
 561    45.286836172852766  346.21745919986927    0
 562    44.328471425661455  337.02964469061368    0
 563    44.59250622654455  337.32289636201693    0
 564    46.041839300640142  338.05273039046011    0
 565    44.322752371957137  341.59919451259879    0
 566    44.109428645394964  340.97576281425432    0
 567    45.799324038968784  338.91787146855552    0
 568    45.704091392490497  340.22116889762862    0
 569    44.585869534793893  374.875    0
 570    44.412176417925323  328.4401416508997    0
 571    44.253502632158401  330.21883615711334    0
 572    44.500183262472312  336.43543862500877    0
 573    44.266540683202408  331.40332459772213    0
 574    44.451290571057328  331.99360697272596    0
 575    44.457809596579345  332.58585119303029    0
 576    45.414130465206107  334.19059317716619    0
 577    45.2636597166344  333.94059317716619    0
 578    45.2636597166344  333.44059317716619    0
 579    45.414130465206107  332.19059317716619    0
 580    45.98556996065259  337.28318313543758    0
 581    43.830627715663844  344.68944899398736    0
 582    43.656629035546239  344.05336494764248    0
 583    44.289357272529422  333.47617936878743    0
 584    44.474107160384314  334.06646174379125    0
 585    44.088152352292184  334.77618882643469    0
 586    44.376449258228817  339.22254159448704    0
 587    44.184767495869522  337.69236461753809    0
 588    44.585301710837655  337.0638928371759    0
 589    45.980440665992333  337.77928964239163    0
 590    44.070909561089877  341.89722073543578    0
 591    44.380975100168676  341.01469176402026    0
 592    44.102403455524446  341.32637971049326    0
 593    46.209534626904414  339.11761207200442    0
 594    45.856688366306145  339.94276894942834    0
 595    44.7363402833656  374.625    0
 596    44.466294157373653  328.73570394794365    0
 597    44.246983606636391  329.62659193680901    0
 598    44.434993007252338  330.512996421965    0
 599    44.554301001920656  336.73100092205277    0
 600    44.441512032774313  331.10524064226939    0
 601    44.498889284983655  331.69692504946556    0
 602    44.511927336027618  332.88141349007435    0
 603    45.546576652264434  333.94059317716619    0
 604    45.22072284621531  333.19059317716619    0
 605    45.414130465206107  332.69059317716619    0
 606    45.2636597166344  332.44059317716619    0
 607    45.2636597166344  331.94059317716619    0
 608    45.414130465206107  330.69059317716619    0
 609    44.521705874310662  333.76977982053086    0
 610    43.926273163149659  339.04678242502297    0
 611    44.357271800814559  337.47301655550609    0
 612    46.086344995544401  337.53230482819686    0
 613    44.24697444387364  374.50074191557633    0
 614    44.720015161852622  374.25    0
 615    44.474500355823146  329.0317716083112    0
 616    44.428473981730328  329.92075220166066    0
 617    44.489110746700646  330.808558719009    0
 618    44.520133534477203  333.17748115044191    0
 619    45.894484023941381  334.28499318141115    0
 620    45.216546625056061  332.94059317716619    0
 621    45.656321746630965  333.24446731268159    0
 622    45.546576652264434  332.44059317716619    0
 623    45.22072284621531  331.69059317716619    0
 624    45.2636597166344  330.44059317716619    0
 625    43.907664788456565  337.29693343429432    0
 626    46.424031876331668  337.82329889466598    0
 627    44.477807568365712  329.3278931934164    0
 628    43.979954704916402  328.89733152525326    0
 629    44.037021339373105  333.04272416277132    0
 630    45.832610086002141  333.62897304155456    0
 631    45.457807755161227  333.06159781946673    0
 632    45.894484023941381  332.78499318141115    0
 633    45.216546625056061  331.44059317716619    0
 634    45.656321746630965  331.74446731268159    0
 635    45.22072284621531  330.19059317716619    0
 636    46.448633008159824  337.24080793349361    0
 637    44.167768085662637  329.18327658625856    0
 638    45.713855733794219  332.98282810334837    0
 639    45.288661716133433  331.06559317716619    0
 640    45.832610086002141  332.12897304155456    0
 641    45.457807755161227  331.56159781946673    0
 642    45.216546625056061  329.94059317716619    0
 643    45.656321746630965  330.24446731268159    0
 644    46.131887751891291  333.18312535369188    0
 645    45.443181396481194  331.28974249450505    0
 646    45.216506354691269  329.69059317716619    0
 647    45.457807755161227  330.06159781946673    0
 648    45.653744655285962  330.97925396699634    0
 649    45.782988212438561  331.40778133619978    0
 650    45.216506350946112  329.44059317716619    0
 651    45.430233238939714  329.81555875297124    0
 652    45.790376606308428  329.8997608647046    0
 653    45.432990516882754  329.56559317392311    0
 654    45.648809252941966  329.69297178743915    0
 655    45.531813661145243  329.14448242214826    0
 656    45.675953973902701  329.40045911715902    0
 657    45.24007888959482  329.14976434256323    0
 658    46.033900781013095  329.58119185335943    0
 659    45.379592869387814  328.79620756061519    0
 660    46.027914808670879  329.03369919054484    0
 661    44.709810497108407  327.10415454637121    30
 662    45  327.06559317716619    34
 663    44.220907504548379  327.25761505559154    0
 664    45.414130465206107  326.94059317716619    0
 665    44.395878854120284  326.9595311001388    0
 666    45.2636597166344  327.19059317716619    0
 667    45.75302555612636  327.31485126158987    0
 668    45.279984838147378  327.56559317716619    0
 669    44.703291471586397  326.51191032606675    30
 670    45  326.56559317716619    34
 671    44.443477568046596  326.66284917687841    0
 672    45.414130465206107  326.44059317716619    0
 673    45.2636597166344  326.69059317716619    0
 674    44.445164740974128  326.36667261694157    0
 675    45.546576652264434  326.69059317716619    0
 676    44.354855980058069  325.92342969195181    0
 677    43.953698208311209  326.51196605807252    0
 678    45.762943252090011  326.96530488671345    0
 679    45.894484023941381  326.34619317292123    0
 680    44.670696343976374  323.55068922454495    30
 681    45  323.56559317716619    34
 682    44.181793351416346  323.70414973376529    0
 683    45.414130465206107  323.44059317716619    0
 684    44.356764700988258  323.40606577831261    0
 685    45.2636597166344  323.69059317716619    0
 686    45.75302555612636  323.81485126158987    0
 687    45.279984838147378  324.06559317716619    0
 688    44.300210440273958  345.77618937607866    0
 689    43.796873174515596  343.29554982303921    0
 690    45.780320510237708  343.54949194409022    0
 691    45.602319964620506  345.14560467083589    0
 692    46.458759734007039  340.69456786570487    0
 693    44.183483892810735  335.76355456538806    0
 694    45.303089771018016  336.5808159630277    0
 695    43.944596105099599  339.90915483484224    0
 696    44.028393825185674  340.56676696320307    0
 697    43.922155165612565  336.58900126645528    0
 698    43.870022307702989  331.85280508486846    0
 699    43.892838897029939  333.92565985593365    0
 700    43.925334450509148  338.15926084129217    0
 701    46.404075344705149  339.89644009032099    0
 702    44.109265907092229  338.78102936641295    0
 703    44.09336214182413  329.92444088710863    0
 704    43.973851298145199  330.87805137047309    0
 705    45.838860584266641  335.18734981913428    0
 706    44.005119717399339  328.48821872356427    0
 707    44.051253787278732  332.63361922689103    0
 708    44.143308186781148  326.76685020171703    0
 709    46.337015615462889  327.15650695432447    0
 710    43.775496437633919  323.26526389045512    0
 711    44.332538514123094  322.96209546085191    0
 712    45.981944737330799  343.82938684550618    0
 713    46.201390511285133  343.15350333154817    0
 714    45.780629780767782  344.83027801671903    0
 715    45.823146096003754  336.4470354528936    0
 716    43.525111497065502  341.13943388177682    0
 717    44.243818287160671  336.63511495079968    0
 718    44.190592438712692  331.79962212940086    0
 719    44.213409028039678  333.8724769004661    0
 720    43.577543783952493  338.61077441500487    0
 721    43.989210010015462  338.47845473268001    0
 722    43.600187150739472  329.35142102671739    0
 723    43.685760186505149  330.33691474515285    0
 724    44.074999961733816  330.53203626077709    0
 725    45.473937375067855  334.83833689698042    0
 726    43.626282041621522  326.9535012042607    0
 727    46.136004784353396  343.50584047205137    0
 728    46.109134065769993  345.44760381966563    0
 729    44.043951399446193  336.88434659073039    0
 730    43.985287893982729  331.55485034373027    0
 731    44.008104483309758  333.6277051147955    0
 732    43.867998805782065  329.61966418224108    0
 733    46.474228369662569  344.16692353202791    0
 734    43.503242529280946  336.93454109592307    0
 735    43.434086558611149  331.51288775082622    0
 736    43.984374318888243  331.21636966656325    0
 737    43.456903147938235  333.58574252189129    0
 738    43.545460282612929  331.06069880625813    0
 739    44.951005980616266  375.75319363654683    0
 740    45.98701570773882  375.29076705826725    0
 741    45.536020147582867  375.74675419458276    0
 742    45.521344601228144  374.24682486493782    0
 743    45.98701570773882  374.70739838731004    0
 744    44.371025057598224  346.81817238244645    0
 745    46.242539055880989  341.84438823633229    0
 746    45.727165903269913  345.94878261415886    0
 747    45.557548551632493  346.81760959067509    0
 748    43.629005014410204  345.44678917262024    0
 749    43.514079993191409  342.39187759196147    0
 750    46.151382108142414  338.71594242014748    0
 751    44.445877115720201  373.66119899490945    0
 752    45.802038097118597  330.61237622493206    0
 753    46.165291773405784  331.74377977092917    0
 754    45.474831979031045  328.06559317716619    0
 755    45.474831979031045  324.56559317716619    0
 756    43.698494424506777  335.31209590948805    0
 757    43.826164543144813  336.10452106118424    0
 758    43.864352700005767  332.26556054206674    0
 759    46.098334353162585  344.53297456951947    0
 760    43.314832911616925  328.65108873110285    0
 761    45.951900616505021  345.13520598472257    0
 762    46.548011183994902  345.03094425623385    0
 763    43.720978250909937  329.96408610677537    0
 764    46.357319744652742  343.8096737960754    0
 765    43.366446293669036  332.81459533374243    0
 766    44.690774381610815  376.36858066862033    0
 767    46.593677696166132  375.55951399433974    0
 768    45.81142812637858  376.35042142830241    0
 769    45.782447265163981  373.63421291977988    0
 770    45.869614298571243  374.36039986785875    0
 771    46.596716675672226  374.43956872844893    0
 772    46.412123518553649  341.28594588819431    0
 773    43.953503722899065  345.63411545354643    0
 774    46.845832926654168  338.82044632748472    0
 775    46.180208235606756  330.24978461799253    0
 776    46.28729631244169  331.02192879505736    0
 777    43.3639986275928  332.05227101260283    0
 778    43.550979248929387  327.94344450566217    0
 779    43.085770428893831  330.09216093238166    0
 780    46.589792998657934  343.40781758233413    0
 781    44.28342977123804  375.72555871231344    0
 782    45.794120455334131  374.00113671396804    0
 783    46.229686625102246  374.43193485074636    0
 784    43.891508523058789  346.27947967143871    0
 785    46.87173025767963  343.83908872180888    0
 786    46.396101146578374  373.79833792217153    0
 787    43.570431243007953  345.92297642407584    0
 788    45  286.31559317716619    34
 789    44.134603400923062  325.33353810666381    0
 790    45.556648274197201  325.89645639693651    0
 791    43.581648264612632  343.64760410377414    0
 792    43.106075107329879  343.11505219515846    0
 793    42.946986941944971  343.97469181190132    0
 794    43.726439094964647  339.4824091861102    0
 795    43.835113270176628  334.38660597648845    0
 796    43.70695370495222  337.73239087293865    0
 797    44.095225302538765  322.37239166751618    0
 798    46.464397217959849  338.32358906440174    0
 799    46.672700534796874  332.59079480236124    0
 800    43.441144998780608  336.43255489713317    0
 801    42.740712548711869  331.10230027001182    0
 802    46.816868870917673  342.63726324580949    0
 803    43.140414460321885  346.63309958117554    0
 804    45  302.31559317716619    34
 805    73.361666667091455  303.49615108696617    29
 806    43.530367743121921  342.90336048748424    0
 807    43.432758778195726  339.08404179264693    0
 808    43.128604103895796  340.05716386685685    0
 809    43.58940557446229  334.82316378913555    0
 810    43.40723784716436  334.0989342549563    0
 811    43.434642801281974  338.14099661017434    0
 812    42.810903536826977  345.58785406554927    0
 813    45  310.31559317716619    34
 814    59.180833333545735  310.90587213206618    29
 815    43.1438271532733  342.65966877026221    0
 816    43.216845782597048  339.55065064243774    0
 817    42.925871976302545  337.50688955322528    0
 818    42.73277865673473  338.61111889365787    0
 819    45  314.31559317716619    34
 820    52.090416666772867  314.61073265461619    29
 821    42.885351632241246  341.91244125775518    0
 822    45  316.31559317716619    34
 823    48.545208333386434  316.46316291589119    29
 824    42.370598531903866  342.8248233933142    0
 825    45  317.31559317716619    34
 826    46.77260416669322  317.38937804652869    29
 827    44.493865814796884  317.81559317716619    0
 828    46.687261540984885  333.87929272380916    0
 829    45.828260930412213  322.56559317716619    0
 830    46.480841585399411  336.5721020125734    0
 831    45.434854250079411  325.06559317716619    0
 832    47.401241453160409  337.57280572675415    0
 833    46.937841359435339  329.29752962790894    0
 834    43.935942972357161  375.12295035064699    0
 835    47.121477038936838  344.5468126020312    0
 836    44.169191214532752  324.74084140995825    0
 837    43.058577502983326  326.19036159345779    0
 838    43.663554744007293  321.19251125161594    0
 839    44.136059434841698  321.7796262155411    0
 840    46.328841740248805  332.22129475731487    0
 841    43.229485375467554  335.79415668233503    0
 842    42.848495038607922  331.71104075277265    0
 843    47.355827224766614  343.2148255744687    0
 844    47.127156124461109  341.80805312867375    0
 845    42.581957172934729  333.76006673196747    0
 846    42.768370520836143  336.77061350832201    0
 847    42.898620943344042  339.12014016542292    0
 848    45.828260930412213  320.06559317716619    0
 849    45.886302083346607  317.85248561184744    29
 850    46.049513218768809  323.20581241626439    0
 851    45.527319433268794  322.06559317716619    0
 852    46.283104044967445  324.88181715912071    0
 853    46.99742126427968  338.02880912664455    0
 854    43.170082272796719  324.97989428894846    0
 855    43.637478641919181  318.82353437039848    0
 856    44.013497443151145  320.59634334071058    0
 857    43.241587826966729  322.01579750599745    0
 858    47.038080770646488  331.71161316870945    0
 859    43.091641370543257  335.19085904758458    0
 860    47.135835286173425  341.04549009222444    0
 861    42.56673100547804  339.69833464612799    0
 862    45.527319433268794  319.56559317716619    0
 863    45.828260930412213  321.06559317716619    0
 864    45.527319433268794  320.56559317716619    0
 865    45.694770894596751  318.56559317716619    0
 866    45.441445692430612  321.56559317716619    0
 867    46.319440731899114  325.67521480314002    0
 868    44.000459392107082  319.41185490010184    0
 869    46.799551793524465  332.12799784159182    0
 870    47.502759446798329  332.56952820513186    0
 871    47.287778994944127  332.13116846883781    0
 872    47.857932409282704  331.50776025161554    0
 873    47.888723028941044  332.10834864165503    0
 874    42.158605760511151  339.07971484203597    0
 875    45.441445692430612  319.06559317716619    0
 876    46.50605111225272  321.8170770083189    0
 877    46.093153304528862  320.56559317716619    0
 878    46.50605111225272  319.3170770083189    0
 879    44.108694871003784  320.00297949418979    0
 880    45.963848056030642  321.73324618616164    0
 881    46.527818882660711  321.1160403409076    0
 882    46.525886504179987  320.01616975807167    0
 883    45.963848056030642  319.23324618616164    0
 884    46.323859740826549  318.70010629606139    0
 885    46.748363613779624  346.33093182823256    0
 886    46.230183959548881  327.91858063749851    0
 887    47.558621759557901  373.78662931574542    0
 888    46.361150860240798  372.69974435143303    0
 889    46.280683000250036  335.83282284649636    0
 890    47.08884063700711  336.93651524319165    0
 891    43.11145244718152  375.99987401017432    0
 892    43.663208662922081  325.84561109579198    0
 893    42.739676215200326  332.43544167307431    0
 894    46.812216641076908  323.95379225872153    0
 895    47.954710959248743  338.46974439742252    0
 896    43.34018536820524  324.07575831006301    0
 897    42.161187652457613  335.7208494725005    0
 898    43.025143781653583  334.5800689513564    0
 899    42.253259106246958  340.80850432703062    0
 900    48.868215516569641  331.75704911206293    0
 901    46.65910757892793  322.63680300587106    0
 902    43.078175973892904  320.14196479711802    0
 903    47.674031230925671  319.63376562284975    0
 904    46.735153413766341  345.66753495072294    0
 905    43.060756833431491  374.29661570114024    0
 906    41.786211876397772  331.58521456211912    0
 907    42.345713586689655  334.96305437747543    0
 908    48.459695266534531  332.97829553469495    0
 909    43.280473301070025  319.44993457772597    0
 910    47.678217562263043  321.50261746215551    0
 911    47.286392813476162  318.7512563046871    0
 912    47.175343477939805  345.1923267580986    0
 913    47.552413578287798  345.98309084207199    0
 914    48.217718569435611  344.7803387462917    0
 915    42.731436734160511  329.29709743038904    0
 916    43.114240445747647  344.90423753683962    0
 917    44.006022668645237  316.81559317716619    0
 918    47.667366007827319  343.95624713253545    0
 919    47.591644198667609  342.4545219992379    0
 920    47.119503417481695  340.24835920095705    0
 921    46.738983331288466  326.41098744842185    0
 922    47.313494241720598  330.48610813076272    0
 923    41.627463884585737  337.39965613486538    0
 924    47.545991503242668  327.71451276936114    0
 925    46.891386683563063  334.9408509273552    0
 926    47.25794485986161  335.96496673157344    0
 927    43.836986837047625  376.45890778757064    0
 928    47.615552930077861  325.2183234648781    0
 929    41.459333085557851  339.98498681499359    0
 930    40.998146478639072  335.03628068104354    0
 931    42.032961450707404  319.46083974256675    0
 932    42.260677951144508  327.90608504827077    0
 933    41.830146267058865  344.74356158037244    0
 934    48.523600143464002  343.16030141950739    0
 935    48.321092842419638  341.44031108906518    0
 936    41.939382365164597  338.22503295242643    0
 937    48.299070140939598  336.73716170367555    0
 938    42.649900989916205  318.67561698688377    0
 939    47.932482272261105  340.63043538606661    0
 940    46.355264359694615  348.06612575952238    0
 941    43.627647968437444  372.41268282606217    0
 942    47.842193865013449  376.34546047723933    0
 943    43.576332678488875  348.07551162339746    0
 944    42.467999074709553  323.08516442757531    0
 945    42.534187599301589  321.13344624945609    0
 946    48.942108000118608  318.55037945116794    0
 947    41.764108220634036  330.20469318107098    0
 948    44.351832161602459  377.24507750572604    0
 949    42.685806452586782  327.06039777316533    0
 950    41.013578251441622  338.91795501288289    0
 951    41.040692559906148  318.04625453121895    0
 952    43.29739990568558  317.72332273976974    0
 953    47.943939547291286  339.55009341974454    0
 954    47.714955301120099  347.46203247195888    0
 955    46.61106899316286  377.59021132260852    0
 956    42.079354561887172  324.3066165522132    0
 957    45.270035687036916  377.99981827465717    30
 958    42.713820155000761  377.4312544764656    0
 959    41.101244860408514  338.07014680221323    0
 960    49.468364363908051  340.39163133275082    0
 961    41.430958026391338  326.00787628924718    0
 962    44.078955499699624  378.51295917260177    0
 963    47.07627895867676  380.1095580737171    21
 964    39.652998721164337  338.34882925333005    0
 965    41.621460094509906  327.05504902623369    0
 966    46.152869510806347  378.49013092387378    0
 967    40.253671924556649  336.86320815140806    0
 968    45.9086502978544  316.81559317716619    0
 969    41.711557351569894  341.85160239959106    0
 970    47.643036030667119  333.56562727955423    0
 971    43.874224358720127  315.31559317716619    0
 972    48.661311790819454  330.42374802973779    0
 973    41.2441869520108  346.65631887151216    0
 974    42.132205912037293  317.62734163065272    0
 975    49.22958118788987  339.02268345392753    0
 976    39.727387958370649  340.08188720093938    0
 977    40.531309247973724  328.53944539059677    0
 978    47.552630697729306  378.63622044553705    0
 979    45.292442009618618  380.03540089394545    30
 980    46.189863814030701  380.57244919627414    21
 981    43.641523822678224  380.55360337890539    0
 982    46.513445505404974  382.2722608224247    0
 983    46.142158522751885  315.31559317716619    0
 984    40.550454641967477  343.34762611837169    0
 985    49.024293523516384  334.62477528418316    0
 986    40.892510858402396  316.02868235174884    0
 987    42.802824059662299  316.60677070294986    0
 988    39.791544529573116  326.8470334981111    0
 989    46.162962000544368  379.50793445904236    0
 990    44.367637065409269  379.52769618684175    0
 991    47.121254355177598  381.2758514984269    0
 992    46.935204920466767  316.20722377859227    0
 993    48.007654826304403  335.11896733090612    0
 994    43.039012689269953  379.35724339005452    0
 995    48.48110408743878  380.6393981543805    0
 996    48.958878280690413  335.78300182062321    0
 997    48.46792375782293  382.78090480727673    0
 998    50.910213479503312  335.31225033217555    0
 999    50.153538387853416  337.3143284051381    0
1000    41.424523287863366  332.95055253916968    0
1001    48.326775347968272  323.11031977077579    0
1002    49.865620351610971  346.47726278852633    0
1003    39.488296201474121  330.9315690605718    0
1004    50.621939537260971  378.25799358348894    21
1005    40.250314671885249  323.0520923583145    0
1006    48.015687304651649  314.44770978341649    0
1007    41.358471781026942  380.95349624836086    0
1008    50.686976788095663  333.04439504815156    0
1009    51.616664863498976  339.31160784226796    0
1010    40.438062989736913  331.9586555371348    0
1011    48.74434622213694  377.62317798780771    0
1012    50.944482173099232  330.75214647710845    0
1013    39.695569159438968  333.68355486931904    0
1014    38.980737317315835  332.35359573096628    0
1015    48.760335013484202  371.25955011116935    0
1016    49.565581414489024  320.56395905442719    0
1017    48.035803567233593  350.01643688417687    0
1018    40.541523267522578  376.0568776587528    0
1019    49.991254391783158  342.11558701571948    0
1020    42.78059031853563  312.95072121700247    0
1021    42.233132450571382  315.04394396378319    0
1022    50.362263076680122  344.34635764124027    0
1023    50.614706423813551  380.40447773554746    0
1024    46.537173932495989  313.71215991476123    0
1025    37.492371490624635  336.61099040973824    0
1026    36.878898493211153  330.80180000850521    0
1027    39.93908558742411  313.32576093588608    0
1028    45  312.31559317716619    34
1029    48.494885055727792  311.63074512659176    0
1030    37.253975125950817  334.13878782130615    0
1031    41.973684000435505  369.4330102720009    0
1032    41.959960054161158  351.05701151241811    0
1033    43.674478473877713  383.54748668848475    0
1034    39.92456188990127  345.20593047293454    0
1035    51.048931326441249  375    31
1036    39.283536351771502  320.33413075921561    0
1037    39.843811221938992  324.92815110103277    0
1038    40.850809631669982  378.7362613929252    0
1039    85.226131573817398  360.18748407817475    21
1040    88.860846945143678  375    31
1041    53.860846945143678  371.68695627835115    0
1042    52.313515369778862  379.33694803286829    0
1043    37.086951240046623  339.32709897667439    0
1044    38.051537581831226  328.61548637250223    0
1045    46.618585750829538  311.31559317716619    0
1046    40.223426409041814  372.41558170575627    0
1047    38.181774332026073  348.1171124356996    0
1048    50.142973517090034  376.52800563874086    0
1049    50.142973517090034  372.98394638366653    0
1050    40.915415660513645  320.7071360191697    0
1051    36.939330627408509  323.3167398783371    0
1052    55.860846945143678  372.8907222669248    0
1053    72.860846945143678  375    31
1054    71.043489259480538  367.59374203908737    21
1055    37.15918647853578  343.23997326932385    0
1056    45  306.31559317716619    34
1057    51.954889135792463  373.38130524207622    0
1058    37.448073058902374  325.82304878915164    0
1059    57.508010327892222  378.39962325230113    0
1060    47.353851140998614  308.31559317716619    0
1061    51.530848325511393  370.9851337498327    0
1062    53.725094758887458  373.45342169692691    0
1063    50.317812500079654  315.53694778525369    29
1064    52.738410195153641  318.01019777265071    0
1065    50.225758679641665  313.2014482731916    0
1066    52.56558000543567  337.0819173435932    0
1067    50.142054662539572  328.22997395171177    0
1068    53.872079041891823  342.61638833139233    0
1069    46.648104751329718  385.76421876648698    0
1070    37.674056803906858  317.27929121803766    0
1071    37.431742697737391  380.68583226896595    0
1072    54.681314606720889  378.42890284431604    0
1073    53.232497186363652  382.6848270405635    0
1074    63.952168102312108  371.29687101954369    21
1075    64.860846945143678  375    31
1076    50.947335980012859  319.03280618103554    0
1077    51.962225966893087  309.54886670355393    0
1078    54.260335952426146  333.83756568846906    0
1079    50.794637951866996  325.11693753479113    0
1080    53.452158250716792  346.1898368481688    0
1081    60.406507523727896  373.14843550977184    21
1082    60.860846945143678  375    31
1083    55.635625000159301  312.75830239334118    29
1084    52.767422174490811  332.11751896498396    0
1085    52.792846904288346  322.08728926181556    0
1086    56.85491162053286  368.97579555098912    0
1087    58.633677234435787  374.07421775488592    21
1088    58.860846945143678  375    31
1089    59.860846945143678  377.36692086309455    0
1090    52.548366645298636  312.06657898998111    0
1091    54.117721548129033  328.41509275776974    0
1092    52.715231216767485  320.04941641480298    0
1093    58.141960618902615  371.38626668225288    0
1094    55.692288832936661  331.08679254973589    0
1095    56.104830965686503  319.06820357813507    0
1096    54.824185945291063  320.98950794179592    0
1097    58.647191135190354  322.15027223220648    0
1098    55.575131847837973  324.80735100045951    0
1099    33.277915676163232  335.76979790514542    0
1100    34.238640471822698  327.97805389457824    0
1101    49.716312520948016  366.78833068627409    0
1102    54.990859594156483  339.43083723248304    0
1103    37.999070984320333  377.7079003888187    0
1104    56.124499398414699  381.29476512133272    0
1105    55.835638363912047  308.82243980868611    0
1106    53.587401496170756  368.37615247619095    0
1107    62.860846945143678  377.23968501386452    0
1108    61.000438725526053  368.31116887781013    0
1109    35.095500693185706  337.64153305381893    0
1110    34.628096200239099  325.09067309625033    0
1111    60.271066485641541  381.49815633486429    0
1112    33.667976008181441  341.3473202973517    0
1113    32.185923961819796  338.6485661234824    0
1114    40.819865923990399  309.04711952908195    0
1115    48.725939777682569  304.31559317716619    0
1116    58.042024203882946  327.90213930949477    0
1117    34.371257279967644  332.773231449984    0
1118    59.533028231161531  334.83424036933866    0
1119    37.703882258564022  374.47022656022239    0
1120    67.570934131971114  379.43288622858114    0
1121    56.214478420446952  363.26327206211903    0
1122    32.845154258707922  320.37509613319753    0
1123    56.981166249494542  386.78046096676326    0
1124    28.456404698994938  342.45299482409467    0
1125    28.860708637677359  332.46037040951387    0
1126    32.782397581518936  378.25707461990362    0
1127    35.560090216149362  369.26922416841052    0
1128    29.632123993393318  336.03334877558757    0
1129    29.650358923076016  325.88922156746924    0
1130    35.216696840736446  376.32928448728768    0
1131    30.806120713367758  373.26070961491314    0
1132    34.483640631631118  372.75524816683657    0
1133    40.284884970047578  364.23372959993463    0
1134    39.088978751920038  385.31068183098847    0
1135    50.922645643418846  386.3249841048065    0
1136    51.935910103979467  349.79025107120918    0
1137    59.40342552542711  315.65052345705323    0
1138    66.271250000318588  307.20101160951617    29
1139    33.053804446700937  346.64651948752186    0
1140    40.710560730802797  304.31559317716619    0
1141    53.150805851750235  305.19653644572941    0
1142    59.581614232875161  345.09872056017667    0
1143    0  341.25    1
1144    39.487020738444045  357.29812798420528    0
1145    42.72538253707804  387.92349310150661    0
1146    50.284654644861739  355.05549421095316    0
1147    60.575954637948641  304.93857362878134    0
1148    57.491684456549713  342.0983747544895    0
1149    57.278112502271419  349.92054412830407    0
1150    23.327699543881501  335.52472599306986    0
1151    58.651172043947803  338.50531710526462    0
1152    65.17331900338003  338.13059278952448    0
1153    61.623749717875612  341.44818786208896    0
1154    475  163.59375    32
1155    475  132.65625    32
1156    470.46502440820507  132.05084184429865    25
1157    464.1463713640444  134.04007703976103    0
1158    466.40505997009126  130.184652171571    0
1159    67.497828680896319  369.44530652931553    21
1160    45  294.31559317716619    34
1161    33.291812730707619  309.72740835037769    0
1162    64.798564708295089  313.01986701022827    0
1163    32.5  420    2
1164    66.649869193412087  346.65629628480139    0
1165    458.8891200901449  128.37079755295434    0
1166    466.00361105574638  124.27480722115972    0
1167    66.203501915399244  362.64606002471328    0
1168    68.860846945143678  375    31
1169    70.860846945143678  371.56466089440005    0
1170    78.134810416648975  363.89061305863106    21
1171    80.860846945143678  375    31
1172    76.73168321457527  369.84503012109565    0
1173    52.397674597237497  297.42617742853434    0
1174    40.523973317459081  298.31559317716619    0
1175    36.819551150709401  306.77250693211244    0
1176    35.573966955087982  313.45052517445623    0
1177    47.911887549194262  392.70292786157989    0
1178    36.579001656677292  392.64086983114646    0
1179    48.706106968609461  299.88188429655122    0
1180    30.160823144771005  302.40618182924186    0
1181    36.182155647842045  301.45351583709839    0
1182    29.058899686549996  314.8830547313388    0
1183    483.54144084487598  124.921875    0
1184    483.54144084487598  145.546875    0
1185    475  91.40625    32
1186    23.517671292018449  379.03263795254247    0
1187    32.114228342898492  385.20061888694471    0
1188    33.888827082932458  353.41072195577243    0
1189    417.59780942072712  186.62106884487446    24
1190    483.54144084487598  166.171875    0
1191    62.344030007920537  349.37952440945605    0
1192    33.155026998896524  292.69223862169787    0
1193    480.43798165558445  119.765625    0
1194    483.54144084487598  135.234375    0
1195    483.54144084487598  155.859375    0
1196    467.67442422659104  88.828125    0
1197    483.54144084487598  88.828125    0
1198    442.4174334708166  173.66011741327736    24
1199    68.732876657517721  354.71555735772853    0
1200    60.585116992369613  356.89792508324263    0
1201    479.55240870319068  114.609375    0
1202    480.43798165558445  140.390625    0
1203    480.43798165558445  130.078125    0
1204    480.43798165558445  161.015625    0
1205    480.43798165558445  150.703125    0
1206    480.43798165558445  93.984375    0
1207    456.60007578515342  166.25385945236474    24
1208    479.4662741417813  109.453125    0
1209    488.53663602426354  115.72052904500488    0
1210    463.69139694232189  162.55073047190839    24
1211    480.91860262328754  101.7794614829446    0
1212    484.44228495020013  111.94884574744884    0
1213    469.05981173763939  166.171875    0
1214    484.13067559508454  106.36164962281505    0
1215    491.15289697551771  108.77229358203464    0
1216    490.11513393329187  98.749686456534803    0
1217    66.315258390757535  388.92822408085118    0
1218    66.347443440406124  298.70952952239804    0
1219    23.010340592953828  328.4243155624107    0
1220    66.284467654686864  329.7556960545474    0
1221    64.645835329870081  319.55433632061693    0
1222    73.336285395807977  312.08487825156305    0
1223    462.60010964749654  116.31459582155873    0
1224    83.84473815177077  368.37865595118711    0
1225    53.581496981880711  391.47971341500943    0
1226    26.749805439789199  320.52611850382078    0
1227    26.368044452390002  308.35830982887649    0
1228    26.5711225654644  363.38991248461144    0
1229    24.778745002966684  351.10169524702667    0
1230    39.233327859375947  292.36700044229383    0
1231    486.27314345295389  140.390625    0
1232    486.27314345295389  130.078125    0
1233    486.27314345295389  161.015625    0
1234    486.27314345295389  150.703125    0
1235    475  189.375    32
1236    462.85213168471819  169.58491714478762    0
1237    486.40944818858685  94.066414502418255    0
1238    60.487947258775485  392.89680783103614    0
1239    20.403585746327984  314.63533590531193    0
1240    45  270.31559317716619    34
1241    489.77365534377367  135.234375    0
1242    492.17258302379457  123.65095970301026    0
1243    493.44873299379088  168.11887508755217    0
1244    489.77365534377367  155.859375    0
1245    489.77365534377367  145.546875    0
1246    475  179.0625    32
1247    493.6527855908144  86.696352889347054    0
1248    52.77297373675772  401.48315260587617    0
1249    35.696194260351653  283.22292765198955    0
1250    492.34001879443753  129.72575254078072    0
1251    492.75144318803331  161.64730819511368    0
1252    469.24913440567536  173.86803801129304    0
1253    492.639287539348  92.944708266260392    0
1254    520  131.25    3
1255    500.8503871326007  153.82057093664349    0
1256    520  78.75    3
1257    500.99328401011854  100.02851298990839    0
1258    502.31932804486252  126.41099510754145    0
1259    502.70922862655641  163.84773871228796    0
1260    501.34159648854074  91.149869821821824    0
1261    500.18199059583077  136.73130092923586    0
1262    457.96387275900582  147.51363779828921    0
1263    76.860846945143678  385.14609396152764    0
1264    462.94986796663852  99.929842521507155    26
1265    475  65.625    32
1266    77.875123132401214  354.75198296725802    0
1267    464.31088617116541  155.09568284311581    0
1268    0  328.125    1
1269    0  288.75    1
1270    33.107565481772738  360.5104440980686    0
1271    454.20813384776989  178.27605557130158    0
1272    69.97564856346051  400.56558423589752    0
1273    499.03391045117507  115.70645503588976    0
1274    465.12124541679606  184.21875    0
1275    454.45973675570616  137.75048887520066    0
1276    84.860846945143678  382.43848929689102    0
1277    475  75.9375    32
1278    456.92525647725819  158.23522455336749    0
1279    11.450229671085864  332.49830219333001    0
1280    18.404603648760549  299.09942501186094    0
1281    462.42313916383648  177.14427664385337    0
1282    469.06888238699884  81.09375    0
1283    421.25  45    33
1284    455.55949203948097  82.650987073279467    0
1285    465.31051938046181  70.78125    0
1286    0  393.75    1
1287    87.54250000063719  296.08643004186615    29
1288    463.21823567382575  108.30670531144247    0
1289    104.86084694514368  375    31
1290    99.408773888154244  352.78122611726212    21
1291    19.474144575825317  343.73976663306803    0
1292    504.86162547638139  76.208723016871161    0
1293    520  91.875    3
1294    80.018157019978418  339.95035603729889    0
1295    97.5  420    2
1296    445.23719464680084  161.77714813329348    0
1297    454.8964875185215  93.154466552450614    0
1298    22.021676660698077  396.3167389569457    0
1299    76.244613116489944  291.73897205670397    0
1300    84.649259983488747  307.82390909047166    0
1301    455.8591859179873  111.76646476807872    0
1302    94.018187638945037  365.88228103246314    0
1303    96.860846945143678  384.09668063087253    0
1304    0  354.375    1
1305    510.49813552771394  95.955238056945561    0
1306    73.100700830988757  334.92120710420386    0
1307    88.057180551092088  348.67022699942032    0
1308    85.346053262584434  397.0444665158048    0
1309    454.8519274011673  120.52888317082765    0
1310    448.76903463309276  107.33956356660718    26
1311    448.49959094855598  115.46120048795974    0
1312    439.08664385279684  97.446563617019052    0
1313    448.91839774856356  98.9881146825428    0
1314    12.59423144378191  354.28911905357427    0
1315    76.363688102841678  323.53548919753382    0
1316    448.05296274659719  128.9893177223108    0
1317    445.3867246903713  89.389119125566623    0
1318    81.182475303442473  331.07690828928008    0
1319    427.49778463277414  118.45414513425723    26
1320    89.525274328142174  320.43580371968375    0
1321    91.962238131971347  337.00447246132586    0
1322    439.46750115648587  121.93443906120631    0
1323    486.48087065531729  177.39469609223715    0
1324    42.19653892588439  401.60293409915153    0
1325    510.11215434324941  157.2895001726998    0
1326    509.91828799784014  133.36621569242652    0
1327    520  118.125    3
1328    463.33231656449817  199.6875    0
1329    486.45881099980255  77.619920828403792    0
1330    20.73587477546663  284.28383024375177    0
1331    448.125  45    33
1332    443.32165287835977  147.25852613507152    0
1333    510.22111650605922  85.35660179284389    0
1334    509.43050992687211  106.59023408006557    0
1335    428.88935132911371  82.981619738889663    0
1336    520  183.75    3
1337    48.75  420    2
1338    31.254977347213092  402.21964129169532    0
1339    520  170.625    3
1340    520  144.375    3
1341    511.8146431131006  123.66559317014504    0
1342    461.5625  45    33
1343    435.51934954972637  135.49065177371375    0
1344    504.45026696488765  179.79725766780638    0
1345    47.58110719306071  410.05060641835701    0
1346    16.25  420    2
1347    508.9897615816173  146.18764197476912    0
1348    464.57907825479367  57.724520985513202    0
1349    58.647039003609635  410.89968827896161    0
1350    37.221894368003127  410.71369051073117    0
1351    20.709592308888723  408.54189770505894    0
1352    60.676342922186258  283.89599513640167    0
1353    424.14291567501027  163.0476367429635    0
1354    87.635745319458721  278.99027987593934    0
1355    101.63694237455569  305.78597713633195    0
1356    112.86084694514368  390.10164034821889    0
1357    454.45059026387338  190.8225288201734    0
1358    442.10756692070629  73.390335219005792    0
1359    454.84375  23.001302083333336    0
1360    0  406.875    1
1361    444.20643485922449  209.96778818893097    0
1362    452.90410955580279  64.927407825089446    0
1363    468.28125  30.922632397097267    0
1364    10.870373568568374  401.3028979793271    0
1365    11.785525637809526  388.38683717261574    0
1366    0  380.625    1
1367    11.368402963396438  374.0625    0
1368    112.86084694514368  361.25864357760025    0
1369    81.25  420    2
1370    24.241963116250908  262.31559317716619    0
1371    408.80663089246769  99.957344084830467    0
1372    65.650909442017266  262.31559317716619    0
1373    428.40283086429531  148.67949410581917    0
1374    475  260.5    32
1375    520  262.5    3
1376    434.6875  45    33
1377    441.40625  57.148111778500436    0
1378    422.5  0    4
1379    441.40625  30.922632397097267    0
1380    427.96875  56.647959354938315    0
1381    427.96875  33.151297432697284    0
1382    394.375  45    33
1383    407.8125  60.512715744220969    0
1384    487.5  0    4
1385    132.63234111470106  335.43168688416796    21
1386    152.86084694514369  375    31
1387    388.50049296552345  138.83087800828227    26
1388    475  235.25    32
1389    438.75  0    4
1390    407.8125  29.551061254960409    0
1391    520  32    3
1392    471.25  0    4
1393    134.88379782732022  357.63664532911827    0
1394    406.88206528612113  150.11451354290378    0
1395    459.59726933325942  215.67010317200322    0
1396    441.28435095217009  15.357701550083174    0
1397    494.22980809702085  27.180104951226088    0
1398    468.41831934252701  15.331967130873581    0
1399    108.62009710750721  326.09083839584866    0
1400    494.2629955271164  58.693750630353492    0
1401    520  196.875    3
1402    498.25815057667933  203.4375    0
1403    126.34743398140766  275.81020725523683    29
1404    136.86084694514369  393.14569571813411    0
1405    442.45584266947606  238.31419944303624    0
1406    106.14969762539849  267.15171598544708    0
1407    121.92020351580462  297.33354256924815    0
1408    188.29329478163976  75.796765007344163    0
1409    163.35784036053761  165.04834393469486    0
1410    95.796765007344106  151.70670521836021    0
1411    126.32356651732512  94.595076560372163    0
1412    141.49198823398646  232.04342281384876    0
1413    177.56059712903061  249.05047855414512    28
1414    204.85817470567426  297.71493825856402    22
1415    260.96735189360635  135.43882232260583    0
1416    241.5766484211872  192.91340429565133    0
1417    230.73872212982712  221.26402463502001    28
1418    0  236.25    1
1419    45  217.98669488287464    34
1420    380.9375  70.216202675616344    0
1421    384.91893830426557  23.206665720418624    0
1422    405.11369493349105  170.45955224287135    0
1423    86.79115319783665  257.27347764183548    0
1424    150.47526055909421  291.99016310921098    0
1425    133.83802666628421  314.53763207040373    0
1426    218.64769011988409  87.695257366083922    0
1427    156.20086993257624  81.54478241064345    0
1428    153.4292560954182  181.80604597903016    0
1429    145.79244382126117  156.630849786537    0
1430    173.16546513870844  137.46955799873419    0
1431    196.73019587566634  168.94247600218165    0
1432    101.54478241064341  183.79913006742376    0
1433    107.69525736608392  121.35230988011587    0
1434    125.08439634850808  250.86954442586145    0
1435    117.30778572202436  211.45017060802033    0
1436    173.2274116648799  228.76324333160608    0
1437    310.50590963102189  179.5843437563324    27
1438    26.121577676554249  236.26172576922431    0
1439    63.911788106229523  236.15114403002042    0
1440    391.0053550813455  200.50780252158566    24
1441    388.89603728955404  158.80055787238433    0
1442    242.75617335111971  108.4973395371693    0
1443    177.20494370205265  188.37868283601887    0
1444    194.74922588259449  132.40613919790752    0
1445    209.84011926917384  150.94809878124858    0
1446    104.62630483217735  246.22938719501013    0
1447    164.26606587883148  255.99709203392638    28
1448    150.6521331414715  246.13748858624785    0
1449    164.96247539000962  241.13494916514574    0
1450    182.42054859188639  274.54646693940418    0
1451    156.99398025569508  226.86502994004033    0
1452    164.94496882032317  273.49132814267557    0
1453    144.8217187890358  216.21876443113464    0
1454    178.26572036629264  311.60167193527525    22
1455    129.76843565897201  221.31398231877699    0
1456    113.06971948685816  229.60647307767405    0
1457    132.07443836880896  205.59839627306098    0
1458    118.79816343330755  193.6537296154381    0
1459    172.58477075308593  292.20416010619948    0
1460    87.733798518703694  227.19321245937437    0
1461    102.99502906498734  201.29090997571734    0
1462    73.294389934997483  194.94738530807876    0
1463    259.98743674235828  167.8780748956973    0
1464    386.06254455657438  179.85082103185556    0
1465    377.70912791165472  207.45116935994125    24
1466    359.5591753713498  188.89736180603842    0
1467    378.41509766371763  192.6005546362546    0
1468    395.85908045195953  226.00497691384399    0
1469    371.17839446633951  179.59150801545371    0
1470    378.3837588591673  224.94557073058806    0
1471    337.09497213142015  165.69111679676985    27
1472    350.38950338161931  158.74450331698858    27
1473    363.09426781839477  166.86412707254922    0
1474    332.2350206685644  140.19512841151075    0
1475    349.7583240363121  173.73148463851331    0
1476    349.71060044012756  141.25026720823939    0
1477    311.22799206320065  242.16800355171924    23
1478    331.82165169704109  187.98884174485647    0
1479    385.36649015350741  254.42352606561357    0
1480    342.72067103733099  111.77401788769947    0
1481    368.53203540983191  130.84550741671706    0
1482    337.82044640258226  228.28126987500804    23
1483    358.89282333401252  236.22887108495908    0
1484    387.10479652155453  113.36145078697696    0
1485    337.71194970087112  260.47853215588617    0
1486    520  236.25    3
1487    159.56682373813538  350.0691112056661    0
1488    162.5  420    2
1489    357.5  0    4
1490    283.91684713062364  193.47757071589496    27
1491    310.48098318933029  210.88062690054392    0
1492    498.03888888888889  249.375    0
1493    504.17705793559708  223.125    0
1494    159.61797287953101  397.08497032699944    0
1495    475  285.75    32
1496    495.30180970849074  273.125    0
1497    433.17282301418311  298.375    0
1498    520  288.75    3
1499    448.37036861992584  273.125    0
1500    498.48888888888888  301.875    0
1501    475  343    32
1502    494.73259634841793  327    0
1503    520  341.25    3
1504    497.97638888888889  354.375    0
1505    256.75619130597403  238.66675725649654    0
1506    249.55013332529268  76.25225667594168    0
1507    210.18639593819677  340.3232645655828    0
1508    45  147.49334744143732    34
1509    414.68212610848099  249.1010433692079    0
1510    298.35418556506505  111.55033692996697    0
1511    343.38867066007276  74.03718847910379    0
1512    443  375    31
1513    447.35166790736167  327    0
1514    282.67297068062521  223.48690494340889    0
1515    231.45062904505588  283.82820458185279    22
1516    229.4948456798287  251.27335886253385    0
1517    69.788152677632112  165.6473069446468    0
1518    405.28436605874026  280.73409206889534    0
1519    402.86203213118142  331.21297855972261    0
1520    284.63553772381908  256.05473722843044    23
1521    267.75053412566558  320.93581968965833    0
1522    231.34945326234265  316.03948608486814    0
1523    71.407326977667779  137.4360663567561    0
1524    310.00917521158749  272.2390539691205    0
1525    343.34212393455454  312.24904460949102    0
1526    283.36568299227918  286.02805246035723    0
1527    310.46298584607689  305.75107291078388    0
1528    98.75  45    33
1529    290.15370102055948  152.55490152542689    0
1530    340.625  45    33
1531    286.875  45    33
1532    300.3125  76.947365940032299    0
1533    273.4375  66.866315797812334    0
1534    292.5  0    4
1535    271.56786186878855  97.197889213530104    0
1536    300.3125  23.828125    0
1537    273.4375  22.5    0
1538    323.98641162669446  23.652852906673619    0
1539    227.5  0    4
1540    247.88154069767441  22.5    0
1541    233.125  45    33
1542    240.52122436020503  345.39616813403575    0
1543    280.86084694514363  375    31
1544    296.86084694514363  342.49838909141141    0
1545    292.5  420    2
1546    78.108892612267141  103.57801766729889    0
1547    369.53607885826551  287.10210848739928    0
1548    353.3956352088577  375    31
1549    45  79.164449147145774    34
1550    367.08169630802735  340.62648804595511    0
1551    331.86791571511634  345.45406583547378    0
# Generated by C:\Users\lukem\Python\PATH\modflow_exe\triangle.exe -a -q32 -A -p -V -D -e -n _triangle.0
