0  2  0  1
480  1
   0       0    72       1
   1       1  1346       2
   2       2    63       3
   3       3  1384       4
   4       4     5       5
   5       5     6       6
   6       7     6       7
   7       7     8       8
   8       8     9       9
   9       9    10      10
  10      10    11      11
  11      11    12      12
  12      13    12      13
  13      14    13      14
  14      14    15      15
  15      15    16      16
  16      17    16      17
  17      17    18      18
  18      18    19      19
  19      19     4      20
  20     980    20      21
  21    1454    21      22
  22      22  1520      23
  23    1210    24      24
  24     117    25      25
  25    1264   142      26
  26    1437  1490      27
  27    1447    28      28
  28      29    37      29
  29     473   979      30
  30      34   533      30
  31      30    34      31
  32    1385    21      21
  33     479    35      31
  34      81  1543      31
  35    1495  1374      32
  36      32  1342      33
  37     138    29      30
  38     483    36      34
  39     114  1403      29
  40      73  1508      34
  41     336    36      34
  42      38  1418       1
  43      39  1545       2
  44      40  1401       3
  45      41  1539       4
  46      42  1417      28
  47      74  1512      31
  48      44  1235      32
  49      90    56      33
  50     825    37      34
  51      47   484      34
  52      48    58       1
  53      49  1268       1
  54      50  1488       2
  55      51    62       2
  56      52  1498       3
  57      53  1293       3
  58      54  1489       4
  59      55    66       4
  60      56  1528      33
  61      57   159      34
  62      58    38       1
  63      59  1366       1
  64      60  1369       2
  65      61    51       2
  66      62     2       2
  67      63  1503       3
  68      64  1391       3
  69      65  1389       4
  70      66     0       4
  71    1171  1053      31
  72      68   193      32
  73      99  1531      33
  74      70  1419      34
  75      71   214      30
  76      72    48       1
  77    1549    33      34
  78    1548    43      31
  79      75  1501      32
  80      76    55       4
  81      77   147      34
  82      78   190      30
  83      79  1277      32
  84      80  1386      31
  85      81    67      31
  86      82    39       2
  87      83  1154      32
  88      84  1156      25
  89      85  1534       4
  90      86  1269       1
  91      87   276      34
  92      88   485      30
  93      89   680      30
  94      90  1541      33
  95      91   161      34
  96      92   541      34
  97      93   103      32
  98    1039  1170      21
  99      95   244      34
 100      96   169      32
 101      97  1340       3
 102      98  1387      26
 103      99  1530      33
 104     335    36      30
 105     101   218      30
 106     102   177      34
 107     103  1185      32
 108     104   145      34
 109     105   136      30
 110     106   163      30
 111     107   178      34
 112     108   120      34
 113     109   542      30
 114     110   168      25
 115     111   179      30
 116     112   119      25
 117     113   144      32
 118     826   849      29
 119     115   199      34
 120     116  1319      26
 121     117   110      25
 122     118   143      30
 123     119    24      25
 124     120    37      34
 125     121   187      34
 126     122   245      30
 127     123   183      30
 128     124   486      34
 129     125   164      34
 130     126   662      34
 131     127   160      30
 132     128   137      30
 133     129   661      30
 134     130   148      34
 135     131   150      30
 136     132   545      30
 137     133   192      34
 138     134   152      32
 139     135  1155      32
 140     136   669      30
 141     137   106      30
 142     138   128      30
 143     139   429      34
 144     140   370      34
 145     141   201      30
 146     142  1310      26
 147     143    88      30
 148     144    96      32
 149     145   126      34
 150     146    78      30
 151     147   130      34
 152     148    91      34
 153     149   131      30
 154     150   105      30
 155     151   176      34
 156     152    93      32
 157     153   487      34
 158     154   211      34
 159     155   198      30
 160     156   225      30
 161     157   238      34
 162     158   186      30
 163     159   125      34
 164     160    89      30
 165     161   108      34
 166     162   670      34
 167     163   127      30
 168     164   107      34
 169     165   212      30
 170     166   189      34
 171     167   188      30
 172     168    84      25
 173     169   135      32
 174     170   112      25
 175     171   196      30
 176     172   216      30
 177     173   195      34
 178     174   200      34
 179     175   194      34
 180     176   133      34
 181     177   151      34
 182     178   681      34
 183     179   118      30
 184     180   243      34
 185     181   227      30
 186     182   242      30
 187     183   155      30
 188     184   241      34
 189     185   266      30
 190     186   123      30
 191     187    77      34
 192     188   111      30
 193     189   104      34
 194     190   165      30
 195     191   540      30
 196     192   543      34
 197     193   134      32
 198     194   139      34
 199     195    47      34
 200     196    71      30
 201     197   173      34
 202     198   101      30
 203     199   175      34
 204     200   115      34
 205     201   171      30
 206     202   284      30
 207     203   221      30
 208     204   224      30
 209     205   323      30
 210     206   258      34
 211     207   231      34
 212     208   247      30
 213     209   375      34
 214     210   250      34
 215     211   124      34
 216     212   132      30
 217     213   544      34
 218     214   208      30
 219     215   322      34
 220     216   141      30
 221     217   246      34
 222     218   428      30
 223     219   237      34
 224     220   256      34
 225     221   156      30
 226     222   291      30
 227     223   257      34
 228     224   122      30
 229     225   205      30
 230     226   239      30
 231     227   204      30
 232     228   236      34
 233     229   261      34
 234     230   273      30
 235     231   215      34
 236     232   181      30
 237     233   263      30
 238     234   253      34
 239     235   251      34
 240     236   174      34
 241     237   180      34
 242     238   220      34
 243     239   255      30
 244     240   265      30
 245     241   223      34
 246     242   203      30
 247     243   217      34
 248     244   209      34
 249     245   226      30
 250     246   207      34
 251     247   369      30
 252     248   260      30
 253     249   268      34
 254     250   235      34
 255     251   229      34
 256     252   286      30
 257     253   157      34
 258     254   264      30
 259     255   202      30
 260     256   206      34
 261     257   140      34
 262     258   219      34
 263     259   285      34
 264     260   185      30
 265     261   292      34
 266     262   275      30
 267     263   252      30
 268     264   233      30
 269     265   222      30
 270     266   254      30
 271     267   210      34
 272     268   259      34
 273     269   272      30
 274     270   278      34
 275     271   249      34
 276     272   262      30
 277     273   269      30
 278     274   277      30
 279     275   274      30
 280     276   270      34
 281     277   100      30
 282     278   271      34
 283     284   240      30
 284     285   267      34
 285     286   230      30
 286     291   248      30
 287     292   234      34
 288     322    95      34
 289     323   232      30
 290     335   356      30
 291     336   357      34
 292     356   361      30
 293     357   362      34
 294     361   364      30
 295     362   365      34
 296     364   366      30
 297     365   367      34
 298     366   100      30
 299     367    87      34
 300     369   182      30
 301     370   228      34
 302     375   184      34
 303     428   172      30
 304     429   197      34
 305     473   957      30
 306     474   478      21
 307     475  1004      21
 308     476   531      31
 309     477  1035      31
 310     478    35      21
 311     479   477      31
 312     480   509      34
 313     481    36      30
 314     482   481      30
 315     483   480      34
 316     484   154      34
 317     485   158      30
 318     486   153      34
 319     487   102      34
 320     507   519      30
 321     508   482      30
 322     509   520      34
 323     519   524      30
 324     520   526      34
 325     521   508      30
 326     524   527      30
 327     525   521      30
 328     526   528      34
 329     527    34      30
 330     528   532      34
 331     529   525      30
 332     531   534      31
 333     532    30      34
 334     533   529      30
 335     534   535      31
 336     537    34      31
 337     537   535      31
 338     540   109      30
 339     541   213      34
 340     542   167      30
 341     543    92      34
 342     544   166      34
 343     545   191      30
 344     661   146      30
 345     662   162      34
 346     669   129      30
 347     670    57      34
 348     680   149      30
 349     681   121      34
 350     788  1240      34
 351    1160   788      34
 352     805  1287      29
 353    1056   804      34
 354     814  1138      29
 355    1028   813      34
 356     820  1083      29
 357     822   819      34
 358    1063   820      29
 359     825   822      34
 360     826   823      29
 361     849    37      29
 362     957   507      30
 363     963   475      21
 364     979    20      30
 365     980   963      21
 366    1004   474      21
 367    1028   819      34
 368    1035   476      31
 369    1290    94      21
 370    1040  1289      31
 371    1088    35      31
 372    1087    35      21
 373    1056   813      34
 374    1063   823      29
 375    1074  1159      21
 376    1075  1168      31
 377    1081  1074      21
 378    1082  1075      31
 379    1083   814      29
 380    1087  1081      21
 381    1088  1082      31
 382    1138   805      29
 383    1143  1304       1
 384    1154   113      32
 385    1155    68      32
 386    1156   170      25
 387    1159  1054      21
 388    1160   804      34
 389    1163  1337       2
 390    1168  1053      31
 391    1170  1054      21
 392    1171  1040      31
 393    1185    79      32
 394    1465    23      24
 395    1198  1189      24
 396    1207  1198      24
 397    1210  1207      24
 398    1235  1246      32
 399    1240    70      34
 400    1246    83      32
 401    1254  1327       3
 402    1256    64       3
 403    1264    25      26
 404    1265    32      32
 405    1268  1143       1
 406    1269    49       1
 407    1277  1265      32
 408    1283  1382      33
 409    1286  1360       1
 410    1287   114      29
 411    1289    80      31
 412    1290  1039      21
 413    1293  1256       3
 414    1295    50       2
 415    1304    59       1
 416    1310   116      26
 417    1319    98      26
 418    1327    53       3
 419    1331  1376      33
 420    1336  1339       3
 421    1337    60       2
 422    1339    97       3
 423    1340  1254       3
 424    1342  1331      33
 425    1346  1163       2
 426    1360     1       1
 427    1366  1286       1
 428    1369  1295       2
 429    1374  1388      32
 430    1375  1486       3
 431    1376  1283      33
 432    1378    54       4
 433    1382    69      33
 434    1384  1392       4
 435    1385    94      21
 436    1386    67      31
 437    1387    26      26
 438    1388    44      32
 439    1389  1378       4
 440    1391     3       3
 441    1392    65       4
 442    1401  1336       3
 443    1403    28      29
 444    1413    42      28
 445    1414  1515      22
 446    1417    27      28
 447    1418    86       1
 448    1419    46      34
 449    1472    26      27
 450    1440  1189      24
 451    1447  1413      28
 452    1454  1414      22
 453    1465  1440      24
 454    1471  1437      27
 455    1472  1471      27
 456    1482    23      23
 457    1482  1477      23
 458    1486    40       3
 459    1488    82       2
 460    1489    85       4
 461    1490    27      27
 462    1495    75      32
 463    1498  1375       3
 464    1501    31      32
 465    1503    52       3
 466    1508    46      34
 467    1512    31      31
 468    1515    22      22
 469    1520  1477      23
 470    1528    33      33
 471    1530    69      33
 472    1531    45      33
 473    1534    41       4
 474    1539    76       4
 475    1541    45      33
 476    1543    43      31
 477    1545    61       2
 478    1548    74      31
 479    1549    73      34
0
3
   0   180  160  0  900
   1   257.6783917450673  238.66912085600225  0  3500
   2   109.99895161671225  210.76574429472498  0  18000
# Generated by C:\Users\lukem\Python\PATH\modflow_exe\triangle.exe -a -q32 -A -p -V -D -e -n _triangle.0
