137 2 0 0
0 0.0 0.0
1 0.0 1500.0
2 2000.0 1500.0
3 2000.0 0.0
4 879.3775774641791 485.0439074928506
5 876.9883189196653 467.2107492310229
6 872.8306515970659 449.70521032419333
7 866.9461175339264 432.7022003305575
8 859.3935130494375 416.37160770552384
9 850.2483012710488 400.87660233242525
10 839.601858131845 386.37200518298226
11 827.5605593724268 373.0027413973295
12 814.2447176696743 360.9023922399223
13 799.7873805122491 350.1918603996978
14 784.3330008340679 340.9781619703724
15 768.0359936883366 333.3533571810082
16 751.0591933833807 327.3936305606351
17 733.5722264960636 323.15852972762013
18 715.7498170191005 320.6903704095487
19 697.7700405766797 320.01381363846184
20 679.8125451516903 321.13561934597635
21 662.0567561024596 324.04457882028254
22 644.6800834038845 328.7116266998871
23 627.8561490256044 335.0901313850981
24 611.7530521586741 343.1163609655541
25 596.5316896240116 352.7101200084061
26 582.3441482445498 363.77555084457293
27 569.3321852439749 376.2020913468847
28 557.625811855405 389.86557963031055
29 547.3419942921265 404.6294946364712
30 538.5834850598535 420.3463202069266
31 531.4377962876566 436.8590190158684
32 525.9763253356971 454.0026016351703
33 522.2536414164043 471.60577505421526
34 520.3069403569444 489.4926541830356
35 520.1556729508097 507.4845192379923
36 521.8013506119198 525.4016014507761
37 525.2275302730736 543.0648792585167
38 530.3999786796415 560.2978670280628
39 537.267014436929 576.9283784420893
40 545.7600243935894 592.7902469278636
41 555.7941492015519 607.7249859387122
42 567.2691312025757 621.5833724992071
43 580.0703161696316 634.2269381918096
44 594.0697988940377 645.5293526875262
45 609.1277011720256 655.3776859967973
46 625.0935694215143 663.6735368286227
47 641.8078779645693 670.3340157837346
48 659.1036229552443 675.2925735580751
49 676.8079910268056 678.4996658814443
50 694.744085985768 679.923248547471
51 712.7326963001865 679.5490975887299
52 730.5940857220434 677.3809513979229
53 748.1497891524257 673.4404733750947
54 765.2243958058012 667.7670354741008
55 781.6473018566039 660.4173248110584
56 797.2544150562652 651.4647772654214
57 811.8897942887196 640.9988437329471
58 825.4072076824898 629.1240963619141
59 837.671593711208 615.9591837027845
60 848.560410683742 601.6356452111064
61 857.9648611402671 586.2965969487566
62 865.7909789205194 570.0953016155571
63 871.9605680426091 553.1936371990412
64 876.4119840114236 535.760479543111
65 879.1007497500447 517.9700149964291
66 880.0 500.0
67 1911.0420789926104 568.2743680440657
68 1917.584661211085 564.9029524879105
69 1923.765282596231 560.9064860197338
70 1929.5244203854384 556.3234567963152
71 1934.8066109335318 551.1980018944146
72 1939.5609838579942 545.579482246596
73 1943.7417519485584 539.5220072684632
74 1947.3086521230719 533.0839137554083
75 1950.2273331829883 526.3272040673818
76 1952.469686634187 519.3169490122727
77 1954.014117387138 512.120661178457
78 1954.8457517294187 504.80764475166535
79 1954.9565805676953 497.4483280777892
80 1954.34553655967 490.1135853994097
81 1953.0185043931708 482.8740542980979
82 1950.9882641133904 475.7994554158896
83 1948.2743680440658 468.95792100738964
84 1944.9029524879106 462.4153387889151
85 1940.9064860197338 456.234717403769
86 1936.3234567963152 450.47557961456175
87 1931.1980018944146 445.1933890664683
88 1925.579482246596 440.43901614200587
89 1919.522007268463 436.2582480514416
90 1913.0839137554083 432.6913478769281
91 1906.3272040673817 429.7726668170118
92 1899.3169490122727 427.530313365813
93 1892.1206611784569 425.985882612862
94 1884.8076447516653 425.1542482705813
95 1877.4483280777893 425.0434194323047
96 1870.1135853994097 425.65446344032995
97 1862.874054298098 426.9814956068292
98 1855.7994554158895 429.0117358866095
99 95.79945541588961 1029.0117358866096
100 88.95792100738964 1031.7256319559342
101 82.41533878891502 1035.0970475120896
102 76.23471740376898 1039.0935139802662
103 70.4755796145617 1043.6765432036848
104 65.19338906646823 1048.8019981055854
105 60.439016142005826 1054.420517753404
106 56.25824805144162 1060.477992731537
107 52.69134787692808 1066.9160862445917
108 49.77266681701178 1073.6727959326183
109 47.53031336581303 1080.6830509877273
110 45.985882612861985 1087.8793388215431
111 45.15424827058129 1095.1923552483347
112 45.043419432304674 1102.5516719222107
113 45.65446344032996 1109.8864146005903
114 46.98149560682923 1117.125945701902
115 49.011735886609515 1124.2005445841105
116 51.725631955934304 1131.0420789926104
117 55.0970475120895 1137.584661211085
118 59.093513980266124 1143.765282596231
119 63.67654320368479 1149.5244203854384
120 68.80199810558543 1154.8066109335318
121 74.42051775340403 1159.5609838579942
122 80.47799273153686 1163.7417519485584
123 86.91608624459178 1167.3086521230719
124 93.67279593261827 1170.2273331829883
125 100.68305098772734 1172.469686634187
126 107.87933882154303 1174.014117387138
127 115.19235524833468 1174.8457517294187
128 122.55167192221082 1174.9565805676953
129 129.8864146005903 1174.34553655967
130 137.1259457019021 1173.0185043931708
131 144.2005445841104 1170.9882641133904
132 1904.2005445841105 570.9882641133905
133 150.0 1350.0
134 1850.0 1350.0
135 1850.0 150.0
136 150.0 150.0
