2356  3  1
   0       0   136   186  0
   1     631    33    34  0
   2      30   721    31  0
   3      34    35   697  0
   4      28    29   586  0
   5     585   822   772  0
   6     670    27    26  0
   7      31   632    30  0
   8     669    28    27  0
   9     585   633    32  0
  10     669   724    28  0
  11      31    32   633  0
  12     635    21    22  0
  13     668    31   721  0
  14      33    32   723  0
  15      33   631   585  0
  16      38    39   588  0
  17     638    38   588  0
  18     668    32    31  0
  19      35   740   697  0
  20     641    41    42  0
  21     723   750    33  0
  22     751    37   764  0
  23     723    32   668  0
  24      43   589    42  0
  25     589   641    42  0
  26      34   750    35  0
  27     817   588   639  0
  28     667    40   718  0
  29      44   640    43  0
  30      25   670    26  0
  31     270   100   101  0
  32      24    23   665  0
  33      27   634    26  0
  34      24   605    25  0
  35     699   634    27  0
  36     665   605    24  0
  37      28   699    27  0
  38     747    45    44  0
  39      13   595    12  0
  40      21   716    22  0
  41      24   590    23  0
  42     716    21   746  0
  43     635   587    21  0
  44      25   704   642  0
  45      20    19   666  0
  46      44    45   702  0
  47      40    39   718  0
  48     640   589    43  0
  49      42    41   749  0
  50      40   667    41  0
  51      46    47   643  0
  52      49   644    48  0
  53      43    42   720  0
  54     749   720    42  0
  55      43   720   747  0
  56     591   643    47  0
  57     591   644   814  0
  58     719    46    45  0
  59     644    49   705  0
  60     748    47   762  0
  61     591    47    48  0
  62      19    18   717  0
  63      35   722    36  0
  64    1106   144   146  0
  65      54   593    53  0
  66     106   310   107  0
  67     324   271   108  0
  68     108   351   109  0
  69     276   112   113  0
  70     351   107   310  0
  71     107   108   271  0
  72     256   105   104  0
  73     273   105   106  0
  74     106   105   353  0
  75     109   324   108  0
  76     106   353   310  0
  77     106   325   273  0
  78     409   270   323  0
  79     307   104   103  0
  80     275   114   115  0
  81     352   111   365  0
  82     114   275   239  0
  83     277   116   117  0
  84     352   112   111  0
  85     983  1007   543  0
  86     277   117   241  0
  87     427   461   367  0
  88     305   116   349  0
  89     483   304   400  0
  90     120   359   329  0
  91     329   119   120  0
  92     306   255   114  0
  93     241   117   118  0
  94     305   117   116  0
  95     331   123   281  0
  96     256   104   307  0
  97     148  1163  1168  0
  98     350   102   101  0
  99     270   236   100  0
 100     169   929   972  0
 101     117   305   347  0
 102     308   100    99  0
 103     364   350   101  0
 104     124   260   125  0
 105     323   101   102  0
 106     125   242   124  0
 107     119   304   120  0
 108     102   350   307  0
 109     119   118   347  0
 110     326   103   104  0
 111     124   242   281  0
 112     125   126   279  0
 113     123   315   124  0
 114     128   243   282  0
 115     268   322   235  0
 116     367   233   407  0
 117     127   330   126  0
 118     212   257   131  0
 119     226   233   222  0
 120     311   130   257  0
 121     367   222   233  0
 122     131   257   130  0
 123     129   243   128  0
 124      92   354    93  0
 125     363   348   121  0
 126     314   126   355  0
 127     504   412   473  0
 128     116   115   349  0
 129     275   410   239  0
 130     105   238   104  0
 131     190   198   134  0
 132     646    54    55  0
 133     229   140   131  0
 134      15   672    16  0
 135     587    20    21  0
 136     673    15    14  0
 137     708    13    14  0
 138     636    19   701  0
 139      14    13   673  0
 140     648    15    16  0
 141     648    16   594  0
 142      13    12   606  0
 143     647    14    15  0
 144     647   708    14  0
 145      13   606   673  0
 146     908   969  1075  0
 147     671    12    11  0
 148     726     9     8  0
 149      12   595   651  0
 150      16   672   725  0
 151     650    10    11  0
 152     651    11    12  0
 153       8     7   607  0
 154     652     8     9  0
 155     652     9   709  0
 156       5     4   609  0
 157     454   436   601  0
 158       8   596     7  0
 159       5   608     6  0
 160     823   809   527  0
 161     675     6   608  0
 162     618   967   156  0
 163     606    12   671  0
 164     213   258    98  0
 165     609     4   526  0
 166     354   312    93  0
 167      95    96   283  0
 168     231   366   220  0
 169      98   258    97  0
 170     266   320   234  0
 171      96    97   245  0
 172      93    94   284  0
 173      94    95   244  0
 174      90   313    91  0
 175     441   287   333  0
 176     332    93   284  0
 177      91   259    92  0
 178     967   970  1066  0
 179     406   366   231  0
 180      86   297    87  0
 181      91   246    90  0
 182      85   340    86  0
 183      90   285    89  0
 184     285    90   246  0
 185      84   298   340  0
 186      83    82   342  0
 187      87    88   287  0
 188     478   297   395  0
 189      80    81   335  0
 190      86   288    85  0
 191     298    83   342  0
 192      86   247   288  0
 193     298    84    83  0
 194      89   285   333  0
 195     360   341    88  0
 196     248    83    84  0
 197     231   220   224  0
 198       3  1146  1165  0
 199     426   460   366  0
 200      65   610    64  0
 201      61   604    62  0
 202      63    64   654  0
 203      61    60   663  0
 204     611    65    66  0
 205     661   603    65  0
 206      66   603   526  0
 207     771   809   931  0
 208     654   597    63  0
 209      62   604   662  0
 210     653     7   596  0
 211      65   603    66  0
 212     745    51    50  0
 213     527    66     4  0
 214     593    54   646  0
 215      59   713   663  0
 216     792   645   706  0
 217     715    51   745  0
 218     138    98   228  0
 219      47   748    48  0
 220     655    61    62  0
 221      53   761   744  0
 222      56   714   664  0
 223     714    56    55  0
 224      59   598    58  0
 225     598   657    58  0
 226      55   707   646  0
 227     661   742   603  0
 228     713    58   743  0
 229     657    57    58  0
 230      62   597   655  0
 231       4    66   526  0
 232     290    76    77  0
 233      72   346    73  0
 234     338    74    75  0
 235     303    74    73  0
 236     291    74   338  0
 237     303    73   346  0
 238     361   343    78  0
 239     336   289    82  0
 240      76   300    77  0
 241      74   303   344  0
 242      75    76   249  0
 243     252    79    80  0
 244     466   476   414  0
 245      78   343    79  0
 246      71   254    72  0
 247      77    78   337  0
 248      68    69   292  0
 249     302    67   132  0
 250     250   293    67  0
 251     293   132    67  0
 252     339    69    70  0
 253      69   345   301  0
 254      73   294    72  0
 255      71   301   254  0
 256    1093   155   179  0
 257     345    68   362  0
 258     251    71    72  0
 259     295    71   251  0
 260     291    73    74  0
 261      68   345    69  0
 262      71    70   301  0
 263     995   133  1036  0
 264     170     2   134  0
 265     505   473   469  0
 266     299   253    81  0
 267      56   707    55  0
 268     512   565   495  0
 269     605   670    25  0
 270     355   126   125  0
 271    1081  1025  1117  0
 272     147  1073  1038  0
 273     958   775   869  0
 274    1135  1089  1103  0
 275     226   264   140  0
 276     419   388   276  0
 277    1211   199   142  0
 278      81   289   335  0
 279    1188  1186   157  0
 280     177  1044   969  0
 281     457   442   458  0
 282    1201   144  1106  0
 283      19    20   701  0
 284     817   774   588  0
 285    1059  1083  1051  0
 286     236    99   100  0
 287      37    38   638  0
 288    1055   184  1056  0
 289    1128   183  1069  0
 290     265   185   212  0
 291     330   432   279  0
 292    1168  1175  1172  0
 293     276   113   239  0
 294    1214   207  1213  0
 295     190   154   198  0
 296     555   566   535  0
 297     336    82    83  0
 298    1196  1151  1195  0
 299     158   159   996  0
 300     173   175  1202  0
 301     700   635    22  0
 302     138   224   261  0
 303      66   527   611  0
 304     948  1039  1049  0
 305     591    48   644  0
 306     833   822   631  0
 307     162  1011  1161  0
 308    1218  1216  1139  0
 309     163  1109  1093  0
 310     602   455   437  0
 311     181  1209   153  0
 312    1098  1117  1133  0
 313    1028   961  1047  0
 314    1145  1055  1021  0
 315     166  1131  1153  0
 316     909  1068  1014  0
 317     381   243   311  0
 318    1163   148  1141  0
 319     281   123   124  0
 320     179   170   134  0
 321     171  1065  1165  0
 322    1188  1183  1185  0
 323     136     0   173  0
 324     940  1198   193  0
 325      19   636    18  0
 326      24   642   590  0
 327     996  1199   158  0
 328     454   416   436  0
 329     283   376   244  0
 330     845   809   843  0
 331    1024  1157  1155  0
 332     778  1039   948  0
 333     706   645    52  0
 334    1219   134   198  0
 335     170   179   155  0
 336    1134  1203  1118  0
 337    1211   142   164  0
 338     417   437   455  0
 339     189  1015  1164  0
 340    1060  1090  1058  0
 341     161  1059  1051  0
 342    1130  1100   183  0
 343    1110  1114  1113  0
 344     137   567   895  0
 345     849   968   977  0
 346     264   318   212  0
 347     185   257   212  0
 348    1182   187  1175  0
 349    1132  1005  1095  0
 350    1184  1179  1182  0
 351     238   105   273  0
 352    1169   153  1143  0
 353     134     2   190  0
 354     252   296    79  0
 355     176   846   875  0
 356    1180   172  1174  0
 357     940   193   174  0
 358    1042  1109   163  0
 359     655   827   835  0
 360    1018  1038  1088  0
 361     150   616   752  0
 362     917  1015  1036  0
 363     263   206   213  0
 364     197   376   245  0
 365    1140  1121  1138  0
 366     154   180   198  0
 367     180   154   199  0
 368     207  1214   200  0
 369    1096   578   985  0
 370     218   734   877  0
 371     324   109   358  0
 372     924   875   921  0
 373    1174  1170  1173  0
 374      82   289    81  0
 375    1196   205  1194  0
 376     261   316   213  0
 377     245   258   206  0
 378    1105  1090  1150  0
 379    1209  1208   200  0
 380     290   249    76  0
 381    1189   192  1185  0
 382    1193  1192  1186  0
 383     302   435   552  0
 384     562   623   215  0
 385     484   308   561  0
 386    1062   182   850  0
 387     131   140   212  0
 388     140   264   212  0
 389      98   138   213  0
 390     138   261   213  0
 391     230   228    98  0
 392     621   623   562  0
 393     571   622   685  0
 394     731   684   496  0
 395     516   436   498  0
 396     216   515   496  0
 397     232   229   131  0
 398     686   625   626  0
 399     866   735   878  0
 400     626   497   525  0
 401     518   437   499  0
 402     219   517   497  0
 403     138   228   224  0
 404     496   221   369  0
 405     316   416   263  0
 406     262   369   225  0
 407     140   229   226  0
 408     497   223   384  0
 409     318   417   265  0
 410     317   222   383  0
 411      98    97   230  0
 412     262   225   261  0
 413     316   225   382  0
 414     262   224   220  0
 415     131   130   232  0
 416     227   264   317  0
 417     265   167   185  0
 418     226   317   264  0
 419      97    96   234  0
 420     224   228   231  0
 421     130   129   235  0
 422     226   229   233  0
 423      96    95   266  0
 424     228   230   231  0
 425     230    97   234  0
 426     234    96   266  0
 427     129   128   268  0
 428     229   232   233  0
 429     232   130   235  0
 430     235   129   268  0
 431      95    94   319  0
 432     230   234   267  0
 433     128   127   321  0
 434     232   235   269  0
 435     236   371   551  0
 436     512    99   236  0
 437     409   236   270  0
 438     418   324   358  0
 439     326   274   103  0
 440     438   386   418  0
 441     113   114   239  0
 442     278   118   119  0
 443     278   241   118  0
 444     410   449   372  0
 445     280   431   405  0
 446     121   122   280  0
 447     531   613   614  0
 448     279   242   125  0
 449     420   286   421  0
 450      94   244   284  0
 451     197   245   206  0
 452      95   283   244  0
 453     286    91    92  0
 454     332   284   421  0
 455     459   493   391  0
 456      86    87   247  0
 457     334    85   288  0
 458     334   391   248  0
 459     394   380   291  0
 460      72   294   251  0
 461     379   293   250  0
 462      67    68   250  0
 463     434   295   452  0
 464     250    68   292  0
 465     506   542   464  0
 466     290   337   413  0
 467      82    81   253  0
 468     299    81    80  0
 469     397   477   253  0
 470     299    79   343  0
 471     115   114   255  0
 472     306   114   113  0
 473     403   486   309  0
 474     309   110   109  0
 475     257   381   311  0
 476     130   311   129  0
 477     206   258   213  0
 478     245    97   258  0
 479     313   259    91  0
 480     360    88    87  0
 481     315   260   124  0
 482     363   121   120  0
 483     262   261   224  0
 484     316   261   225  0
 485     214   368   220  0
 486     262   220   368  0
 487     382   416   316  0
 488     197   206   263  0
 489     317   226   222  0
 490     318   264   227  0
 491     318   227   385  0
 492     318   385   417  0
 493     312    94    93  0
 494     267   231   230  0
 495     319   266    95  0
 496     356   267   320  0
 497     314   127   126  0
 498     269   233   232  0
 499     321   268   128  0
 500     357   269   322  0
 501     274   102   103  0
 502     101   323   270  0
 503     408   428   370  0
 504     408   238   273  0
 505     110   111   272  0
 506     112   276   327  0
 507     325   106   107  0
 508     325   408   273  0
 509     387   238   370  0
 510     429   371   409  0
 511     328   116   277  0
 512     275   328   410  0
 513     439   456   419  0
 514     112   327   111  0
 515     444   278   329  0
 516     116   328   115  0
 517     119   329   278  0
 518     425   278   444  0
 519     128   282   127  0
 520     242   432   412  0
 521     281   411   331  0
 522     329   359   405  0
 523     411   242   375  0
 524     123   331   122  0
 525     242   412   375  0
 526     126   330   279  0
 527      96   245   283  0
 528     376   283   245  0
 529     389   420   421  0
 530     286   246    91  0
 531     441   285   423  0
 532     287   247    87  0
 533      93   332    92  0
 534     332   421   286  0
 535      89   333    88  0
 536     441   422   287  0
 537     288   247   424  0
 538      85   334    84  0
 539     393   289   336  0
 540     252   335   392  0
 541      79   296    78  0
 542     413   378   249  0
 543     394   249   378  0
 544     251   294   380  0
 545      71   295    70  0
 546     292   339   434  0
 547     434   250   292  0
 548     435   453   490  0
 549      73   291   294  0
 550     380   294   291  0
 551     414   250   434  0
 552      69   339   292  0
 553     451   413   433  0
 554      77   337   290  0
 555     397   253   299  0
 556     313    89   341  0
 557     477   397   479  0
 558     340   297    86  0
 559      80    79   299  0
 560      77   361    78  0
 561     344    76    75  0
 562     300   398   479  0
 563      70    69   301  0
 564      67   362    68  0
 565     435   302   132  0
 566     480   254   399  0
 567     446   558   460  0
 568     344   300    76  0
 569     352   309   486  0
 570     315   122   348  0
 571     485   402   484  0
 572     347   304   119  0
 573     113   112   306  0
 574     110   365   111  0
 575     103   102   307  0
 576     100   364   101  0
 577     512   308    99  0
 578     307   402   256  0
 579     310   256   485  0
 580     112   352   306  0
 581     402   485   256  0
 582     351   309   109  0
 583     381   257   185  0
 584     243   129   311  0
 585     214   220   366  0
 586     234   320   267  0
 587      90    89   313  0
 588      89    88   341  0
 589     217   222   367  0
 590     235   322   269  0
 591     123   122   315  0
 592     122   121   348  0
 593     382   225   221  0
 594     213   316   263  0
 595     383   222   217  0
 596     227   317   384  0
 597     385   227   223  0
 598     212   318   265  0
 599      94   312   319  0
 600     320   319   312  0
 601     319   320   266  0
 602     356   320   312  0
 603     127   314   321  0
 604     322   321   314  0
 605     321   322   268  0
 606     357   322   314  0
 607     102   274   323  0
 608     409   371   236  0
 609     358   109   110  0
 610     388   438   272  0
 611     107   271   325  0
 612     408   370   238  0
 613     104   238   326  0
 614     387   326   238  0
 615     388   327   276  0
 616     272   111   327  0
 617     419   456   388  0
 618     275   115   328  0
 619     359   120   121  0
 620     540   405   431  0
 621     127   282   330  0
 622     282   450   432  0
 623     281   242   411  0
 624     280   122   331  0
 625     421   244   440  0
 626     286    92   332  0
 627     246   423   285  0
 628     287    88   333  0
 629     391   334   288  0
 630     248    84   334  0
 631     392   335   289  0
 632     252    80   335  0
 633      83   248   336  0
 634     393   336   248  0
 635      78   296   337  0
 636     413   296   433  0
 637      75   249   338  0
 638     394   338   249  0
 639      70   295   339  0
 640     452   251   380  0
 641      84   340    85  0
 642     395   340   298  0
 643     340   395   297  0
 644     313   341   396  0
 645      82   253   342  0
 646     253   298   342  0
 647     680   754   619  0
 648     299   343   397  0
 649      74   344    75  0
 650     398   344   303  0
 651     481   480   399  0
 652     301   345   399  0
 653      72   254   346  0
 654     254   303   346  0
 655     117   347   118  0
 656     400   347   305  0
 657     347   400   304  0
 658     315   348   401  0
 659     115   255   349  0
 660     255   305   349  0
 661     350   484   402  0
 662     307   350   402  0
 663     107   351   108  0
 664     403   351   310  0
 665     403   309   351  0
 666     306   352   404  0
 667     105   256   353  0
 668     256   310   353  0
 669      92   259   354  0
 670     259   312   354  0
 671     125   260   355  0
 672     260   314   355  0
 673     488   312   259  0
 674     396   259   313  0
 675     489   314   260  0
 676     401   260   315  0
 677     110   272   358  0
 678     418   386   271  0
 679     121   280   359  0
 680     405   359   280  0
 681      87   297   360  0
 682     297   341   360  0
 683      77   300   361  0
 684     300   343   361  0
 685      67   302   362  0
 686     302   345   362  0
 687     120   304   363  0
 688     304   348   363  0
 689     100   308   364  0
 690     308   350   364  0
 691     110   309   365  0
 692     309   352   365  0
 693     406   231   267  0
 694     366   406   426  0
 695     407   233   269  0
 696     367   407   427  0
 697     496   369   513  0
 698     225   369   221  0
 699     262   368   369  0
 700     368   522   513  0
 701     428   408   271  0
 702     854   550   881  0
 703     326   387   274  0
 704     371   429   530  0
 705     439   410   372  0
 706     277   430   410  0
 707     279   432   242  0
 708     388   272   327  0
 709     241   425   503  0
 710     473   412   463  0
 711     176   767   197  0
 712     440   767   511  0
 713     378   465   519  0
 714     288   424   391  0
 715     290   413   249  0
 716     566   490   535  0
 717     453   132   293  0
 718     338   394   291  0
 719     250   414   379  0
 720     185   167   381  0
 721     167   531   381  0
 722     436   382   498  0
 723     382   436   416  0
 724     497   384   514  0
 725     227   384   223  0
 726     317   383   384  0
 727     383   523   514  0
 728     437   385   499  0
 729     385   437   417  0
 730     202   529   528  0
 731     324   418   271  0
 732     529   370   428  0
 733     429   409   274  0
 734     419   276   239  0
 735     510   438   491  0
 736     421   440   389  0
 737     442   457   423  0
 738     420   246   286  0
 739     459   599   493  0
 740     247   287   422  0
 741     569   493   560  0
 742     393   392   289  0
 743     208   465   474  0
 744     391   393   248  0
 745     569   542   393  0
 746     208   519   465  0
 747     380   394   547  0
 748     477   298   253  0
 749     477   478   395  0
 750     341   297   478  0
 751     259   396   488  0
 752     300   479   343  0
 753     344   398   300  0
 754     254   480   303  0
 755     301   399   254  0
 756     481   345   302  0
 757     538   445   500  0
 758     482   305   255  0
 759     482   483   400  0
 760     348   304   483  0
 761     260   401   489  0
 762     484   350   308  0
 763     554   683   559  0
 764     461   448   559  0
 765     255   306   404  0
 766     485   403   310  0
 767     255   404   482  0
 768     411   431   280  0
 769     425   241   278  0
 770     267   356   406  0
 771     426   406   356  0
 772     269   357   407  0
 773     427   407   357  0
 774     325   271   408  0
 775     428   271   386  0
 776     323   274   409  0
 777     429   274   387  0
 778     328   277   410  0
 779     430   277   241  0
 780     431   411   375  0
 781     280   331   411  0
 782     463   432   450  0
 783     463   469   473  0
 784     337   296   413  0
 785     433   296   252  0
 786     434   452   466  0
 787     453   535   490  0
 788     415   435   490  0
 789     729   481   753  0
 790     221   498   382  0
 791     263   416   454  0
 792     223   499   385  0
 793     265   417   455  0
 794     358   272   418  0
 795     438   418   272  0
 796     439   239   410  0
 797     419   239   439  0
 798     442   423   246  0
 799     423   390   441  0
 800     284   244   421  0
 801     440   244   376  0
 802     457   494   390  0
 803     424   443   459  0
 804     420   442   246  0
 805     420   389   458  0
 806     422   443   247  0
 807     424   247   443  0
 808     425   540   503  0
 809     449   410   430  0
 810     356   312   488  0
 811     214   366   460  0
 812     357   314   489  0
 813     217   367   461  0
 814     549   237   528  0
 815     549   529   428  0
 816     370   564   387  0
 817     429   387   564  0
 818     472   430   503  0
 819     468   372   449  0
 820     375   412   504  0
 821     541   540   679  0
 822     330   282   432  0
 823     450   282   243  0
 824     506   252   392  0
 825     413   451   378  0
 826     339   295   434  0
 827     452   295   251  0
 828     435   132   453  0
 829     415   532   552  0
 830     216   576   545  0
 831     263   454   197  0
 832     577   546   219  0
 833     265   455   167  0
 834     491   388   456  0
 835     549   438   237  0
 836     372   487   439  0
 837     373   491   509  0
 838     767   808   511  0
 839     458   492   521  0
 840     285   441   333  0
 841     390   422   441  0
 842     440   492   389  0
 843     390   423   457  0
 844     443   467   459  0
 845     391   424   459  0
 846     329   405   444  0
 847     405   425   444  0
 848     356   446   426  0
 849     513   524   496  0
 850     395   298   477  0
 851     558   446   533  0
 852     357   448   427  0
 853     514   525   497  0
 854     400   305   482  0
 855     559   448   534  0
 856     468   472   462  0
 857     472   449   430  0
 858     243   381   531  0
 859     412   432   463  0
 860     464   470   474  0
 861     451   433   474  0
 862     380   547   769  0
 863     414   434   466  0
 864     293   379   453  0
 865     379   535   453  0
 866     601   436   516  0
 867     197   454   846  0
 868     602   437   518  0
 869     167   615   613  0
 870     456   439   487  0
 871     456   509   491  0
 872     420   458   442  0
 873     467   422   494  0
 874     458   389   492  0
 875     511   521   492  0
 876     467   443   422  0
 877     467   599   459  0
 878     446   460   426  0
 879     500   214   460  0
 880     448   461   427  0
 881     501   217   461  0
 882     243   531   450  0
 883     449   472   468  0
 884     463   450   469  0
 885     547   519   502  0
 886     474   433   506  0
 887     378   451   465  0
 888     475   452   380  0
 889     466   452   475  0
 890     422   390   494  0
 891     537   377   599  0
 892     462   152   468  0
 893     487   468   152  0
 894     800   614   150  0
 895     600   504   659  0
 896     430   241   503  0
 897     465   451   474  0
 898     476   466   475  0
 899     462   472   541  0
 900     469   531   614  0
 901     504   600   375  0
 902     252   506   433  0
 903     474   470   208  0
 904     934   520   508  0
 905     507   414   476  0
 906     475   380   769  0
 907     379   414   507  0
 908     343   479   397  0
 909     396   341   478  0
 910     446   488   533  0
 911     478   533   488  0
 912     398   303   480  0
 913     398   480   479  0
 914     399   345   481  0
 915     681   754   765  0
 916     415   552   435  0
 917     765   445   538  0
 918     486   403   485  0
 919     401   348   483  0
 920     448   489   534  0
 921     483   534   489  0
 922     495   570   512  0
 923     766   447   539  0
 924     620   682   756  0
 925     404   352   486  0
 926     447   501   539  0
 927     482   404   486  0
 928     468   487   372  0
 929     487   152   509  0
 930     478   488   396  0
 931     488   446   356  0
 932     483   489   401  0
 933     489   448   357  0
 934     507   555   379  0
 935     415   490   573  0
 936     438   510   237  0
 937     438   388   491  0
 938     376   767   440  0
 939     440   511   492  0
 940     569   204   542  0
 941     393   391   493  0
 942     458   521   548  0
 943     467   494   537  0
 944     551   371   530  0
 945     579   581   561  0
 946     513   369   368  0
 947     898   731   524  0
 948     514   384   383  0
 949     211   582   927  0
 950     216   545   515  0
 951     515   545   498  0
 952     219   546   517  0
 953     517   546   499  0
 954     538   500   460  0
 955     522   524   513  0
 956     539   501   461  0
 957     523   525   514  0
 958     540   425   405  0
 959     208   502   519  0
 960     462   541   374  0
 961     504   473   505  0
 962     431   375   600  0
 963     505   800   938  0
 964     728   660   821  0
 965     542   506   392  0
 966     464   474   506  0
 967     520   476   475  0
 968     894   936  1019  0
 969     537   618   156  0
 970     768   508   520  0
 971     487   509   456  0
 972     491   373   510  0
 973     457   458   548  0
 974     565   236   551  0
 975     579   575   544  0
 976     522   368   214  0
 977     524   522   500  0
 978     523   383   217  0
 979     525   523   501  0
 980     498   221   515  0
 981     221   496   515  0
 982     576   516   545  0
 983     176   197   846  0
 984     499   223   517  0
 985     223   497   517  0
 986     546   577   518  0
 987     613   615   616  0
 988     547   502   191  0
 989     394   378   519  0
 990     932   471   933  0
 991     507   476   520  0
 992     808   896   511  0
 993     537   156   377  0
 994     214   500   522  0
 995     524   500   445  0
 996     217   501   523  0
 997     525   501   447  0
 998     898   913   731  0
 999     920   912   895  0
1000     211   927   447  0
1001     579   582   211  0
1002      61   663   604  0
1003     726   674     9  0
1004       5   612     4  0
1005       6   676     5  0
1006     854   770   550  0
1007     386   549   428  0
1008     370   529   564  0
1009    1007  1011   999  0
1010     236   565   512  0
1011     613   150   614  0
1012     469   450   531  0
1013     415   137   532  0
1014     895   532   137  0
1015     477   553   478  0
1016     533   478   553  0
1017     482   554   483  0
1018     534   483   554  0
1019     847   555   507  0
1020    1040   536  1019  0
1021     535   379   555  0
1022    1041   952   951  0
1023     457   548   494  0
1024     537   548   618  0
1025     558   538   460  0
1026     558   553   681  0
1027     559   539   461  0
1028     756   766   683  0
1029     660   431   600  0
1030     374   541   679  0
1031     472   503   541  0
1032     540   541   503  0
1033     393   542   392  0
1034     464   542   204  0
1035     759   982   630  0
1036     985   578   879  0
1037     544   575   574  0
1038     582   579   583  0
1039     622   571   576  0
1040     498   545   516  0
1041     627   572   577  0
1042     499   546   518  0
1043     191   769   547  0
1044     394   519   547  0
1045     618   548   521  0
1046     537   494   548  0
1047     549   386   438  0
1048     529   549   528  0
1049     854   881   530  0
1050     564   530   429  0
1051     691   696   690  0
1052     210   552   532  0
1053     481   302   552  0
1054     479   619   477  0
1055     477   619   553  0
1056     486   620   482  0
1057     482   620   554  0
1058     507   520   847  0
1059     415   573   137  0
1060     894   555   847  0
1061     951  1021  1041  0
1062     177   849   977  0
1063     910   952   568  0
1064     533   553   558  0
1065     553   619   681  0
1066     534   554   559  0
1067     554   620   683  0
1068     570   308   512  0
1069     493   377   560  0
1070     581   579   211  0
1071     571   516   576  0
1072     216   684   621  0
1073     572   518   577  0
1074     625   219   626  0
1075     770   529   202  0
1076     854   564   770  0
1077     630   739   759  0
1078     694   693   495  0
1079     894   566   555  0
1080     573   567   137  0
1081     566   556   567  0
1082     895   910   568  0
1083     949   623   899  0
1084     567   910   895  0
1085     493   569   393  0
1086     560   204   569  0
1087     693   575   495  0
1088     308   570   561  0
1089     622   624   685  0
1090     601   516   900  0
1091     735   627   687  0
1092     866   572   735  0
1093     490   566   573  0
1094     567   573   566  0
1095     693   574   575  0
1096     733   851   877  0
1097     561   570   575  0
1098     575   570   495  0
1099     562   622   621  0
1100     576   621   622  0
1101     563   627   625  0
1102     577   625   627  0
1103     625   686   563  0
1104     880   738   737  0
1105     575   579   561  0
1106     544   574   584  0
1107     628   688   736  0
1108     629   689   692  0
1109     211   447   766  0
1110     561   581   755  0
1111     583   579   544  0
1112     688   582   583  0
1113     584   583   544  0
1114     583   584   688  0
1115     689   574   139  0
1116     758   688   584  0
1117     788   586   698  0
1118      32    33   585  0
1119     698    30   632  0
1120      29    30   698  0
1121     790   780   636  0
1122      17   649   594  0
1123     639    39    40  0
1124     872   915   817  0
1125     791   818   837  0
1126     588    39   639  0
1127     642    24    25  0
1128     810   587   635  0
1129     963   943   960  0
1130     702   741   813  0
1131      50    51   592  0
1132     645    51    52  0
1133     777   814   838  0
1134     645   592    51  0
1135      16    17   594  0
1136     649    17    18  0
1137    1122  1020  1091  0
1138     596     8   652  0
1139     527   809   771  0
1140     527     4   612  0
1141     826   598   658  0
1142      62    63   597  0
1143      60   658    59  0
1144     710   658    60  0
1145     537   599   467  0
1146     377   493   599  0
1147     659   504   505  0
1148     431   660   540  0
1149     757   900   571  0
1150     685   732   757  0
1151     866   518   572  0
1152     727   853   678  0
1153      64   661    65  0
1154      63    62   662  0
1155     713    59    58  0
1156     664    57    56  0
1157     786   861   672  0
1158     742   760   712  0
1159     787   855   606  0
1160     716   665    22  0
1161     526   712   897  0
1162     671    10   674  0
1163     603   712   526  0
1164       6   675     7  0
1165     526   608   609  0
1166     608     5   609  0
1167     771   610   611  0
1168     610   771   783  0
1169     771   611   527  0
1170     610    65   611  0
1171       7   653     6  0
1172     612   676   823  0
1173     531   167   613  0
1174     455   615   167  0
1175     800   150   727  0
1176     505   469   614  0
1177     602   677   455  0
1178     613   616   150  0
1179     677   615   455  0
1180     616   615   677  0
1181     896   521   511  0
1182     540   728   679  0
1183     156   967   947  0
1184     480   680   479  0
1185     680   619   479  0
1186     485   682   486  0
1187     682   620   486  0
1188     576   216   621  0
1189     621   684   623  0
1190     215   624   562  0
1191     622   562   624  0
1192     623   684   731  0
1193     913   623   731  0
1194     969   950   849  0
1195     624   732   685  0
1196     577   219   625  0
1197     626   219   497  0
1198     927   525   447  0
1199     628   733   927  0
1200     218   687   563  0
1201     627   563   687  0
1202     851   580   578  0
1203     733   686   626  0
1204     736   758   629  0
1205     630   852   737  0
1206     551   695   565  0
1207     692   689   691  0
1208     637    36    37  0
1209     697   631    34  0
1210     632   633   772  0
1211     632   772   788  0
1212     772   633   585  0
1213     632    31   633  0
1214     699   789   634  0
1215     642   811   590  0
1216     700    22    23  0
1217     700   810   635  0
1218     587   773   790  0
1219     594   780   779  0
1220     774   637   638  0
1221     802   697   740  0
1222     774   638   588  0
1223     637    37   638  0
1224     703    41   641  0
1225     639   828   817  0
1226     702    45   741  0
1227     702   813   825  0
1228     818   828   641  0
1229      41   703    40  0
1230     704    25    26  0
1231     704   811   642  0
1232     777   964   591  0
1233      44   702   640  0
1234     705    49    50  0
1235     705   814   644  0
1236     706    52    53  0
1237     646   820   593  0
1238      56    57   656  0
1239     707   793   646  0
1240     779   647   648  0
1241     779   794   647  0
1242     779   648   594  0
1243     647    15   648  0
1244      18   636   649  0
1245     780   649   636  0
1246     781   650   651  0
1247     815   650   870  0
1248     781   651   595  0
1249     650    11   651  0
1250     709     9    10  0
1251     709   815   652  0
1252     676   834   823  0
1253       5   676   612  0
1254      64   610   654  0
1255     783   654   610  0
1256     658   835   826  0
1257     658   598    59  0
1258     784   656   657  0
1259     930   778   831  0
1260     784   657   598  0
1261     656    57   657  0
1262     710    60    61  0
1263     597   827   655  0
1264     862   938   800  0
1265     728   821   240  0
1266     848   600   659  0
1267     679   728   617  0
1268     711    64    63  0
1269     742   661   711  0
1270     603   742   712  0
1271      64   711   661  0
1272      60    59   663  0
1273      57   743    58  0
1274     744    54    53  0
1275     715    52    51  0
1276      23    22   665  0
1277      20   746    21  0
1278      17    16   725  0
1279     786   672   673  0
1280     668   721   798  0
1281     714    54   744  0
1282     785   669   670  0
1283     718    38   751  0
1284     855   888   861  0
1285     721   724   798  0
1286     785   670   605  0
1287      27   670   669  0
1288      11    10   671  0
1289      10     9   674  0
1290     861   786   855  0
1291     666    19   717  0
1292     786   673   606  0
1293      15   673   672  0
1294     990   867   975  0
1295     671   674   787  0
1296     608   607   675  0
1297     607     7   675  0
1298       6   653   676  0
1299     839   841   834  0
1300     677   806   752  0
1301     752   806   853  0
1302     150   752   727  0
1303     906   862   678  0
1304     728   540   660  0
1305     617   374   679  0
1306     481   729   480  0
1307     754   681   619  0
1308     680   480   729  0
1309     558   681   765  0
1310     484   730   485  0
1311     682   485   730  0
1312     682   730   756  0
1313     539   559   683  0
1314     216   496   684  0
1315     731   496   524  0
1316     215   876   624  0
1317     571   685   757  0
1318     626   927   733  0
1319     563   686   734  0
1320     687   218   887  0
1321     572   627   735  0
1322     689   629   758  0
1323     582   688   628  0
1324     689   758   574  0
1325     690   737   692  0
1326     696   694   695  0
1327     691   690   692  0
1328     689   139   691  0
1329     694   495   565  0
1330     737   690   630  0
1331     629   692   738  0
1332     691   139   693  0
1333     139   574   693  0
1334     694   565   695  0
1335     691   693   694  0
1336     530   928   551  0
1337     690   696   739  0
1338     694   696   691  0
1339     739   696   695  0
1340     740    35    36  0
1341     901   637   774  0
1342     788   698   632  0
1343     586    29   698  0
1344      28   586   699  0
1345     789   699   586  0
1346      23   590   700  0
1347     810   773   587  0
1348      20   587   701  0
1349     790   701   587  0
1350     741    45    46  0
1351     741   643   824  0
1352     589   818   641  0
1353     639    40   703  0
1354      26   634   704  0
1355     811   775   590  0
1356      50   592   705  0
1357     814   777   591  0
1358      53   593   706  0
1359     792   706   593  0
1360      56   656   707  0
1361     793   707   656  0
1362     794   708   647  0
1363     595    13   708  0
1364      10   650   709  0
1365     815   782   596  0
1366      61   655   710  0
1367     827   816   835  0
1368      63   662   711  0
1369     760   742   662  0
1370     663   795   604  0
1371     526   897   608  0
1372     664   714   803  0
1373     663   713   795  0
1374      55    54   714  0
1375      52   761    53  0
1376      46   762    47  0
1377     747   804   719  0
1378     796   858   605  0
1379     665   716   796  0
1380     725    18    17  0
1381     717   725   799  0
1382      39    38   718  0
1383      36   764    37  0
1384     722   750   797  0
1385     807   745   763  0
1386     718   805   667  0
1387     747   719    45  0
1388      29   724    30  0
1389     724    29    28  0
1390     668   798   797  0
1391      38    37   751  0
1392     797   723   668  0
1393     750   722    35  0
1394     724   669   798  0
1395      30   724   721  0
1396     725   672   799  0
1397      18   725   717  0
1398       8   607   726  0
1399     607   674   726  0
1400     752   616   677  0
1401     862   800   727  0
1402     660   600   848  0
1403     240   617   728  0
1404     481   552   753  0
1405     680   729   754  0
1406     484   755   730  0
1407     683   620   756  0
1408     898   524   445  0
1409     920   895   568  0
1410     732   876   908  0
1411     875   924   925  0
1412     628   736   851  0
1413     563   734   218  0
1414     686   733   734  0
1415     850   890   877  0
1416     878   735   887  0
1417     806   602   866  0
1418     629   580   736  0
1419     851   736   580  0
1420     630   982   852  0
1421     629   738   580  0
1422     692   737   738  0
1423     737   852   880  0
1424     739   695   759  0
1425     630   690   739  0
1426      36   637   740  0
1427     802   740   637  0
1428      46   643   741  0
1429     824   813   741  0
1430     711   662   742  0
1431     760   662   604  0
1432      57   664   743  0
1433     664   713   743  0
1434     748   719   867  0
1435     714   744   803  0
1436      49   763    50  0
1437     763    48   748  0
1438      20   666   746  0
1439     666   716   746  0
1440      43   747    44  0
1441     804   747   720  0
1442     745   807   715  0
1443      48   763    49  0
1444      41   667   749  0
1445     667   720   749  0
1446      33   750    34  0
1447     797   750   723  0
1448     722   797   865  0
1449     718   751   805  0
1450     677   602   806  0
1451     727   752   853  0
1452     552   210   753  0
1453     445   765   210  0
1454     729   753   754  0
1455     765   538   558  0
1456     561   755   484  0
1457     766   756   755  0
1458     730   755   756  0
1459     766   755   581  0
1460     908   989   732  0
1461     875   145   902  0
1462     688   758   736  0
1463     574   758   584  0
1464     759   695   551  0
1465     928   881   978  0
1466     664   803   857  0
1467     867   719   804  0
1468      52   715   761  0
1469     715   744   761  0
1470      46   719   762  0
1471     719   748   762  0
1472     763   748   807  0
1473      50   763   745  0
1474      36   722   764  0
1475     722   751   764  0
1476     754   753   765  0
1477     210   765   753  0
1478     211   766   581  0
1479     683   766   539  0
1480     197   767   376  0
1481     808   767   176  0
1482     191   768   769  0
1483     769   520   475  0
1484     520   769   768  0
1485     527   612   823  0
1486     529   770   564  0
1487     783   597   654  0
1488     697   833   631  0
1489    1005   941  1095  0
1490     590   868   810  0
1491    1012   940   174  0
1492     828   639   703  0
1493     631   822   585  0
1494     586   788   789  0
1495     810   868   773  0
1496     791   828   818  0
1497     591   776   824  0
1498     819   592   645  0
1499     964   777   965  0
1500     820   646   793  0
1501    1038   930   147  0
1502     594   649   780  0
1503     781   595   794  0
1504     701   790   636  0
1505    1106   146  1122  0
1506     794   595   708  0
1507     596   652   815  0
1508     870   782   815  0
1509     841   944   845  0
1510     809   845   931  0
1511     826   784   598  0
1512     658   710   835  0
1513    1013   955   784  0
1514     665   796   605  0
1515     795   857   918  0
1516     606   671   787  0
1517     884   859   799  0
1518     607   856   674  0
1519     882   787   856  0
1520    1016   772   822  0
1521     811   634   869  0
1522     789   941   973  0
1523     775   811   869  0
1524     773   868   959  0
1525     780   790  1043  0
1526     825   589   640  0
1527     872   817   791  0
1528     948   830   903  0
1529     645   792   819  0
1530     793   656   784  0
1531     593   832   792  0
1532    1034   779  1012  0
1533    1106   942  1034  0
1534     857   713   664  0
1535     760   604   795  0
1536     666   859   716  0
1537     717   799   666  0
1538     858   860   785  0
1539     751   722   865  0
1540     785   860   669  0
1541     785   605   858  0
1542     855   786   606  0
1543     666   799   859  0
1544     862   727   678  0
1545     505   614   800  0
1546     901   802   637  0
1547     801   821   929  0
1548     922   822   802  0
1549     863   744   715  0
1550     857   795   713  0
1551     864   720   667  0
1552     860   885   798  0
1553     865   797   885  0
1554     667   805   864  0
1555     518   866   602  0
1556     678   923   133  0
1557     865   864   805  0
1558     715   807   863  0
1559     145   916   902  0
1560     896   618   521  0
1561     841   839   840  0
1562     771   992   783  0
1563     700   590   810  0
1564     868   590   775  0
1565     704   634   811  0
1566     869   634   789  0
1567     812   943   871  0
1568    1008   984  1000  0
1569     813   776   960  0
1570     702   825   640  0
1571     705   592   814  0
1572     838   819   830  0
1573     709   650   815  0
1574     870   650   781  0
1575     842   827   836  0
1576     826   816   886  0
1577     872   791   837  0
1578     901   774   915  0
1579     829   589   825  0
1580     829   818   589  0
1581     830   819   792  0
1582     838   592   819  0
1583     831   820   793  0
1584     593   820   832  0
1585     821   659   929  0
1586     801   240   821  0
1587     901   915   922  0
1588     822   922  1016  0
1589     653   834   676  0
1590     653   596   839  0
1591     591   824   643  0
1592     776   813   824  0
1593     813   812   825  0
1594     825   812   829  0
1595     816   842   886  0
1596     826   886  1013  0
1597     783   836   597  0
1598     827   597   836  0
1599     641   828   703  0
1600     791   817   828  0
1601     871   837   829  0
1602     818   829   837  0
1603     792   832   903  0
1604     830   904   838  0
1605     831   955   930  0
1606     903   832   831  0
1607     820   831   832  0
1608     903   831   778  0
1609     697   802   833  0
1610     802   822   833  0
1611     834   653   839  0
1612     834   841   843  0
1613     655   835   710  0
1614     816   826   835  0
1615     842   836   844  0
1616     816   827   842  0
1617     829   812   871  0
1618     872   837   984  0
1619     948   904   830  0
1620     814   592   838  0
1621     782   840   596  0
1622     596   840   839  0
1623     840   873   841  0
1624     843   809   823  0
1625     840   782   873  0
1626     844  1009   986  0
1627     844   836   783  0
1628     826  1013   784  0
1629     834   843   823  0
1630     845   843   841  0
1631     992   771   931  0
1632     874  1001  1032  0
1633     873   944   841  0
1634     993   931   845  0
1635     454   601   846  0
1636     601   921   846  0
1637     894   847   936  0
1638     894   556   566  0
1639     659   821   848  0
1640     821   660   848  0
1641     624   876   732  0
1642     907   215   949  0
1643     850   877  1062  0
1644     909   878   893  0
1645    1062   877   851  0
1646     733   628   851  0
1647     985   543   999  0
1648     879   580   738  0
1649     866   987   806  0
1650     678   853   923  0
1651     881   550   188  0
1652     530   564   854  0
1653     674   856   787  0
1654     798   669   860  0
1655     897   607   608  0
1656     712   911   897  0
1657     803   744   863  0
1658     857   803   863  0
1659     796   716   859  0
1660     796   859   883  0
1661     799   672   861  0
1662     885   892   946  0
1663     796   883   858  0
1664     889   884   945  0
1665     882   855   787  0
1666     799   861   884  0
1667     906   678   133  0
1668     957   938   862  0
1669     864   867   804  0
1670     804   720   864  0
1671     751   865   805  0
1672     807   748   867  0
1673     885   797   798  0
1674     889   883   859  0
1675     687   887   735  0
1676     905   917   991  0
1677     885   946   994  0
1678     863   807   867  0
1679     868   775   958  0
1680     868   939   959  0
1681     941   789   788  0
1682     159   959   939  0
1683     942   870   781  0
1684     942  1091   870  0
1685     813   960   812  0
1686    1000   984   871  0
1687     984   837   871  0
1688    1067  1162  1008  0
1689     870   873   782  0
1690    1020   944   873  0
1691     886   842   986  0
1692    1087  1031  1069  0
1693     921   900   914  0
1694     900   921   601  0
1695     908   876   950  0
1696     907   950   876  0
1697     733   877   734  0
1698    1062   851   578  0
1699     887   893   878  0
1700     878   909  1014  0
1701     879   852   985  0
1702     578   580   879  0
1703     852   879   880  0
1704     879   738   880  0
1705     998  1006   978  0
1706     551   928   759  0
1707     891   882   856  0
1708     882   888   855  0
1709     884   889   859  0
1710     889   892   883  0
1711     888   884   861  0
1712     885   994   865  0
1713     883   892   858  0
1714     858   892   860  0
1715     986   842   844  0
1716    1035  1001   874  0
1717     893   890   850  0
1718     887   890   893  0
1719     888   882   891  0
1720     864   865   994  0
1721     888   945   884  0
1722     945   888   891  0
1723     887   218   890  0
1724     218   877   890  0
1725     856   897   919  0
1726     911   760   918  0
1727     946   892   889  0
1728     885   860   892  0
1729     909   893   988  0
1730    1014  1068   987  0
1731     934   847   520  0
1732     536   556   894  0
1733     910   567   556  0
1734     210   912   898  0
1735     916   808   902  0
1736     896   808   916  0
1737     712   760   911  0
1738     607   897   856  0
1739     445   210   898  0
1740     912   210   532  0
1741     997   568   557  0
1742     968   907   949  0
1743     571   900   516  0
1744     900   757   914  0
1745     774   817   915  0
1746     802   901   922  0
1747     808   176   902  0
1748     176   875   902  0
1749     948   178   904  0
1750     792   903   830  0
1751     943   962   981  0
1752     777   838   904  0
1753     991   853   806  0
1754     905  1164  1015  0
1755     906   995   972  0
1756     169   801   929  0
1757     876   215   907  0
1758     949   215   623  0
1759     908   950   969  0
1760     926   914   989  0
1761     988   893   850  0
1762     988  1002   909  0
1763     536   951   556  0
1764     910   556   951  0
1765     760   795   918  0
1766     856   919   891  0
1767     895   912   532  0
1768     913   899   623  0
1769     898   912   913  0
1770     920   913   912  0
1771     757   732   989  0
1772    1086   925   926  0
1773     915   872  1008  0
1774    1063  1162  1177  0
1775     171   947  1066  0
1776     947   967  1066  0
1777     917   923   991  0
1778     905  1015   917  0
1779     990   857   863  0
1780     945   891   966  0
1781     897   911   919  0
1782     918   919   911  0
1783     997   557   976  0
1784     913   920   899  0
1785     924   921   914  0
1786     846   921   875  0
1787    1063   922   915  0
1788     788   772  1037  0
1789     806   987   991  0
1790     133   923   917  0
1791     924   926   925  0
1792     145   875   925  0
1793     924   914   926  0
1794    1086   926  1148  0
1795     757   989   914  0
1796    1173   953  1086  0
1797     525   927   626  0
1798     628   927   582  0
1799     530   881   928  0
1800     978   881   188  0
1801     938   659   505  0
1802     929   957   972  0
1803     955   831   793  0
1804     930  1038  1018  0
1805     993   845   944  0
1806     844   783   992  0
1807     956   936   937  0
1808     508   932   934  0
1809     847   933   936  0
1810     932   933   934  0
1811     847   934   933  0
1812     937   933   471  0
1813     937   936   933  0
1814     935   956   937  0
1815     471   935   937  0
1816     956   935   143  0
1817     957   862   906  0
1818     929   659   938  0
1819     958   869   973  0
1820     996   159   939  0
1821    1023   773   959  0
1822    1198   940   159  0
1823     772  1016  1037  0
1824     973   941  1005  0
1825     781   794   942  0
1826     794   779  1034  0
1827     962   980   981  0
1828    1046   943   981  0
1829     870  1091   873  0
1830    1092  1107   993  0
1831     966   891   919  0
1832     994   867   864  0
1833     889   945   946  0
1834     945   975   946  0
1835     903   778   948  0
1836     967   618   896  0
1837    1039   778  1018  0
1838     997   899   920  0
1839     849   907   968  0
1840     907   849   950  0
1841     969   849   177  0
1842    1021   536  1040  0
1843     568   952   557  0
1844     910   951   952  0
1845     536  1021   951  0
1846     145   953   970  0
1847     145   925   953  0
1848     784   955   793  0
1849     971   759   928  0
1850     147   930   955  0
1851     143  1022  1042  0
1852     894  1019   536  0
1853     972   957   906  0
1854     929   938   957  0
1855     869   789   973  0
1856     868   958   939  0
1857     159   940   959  0
1858     773  1023   790  0
1859     962   965   979  0
1860     812   960   943  0
1861     979   974   980  0
1862    1026   961   974  0
1863     960   776   963  0
1864     776   964   963  0
1865     776   591   964  0
1866     943   963   962  0
1867     965   777   904  0
1868     962   963   964  0
1869     178   974   979  0
1870     962   964   965  0
1871     919   918   966  0
1872     857   990   918  0
1873     896   916   967  0
1874     970   916   145  0
1875     899   997   949  0
1876     949   976   968  0
1877    1127  1200  1111  0
1878    1075   989   908  0
1879     970   953  1065  0
1880     967   916   970  0
1881    1010  1011  1007  0
1882     759   983   982  0
1883     995   906   133  0
1884     169   972  1048  0
1885    1005   996   939  0
1886     939   958   973  0
1887     904   979   965  0
1888    1045  1026   974  0
1889     945   966   975  0
1890     918   975   966  0
1891     557  1056   976  0
1892     977   976  1056  0
1893     968   976   977  0
1894    1056  1027   977  0
1895     978  1006   971  0
1896     928   978   971  0
1897     178   979   904  0
1898     974   961   980  0
1899     981   980   961  0
1900     962   979   980  0
1901     161  1046  1028  0
1902    1028  1046   981  0
1903     983   759   971  0
1904     543   852   982  0
1905     543  1007   999  0
1906     543   982   983  0
1907     871   943  1000  0
1908    1067   985   999  0
1909     543   985   852  0
1910     872   984  1008  0
1911     992  1009   844  0
1912    1013  1035   147  0
1913    1014   866   878  0
1914     196   905   987  0
1915     850   182   988  0
1916    1149   196  1068  0
1917    1075   969  1044  0
1918     989  1075  1148  0
1919     867   990   863  0
1920     975   918   990  0
1921     853   991   923  0
1922     987   905   991  0
1923    1004   931   993  0
1924     931  1004   992  0
1925     944  1020  1092  0
1926     195  1031  1070  0
1927     946   975   994  0
1928     994   975   867  0
1929     917  1036   133  0
1930     169  1048  1029  0
1931    1005   939   973  0
1932    1199   996   175  0
1933     568   997   920  0
1934     949   997   976  0
1935     983   971  1010  0
1936     978   188   998  0
1937    1067   999   162  0
1938    1046   161  1057  0
1939    1057  1051  1082  0
1940     886   986  1001  0
1941     986  1003  1032  0
1942     988   182  1002  0
1943    1105   182  1058  0
1944    1003  1004  1033  0
1945    1031  1032  1070  0
1946    1033  1004   993  0
1947    1009  1004  1003  0
1948    1072  1095  1037  0
1949     996  1005  1132  0
1950     998   954  1006  0
1951    1011   162   999  0
1952    1006  1010   971  0
1953     983  1010  1007  0
1954    1082  1097  1057  0
1955    1162  1141   148  0
1956    1004  1009   992  0
1957     986  1009  1003  0
1958    1006   954  1010  0
1959    1011   954   141  0
1960     954  1011  1010  0
1961     141  1142  1161  0
1962     779   780  1012  0
1963     790  1023  1043  0
1964    1001  1013   886  0
1965     955  1013   147  0
1966     909  1002  1068  0
1967     987   866  1014  0
1968    1164   905   196  0
1969    1079  1076  1078  0
1970    1016   922  1063  0
1971    1095  1115  1132  0
1972     183  1099  1087  0
1973    1089  1074  1103  0
1974    1047  1052  1028  0
1975     778   930  1018  0
1976     936   956  1019  0
1977     143  1042   956  0
1978    1108  1167  1204  0
1979    1033   993  1107  0
1980     163  1093  1145  0
1981    1050   557   952  0
1982     959   940  1023  0
1983     163  1040  1042  0
1984    1043   940  1012  0
1985     177  1024  1044  0
1986     977  1027   177  0
1987    1025  1054  1053  0
1988    1053   149  1102  0
1989    1045   974   178  0
1990    1081   165  1026  0
1991    1157   184  1144  0
1992    1024   177  1027  0
1993     981   961  1028  0
1994    1026  1047   961  0
1995     189  1030  1036  0
1996    1048   972   995  0
1997    1032  1001   986  0
1998     195  1069  1031  0
1999    1032  1003  1070  0
2000     874  1032  1031  0
2001     993   944  1092  0
2002    1070  1110   195  0
2003     174  1034  1012  0
2004     942   794  1034  0
2005    1001  1035  1013  0
2006     874  1071  1035  0
2007     189  1036  1015  0
2008    1048  1079  1029  0
2009    1037  1016  1072  0
2010     941   788  1037  0
2011    1073   147  1035  0
2012    1074  1088  1073  0
2013    1053  1039  1018  0
2014    1026  1045  1054  0
2015    1042  1019   956  0
2016     163  1021  1040  0
2017    1055  1050  1041  0
2018     952  1041  1050  0
2019    1042  1022  1109  0
2020    1019  1042  1040  0
2021     940  1043  1023  0
2022    1012   780  1043  0
2023    1200  1024   160  0
2024    1185  1187  1189  0
2025     948  1049   178  0
2026    1025  1081  1054  0
2027    1116  1097  1082  0
2028     943  1046  1000  0
2029     165  1061  1026  0
2030    1028  1052   161  0
2031    1036  1080   995  0
2032    1080  1076  1079  0
2033    1039  1053  1054  0
2034    1045   178  1049  0
2035    1055  1041  1021  0
2036    1056   557  1050  0
2037     161  1051  1057  0
2038     161  1052  1059  0
2039    1060  1061   165  0
2040    1083   182  1062  0
2041    1018   149  1053  0
2042     149  1089  1102  0
2043    1045  1049  1054  0
2044    1039  1054  1049  0
2045    1021   163  1145  0
2046    1217  1055  1145  0
2047    1055  1056  1050  0
2048    1027  1056   184  0
2049    1082  1051   201  0
2050    1000  1046  1057  0
2051    1059  1052  1085  0
2052    1060  1084  1090  0
2053    1052  1061  1085  0
2054    1051  1083   201  0
2055    1047  1061  1052  0
2056    1084  1060   165  0
2057    1061  1047  1026  0
2058    1061  1060  1085  0
2059     578   201  1062  0
2060    1083  1062   201  0
2061    1008  1063   915  0
2062    1177  1162   148  0
2063    1064  1086  1148  0
2064     203  1183  1181  0
2065     953   135  1065  0
2066    1146   171  1165  0
2067     970  1065  1066  0
2068     171  1066  1065  0
2069    1067   162  1141  0
2070    1000  1057  1097  0
2071    1105  1150  1002  0
2072     987  1068   196  0
2073     195  1110  1113  0
2074    1099  1017  1071  0
2075    1033  1126  1003  0
2076    1107  1124  1033  0
2077    1087   874  1031  0
2078    1018  1088   149  0
2079    1176  1016  1063  0
2080    1205  1115  1072  0
2081    1035  1071  1073  0
2082    1017  1073  1071  0
2083    1073  1017  1074  0
2084    1120  1103  1017  0
2085    1187  1191  1189  0
2086     989  1148   926  0
2087    1078     1  1077  0
2088    1080  1030  1076  0
2089    1079  1078  1077  0
2090    1029  1079  1077  0
2091    1048   995  1080  0
2092    1048  1080  1079  0
2093    1036  1030  1080  0
2094    1054  1081  1026  0
2095    1098  1084   165  0
2096    1096  1082   201  0
2097    1008  1097  1116  0
2098    1085  1083  1059  0
2099     182  1083  1058  0
2100    1098   165  1081  0
2101     181  1104  1208  0
2102    1060  1058  1085  0
2103    1083  1085  1058  0
2104    1173  1086  1064  0
2105     953   925  1086  0
2106     183  1087  1069  0
2107    1071   874  1087  0
2108    1073  1088  1038  0
2109    1074   149  1088  0
2110     149  1074  1089  0
2111    1103  1074  1017  0
2112    1104  1090  1084  0
2113     182  1105  1002  0
2114    1122  1091   942  0
2115    1020   873  1091  0
2116     146  1167  1122  0
2117    1123  1092  1020  0
2118     155  1093   194  0
2119    1217  1218  1158  0
2120    1126  1110  1070  0
2121    1112  1131   166  0
2122    1037  1095   941  0
2123    1095  1072  1115  0
2124     578  1096   201  0
2125    1067  1096   985  0
2126    1082  1096  1116  0
2127    1008  1000  1097  0
2128    1101  1025  1053  0
2129    1081  1117  1098  0
2130    1087  1099  1071  0
2131    1100  1099   183  0
2132    1130   183  1128  0
2133    1136  1121  1160  0
2134    1101  1102  1119  0
2135    1133  1084  1098  0
2136    1119  1102  1089  0
2137    1101  1053  1102  0
2138    1120  1017  1099  0
2139    1103  1120  1135  0
2140    1104  1084  1118  0
2141    1150  1104  1166  0
2142    1058  1090  1105  0
2143    1150  1090  1104  0
2144    1034   174  1106  0
2145    1201   174   193  0
2146    1020  1108  1123  0
2147    1111  1094  1110  0
2148    1197  1190   192  0
2149    1125  1111  1124  0
2150    1022   194  1109  0
2151    1093  1109   194  0
2152    1033  1124  1126  0
2153    1131  1112  1114  0
2154    1123  1107  1092  0
2155     160  1094  1111  0
2156    1113  1069   195  0
2157     166  1156  1159  0
2158    1114  1110  1094  0
2159    1128  1113  1112  0
2160    1114  1094  1131  0
2161    1112  1113  1114  0
2162    1205  1179  1202  0
2163    1202   175  1115  0
2164    1096  1067  1116  0
2165    1008  1116  1067  0
2166    1025  1101  1117  0
2167    1101  1134  1133  0
2168    1101  1119  1134  0
2169    1203  1208  1118  0
2170    1089  1135  1136  0
2171    1134  1118  1133  0
2172    1099  1100  1120  0
2173    1100  1138  1135  0
2174    1130  1137  1100  0
2175    1136  1160  1212  0
2176    1106  1122   942  0
2177    1151  1167   146  0
2178    1127  1125  1123  0
2179    1125  1124  1107  0
2180    1125  1107  1123  0
2181    1126  1124  1111  0
2182    1127  1123  1108  0
2183    1111  1125  1127  0
2184    1110  1126  1111  0
2185    1126  1070  1003  0
2186    1206  1204   209  0
2187    1200  1044  1024  0
2188    1113  1128  1069  0
2189    1129  1128  1112  0
2190    1152  1154  1156  0
2191    1138  1121  1135  0
2192    1128  1129  1130  0
2193    1137  1130  1129  0
2194    1094   160  1131  0
2195     166  1153  1152  0
2196    1115   175  1132  0
2197     996  1132   175  0
2198    1101  1133  1117  0
2199    1084  1133  1118  0
2200    1136  1119  1089  0
2201    1203   207  1208  0
2202    1100  1135  1120  0
2203    1135  1121  1136  0
2204    1121  1140  1160  0
2205    1134  1119  1136  0
2206    1139  1137  1129  0
2207    1140  1138  1137  0
2208    1100  1137  1138  0
2209    1137  1139  1140  0
2210    1156   166  1152  0
2211    1216  1218   180  0
2212    1211  1216   180  0
2213    1215   164  1160  0
2214     168  1168  1163  0
2215    1172  1177   148  0
2216    1161  1141   162  0
2217    1144  1155  1157  0
2218    1143  1164  1169  0
2219    1055  1154   184  0
2220    1210  1093   179  0
2221    1154  1152  1144  0
2222    1170  1147  1165  0
2223    1165  1065   135  0
2224     203  1187  1185  0
2225    1148   203  1064  0
2226    1068  1002  1150  0
2227     181   153  1149  0
2228    1166  1104   181  0
2229    1150  1166  1068  0
2230    1108  1020  1167  0
2231     146   144  1151  0
2232    1152  1153  1155  0
2233     184  1154  1144  0
2234    1131   160  1153  0
2235    1152  1155  1144  0
2236    1159  1139  1129  0
2237    1158  1139  1159  0
2238    1153   160  1155  0
2239    1024  1155   160  0
2240    1156  1154  1158  0
2241     166  1159  1112  0
2242    1024  1027  1157  0
2243     184  1157  1027  0
2244    1210  1217  1145  0
2245    1145  1093  1210  0
2246    1158  1159  1156  0
2247    1129  1112  1159  0
2248    1216  1211  1215  0
2249    1213  1212   164  0
2250     141  1161  1011  0
2251    1163  1161  1142  0
2252    1008  1162  1063  0
2253    1067  1141  1162  0
2254    1161  1163  1141  0
2255     168  1163  1142  0
2256    1169  1164   196  0
2257     189  1164  1143  0
2258    1170  1165   135  0
2259       3  1165  1147  0
2260     181  1149  1166  0
2261    1068  1166  1149  0
2262    1167  1151  1204  0
2263    1020  1122  1167  0
2264     151  1182  1175  0
2265    1172   148  1168  0
2266     196  1149  1169  0
2267     153  1169  1149  0
2268    1174  1173  1064  0
2269     172  1147  1170  0
2270    1175  1168  1171  0
2271    1168   168  1171  0
2272    1176  1172   187  0
2273    1170   135  1173  0
2274     953  1173   135  0
2275    1181  1178  1180  0
2276    1170  1174   172  0
2277     151  1175  1171  0
2278     187  1172  1175  0
2279    1205  1176   187  0
2280    1016  1176  1072  0
2281    1172  1176  1177  0
2282    1063  1177  1176  0
2283     186   136  1179  0
2284    1183  1178  1181  0
2285    1202  1179   136  0
2286    1174  1181  1180  0
2287    1181  1174  1064  0
2288    1064   203  1181  0
2289    1179  1184   186  0
2290    1179   187  1182  0
2291    1188  1185   192  0
2292     157  1178  1183  0
2293    1183   203  1185  0
2294    1182   151  1184  0
2295    1187   203  1148  0
2296    1148  1075  1187  0
2297    1194   205  1192  0
2298    1044  1191  1075  0
2299    1188   192  1193  0
2300    1183  1188   157  0
2301    1187  1075  1191  0
2302    1206  1190  1197  0
2303     192  1190  1193  0
2304    1189  1197   192  0
2305    1200  1191  1044  0
2306    1200  1207  1191  0
2307    1193  1186  1188  0
2308    1192  1193  1194  0
2309    1190   209  1194  0
2310    1190  1194  1193  0
2311    1196  1194   209  0
2312    1151  1196   209  0
2313    1151   144  1195  0
2314    1195   205  1196  0
2315    1191  1197  1189  0
2316    1108  1204  1206  0
2317    1111  1200   160  0
2318     159   158  1198  0
2319     175   173  1199  0
2320    1127  1206  1207  0
2321    1202  1115  1205  0
2322     174  1201  1106  0
2323     136   173  1202  0
2324    1212  1134  1136  0
2325    1213   207  1203  0
2326    1151   209  1204  0
2327     209  1190  1206  0
2328    1176  1205  1072  0
2329     187  1179  1205  0
2330    1207  1206  1197  0
2331    1108  1206  1127  0
2332    1191  1207  1197  0
2333    1200  1127  1207  0
2334    1118  1208  1104  0
2335     207   200  1208  0
2336    1219  1210   179  0
2337    1208  1209   181  0
2338    1154  1217  1158  0
2339    1140  1215  1160  0
2340     180   199  1211  0
2341     164  1212  1160  0
2342    1203  1134  1212  0
2343    1212  1213  1203  0
2344     164   142  1213  0
2345    1215  1140  1216  0
2346    1213   142  1214  0
2347     164  1215  1211  0
2348    1140  1139  1216  0
2349    1139  1158  1218  0
2350    1217  1154  1055  0
2351    1219  1218  1210  0
2352    1210  1218  1217  0
2353     180  1218   198  0
2354     134  1219   179  0
2355    1218  1219   198  0
# Generated by C:\Users\lukem\Python\PATH\modflow_exe\triangle.exe -a -q32 -A -p -V -D -e -n _triangle.0
