1220  2  0  1
   0    0  0    1
   1    0  1500    1
   2    2000  1500    2
   3    2000  0    3
   4    879.37757746417913  485.04390749285062    5
   5    876.98831891966529  467.21074923102287    5
   6    872.83065159706587  449.70521032419333    6
   7    866.94611753392644  432.7022003305575    7
   8    859.3935130494375  416.37160770552384    8
   9    850.24830127104883  400.87660233242525    9
  10    839.60185813184501  386.37200518298226    10
  11    827.56055937242684  373.00274139732949    11
  12    814.24471766967429  360.90239223992228    12
  13    799.78738051224911  350.19186039969782    13
  14    784.33300083406789  340.97816197037241    14
  15    768.03599368833659  333.35335718100822    15
  16    751.05919338338072  327.39363056063507    16
  17    733.57222649606365  323.15852972762013    17
  18    715.74981701910053  320.69037040954868    18
  19    697.77004057667966  320.01381363846184    19
  20    679.8125451516903  321.13561934597635    20
  21    662.05675610245964  324.04457882028254    21
  22    644.68008340388451  328.71162669988712    22
  23    627.8561490256044  335.09013138509812    23
  24    611.75305215867411  343.11636096555412    24
  25    596.53168962401162  352.71012000840608    25
  26    582.34414824454984  363.77555084457293    26
  27    569.33218524397489  376.20209134688469    27
  28    557.625811855405  389.86557963031055    28
  29    547.34199429212651  404.62949463647118    29
  30    538.5834850598535  420.34632020692658    30
  31    531.43779628765662  436.8590190158684    31
  32    525.97632533569708  454.00260163517032    32
  33    522.25364141640432  471.60577505421526    33
  34    520.30694035694444  489.4926541830356    34
  35    520.15567295080973  507.48451923799229    35
  36    521.80135061191982  525.40160145077607    36
  37    525.22753027307363  543.06487925851673    37
  38    530.39997867964155  560.2978670280628    38
  39    537.267014436929  576.9283784420893    39
  40    545.76002439358945  592.79024692786356    40
  41    555.79414920155193  607.72498593871217    41
  42    567.26913120257575  621.58337249920714    42
  43    580.07031616963161  634.22693819180961    43
  44    594.06979889403772  645.52935268752617    44
  45    609.12770117202558  655.37768599679725    45
  46    625.0935694215143  663.67353682862267    46
  47    641.80787796456934  670.33401578373457    47
  48    659.1036229552443  675.29257355807511    48
  49    676.80799102680555  678.49966588144434    49
  50    694.74408598576804  679.92324854747096    50
  51    712.73269630018649  679.54909758872986    51
  52    730.59408572204336  677.3809513979229    52
  53    748.14978915242568  673.44047337509471    53
  54    765.22439580580124  667.76703547410079    54
  55    781.64730185660392  660.41732481105839    55
  56    797.2544150562652  651.46477726542139    56
  57    811.8897942887196  640.99884373294708    57
  58    825.4072076824898  629.1240963619141    58
  59    837.67159371120795  615.95918370278446    59
  60    848.56041068374202  601.63564521110641    60
  61    857.96486114026709  586.29659694875659    61
  62    865.79097892051936  570.0953016155571    62
  63    871.96056804260911  553.19363719904118    63
  64    876.41198401142356  535.76047954311105    64
  65    879.10074975004466  517.97001499642909    65
  66    880  500    66
  67    1911.0420789926104  568.27436804406568    68
  68    1917.5846612110849  564.90295248791051    68
  69    1923.7652825962309  560.90648601973385    69
  70    1929.5244203854384  556.32345679631521    70
  71    1934.8066109335318  551.19800189441457    71
  72    1939.5609838579942  545.57948224659594    72
  73    1943.7417519485584  539.5220072684632    73
  74    1947.3086521230719  533.08391375540828    74
  75    1950.2273331829883  526.32720406738179    75
  76    1952.4696866341869  519.31694901227274    76
  77    1954.014117387138  512.120661178457    77
  78    1954.8457517294187  504.80764475166535    78
  79    1954.9565805676953  497.4483280777892    79
  80    1954.3455365596701  490.11358539940971    80
  81    1953.0185043931708  482.87405429809792    81
  82    1950.9882641133904  475.79945541588961    82
  83    1948.2743680440658  468.95792100738964    83
  84    1944.9029524879106  462.41533878891511    84
  85    1940.9064860197338  456.23471740376903    85
  86    1936.3234567963152  450.47557961456175    86
  87    1931.1980018944146  445.19338906646828    87
  88    1925.5794822465959  440.43901614200587    88
  89    1919.5220072684631  436.25824805144163    89
  90    1913.0839137554083  432.69134787692809    90
  91    1906.3272040673817  429.77266681701178    91
  92    1899.3169490122727  427.53031336581302    92
  93    1892.1206611784569  425.98588261286199    93
  94    1884.8076447516653  425.15424827058132    94
  95    1877.4483280777893  425.04341943230469    95
  96    1870.1135853994097  425.65446344032995    96
  97    1862.8740542980979  426.98149560682918    97
  98    1855.7994554158895  429.01173588660947    98
  99    95.799455415889611  1029.0117358866096    99
 100    88.957921007389643  1031.7256319559342    100
 101    82.415338788915022  1035.0970475120896    101
 102    76.234717403768983  1039.0935139802662    102
 103    70.475579614561696  1043.6765432036848    103
 104    65.193389066468228  1048.8019981055854    104
 105    60.439016142005826  1054.4205177534041    105
 106    56.258248051441619  1060.4779927315369    106
 107    52.691347876928077  1066.9160862445917    107
 108    49.772666817011782  1073.6727959326183    108
 109    47.530313365813029  1080.6830509877273    109
 110    45.985882612861985  1087.8793388215431    110
 111    45.154248270581292  1095.1923552483347    111
 112    45.043419432304674  1102.5516719222107    112
 113    45.654463440329963  1109.8864146005903    113
 114    46.981495606829228  1117.1259457019021    114
 115    49.011735886609515  1124.2005445841105    115
 116    51.725631955934304  1131.0420789926104    116
 117    55.097047512089503  1137.5846612110849    117
 118    59.093513980266124  1143.7652825962309    118
 119    63.676543203684787  1149.5244203854384    119
 120    68.801998105585426  1154.8066109335318    120
 121    74.420517753404027  1159.5609838579942    121
 122    80.477992731536858  1163.7417519485584    122
 123    86.916086244591781  1167.3086521230719    123
 124    93.672795932618271  1170.2273331829883    124
 125    100.68305098772734  1172.4696866341869    125
 126    107.87933882154303  1174.014117387138    126
 127    115.19235524833468  1174.8457517294187    127
 128    122.55167192221082  1174.9565805676953    128
 129    129.88641460059031  1174.3455365596701    129
 130    137.12594570190211  1173.0185043931708    130
 131    144.20054458411039  1170.9882641133904    131
 132    1904.2005445841105  570.98826411339053    132
 133    150  1350    134
 134    1850  1350    134
 135    1850  150    135
 136    150  150    136
 137    1850  589.46572249433723    132
 138    1850  430.98882296020815    99
 139    150.00000000000023  1010.5342775056628    99
 140    149.99999999999977  1169.0111770397918    132
 141    0  750    1
 142    1000  1500    2
 143    2000  750    3
 144    1000  0    4
 145    1850  302.98882296020815    135
 146    1000  150    136
 147    880.77356730517511  761.40692501526223    99
 148    150.00000000000011  580.26713875283144    137
 149    880.77356730517499  919.88382454939119    132
 150    149.99999999999986  1233.0111770397918    137
 151    0  375    1
 152    0  1125    1
 153    500  1500    2
 154    1500  1500    2
 155    2000  1125    3
 156    2000  375    3
 157    1500  0    4
 158    500  0    4
 159    575  150    136
 160    1365.3867836525876  596.19787398773519    99
 161    515.38678365258761  885.97060126046256    99
 162    150.00000000000017  754.53427750566277    137
 163    1850  845.46572249433723    135
 164    1000  1350    134
 165    634.61321634741216  1003.8021260122649    132
 166    1365.3867836525874  754.67477352186427    132
 167    149.99999999999983  1201.0111770397918    137
 168    0  562.5    1
 169    0  1312.5    1
 170    2000  1312.5    3
 171    2000  187.5    3
 172    1750  0    4
 173    250  0    4
 174    787.5  150    136
 175    362.5  150    136
 176    1850  366.98882296020815    135
 177    1607.6933918262937  513.59334847397167    99
 178    698.0801754788813  823.68876313786245    99
 179    1850  1097.7328612471686    135
 180    1338  1350    134
 181    575  1350    134
 182    392.30660817370597  1086.4066515260283    132
 183    1123.0801754788813  837.27929903562767    132
 184    1607.6933918262937  672.07024800810075    132
 185    149.9999999999998  1185.0111770397918    137
 186    0  187.5    1
 187    150.00000000000006  406    137
 188    0  937.5    1
 189    250  1500    2
 190    1750  1500    2
 191    2000  562.5    3
 192    1425  150    136
 193    750  0    4
 194    2000  937.5    3
 195    1123.0801754788813  678.80239950149871    99
 196    362.5  1350    134
 197    1850  398.98882296020815    135
 198    1594  1350    134
 199    1250  1500    2
 200    750  1500    2
 201    392.30660817370642  927.92975199189937    99
 202    0  1031.25    1
 203    1594  150    136
 204    2000  468.75    3
 205    1250  0    4
 206    1850  414.98882296020815    135
 207    787.5  1350    134
 208    2000  515.625    3
 209    1212.5  150    136
 210    1850  525.46572249433723    135
 211    150.00000000000006  1074.5342775056627    137
 212    149.99999999999977  1177.0111770397918    137
 213    1850  422.98882296020815    135
 214    1850  462.98882296020815    135
 215    1728.846695913147  472.29108571708986    99
 216    1789.4233479565735  451.63995433864903    99
 217    149.99999999999986  1137.0111770397918    137
 218    271.15330408685298  1127.70891428291    132
 219    210.57665204342629  1148.360045661351    132
 220    1850  446.98882296020815    135
 221    1819.7116739782866  441.31438864942862    99
 222    149.99999999999983  1153.0111770397918    137
 223    180.28832602171306  1158.6856113505714    132
 224    1850  438.98882296020815    135
 225    1834.8558369891434  436.15160580481836    99
 226    149.9999999999998  1161.0111770397918    137
 227    165.14416301085637  1163.8483941951818    132
 228    1854.6003675500353  434.98882296020815    0
 229    145.39963244996449  1165.0111770397918    0
 230    1860.8086112380427  433.1254636037167    0
 231    1857.517158231725  442.98882296020815    0
 232    139.19138876195711  1166.8745363962832    0
 233    142.48284176827468  1157.0111770397918    0
 234    1867.5290378516022  431.96553888005644    0
 235    132.47096214839786  1168.0344611199439    0
 236    87.883060044797901  1019.0355326120092    0
 237    0  1078.125    1
 238    53.509001982153883  1043.7355352456109    0
 239    34.325537992138322  1115.7044379450695    0
 240    0  1218.75    1
 241    46.856946308204542  1147.2952059742443    0
 242    93.463415948567217  1182.9611506573308    0
 243    127.23125101862  1186.8012201539402    0
 244    1881.3115768081423  412.90796490043761    0
 245    1864.2955620549305  414.32553799213832    0
 246    1914.5404178919205  420.03937004150964    0
 247    1942.510793461322  439.34405624884687    0
 248    1957.4265907371325  460.10180632745778    0
 249    1962.9611506573308  526.5365840514329    0
 250    1919.8981936725422  577.42659073713241    0
 251    1946.4909980178461  556.264464754389    0
 252    1966.8012201539402  492.76874898138004    0
 253    1940.2841565483384  482.69989226317631    0
 254    1927.8765967736799  540.51301938662152    0
 255    59.715843451661705  1117.300107736824    0
 256    72.123403226320178  1059.4869806133786    0
 257    142.50574602399962  1178.423784243844    0
 258    1857.4942539760004  421.57621575615559    0
 259    1899.1075690282214  440.2641308401553    0
 260    100.8924309717784  1159.7358691598445    0
 261    1842.4279184945717  433.57021438251326    99
 262    1841.4127571281788  442.98882296020815    0
 263    1836.7478251134046  418.98882296020815    0
 264    157.57208150542814  1166.4297856174867    132
 265    163.25217488659524  1181.0111770397918    0
 266    1874.2546599591165  431.0350969059391    0
 267    1865.4842023043739  440.16659899233287    0
 268    125.74534004088358  1168.9649030940609    0
 269    134.51579769562545  1159.8334010076669    0
 270    81.835753764045336  1025.9383144421408    0
 271    40.039370041509635  1065.4595821080795    0
 272    33.455893862173198  1090.1582265667387    0
 273    51.429702810877309  1052.6739257720956    0
 274    65.76326041177515  1031.8448909446536    0
 275    39.915913875324392  1122.9822128613685    0
 276    36.971099826605943  1106.9169859350936    0
 277    45.938314442141163  1138.1642462359544    0
 278    54.806864050674662  1151.879649030448    0
 279    102.51712535335686  1181.4615986371459    0
 280    70.523721505413562  1171.6857076259503    0
 281    86.960684377367841  1176.4855972168477    0
 282    118.74542339750701  1183.3070765060097    0
 283    1873.0830140649064  416.97109982660601    0
 284    1889.4140568815762  417.21703984840752    0
 285    1920.3771218029397  427.12112107516782    0
 286    1905.3833227717514  420.64428260361581    0
 287    1933.8192506869912  436.39865399285537    0
 288    1945.1931359493256  448.12035096955174    0
 289    1963.7226119582228  475.97361745081122    0
 290    1961.4615986371459  517.48287464664315    0
 291    1956.1900446822226  542.21160862639567    0
 292    1925.2397895853471  569.96430801989857    0
 293    1910.7211603326102  577.4458085776613    0
 294    1948.5702971891226  547.32607422790454    0
 295    1938.0198790950856  559.79411834136693    0
 296    1963.3070765060097  501.25457660249299    0
 297    1925.0106652294078  456.32491243218317    0
 298    1936.1167443885649  471.0828448654172    0
 299    1946.5828361851616  487.79512593868827    0
 300    1941.3210938971617  513.16042179057195    0
 301    1927.1394237184566  548.58094026266235    0
 302    1903.1256836215184  558.29816476946542    0
 303    1935.2205285249006  530.59385708405716    0
 304    74.989334770592123  1143.6750875678169    0
 305    63.883255611434947  1128.9171551345828    0
 306    53.417163814838553  1112.2048740613118    0
 307    72.860576281543473  1051.4190597373376    0
 308    96.874316378481353  1041.7018352305347    0
 309    58.678906102838368  1086.8395782094281    0
 310    64.779471475099385  1069.4061429159433    0
 311    134.79581167010917  1180.7175149623376    0
 312    1887.1330569876122  437.27512168317469    0
 313    1906.843459910536  437.85773028490189    0
 314    112.86694301238772  1162.724878316825    0
 315    93.156540089464102  1162.1422697150983    0
 316    1836.1702592242987  427.61082910882641    0
 317    158.58724287182093  1157.0111770397918    0
 318    163.829740775701  1172.3891708911735    0
 319    1881.0420397764683  430.80590917442555    0
 320    1871.7027231486475  437.36165464346703    0
 321    118.95796022353174  1169.1940908255744    0
 322    128.29727685135288  1162.6383453565338    0
 323    75.349154164005895  1030.9465061607993    0
 324    40.644282603615778  1074.6166772282486    0
 325    48.06987792386338  1060.1485184292692    0
 326    61.9801209049146  1040.205881658633    0
 327    37.777437423757952  1098.7617558131724    0
 328    43.5624017896602  1130.3212240040687    0
 329    60.984297574533237  1157.2645607029256    0
 330    110.70849784308687  1181.7052693095025    0
 331    80.148518429269231  1171.9301220761367    0
 332    1897.2552778819756  419.5988903653311    0
 333    1926.709970663909  432.32236938362144    0
 334    1949.0534938392004  455.34915416400588    0
 335    1961.9511101438948  484.97806588308373    0
 336    1957.4458085776614  469.27883966739006    0
 337    1961.7052693095022  509.29150215691317    0
 338    1956.4855972168473  533.03931562263199    0
 339    1931.2042658048595  564.34443416998488    0
 340    1932.9674812664425  457.84933033033036    0
 341    1915.8590975935431  448.04409579628305    0
 342    1943.0631297742661  474.98415270687406    0
 343    1943.1220027310101  500.95059616841939    0
 344    1944.4741568781917  520.62319374294077    0
 345    1914.2783139383193  553.01215007330973    0
 346    1935.8359145538695  538.53701595416942    0
 347    67.032518733557538  1142.1506696696697    0
 348    84.140902406456902  1151.955904203717    0
 349    56.936870225733827  1125.0158472931259    0
 350    85.721686061680444  1046.9878499266906    0
 351    55.525843121808236  1079.3768062570593    0
 352    56.877997268989965  1099.0494038315808    0
 353    64.164085446130713  1061.4629840458306    0
 354    1894.2360808533995  433.66686382618127    0
 355    105.76391914660057  1166.3331361738187    0
 356    1873.2399143588029  449.06524253843156    0
 357    126.76008564119518  1150.9347574615704    0
 358    39.598890365331052  1082.7447221180244    0
 359    66.976296331942621  1162.6612017173175    0
 360    1923.8243263613681  448.21023873687778    0
 361    1947.4091039272021  507.66574591612459    0
 362    1911.0766567915884  560.3074817529033    0
 363    76.175673638631835  1151.7897612631223    0
 364    88.923343208411836  1039.692518247097    0
 365    52.590896072797968  1092.3342540838755    0
 366    1859.079738890202  454.98882296020815    0
 367    140.92026110979788  1145.0111770397918    0
 368    1841.0483060491895  454.98882296020815    0
 369    1830.1722337311803  447.20586675302178    0
 370    37.66271308880772  1044.7603259764394    0
 371    73.424797902306892  1012.4694284739076    0
 372    25.064932686722376  1128.6039052639424    0
 373    0  1101.5625    1
 374    0  1171.875    1
 375    79.48515432787049  1190.4952909398542    0
 376    1872.0444046207069  404.50402230602481    0
 377    2000  421.875    3
 378    1977.2090421978244  519.52568864615841    0
 379    1915.3415117755301  592.63815600250882    0
 380    1958.8663652916846  554.43224852278115    0
 381    141.05032085968637  1187.6362482575591    0
 382    1824.3629214052146  430.16521726352192    0
 383    158.95169395081027  1145.0111770397918    0
 384    169.82776626881937  1152.7941332469784    0
 385    175.63707859478535  1169.8347827364782    0
 386    25.172898074353935  1071.0401805511801    0
 387    53.268234695382951  1031.2275872686091    0
 388    23.864951648165505  1101.503655017246    0
 389    1903.0510154227184  406.65730243879761    0
 390    1932.1595277599538  419.23124264990184    0
 391    1959.0979854134737  445.33998533159502    0
 392    1974.2563537509764  482.72247034040464    0
 393    1969.0745655185019  464.66595082279508    0
 394    1967.9701750893589  538.00028352939762    0
 395    1927.2425545360061  466.20320963557936    0
 396    1905.7325167344602  447.92390586329634    0
 397    1937.595910120421  492.46387795849148    0
 398    1934.3475612133852  520.5042578061591    0
 399    1918.2646296786959  543.70240397937334    0
 400    72.757445463994017  1133.7967903644205    0
 401    94.267483265539298  1152.0760941367043    0
 402    81.735370321303733  1056.2975960206265    0
 403    65.652438786614198  1079.4957421938409    0
 404    62.404089879579374  1107.5361220415086    0
 405    55.040643137876032  1169.888758141803    0
 406    1863.8690185425216  448.26345088438524    0
 407    136.13098145747813  1151.7365491156147    0
 408    42.100025219830464  1052.9726572849997    0
 409    73.466891646616205  1021.8037925436438    0
 410    34.228151650376127  1130.383664431306    0
 411    78.892365404618005  1181.1796736354477    0
 412    100.4743113538417  1197.2090421978241    0
 413    1969.9667772077291  513.63656967275347    0
 414    1934.9304260816948  582.54391977976729    0
 415    1877.1002722920553  580.22699330386388    132
 416    1828.9488068185283  422.79673479533977    0
 417    171.05119318147129  1177.2032652046601    0
 418    31.803054978175751  1077.610807910906    0
 419    28.388102767175049  1109.1249417402582    0
 420    1909.4620899696747  412.77621006296761    0
 421    1895.5629151250423  411.07241534232702    0
 422    1941.8636968746707  426.9569918376643    0
 423    1923.309731321953  418.75794531659619    0
 424    1951.1029626655522  441.51604513593583    0
 425    44.237449099882014  1161.0229241910599    0
 426    1867.9089865746218  456.20835722755032    0
 427    132.09101342537554  1143.7916427724479    0
 428    27.025556016669245  1055.8127841567398    0
 429    59.022048981953994  1017.2016552796377    0
 430    33.610178858952679  1144.0162239963647    0
 431    63.757236154420539  1186.8194500978732    0
 432    106.36343032724632  1189.9667772077289    0
 433    1976.9381246468283  501.90503586215726    0
 434    1933.9736073573583  573.25862913281162    0
 435    1890.6504084380829  575.6076287086272    132
 436    1814.4498118222261  418.88435659104084    0
 437    185.55018817777307  1181.1156434089598    0
 438    17.603588665547768  1085.3084940829199    0
 439    24.609796567968434  1118.5033044715301    0
 440    1891.9932342311758  396.46065705141598    0
 441    1933.7846544515  428.2213483823304    0
 442    1917.8867146031225  412.29273553659425    0
 443    1948.7334945689524  432.80854990780972    0
 444    52.87694998930187  1160.3293503290756    0
 445    1850  494.22727272727269    135
 446    1882.4071761036137  461.46759829596328    0
 447    149.99999999999994  1105.7727272727273    137
 448    117.59282389637781  1138.532401704038    0
 449    28.200138860510872  1136.9406970278501    0
 450    118.09496413784261  1196.9381246468286    0
 451    1978.3739736381472  510.69536875352378    0
 452    1947.1985415167451  569.89266906981425    0
 453    1900.2284693252434  581.52005866583931    0
 454    1826.5404267669787  407.97353457934167    0
 455    173.45957323302116  1192.0264654206578    0
 456    17.746271406134603  1110.2878894249791    0
 457    1928.2640584732314  409.09523907599623    0
 458    1913.1011438278331  402.54534810361378    0
 459    1959.32110241533  434.60360424703373    0
 460    1861.8760244980638  467.31511950257527    0
 461    138.12397550193668  1132.6848804974252    0
 462    0  1148.4375    1
 463    109.30463124647616  1198.3739736381467    0
 464    2000  492.1875    3
 465    1988.4227068505249  516.51303937164255    0
 466    1941.998136078894  577.12367162470889    0
 467    1954.9918295848911  418.50280081271808    0
 468    12.82245796756238  1137.9658387109687    0
 469    116.07831293512062  1212.2174277409601    0
 470    2000  503.90625    3
 471    2000  656.25    3
 472    21.207293701030213  1147.8935744169146    0
 473    103.29279191816377  1209.8945289379067    0
 474    1988.3257320572723  504.55737258339042    0
 475    1956.5766526056798  582.12275564021206    0
 476    1945.893386497936  589.52094675666183    0
 477    1924.4273217359821  481.83223711656683    0
 478    1910.6171756183296  463.03456909520088    0
 479    1927.745623895687  504.92035807972229    0
 480    1919.7884402503894  526.84649972086402    0
 481    1902.4349191684576  542.43263987458238    0
 482    75.572678264017242  1118.1677628834336    0
 483    89.382824381671256  1136.965430904798    0
 484    97.565080831542858  1057.5673601254186    0
 485    80.211559749611681  1073.1535002791368    0
 486    72.25437610431247  1095.0796419202777    0
 487    12.922326481568255  1124.0905000809939    0
 488    1892.7635187155133  452.44595655217768    0
 489    107.23648128448306  1147.5540434478241    0
 490    1888.1316241385287  590.40241007506017    0
 491    11.92798560222708  1099.7120398863801    0
 492    1903.9702855889941  394.56625340367265    0
 493    1976.9945938871194  440.34139298041089    0
 494    1943.2655525459202  409.14641953268449    0
 495    122.8997277079449  1019.7730066961362    99
 496    1815.182591583563  461.5882736083538    0
 497    184.81740841643656  1138.4117263916462    0
 498    1811.5993295567621  431.38525760509685    0
 499    188.4006704432386  1168.6147423949033    0
 500    1850  478.60804784374045    135
 501    149.99999999999989  1121.3919521562595    137
 502    2000  539.0625    3
 503    31.007431425606548  1157.4664206757534    0
 504    85.72906090948868  1207.1410146666067    0
 505    105.8376197789012  1232.2354734060527    0
 506    1985.497118889584  490.92972502657949    0
 507    1931.5269245854315  599.99335144249733    0
 508    2000  609.375    3
 509    0  1113.28125    1
 510    0  1089.84375    1
 511    1894.8436388543726  375.67320782510143    0
 512    109.34959156191726  1024.3923712913729    99
 513    1828.7327797831688  460.70809914831113    0
 514    171.26722021683094  1139.2919008516892    0
 515    1804.5675109674301  446.47717149403883    99
 516    1792.3165548797081  420.41292091143532    0
 517    195.43248903256969  1153.5228285059611    132
 518    207.68344512029284  1179.5870790885676    0
 519    1986.5034285688455  531.74515505780846    0
 520    1963.4902848667641  603.51891505091919    0
 521    1921.7532595084544  383.43033447291759    0
 522    1838.8751933903516  466.42875442733776    0
 523    161.12480660964823  1133.5712455726623    0
 524    1824.3275960588119  480.36955664964592    0
 525    175.67240394118835  1119.6304433503544    0
 526    854.91369454148412  493.5530102836824    0
 527    904.46388292269501  491.49089720916828    0
 528    0  1054.6875    1
 529    19.024320139876444  1037.4672386964194    0
 530    58.384386288059005  990.97707343424258    0
 531    133.28146178462561  1201.4398849144104    0
 532    1850  557.46572249433723    135
 533    1896.2535345697995  466.90737384598117    0
 534    103.74646543019668  1133.0926261540283    0
 535    1901.3868743122011  595.77618916225356    0
 536    1850  717.46572249433723    135
 537    1964.6277411939898  394.39977591156236    0
 538    1868.7334143603409  486.4176602855066    0
 539    131.26658563965785  1113.5823397144934    0
 540    31.731014441540076  1181.1604859299375    0
 541    15.14622598488609  1163.9013882573092    0
 542    1987.488752383565  476.40057927685257    0
 543    150.0000000000002  882.53427750566277    137
 544    150.00000000000014  1042.5342775056629    137
 545    1792.6075420953432  436.18742664081191    0
 546    207.39245790465708  1163.8125733591896    0
 547    1984.914641042023  550.78125    0
 548    1935.8180286218574  393.52061283335223    0
 549    13.237489707129981  1061.8616449244553    0
 550    0  984.375    1
 551    91.530824018767547  991.80205323439179    0
 552    1876.2232619299411  555.47121426320348    0
 553    1907.4438202167785  479.83775610945412    0
 554    92.556179783226867  1120.1622438905401    0
 555    1913.5624135729747  617.32333460026518    0
 556    1850  653.46572249433723    135
 557    1728.846695913147  630.76798525121899    132
 558    1883.7390729607134  478.41948872472375    0
 559    116.26092703927739  1121.5805112752723    0
 560    2000  445.3125    3
 561    123.33719715633288  1048.4974755391463    0
 562    1759.1350219348601  461.9655200278695    99
 563    240.86497806513961  1138.0344799721306    132
 564    32.910878880500704  1014.6833021252945    0
 565    109.64178213954688  1003.0662483406275    0
 566    1885.8574666921879  615.04691130204219    0
 567    1850  621.46572249433723    135
 568    1789.4233479565735  610.11685387277817    132
 569    1985.5353030049478  459.15071829221864    0
 570    120.24838564826409  1034.1789519661982    0
 571    1766.331234903113  428.78220046004367    0
 572    233.66876509688987  1171.2177995399575    0
 573    1868.8116642211949  600.28017358625812    0
 574    150.00000000000017  1026.5342775056629    137
 575    135.09258490956105  1038.4691640890753    0
 576    1777.0589795240505  441.03777940786023    0
 577    222.94102047595098  1158.9622205921401    0
 578    271.15330408685338  969.23201474878101    99
 579    150.00000000000009  1058.5342775056629    137
 580    210.57665204342678  989.88314612722195    99
 581    131.76802179500578  1066.5342775056627    0
 582    176.5043497731906  1066.5342775056629    0
 583    166.87422186460137  1050.5342775056629    0
 584    164.12626215777971  1034.5342775056629    0
 585    494.9549417875192  456.63748105144475    0
 586    528.02715511470683  380.21216852708983    0
 587    666.11589566563441  293.17724636689184    0
 588    506.28469084426013  579.98851758608578    0
 589    552.72538071753786  649.11059808789355    0
 590    606.50897583211815  312.42811418828268    0
 591    642.24179110855084  701.46407434720254    0
 592    704.35818038538036  709.53469929978644    0
 593    766.08526638813976  698.88821361089265    0
 594    749.33124705240721  296.30853721577392    0
 595    824.75827922534961  331.59823126922589    0
 596    890.22179897526848  412.02584958332409    0
 597    896.8737500718413  571.8645286603454    0
 598    853.34736631254145  642.85786359851068    0
 599    1973.0941324108981  422.26779488209581    0
 600    67.962627603226338  1204.3113813737555    0
 601    1802.4211041126584  393.40057761839802    0
 602    197.5788958873392  1206.599422381601    0
 603    864.51274403578441  508.23249876109838    0
 604    835.04012013727549  565.23181409378219    0
 605    620.03464247330919  373.12776027718252    0
 606    789.27381895657379  379.4960213703942    0
 607    836.11783160809546  437.04795845275726    0
 608    847.54446542595713  464.95733117404541    0
 609    863.25984152270894  478.12670276307296    0
 610    907.22666031653478  531.3192464944317    0
 611    897.14317983264459  509.86538151341159    0
 612    895.64176918573276  473.78822293685408    0
 613    149.99999999999983  1217.0111770397918    137
 614    131.56988960989028  1225.0111770397918    0
 615    166.51419651509235  1209.0111770397918    0
 616    164.07027844540835  1225.0111770397918    0
 617    0  1195.3125    1
 618    1945.5004107510197  365.1768761493347    0
 619    1914.2632087375612  495.07557675508872    0
 620    85.736791262434878  1104.9244232449121    0
 621    1774.2791849457167  456.8027371832593    99
 622    1762.338555277265  446.56972066069551    0
 623    1775.2593660850746  484.47076569693706    0
 624    1737.9932002656931  449.53517080810246    0
 625    225.72081505428292  1143.1972628167409    132
 626    209.59647090406864  1120.6920171476731    0
 627    239.66490862027163  1155.1461837258757    0
 628    198.19363559208688  1042.5817601025494    0
 629    180.28832602171352  1000.2087118164424    99
 630    150.00000000000023  946.53427750566277    137
 631    500.81789572192775  478.32220978120154    0
 632    507.65699411553339  416.76567994960567    0
 633    509.09498876885704  439.18294696182534    0
 634    555.25333074776279  348.43421993303775    0
 635    648.02936774317732  306.49937820193662    0
 636    707.88065987928428  290.56819929439894    0
 637    494.25483462015927  539.9087818624597    0
 638    508.09940391413352  557.59859785880315    0
 639    523.36771439977258  594.57522369548337    0
 640    574.140218287018  655.89340140163586    0
 641    545.67779671688311  627.78143381280177    0
 642    593.16721489926772  330.50016731267328    0
 643    625.83120821555531  686.12476347505913    0
 644    664.28692825717872  697.1497242202056    0
 645    724.14372667010355  698.89825971056257    0
 646    781.84383788567129  682.87980602995799    0
 647    788.81515307930283  310.16941097277447    0
 648    766.36545596460621  310.95221898149424    0
 649    727.48456917086753  301.53580748431511    0
 650    855.72768647619819  359.74069866246157    0
 651    834.74530633957033  351.71938874935    0
 652    872.5470247652612  398.16208221852065    0
 653    889.33964305358631  434.47186236622093    0
 654    894.12961876198187  549.56942982059184    0
 655    880.41202566733091  587.14894289675237    0
 656    821.90915236297155  670.47563613920079    0
 657    832.23308281442121  650.52524393870101    0
 658    859.50197443239256  621.25410263401193    0
 659    72.158494848632856  1235.1566831808839    0
 660    44.804293473613086  1200.6275898492302    0
 661    864.00639993491779  524.78714301711977    0
 662    852.32313377208663  555.60228424867819    0
 663    838.24034383970093  584.75587549486499    0
 664    787.23505698201325  621.98798485916768    0
 665    627.66508599741201  354.87380900727129    0
 666    690.64958854228041  350.32170022936867    0
 667    575.5168084547488  583.63586933465729    0
 668    557.10578019340028  454.47785634969796    0
 669    586.11286558630343  402.42569891773701    0
 670    600.27484512968135  372.13739959663434    0
 671    809.05216539452704  379.99343218563178    0
 672    749.67517610467326  358.4959347028319    0
 673    783.03675802569853  360.72025304301633    0
 674    821.79049756152369  410.60519683348224    0
 675    853.81508681027674  446.76647734144666    0
 676    891.99164776078078  454.40086681389829    0
 677    182.97090216556128  1219.7115025443115    0
 678    149.99999999999991  1291.5055885198958    137
 679    14.525942159266279  1181.0953987422411    0
 680    1912.413546596382  511.76315227203054    0
 681    1894.6595665603243  494.70395100783355    0
 682    87.586453403617867  1088.2368477279708    0
 683    105.34043343967625  1105.2960489921511    0
 684    1787.2961378985644  470.19296867338443    0
 685    1748.4681199736051  434.1144214013824    0
 686    227.84802511229179  1124.6442484820057    0
 687    261.18614213256393  1148.0575668934518    0
 688    180.84313779298037  1039.8991737935178    0
 689    165.14416301085686  1005.3714946610526    99
 690    150.00000000000023  978.53427750566277    137
 691    150.00000000000023  994.53427750566277    137
 692    167.17448574364269  986.53427750566277    0
 693    134.8558369891436  1015.697060350273    99
 694    124.49882608278122  1004.8900951436333    0
 695    120.09154621113797  979.36715366293345    0
 696    135.25695647051597  986.53427750566277    0
 697    502.29145647582823  498.33775662177163    0
 698    524.9828621779717  402.46826812777192    0
 699    547.84811657353498  369.64187166428655    0
 700    629.90805192662651  315.12558302789085    0
 701    687.5079593368597  300.03153705276043    0
 702    591.77888847159022  665.46788889404866    0
 703    535.88552444511356  610.2627323661186    0
 704    578.40447850161672  344.09631054066114    0
 705    684.35657144900426  697.09569852908419    0
 706    743.30102345158059  692.91566189281639    0
 707    798.37752399055262  671.50304373096708    0
 708    802.60056145734313  327.90536893310997    0
 709    859.38774374206434  383.00863971937133    0
 710    868.55733864903959  603.34338306370012    0
 711    860.6932914660315  541.03173377026849    0
 712    837.10092017963927  515.67914021022284    0
 713    810.54159219933752  602.98015596948403    0
 714    780.68318384445433  640.65622965422403    0
 715    718.07180944857998  648.87724245132222    0
 716    660.81228057944907  354.09359583596029    0
 717    706.09734313775448  337.96058040563003    0
 718    557.04783530828877  576.5416860656577    0
 719    630.85289355382724  633.07780163038922    0
 720    593.83599276916198  607.48748623981544    0
 721    551.18234703827386  435.6007976541394    0
 722    550.65855014902968  513.71695932288492    0
 723    541.35464570564795  466.44999766558459    0
 724    566.94293857322361  407.31899061678911    0
 725    738.16806527617632  342.40193564357048    0
 726    839.99619499288042  417.37370716881082    0
 727    149.99999999999989  1262.2583827798439    137
 728    23.05287953379516  1201.1116332893298    0
 729    1903.063900975704  525.6792180659312    0
 730    96.936099024297647  1074.3207819340705    0
 731    1800.7395249097258  493.73894450334677    0
 732    1717.6858516171219  424.47286261820551    0
 733    225.26920561253732  1092.4340342748956    0
 734    250.22713739944317  1115.9111530096313    0
 735    256.70180029221507  1170.6568166675295    0
 736    192.82055225157271  1019.882639216081    0
 737    167.90338790162113  962.53427750566277    0
 738    189.65553253763949  978.10018992003552    0
 739    134.7407721417394  967.9981782200972    0
 740    503.47168611247923  518.05105608711051    0
 741    609.00473878063826  675.12590105678862    0
 742    847.30145992914618  529.84029771174789    0
 743    807.28743930173187  622.12880187567202    0
 744    747.6380569365208  643.37005147790353    0
 745    703.37196651967531  662.11903323672391    0
 746    673.71777240565677  339.57779644890451    0
 747    611.24371214977532  635.7065675008688    0
 748    658.36456453754852  645.22687989251835    0
 749    574.79053149745323  603.67558958993061    0
 750    537.85163401437194  498.63673039694805    0
 751    555.30007257007742  543.43140719846826    0
 752    167.62404288500704  1247.6347799098178    0
 753    1881.5228979999652  533.2590117746447    0
 754    1896.141683407842  510.92959957354645    0
 755    113.48606416757384  1066.5536072812265    0
 756    103.858316592148  1089.0704004264494    0
 757    1748.5667368822856  401.85767054756394    0
 758    177.21735678040821  1015.993365880175    0
 759    108.58320282020432  949.41590294331797    0
 760    818.74292307853864  539.65713604825214    0
 761    735.60191922274157  658.61444520335249    0
 762    639.82307923786391  651.01250639300554    0
 763    671.02416479041312  659.95761892894257    0
 764    540.41362847934204  530.95527264264672    0
 765    1877.2494274083535  504.47477962997175    0
 766    122.64527391708886  1083.786625563027    0
 767    1875.1992383055581  383.56869004589447    0
 768    2000  585.9375    3
 769    1979.0222193185036  573.93541533826817    0
 770    0  1007.8125    1
 771    924.48254948334886  510.11225779124624    0
 772    479.68763534070462  429.81457804568987    0
 773    635.00422908686903  269.87758339445259    0
 774    478.5386887931586  566.47119011437781    0
 775    569.90134429515945  299.36322210331787    0
 776    608.62659587236567  720.9789082222494    0
 777    660.41117498348592  735.82515089527897    0
 778    789.42687139202826  792.54784407656234    99
 779    776.58851090897701  281.83095665649381    0
 780    731.71834194726489  270.96402409055571    0
 781    855.50171718891568  328.87797503543328    0
 782    904.3500455834461  375.81531603690945    0
 783    924.03369657004976  557.20519450044719    0
 784    852.60250620535373  673.71242493420027    0
 785    609.04897720804775  394.69497016001617    0
 786    765.19159537356154  377.07199770128898    0
 787    798.59572162555014  402.30087778690211    0
 788    498.02290552348359  387.44430363815559    0
 789    524.4103650874639  349.56126965452938    0
 790    685.58366278513085  269.22803311930971    0
 791    511.76154866131105  635.24319617479136    0
 792    743.63267913045911  727.64144171450766    0
 793    808.95653639179363  704.57983735320761    0
 794    818.405337629771  301.39560050830869    0
 795    814.37407952467208  578.64352953013224    0
 796    644.66752372194549  372.70289919636321    0
 797    568.39403893068175  485.67679347527547    0
 798    584.36060202219073  435.55767796347766    0
 799    718.15993034825249  368.86838610054582    0
 800    132.70095508342052  1247.634779909818    0
 801    0  1265.625    1
 802    470.2260597808413  510.14948254834633    0
 803    762.66898122039584  623.8500447996305    0
 804    618.0503353458945  612.02895727066482    0
 805    574.37286016803739  559.02589721226866    0
 806    211.99534645686259  1237.3539234058674    0
 807    689.09615590391729  631.62134484256171    0
 808    1875.4353231013492  355.77015845772371    0
 809    929.37769298135663  468.02553580905368    0
 810    630.12740756271933  292.23930342559436    0
 811    571.8506788670918  322.16738851334577    0
 812    552.19693753539138  687.97614632461284    0
 813    584.94053348253249  697.85550997316534    0
 814    674.37712269379085  717.69279816645178    0
 815    881.49868316231073  377.09794865285727    0
 816    901.31112631854739  614.88371117925738    0
 817    496.39478074770039  608.86758105951117    0
 818    531.52976516801471  644.28514116413521    0
 819    723.06354839494691  720.6093713343397    0
 820    787.22797635855932  703.94043769073687    0
 821    34.726184311615725  1236.7111882546399    0
 822    466.51106429037861  475.96287788551729    0
 823    910.79987971670653  460.89706726026475    0
 824    606.78995915870837  696.88446449568221    0
 825    573.29710320457787  678.48136523253788    0
 826    883.72267921848174  639.83280249393988    0
 827    901.30646286741342  593.14574597322985    0
 828    516.00872366859801  613.28534539625628    0
 829    537.20139686459595  668.33588980360332    0
 830    721.69933545109882  758.19862124595534    0
 831    797.03307685648997  740.25397222126094    0
 832    770.84240602123703  725.7458412274292    0
 833    482.80014872748501  489.71070668171751    0
 834    906.69607486499501  442.30315344586626    0
 835    879.57746066345896  620.15945601271426    0
 836    918.02435508418228  578.56127992957568    0
 837    511.62445572496455  661.67331266543533    0
 838    699.79034333182847  738.58410578458222    0
 839    904.58593988997438  423.8307192940706    0
 840    912.31498809874483  399.78446625482411    0
 841    936.24099837257404  429.57145165455654    0
 842    925.50448279369425  604.00953786917842    0
 843    926.52885819548794  447.67754898591249    0
 844    956.40584820210142  577.83784275551011    0
 845    959.09987049762867  453.49084058408323    0
 846    1830.421907469447  382.98882296020815    0
 847    1944.2639363613969  631.17284939576132    0
 848    53.273961362711354  1222.0175030297939    0
 849    1668.2700438697202  492.94221709553079    99
 850    331.72995613027945  1107.0577829044691    132
 851    231.73004839818751  1022.6579049007396    0
 852    185.45604372400157  924.87692406380813    0
 853    177.0129894861773  1276.8819856498699    0
 854    19.619170609701477  996.09375    0
 855    775.19180631009385  398.55997933211938    0
 856    797.96059380881081  440.61965123344066    0
 857    776.60924124557334  585.16647177610673    0
 858    632.70026994578257  393.16071947123521    0
 859    680.15197481096322  387.17996784653707    0
 860    604.81643610042386  420.02720759514978    0
 861    740.04726585752599  382.30643662888519    0
 862    122.80756705750672  1276.8819856498699    0
 863    726.39995259448858  611.46903723465834    0
 864    612.6328897001888  574.089755006166    0
 865    587.80762681924728  523.13385309636192    0
 866    246.11456308627751  1209.0920344259382    0
 867    659.20102888968722  601.41771074328403    0
 868    597.36236519558884  273.38099472960823    0
 869    535.38902025217317  313.79878690145733    0
 870    890.92837944179337  340.89619634767053    0
 871    515.10021669502214  700.75512544518347    0
 872    467.91093644224975  648.23115697409071    0
 873    948.03793816245582  374.60578974906451    0
 874    1001.9268713920283  720.10466225838047    99
 875    1813.7066039615327  342.55728469010353    0
 876    1709.9663480301651  451.4861965886634    0
 877    280.23347020112203  1087.1453810653204    0
 878    296.3801225013807  1166.7856020704382    0
 879    219.63481683287438  949.3353762093717    0
 880    192.53444043366258  951.0957251294567    0
 881    27.308936359807181  960.9375    0
 882    783.57130343484721  421.21650064689237    0
 883    656.85340912496997  393.56046681808914    0
 884    711.66565266935697  403.98960865451011    0
 885    620.31508273532847  461.67797911130424    0
 886    931.42111036266022  649.52344841201693    0
 887    284.42258661611226  1146.8238446753335    0
 888    745.2440579937396  422.5139671683329    0
 889    678.74358199883443  427.76510605982719    0
 890    301.44163010856619  1117.3833485936896    132
 891    765.35214729808911  449.76483822871131    0
 892    644.2409585963801  425.7390617071527    0
 893    312.62886402918008  1143.4899516886035    0
 894    1896.0671886703162  660.51880897551541    0
 895    1819.7116739782866  599.79128818355775    132
 896    1916.3067668722611  351.77076396399099    0
 897    823.41027312849246  486.42419653345411    0
 898    1825.2166205782996  509.43141003659207    0
 899    1772.6465046945527  531.31329521045518    0
 900    1775.6765807744564  398.79229607571142    0
 901    463.87036779885403  539.86182356225936    0
 902    1850  334.98882296020815    135
 903    767.50796444023194  762.65961144101163    0
 904    681.73845903519373  780.7908668262512    0
 905    256.25  1350    134
 906    116.74300498123574  1320.7527942599479    0
 907    1698.5583698914336  482.61665140631033    99
 908    1669.0779215678288  425.19200315692797    0
 909    343.09424738491271  1182.0541724312063    0
 910    1815.6510285127151  637.46572249433723    0
 911    807.23089391924486  511.82670462153487    0
 912    1822.0697277267157  541.46572249433723    0
 913    1799.7196405224838  522.26566965111476    0
 914    1757.0437990041341  355.41693426071902    0
 915    427.1255308997317  577.46490122697401    0
 916    1884.2795390351916  318.98882296020815    0
 917    203.125  1350    134
 918    775.02795583934665  541.44360182062962    0
 919    786.41313835711321  480.71370494585261    0
 920    1792.4739549740152  569.47964011415115    0
 921    1783.7169485893648  369.64866129103609    0
 922    417.82907136403037  514.47731034647438    0
 923    181.07785186751866  1316.6519227084234    0
 924    1783.0572681974315  338.77372061642529    0
 925    1803.7704964104234  297.01465079717877    0
 926    1742.4806863646388  304.00344704399214    0
 927    193.54228165535721  1093.3125981290548    0
 928    75.718515154131936  960.81735301724916    0
 929    55.779303794612574  1292.2077759692174    0
 930    835.10021934860174  776.97738454591229    99
 931    959.96203755406691  492.91086792057581    0
 932    2000  632.8125    3
 933    1971.7631067787931  644.53125    0
 934    1979.3958263499928  621.09375    0
 935    2000  703.125    3
 936    1939.0577793570653  676.87372609070701    0
 937    1973.8594464429509  679.35847141200782    0
 938    91.558114208064936  1263.2114101653938    0
 939    540.59172710791313  240.88232697434515    0
 940    681.25  150    136
 941    470.65835819199799  313.49364599519942    0
 942    893.12349464730164  276.20204521361632    0
 943    552.20335365410051  747.15631063733053    0
 944    980.35938893341131  410.29152570175171    0
 945    715.19885663643458  465.72815301806884    0
 946    659.4349173824977  461.78787801221387    0
 947    2000  281.25    3
 948    743.75352343545478  808.1183036072124    99
 949    1727.8065845767906  518.82575347356772    0
 950    1677.3906010168396  457.20407583088689    0
 951    1814.1932241967581  685.46572249433723    0
 952    1770.6889349247215  654.33389766559185    0
 953    1850  226.49441148010408    135
 954    0  843.75    1
 955    839.28608172321935  734.54663271837831    0
 956    1954.8167095276003  726.5625    0
 957    96.032460833585631  1295.5352567604875    0
 958    540.48927815617924  277.51885779703275    0
 959    610.37981967708345  209.27471864394698    0
 960    577.93568890353265  728.72371226336963    0
 961    606.73347956573446  854.82968219916256    99
 962    595.60352343707973  780.56618732109757    0
 963    599.68849802067314  750.24221162599224    0
 964    630.17407896184523  743.55697341361531    0
 965    652.32688552394416  767.20017152053003    0
 966    748.57516961916986  483.82226056531704    0
 967    1952.9885434145608  310.38080913429593    0
 968    1693.3009848141476  516.7806495227278    0
 969    1624.1331727488334  462.64538382717541    0
 970    1888.7256867343119  264.74161722015612    0
 971    73.264107694602785  900.67555441226762    0
 972    72.419999646082402  1336.040890512179    0
 973    503.13154890493524  290.76554546232751    0
 974    652.40682752230782  839.25922266851251    99
 975    701.91372842367718  530.06379888131221    0
 976    1707.1660252932443  574.96248182582417    0
 977    1649.6649989413506  537.5387406585595    0
 978    37.696461170681665  921.20546972061493    0
 979    653.52454257939905  803.22841276263875    0
 980    620.43040997506159  820.23453796488957    0
 981    573.83309936233218  821.79472318985017    0
 982    150.00000000000023  914.53427750566277    137
 983    113.27023726874818  898.53427750566277    0
 984    480.80150738424311  684.1100329885852    0
 985    243.06139093949224  880.48826530558392    0
 986    967.06221082813306  621.7487226222355    0
 987    274.32972998504715  1277.8810332467269    0
 988    354.12613965379342  1142.0232798154211    0
 989    1700.9019296060033  369.16312394370095    0
 990    733.95601032023546  564.81904308135211    0
 991    229.6875  1308.4769802447031    0
 992    960.64338397053655  535.47734073510628    0
 993    1024.8310910630444  471.77265567565695    0
 994    639.73581888711954  511.27613947193845    0
 995    107.23860486852352  1365.0921126676703    0
 996    468.75  150    136
 997    1749.5204604725204  567.56065736708763    0
 998    0  890.625    1
 999    150.00000000000017  818.53427750566277    137
1000    470.37790250983375  749.24914098825229    0
1001    978.4209951352625  673.07960887438003    0
1002    414.92224224571657  1180.3132968329746    0
1003    1034.4733619423832  582.14078504197892    0
1004    1002.5555724486118  513.51777777334848    0
1005    449.24535816074888  248.337045422062    0
1006    38.55666651532875  881.62069993140722    0
1007    114.21055739550053  850.53427750566277    0
1008    414.92207945342693  687.52410754525818    0
1009    996.51613212860207  560.45807569728561    0
1010    73.511703768663679  859.08823065587694    0
1011    79.691320192284323  787.3927133374209    0
1012    769.061574576147  214.84091750908078    0
1013    899.30331902811747  685.3769699882115    0
1014    302.99108108130469  1225.6545194810092    0
1015    229.6875  1424.0234375    0
1016    396.65368229098692  431.06144997003219    0
1017    1001.9268713920281  878.58156179250943    132
1018    836.32344830763941  855.33832959405549    0
1019    1901.1794264751909  711.76082823216154    0
1020    1023.3128652731683  338.90746794975968    0
1021    1779.0879125519973  760.78042937804662    0
1022    2000  843.75    3
1023    659.71578697231962  224.53250099261066    0
1024    1486.5400877394407  554.89561123085343    99
1025    757.69339182629358  961.84297528082811    132
1026    655.3629601396251  922.70335178094217    0
1027    1590.3031368278839  592.83179824103627    0
1028    561.06013160916109  870.4001417298125    99
1029    0  1406.25    1
1030    125  1500    2
1031    1062.5035234354548  699.45353087993954    99
1032    1021.1851524439581  636.69430740199721    0
1033    1071.19307010739  523.32751989223141    0
1034    820.23730268656504  243.00874118118764    0
1035    941.35021934860174  740.75579363682129    99
1036    153.01260575596609  1426.6610771974033    0
1037    437.50951805566291  386.41013129710359    0
1038    873.74552603068219  815.56414404504892    0
1039    782.39883011753523  846.70506310634903    0
1040    1850  781.46572249433723    135
1041    1764.9311191326753  708.34282724674949    0
1042    1947.0145742031773  796.875    0
1043    710.3455191851275  225.063542220486    0
1044    1531.5168650856353  460.88650966522204    0
1045    691.66471329146873  879.64288082308497    0
1046    523.33231295490725  834.50468044563422    0
1047    600.31801737832188  910.78379988438519    0
1048    55.799606458291947  1391.3519300832165    0
1049    734.57211881378214  855.95899015193879    0
1050    1730.1817153705251  677.32686123269423    0
1051    453.84669591314702  906.95017662618102    99
1052    551.97048220881561  918.50997692376518    0
1053    819.23347956573434  940.86339991510965    132
1054    736.91564358754238  910.91367005993629    0
1055    1696.17779151473  750.39799122233842    0
1056    1668.2700438697202  651.41911662965992    132
1057    469.651912814936  852.56356317072346    0
1058    513.45991226055912  1045.1043887691467    132
1059    499.63530978342862  940.51486094496818    0
1060    574.03656430398564  1024.4532573907059    132
1061    584.51086150626588  967.00202496999714    0
1062    336.75426252542513  1022.6244263106504    0
1063    318.13697987766784  561.37089423588316    0
1064    1722  150    136
1065    1921.3548885743171  192.97553717014955    0
1066    1947.8382213351892  249.57011622767322    0
1067    238.45652391873972  786.53427750566277    0
1068    380.84630561927651  1257.0215613641808    0
1069    1116.2848781200694  758.04084926856319    0
1070    1086.2270452778755  623.64214637141697    0
1071    995.13157403321634  799.34311202544495    0
1072    343.11571467698059  341.05720554712946    0
1073    925.96819426980096  794.80650875858498    0
1074    941.35021934860151  899.23269317095037    132
1075    1584.5632033162869  369.46673454412291    0
1076    62.5  1500    2
1077    0  1468    1
1078    32  1500    2
1079    47.25  1452.75    0
1080    93.75  1463.8280423280423    0
1081    696.15330408685281  982.82255064654657    132
1082    404.56481143672221  863.13856519604019    0
1083    441.57589603720862  971.70441335746727    0
1084    638.53394090484369  1114.4742400669763    0
1085    531.68340997933819  987.05115234298466    0
1086    1764.2581143964267  222.74372837372141    0
1087    1050.7690911809545  764.20385161965135    0
1088    888.52876060271285  866.96477471872197    0
1089    945.27094390603281  1009.9048072256618    0
1090    565.52772407195016  1098.6653147296477    0
1091    947.41579991319657  310.42853535031679    0
1092    1052.3859535255147  405.01652328213243    0
1093    1850  971.59929187075295    135
1094    1244.2334795657343  637.50013674461695    99
1095    401.05133522538677  300.27235464856682    0
1096    324.86606001873287  881.61510932708381    0
1097    427.80810385463491  800.60976517543611    0
1098    687.21231432145862  1057.3442303687625    0
1099    1062.5035234354548  857.9304304140685    132
1100    1127.0009000363127  947.95141309033909    0
1101    823.2165609201403  1053.295688255406    0
1102    871.83257753978091  994.40550427160713    0
1103    993.41803115999267  952.79361913145135    0
1104    576.58176225942225  1224.0945489869928    0
1105    483.22774316039113  1126.5824013573224    0
1106    893.75  150    136
1107    1090.1402547566754  459.66529150344564    0
1108    1147.360504755869  323.80178936425636    0
1109    1925.3448073168049  874.75323597498937    0
1110    1183.6568275223078  658.15126812305789    99
1111    1179.7361029648764  547.47915406834647    0
1112    1244.2334795657343  795.97703627874603    132
1113    1171.9223952678076  722.90158886276981    0
1114    1231.8416366937142  700.32205300627038    0
1115    316.60424463308829  241.8554559985142    0
1116    349.58637553914286  807.1174901344159    0
1117    745.39905780934544  1026.5281785318191    0
1118    757.51023758735414  1166.5460249318669    0
1119    895.59715885403909  1063.5362901773906    0
1120    1050.4479033954042  921.73860031616653    0
1121    1063.9504191087283  1061.1059157497625    0
1122    962.3882552393959  226.50398969112564    0
1123    1125.765230877669  394.68791396723913    0
1124    1131.8450321291855  506.72813800195252    0
1125    1148.8849652629965  449.61840482868087    0
1126    1119.8096546610197  569.38883580684262    0
1127    1223.7107658937846  385.79423262602978    0
1128    1183.6568275223078  816.62816765718685    132
1129    1248.1542041231658  906.64915033345744    0
1130    1175.1479872902723  890.84022499612854    0
1131    1316.1853261231213  684.32601564513004    0
1132    383.39101789511358  235.55546195855291    0
1133    745.49563184831652  1097.0525411141455    0
1134    847.43501177866392  1143.0330391772411    0
1135    1051.7125871017261  991.9538213586037    0
1136    980.20338222789803  1092.0792434426437    0
1137    1198.5182065177992  959.3928680635405    0
1138    1116.3688906844429  1016.1705190416279    0
1139    1310.7073267615183  1015.2441243156179    0
1140    1164.5961218684288  1125.4705614718705    0
1141    150.00000000000014  667.40070812924705    137
1142    0  656.25    1
1143    375  1500    2
1144    1486.5400877394404  713.37251076498251    132
1145    1721.9736164882647  880.63778703372418    0
1146    2000  93.75    3
1147    1875  0    4
1148    1642.5152966873493  286.06062682651884    0
1149    468.75  1350    134
1150    493.62008755153602  1210.0758838595427    0
1151    1106.25  150    136
1152    1425.9634356960139  734.02364214342333    132
1153    1378.2672888152001  693.28626664594924    0
1154    1490.4608122968718  824.04462481969392    0
1155    1438.360833481752  671.21802029534263    0
1156    1417.4545954639784  808.23569948236513    0
1157    1513.3386692375705  634.13406099791803    0
1158    1427.7698734629987  937.07655631080604    0
1159    1327.9381463153729  843.16808137186047    0
1160    1059.7711900256647  1178.5120463163498    0
1161    86.806806186215198  710.96749281745497    0
1162    240.02662386889881  623.83392344103925    0
1163    77.824209028640936  623.83392344103925    0
1164    309.375  1410.8408744228232    0
1165    1921.3769922034344  112.21364587582519    0
1166    523.39014444154259  1286.3889590115821    0
1167    1053.125  223.61545266388541    0
1168    78.346550638393822  543.13014023723758    0
1169    385.40253553567214  1423.6122887053607    0
1170    1855.3556789321237  73.809279822020628    0
1171    0  468.75    1
1172    150.00000000000009  493.13356937641572    137
1173    1786  150    136
1174    1754  78.359999999999999    0
1175    80.10022992790033  449.56678468820786    0
1176    265.59663500065722  449.5667846882078    0
1177    226.63836872041844  536.70035406462353    0
1178    1625  0    4
1179    150.00000000000003  278    137
1180    1687.5  0    4
1181    1656.25  84.661666666666662    0
1182    79.186490426888767  370.24278825698997    0
1183    1572.7145721925133  67.397678253119423    0
1184    0  281.25    1
1185    1509.5  150    136
1186    1375  0    4
1187    1551.75  241.74502329391672    0
1188    1467.25  77.375    0
1189    1467.25  225.05767781583046    0
1190    1318.75  150    136
1191    1491.3436392740812  325.34002848030252    0
1192    1312.5  0    4
1193    1343.75  73.828125    0
1194    1281.25  56.755332341269842    0
1195    1125  0    4
1196    1196.6574016808511  66.351850420212742    0
1197    1371.875  229.32419670858462    0
1198    625  0    4
1199    375  0    4
1200    1382.2156872516846  447.22001383926113    0
1201    875  0    4
1202    256.25  150    136
1203    827.19327293449646  1249.3329786026159    0
1204    1143.597686810662  232.92886736218827    0
1205    245.05889320825329  314.11925227625352    0
1206    1265.625  243.03040982994895    0
1207    1332.1557343432853  340.09800414862679    0
1208    681.25  1350    134
1209    625  1500    2
1210    1708.8648350168278  1034.6660765589609    0
1211    1169  1350    134
1212    946.56660798650523  1202.8848264450105    0
1213    893.75  1350    134
1214    875  1500    2
1215    1155.6805022822541  1237.9533384380557    0
1216    1308.6020115946262  1193.4794925332194    0
1217    1581.3432157620903  948.35187751899127    0
1218    1455.9983586191327  1106.0904192609787    0
1219    1713.0409577656262  1214.774819154336    0
# Generated by C:\Users\lukem\Python\PATH\modflow_exe\triangle.exe -a -q32 -A -p -V -D -e -n _triangle.0
