0  2  0  1
371  1
   0       0   186       1
   1       1  1078       2
   2       2   170       3
   3       3  1147       4
   4       4     5       5
   5       5     6       6
   6       6     7       7
   7       7     8       8
   8       8     9       9
   9       9    10      10
  10      10    11      11
  11      11    12      12
  12      12    13      13
  13      13    14      14
  14      14    15      15
  15      15    16      16
  16      16    17      17
  17      18    17      18
  18      19    18      19
  19      19    20      20
  20      20    21      21
  21      21    22      22
  22      22    23      23
  23      24    23      24
  24      24    25      25
  25      26    25      26
  26      26    27      27
  27      27    28      28
  28      28    29      29
  29      30    29      30
  30      30    31      31
  31      31    32      32
  32      32    33      33
  33      34    33      34
  34      35    34      35
  35      35    36      36
  36      36    37      37
  37      37    38      38
  38      39    38      39
  39      39    40      40
  40      40    41      41
  41      41    42      42
  42      42    43      43
  43      44    43      44
  44      44    45      45
  45      46    45      46
  46      46    47      47
  47      47    48      48
  48      48    49      49
  49      50    49      50
  50      50    51      51
  51      52    51      52
  52      52    53      53
  53      53    54      54
  54      55    54      55
  55      55    56      56
  56      56    57      57
  57      58    57      58
  58      58    59      59
  59      60    59      60
  60      61    60      61
  61      62    61      62
  62      62    63      63
  63      64    63      64
  64      65    64      65
  65      66    65      66
  66      66     4      67
  67      67    68      68
  68      69    68      69
  69      69    70      70
  70      70    71      71
  71      71    72      72
  72      72    73      73
  73      73    74      74
  74      74    75      75
  75      75    76      76
  76      77    76      77
  77      77    78      78
  78      79    78      79
  79      79    80      80
  80      80    81      81
  81      81    82      82
  82      82    83      83
  83      83    84      84
  84      85    84      85
  85      85    86      86
  86      87    86      87
  87      87    88      88
  88      88    89      89
  89      89    90      90
  90      90    91      91
  91      91    92      92
  92      92    93      93
  93      93    94      94
  94      94    95      95
  95      96    95      96
  96      96    97      97
  97      97    98      98
  98      98   138      99
  99      99   100     100
 100     100   101     101
 101     102   101     102
 102     102   103     103
 103     104   103     104
 104     104   105     105
 105     105   106     106
 106     106   107     107
 107     108   107     108
 108     108   109     109
 109     110   109     110
 110     110   111     111
 111     112   111     112
 112     112   113     113
 113     114   113     114
 114     114   115     115
 115     115   116     116
 116     117   116     117
 117     117   118     118
 118     118   119     119
 119     120   119     120
 120     121   120     121
 121     121   122     122
 122     122   123     123
 123     124   123     124
 124     124   125     125
 125     126   125     126
 126     126   127     127
 127     128   127     128
 128     128   129     129
 129     130   129     130
 130     130   131     131
 131     435   132     132
 132     132    67     133
 133     198   134     134
 134     140   131     132
 135     567   137     135
 136     512    99      99
 137     224   138     135
 138     953   135     135
 139     209  1151     136
 140     195  1110      99
 141    1172   148     137
 142     140   264     132
 143     226   140     137
 144     150   727     137
 145     141   954       1
 146     142   199       2
 147     143   935       3
 148     144  1201       4
 149     145   902     135
 150     146  1106     136
 151    1051   201      99
 152     982   630     137
 153     149  1074     132
 154     150   613     137
 155     151  1171       1
 156     152   462       1
 157     153  1209       2
 158     154   190       2
 159     155   194       3
 160     156   947       3
 161     157  1186       4
 162     158  1199       4
 163     175  1202     136
 164     261   138      99
 165     161  1028      99
 166     162  1141     137
 167     163  1093     135
 168    1213   207     134
 169     165  1081     132
 170     166  1152     132
 171     167   185     137
 172     168  1142       1
 173     169  1029       1
 174     170   155       3
 175     171  1146       3
 176     172  1180       4
 177     173     0       4
 178     174   940     136
 179     996   159     136
 180     176   197     135
 181    1024   160      99
 182     178   948      99
 183     179   134     135
 184    1211   164     134
 185    1149   196     134
 186     182  1058     132
 187     183  1128     132
 188     895   137     132
 189     185   212     137
 190     186  1184       1
 191     187  1179     137
 192     188   550       1
 193     189  1143       2
 194     190     2       2
 195     191   502       3
 196     192  1185     136
 197     193  1198       4
 198     194  1022       3
 199    1035   147      99
 200     917   133     134
 201     197   206     135
 202     198   180     134
 203     199   154       2
 204     200  1214       2
 205     201   578      99
 206     202   528       1
 207    1064  1173     136
 208     204   560       3
 209     205  1195       4
 210     206   213     135
 211    1208   181     134
 212     208   470       3
 213     209  1190     136
 214     210   532     135
 215     211   579     137
 216     212   140     137
 217     213   138     135
 218     214   500     135
 219     849   177      99
 220     562   215      99
 221     217   501     137
 222     890   850     132
 223     563   218     132
 224     220   214     135
 225     515   216      99
 226     222   217     137
 227     517   219     132
 228     224   220     135
 229     225   221      99
 230     226   222     137
 231     227   223     132
 232     237   510       1
 233     240   801       1
 234     261   225      99
 235     264   227     132
 236     373   509       1
 237     374   617       1
 238     377   156       3
 239     415   137     132
 240     435   415     132
 241     445   210     135
 242     447   211     137
 243     462   374       1
 244     464   204       3
 245     470   464       3
 246     471   932       3
 247     495   693      99
 248     500   445     135
 249     501   447     137
 250     502   208       3
 251     508   768       3
 252     509   152       1
 253     510   373       1
 254     512   495      99
 255     515   221      99
 256     517   223     132
 257     528   237       1
 258     532   137     135
 259     536  1040     135
 260     543   999     137
 261     544   574     137
 262     550   770       1
 263     556   536     135
 264     557  1056     132
 265     560   377       3
 266     562   621      99
 267     563   625     132
 268     567   556     135
 269     568   557     132
 270     574   139     137
 271     578   580      99
 272     579   544     137
 273     580   629      99
 274     613   167     137
 275     617   240       1
 276     621   216      99
 277     625   219     132
 278     629   689      99
 279     630   690     137
 280     678   133     137
 281     689   139      99
 282     690   691     137
 283     691   139     137
 284     693   139      99
 285     727   678     137
 286     768   191       3
 287     770   202       1
 288     778   930      99
 289     801   169       1
 290     849   907      99
 291     850   182     132
 292     874  1031      99
 293     890   218     132
 294     895   568     132
 295     902   176     135
 296     905   196     134
 297     907   215      99
 298     917   905     134
 299     930   147      99
 300     932   508       3
 301     935   471       3
 302     940   159     136
 303     947   171       3
 304     948   778      99
 305     953   145     135
 306     954   998       1
 307     961   974      99
 308     974   178      99
 309     982   543     137
 310     996   175     136
 311     998   188       1
 312     999   162     137
 313    1017  1099     132
 314    1022   143       3
 315    1024   177      99
 316    1025  1053     132
 317    1028   961      99
 318    1029  1077       1
 319    1030   189       2
 320    1031   195      99
 321    1035   874      99
 322    1040   163     135
 323    1051   161      99
 324    1053   149     132
 325    1056   184     132
 326    1058  1060     132
 327    1060   165     132
 328    1064   203     136
 329    1074  1017     132
 330    1076  1030       2
 331    1077     1       1
 332    1078  1076       2
 333    1081  1025     132
 334    1093   179     135
 335    1094   160      99
 336    1099   183     132
 337    1106   174     136
 338    1110  1094      99
 339    1112   166     132
 340    1128  1112     132
 341    1141   148     137
 342    1142   141       1
 343    1143   153       2
 344    1144   184     132
 345    1146     3       3
 346    1147   172       4
 347    1149   181     134
 348    1151   146     136
 349    1152  1144     132
 350    1171   168       1
 351    1172   187     137
 352    1173   135     136
 353    1178   157       4
 354    1179   136     137
 355    1180  1178       4
 356    1184   151       1
 357    1185   203     136
 358    1186  1192       4
 359    1190   192     136
 360    1192   205       4
 361    1195   144       4
 362    1198   158       4
 363    1199   173       4
 364    1201   193       4
 365    1202   136     136
 366    1208   207     134
 367    1209   200       2
 368    1211   180     134
 369    1213   164     134
 370    1214   142       2
0
3
   0   700.0220647887129  494.7463270915178  0  5000
   1   1000.0000000000001  800  0  12000
   2   1134.1238839090577  581.63176136202526  0  60000
# Generated by C:\Users\lukem\Python\PATH\modflow_exe\triangle.exe -a -q32 -A -p -V -D -e -n _triangle.0
