0  2  0  1
479  1
   0       0   191       1
   1       1  1538       2
   2       2   176       3
   3       3  1574       4
   4       4     5       5
   5       5     6       6
   6       6     7       7
   7       7     8       8
   8       8     9       9
   9       9    10      10
  10      10    11      11
  11      11    12      12
  12      12    13      13
  13      13    14      14
  14      14    15      15
  15      15    16      16
  16      17    16      17
  17      17    18      18
  18      18    19      19
  19      19    20      20
  20      21    20      21
  21      21    22      22
  22      22    23      23
  23      24    23      24
  24      24    25      25
  25      25    26      26
  26      26    27      27
  27      27    28      28
  28      28    29      29
  29      30    29      30
  30      30    31      31
  31      31    32      32
  32      33    32      33
  33      33    34      34
  34      34    35      35
  35      36    35      36
  36      37    36      37
  37      37    38      38
  38      39    38      39
  39      39    40      40
  40      40    41      41
  41      41    42      42
  42      43    42      43
  43      43    44      44
  44      45    44      45
  45      45    46      46
  46      47    46      47
  47      47    48      48
  48      49    48      49
  49      49    50      50
  50      51    50      51
  51      51    52      52
  52      52    53      53
  53      53    54      54
  54      54    55      55
  55      55    56      56
  56      56    57      57
  57      57    58      58
  58      58    59      59
  59      60    59      60
  60      60    61      61
  61      62    61      62
  62      62    63      63
  63      64    63      64
  64      65    64      65
  65      65    66      66
  66      67    66      67
  67      67     4      68
  68     636    68      69
  69      69    70      70
  70     521   531      71
  71     250    72      72
  72     289   283      73
  73     528    73      74
  74     598    74      75
  75      75   622      76
  76      76    77      77
  77      78    77      78
  78      78    79      79
  79      79    80      80
  80      80    81      81
  81      81    82      82
  82      82    83      83
  83      83    84      84
  84      85    84      85
  85      85    86      86
  86      86    87      87
  87      87   548      88
  88      88   515      89
  89      89   142      90
  90      90    91      91
  91      92    91      92
  92      92    93      93
  93      93    94      94
  94      94    95      95
  95      95    96      96
  96      96    97      97
  97      97    98      98
  98      98    99      99
  99      99   100     100
 100     101   100     101
 101    1072   102     102
 102     144   103     103
 103     103   104     104
 104     105   104     105
 105     105   106     106
 106     107   106     107
 107     107   108     108
 108     109   108     109
 109     109   110     110
 110     111   110     111
 111     111   112     112
 112     113   112     113
 113     114   113     114
 114     114   115     115
 115     115   116     116
 116     116   117     117
 117     117   118     118
 118     118   119     119
 119     120   119     120
 120     120   121     121
 121     121   122     122
 122     123   122     123
 123     124   123     124
 124     125   124     125
 125     125   126     126
 126     581   127     127
 127     143   128     128
 128     129   582     129
 129     129   654     130
 130     130   131     131
 131     131   132     132
 132     133   132     133
 133     133   134     134
 134     135   134     135
 135    1659   221     136
 136      68   136     137
 137     203  1532     138
 138     141    72      73
 139     195   151     139
 140     457    90      90
 141     232   142     139
 142     456   230     139
 143     206  1612     140
 144     143   127     128
 145     187   568     141
 146     144   690     103
 147     192  1638     141
 148     231   143     141
 149     145  1570       1
 150     146  1716       2
 151     147  1205       3
 152     148  1611       4
 153     734   880     102
 154     213   138     138
 155     168  1343     139
 156     152   906     139
 157    1344   139     139
 158     218  1576     140
 159    1012   137     141
 160     156  1422     103
 161     687   144     141
 162     158   974     141
 163     159   173       1
 164     160  1080       1
 165     161  1648       2
 166     162   175       2
 167     163   177       3
 168     164  1432       3
 169     165  1712       4
 170     166  1693       4
 171     167  1522     102
 172     168  1569     139
 173     169   696     139
 174     181   140     140
 175     171  1352     103
 176     172   856     141
 177     173  1649       1
 178     174  1615       2
 179     175     2       2
 180     176   163       3
 181     177  1568       3
 182     178  1573       3
 183     179  1623       4
 184     180     0       4
 185     181  1624     140
 186     748   794      69
 187    1715   150     138
 188     184   853     139
 189     971   153     139
 190     225  1706     140
 191     187   155     141
 192    1457   593     136
 193     189  1591     141
 194     190  1018     141
 195     191   159       1
 196     192   140     141
 197     193  1398       1
 198     194   227     138
 199     195   138     139
 200     196  1041       3
 201     197  1363     102
 202     966   217     139
 203     257   418     139
 204     200  1618       4
 205     201  1279     103
 206     202   220     141
 207     918   137     138
 208     204  1714       2
 209     205  1585      69
 210    1508   139     140
 211     207   560     139
 212     208   711     139
 213     209   148       4
 214     210   157     141
 215     211  1496       1
 216     212   903     141
 217     213   194     138
 218     214  1005       1
 219     215   162       2
 220     216  1351     102
 221     673   228     139
 222    1577   154     140
 223     219  1410     138
 224     220   648     141
 225    1507   894     136
 226    1709   183     138
 227     223   499     139
 228     618   208     139
 229    1702   186     140
 230     226   702     141
 231     227  1717     138
 232     228   558     139
 233     229   485     139
 234     230   224     139
 235     231   226     141
 236     232   229     139
 237     233   488     139
 238     234   458      89
 239     426   236     139
 240     376   238     139
 241     237   461      72
 242     370   239     139
 243     239   310     139
 244     240   415      72
 245     241   300     139
 246     363   240      72
 247     243   253     139
 248     244   246     139
 249     315   242      72
 250     246   141     139
 251     247   268      72
 252     248   255      72
 253     250   248      72
 254     253   244     139
 255     255   247      72
 256     257   466     139
 257     406    73      73
 258     282   290     139
 259     378   259     139
 260     379   399      73
 261     347   261     139
 262     265   344      73
 263     268   245      72
 264     346   264     139
 265     332   265      73
 266     278   272     139
 267     279   273      73
 268     282   278     139
 269     283   279      73
 270     289   141      73
 271     290   141     139
 272     300   243     139
 273     310   241     139
 274     315   317      72
 275     317   245      72
 276     332   273      73
 277     344   262      73
 278     346   272     139
 279     347   264     139
 280     363   242      72
 281     370   238     139
 282     376   236     139
 283     378   391     139
 284     379   262      73
 285     391   261     139
 286     399   258      73
 287     408   409      73
 288     408   406      73
 289     409   258      73
 290     415   237      72
 291     418   432     139
 292     426   235     139
 293     432   259     139
 294     456   142     139
 295     457   142      90
 296     458   469      89
 297     461    71      72
 298     466   199     139
 299     469    89      89
 300     485   223     139
 301     488   235     139
 302     499   207     139
 303     515   234      89
 304     521    70      71
 305     528    74      74
 306     531    71      71
 307     548    88      88
 308     558   233     139
 309     560   184     139
 310     568   575     141
 311     575   143     141
 312     581   126     127
 313     582   128     129
 314    1355   609     136
 315     594  1513      69
 316     598    75      75
 317    1240   619     136
 318     610  1138      69
 319     618   224     139
 320     619   627     136
 321     620   981      69
 322     622    76      76
 323     627   631     136
 324     628   620      69
 325     699   169     139
 326     631   635     136
 327     632   628      69
 328     635   136     136
 329     636   632      69
 330     646  1345     141
 331    1572   156     103
 332     648   144     141
 333     654   130     130
 334     665   982     141
 335    1346   647     103
 336     673   217     139
 337     832   665     141
 338    1030   666     103
 339     684   677     141
 340     685   831     103
 341     687   684     141
 342     688   685     103
 343     690   688     103
 344     696   199     139
 345     699   629     139
 346     702   212     141
 347     711   185     139
 348    1634   182      69
 349     734  1633     102
 350    1489   733      69
 351    1424   742      69
 352     746   744      69
 353     748   746      69
 354     763   152     139
 355     765  1342       3
 356     794    69      69
 357     824   219     138
 358     831   678     103
 359     832   677     141
 360     853   763     139
 361     856   202     141
 362     863   992       1
 363     880   882     102
 364     882   883     102
 365     883   884     102
 366     884   101     102
 367     894   927     136
 368     903   190     141
 369     906   629     139
 370     918   824     138
 371     927   944     136
 372     934  1094       1
 373    1020   135     136
 374     963  1048       1
 375     966   198     139
 376     971   185     139
 377     974   172     141
 378     981   610      69
 379     982   646     141
 380     992   214       1
 381    1005   934       1
 382    1012   155     141
 383    1018   158     141
 384    1020   944     136
 385    1030   678     103
 386    1041   765       3
 387    1048  1099       1
 388    1072   216     102
 389    1075  1278     103
 390    1080   863       1
 391    1094   193       1
 392    1096   178       3
 393    1099   160       1
 394    1138   594      69
 395    1205  1265       3
 396    1240   609     136
 397    1247  1553       1
 398    1265   196       3
 399    1278   102     103
 400    1279  1075     103
 401    1285   167     102
 402    1339  1537       2
 403    1342   164       3
 404    1343   198     139
 405    1344  1377     139
 406    1345   189     141
 407    1346   666     103
 408    1351   197     102
 409    1352   201     103
 410    1355   593     136
 411    1363  1285     102
 412    1377   153     139
 413    1398  1247       1
 414    1410   203     138
 415    1422  1446     103
 416    1424   744      69
 417    1432  1096       3
 418    1446   171     103
 419    1457   188     136
 420    1644   149     102
 421    1486  1579     140
 422    1489   742      69
 423    1493   205      69
 424    1496   963       1
 425    1505  1480     102
 426    1507   221     136
 427    1508  1486     140
 428    1513  1493      69
 429    1522  1505     102
 430    1528   183     138
 431    1532  1528     138
 432    1537   174       2
 433    1538  1339       2
 434    1544  1598     140
 435    1550   182      69
 436    1553     1       1
 437    1562   161       2
 438    1568   147       3
 439    1569   151     139
 440    1570   211       1
 441    1572   647     103
 442    1573     3       3
 443    1574  1608       4
 444    1576  1544     140
 445    1577  1601     140
 446    1579   206     140
 447    1585  1550      69
 448    1591   210     141
 449    1598   170     140
 450    1599   166       4
 451    1601   218     140
 452    1603   165       4
 453    1608   179       4
 454    1611  1619       4
 455    1612   186     140
 456    1615  1562       2
 457    1618  1599       4
 458    1619   200       4
 459    1623  1603       4
 460    1624   170     140
 461    1633   149     102
 462    1634  1661      69
 463    1638   157     141
 464    1644  1480     102
 465    1648   204       2
 466    1649   145       1
 467    1659   188     136
 468    1661   733      69
 469    1682   180       4
 470    1693  1682       4
 471    1702   225     140
 472    1706   154     140
 473    1709   222     138
 474    1712   209       4
 475    1714   146       2
 476    1715   222     138
 477    1716   215       2
 478    1717   150     138
0
3
   0   220  172.94051420988683  0  1200
   1   257.75219648414628  269.90594280130074  0  4000
   2   100.92781055482264  184.56440872045647  0  18000
# Generated by C:\Users\lukem\Python\PATH\modflow_exe\triangle.exe -a -q32 -A -p -V -D -e -n _triangle.0
