141 2 0 0
0 0.0 0.0
1 0.0 450.0
2 600.0 450.0
3 600.0 0.0
4 279.7110836003318 164.11897158022637
5 278.84711682419385 158.2945806790323
6 277.41642014393256 152.58291936473225
7 275.4327719506772 147.0389940580946
8 272.9152758609013 141.71619579044014
9 269.8881767381527 136.66578601882387
10 266.38062720176424 131.93640295018128
11 262.42640687119285 127.57359312880715
12 258.0635970498187 123.61937279823579
13 253.33421398117613 120.11182326184729
14 248.28380420955986 117.08472413909871
15 242.9610059419054 114.5672280493228
16 237.41708063526775 112.58357985606747
17 231.7054193209677 111.15288317580618
18 225.88102841977366 110.28891639966818
19 220.0 110.0
20 214.11897158022637 110.28891639966818
21 208.29458067903232 111.15288317580618
22 202.58291936473228 112.58357985606747
23 197.0389940580946 114.5672280493228
24 191.71619579044014 117.0847241390987
25 186.6657860188239 120.11182326184728
26 181.93640295018128 123.61937279823577
27 177.57359312880715 127.57359312880715
28 173.6193727982358 131.93640295018128
29 170.1118232618473 136.66578601882387
30 167.0847241390987 141.71619579044014
31 164.5672280493228 147.0389940580946
32 162.58357985606747 152.58291936473225
33 161.15288317580618 158.2945806790323
34 160.28891639966818 164.11897158022634
35 160.0 170.0
36 160.28891639966818 175.88102841977363
37 161.15288317580618 181.7054193209677
38 162.58357985606747 187.41708063526772
39 164.56722804932278 192.96100594190537
40 167.08472413909868 198.28380420955986
41 170.11182326184726 203.3342139811761
42 173.61937279823576 208.06359704981872
43 177.57359312880715 212.42640687119285
44 181.93640295018125 216.38062720176418
45 186.66578601882387 219.8881767381527
46 191.71619579044014 222.9152758609013
47 197.03899405809457 225.4327719506772
48 202.58291936473225 227.41642014393253
49 208.2945806790323 228.84711682419382
50 214.11897158022637 229.71108360033182
51 220.0 230.0
52 225.8810284197736 229.71108360033182
53 231.7054193209677 228.84711682419382
54 237.41708063526772 227.41642014393253
55 242.9610059419054 225.4327719506772
56 248.28380420955986 222.91527586090132
57 253.3342139811761 219.88817673815274
58 258.0635970498187 216.3806272017642
59 262.42640687119285 212.42640687119285
60 266.3806272017642 208.06359704981875
61 269.8881767381527 203.33421398117613
62 272.91527586090126 198.2838042095599
63 275.4327719506772 192.96100594190543
64 277.41642014393256 187.41708063526775
65 278.8471168241938 181.70541932096774
66 279.7110836003318 175.88102841977363
67 280.0 170.0
68 272.63333919363885 297.21026903245297
69 552.6333391936389 167.21026903245294
70 555.2395789705377 165.8409603691648
71 557.699053271149 164.2227891314157
72 559.9880760134723 162.37133919280765
73 562.0846026571922 160.30444102835483
74 563.9684425046514 158.04199999726245
75 565.6214531483074 155.605804643436
76 567.0277151920342 153.01931685989263
77 568.1736855636096 150.30744593790595
78 569.0483279419044 147.49630867691414
79 569.6432190426872 144.6129778654645
80 569.9526297394572 141.6852215554602
81 569.9735802380632 138.741235640641
82 569.7058687737508 135.80937231471304
83 569.1520735542676 132.9178670242245
84 568.3175279303125 130.0945665457804
85 567.210269032453 127.36666080636112
86 565.8409603691648 124.76042102946231
87 564.2227891314158 122.30094672885105
88 562.3713391928077 120.01192398652765
89 560.3044410283549 117.91539734280781
90 558.0419999972625 116.03155749534857
91 555.605804643436 114.37854685169259
92 553.0193168598927 112.97228480796582
93 550.307445937906 111.82631443639036
94 547.4963086769142 110.95167205809564
95 544.6129778654645 110.35678095731276
96 541.6852215554602 110.04737026054286
97 538.741235640641 110.02641976193689
98 535.8093723147131 110.29413122624914
99 532.9178670242245 110.84792644573231
100 530.0945665457804 111.68247206968752
101 527.3666608063611 112.78973096754706
102 247.77183027768095 242.60161657014856
103 38.182421042624966 332.42564909945827
104 35.53656689366269 333.7167524309018
105 33.0300035120312 335.2609778043204
106 30.6868704733226 337.0434534852086
107 28.529733429586422 339.0470132583591
108 26.579366789764908 341.2523617478992
109 24.854553650778417 343.6382602423086
110 23.37190490603414 346.18173123482137
111 22.145699273442222 348.8582797093769
112 21.1877457835567 351.642129041015
113 20.507270052155828 354.50646923886507
114 20.110825432518865 357.4237151410143
115 20.002229903051585 360.36577207469617
116 20.18252929806712 363.3043064233473
117 20.649987235829784 366.211018494824
118 21.400101840860433 369.05791506290745
119 22.425649099458262 371.817578957375
120 23.716752430901817 374.46343310633733
121 25.260977804320422 376.9699964879688
122 27.043453485208587 379.3131295266774
123 29.04701325835906 381.47026657041357
124 31.252361747899197 383.4206332102351
125 33.63826024230861 385.1454463492216
126 36.18173123482137 386.62809509396584
127 38.85827970937689 387.85430072655777
128 41.64212904101497 388.8122542164433
129 44.50646923886509 389.49272994784417
130 47.42371514101431 389.8891745674811
131 50.365772074696146 389.99777009694844
132 53.3043064233473 389.8174707019329
133 56.211018494823975 389.35001276417023
134 59.057915062907426 388.59989815913957
135 61.817578957375034 387.57435090054173
136 271.817578957375 297.57435090054173
137 40.0 410.0
138 560.0 410.0
139 560.0 40.0
140 40.0 40.0
