3362  3  1
   0     192  1638   159  0
   1    1109  1254  1196  0
   2      31  1107    32  0
   3    1327  1367  1193  0
   4      29  1062    28  0
   5      34    35  1141  0
   6    1151  1268    29  0
   7    1111    30  1154  0
   8      33    32  1061  0
   9    1060  1102    32  0
  10    1107  1061    32  0
  11      32  1102    31  0
  12    1576  1544  1610  0
  13      36  1147    37  0
  14      33  1149    34  0
  15      37  1113    36  0
  16    1141  1172  1103  0
  17      34  1106    35  0
  18    1106    34  1149  0
  19    1060    33  1103  0
  20    1064  1116    41  0
  21    1105    38    37  0
  22    1148    39  1185  0
  23    1106  1147    35  0
  24      42    43  1115  0
  25      41    42  1064  0
  26      39    38  1185  0
  27    1558  1687  1654  0
  28    1148    40    39  0
  29      40  1155    39  0
  30      42  1143    43  0
  31    1156    43    44  0
  32    1190    23  1153  0
  33      27  1109    26  0
  34    1108    27  1152  0
  35      28  1062  1110  0
  36    1268  1188  1150  0
  37      27    28  1110  0
  38    1192    18    17  0
  39    1066    19  1119  0
  40    1223    18  1192  0
  41    1117    24    25  0
  42      22  1158  1118  0
  43      22  1191  1153  0
  44      22    21  1191  0
  45    1119    19    20  0
  46      25  1157  1117  0
  47      15  1210  1224  0
  48    1064    42  1115  0
  49    1104  1142    44  0
  50      47    48  1121  0
  51      43  1104    44  0
  52    1104    43  1143  0
  53      47  1067    46  0
  54    1067    47  1121  0
  55    1217  1181  1281  0
  56      48  1146    49  0
  57      48  1181  1146  0
  58    1195  1115  1156  0
  59     107   756   802  0
  60    1181    48    47  0
  61     132   131   829  0
  62    1218  1183    50  0
  63     690   144   687  0
  64      15    14  1210  0
  65      26  1152    27  0
  66     942   870   881  0
  67      46  1123    45  0
  68     796   111   110  0
  69     878   803   842  0
  70     798   112   753  0
  71    1607   189  1475  0
  72     113   112   798  0
  73     113   840   800  0
  74     106   778   821  0
  75     109   803   108  0
  76     111   796   753  0
  77     111   799   110  0
  78     801   108   755  0
  79     109   842   803  0
  80     754   799   111  0
  81     804   118   117  0
  82     118   758   117  0
  83     838   115   797  0
  84     800   877   920  0
  85     847   866   767  0
  86     798   114   113  0
  87     807   116   117  0
  88     808   758   118  0
  89     838   116   115  0
  90     805   122   121  0
  91     114   797   115  0
  92     123   124   792  0
  93     123   792   836  0
  94     757   806   119  0
  95     809   121   759  0
  96     120   119   806  0
  97     124   125   659  0
  98     108   801   109  0
  99     191     0   140  0
 100     806   121   120  0
 101     689   104   771  0
 102     625   659   125  0
 103     123   845   777  0
 104     104   667   708  0
 105     708   778   105  0
 106     231   143   127  0
 107     677   899   832  0
 108     703   844   903  0
 109     778   106   105  0
 110     132   829   788  0
 111     578   602   581  0
 112    1121    48  1162  0
 113     648   667   103  0
 114     832   899   928  0
 115     602   625   126  0
 116     575   579   568  0
 117     143   231   128  0
 118     722   874   888  0
 119     155   187   605  0
 120     231   226   652  0
 121     127   143   577  0
 122     134   135   810  0
 123     130   654   655  0
 124     582   604   617  0
 125     654   617   655  0
 126     823   783   132  0
 127     606   722   888  0
 128     133   134   760  0
 129     212   702   703  0
 130     653   732   655  0
 131     810   760   134  0
 132     609  1240  1293  0
 133    1037  1296   193  0
 134     108   756   107  0
 135     161  1614  1648  0
 136    1077    49    50  0
 137     257   447   474  0
 138    1145    54  1178  0
 139    1120    16    17  0
 140    1120  1160    16  0
 141     896   999   781  0
 142    1119    20  1159  0
 143    1210    14  1233  0
 144     774   772   773  0
 145     761    97    98  0
 146     668   553   566  0
 147     869   100   101  0
 148     818   588   650  0
 149     812    98    99  0
 150    1118    21    22  0
 151     686   719   650  0
 152    1209    12    11  0
 153    1068  1125    14  0
 154    1175    12  1209  0
 155      12    13  1124  0
 156      13    14  1125  0
 157       8  1234     9  0
 158    1264  1076  1303  0
 159    1334  1204  1280  0
 160       6  1211     7  0
 161    1163    12  1124  0
 162    1069    10    11  0
 163    1176     8     7  0
 164    1126     9    10  0
 165    1212     9  1234  0
 166     761    98   812  0
 167      13    12  1175  0
 168     695    92    91  0
 169       6     5  1177  0
 170     549   588   526  0
 171      96    97   811  0
 172     457   545    90  0
 173      94    95   762  0
 174     711   781   185  0
 175     526   545   503  0
 176     538   522   532  0
 177      18  1161    17  0
 178     565   207   535  0
 179     717   208   672  0
 180      89   476   469  0
 181     229   496   232  0
 182    1485  1433  1344  0
 183     781   717   967  0
 184     811    97   761  0
 185     567    86   766  0
 186      85   817   766  0
 187     478   458   477  0
 188     766   184   567  0
 189     570   548    88  0
 190      88   515   491  0
 191     814    83   851  0
 192      80   815    81  0
 193     730    85    86  0
 194     764    81   815  0
 195    1376  1082  1230  0
 196     826    83    84  0
 197      79   786   815  0
 198      85   785    84  0
 199     764    82    81  0
 200      86    87   705  0
 201      86    85   766  0
 202     876   834   861  0
 203     695   572   588  0
 204    1594     3  1573  0
 205      77   828    78  0
 206     102  1071  1129  0
 207      58  1179    59  0
 208      58  1131    57  0
 209    1180    57    56  0
 210    1364  1229  1321  0
 211      57  1180  1216  0
 212      67    66  1173  0
 213       9  1126  1164  0
 214      62    61  1208  0
 215      62  1174    63  0
 216     637    68   542  0
 217      65  1070    64  0
 218    1144  1177     4  0
 219      59  1179  1214  0
 220      55  1215    56  0
 221    1070  1127    64  0
 222      54    55  1071  0
 223      53  1178    54  0
 224      53    54  1130  0
 225    1218    50    49  0
 226    1130    54  1071  0
 227    1183    51    50  0
 228    1202  1129  1166  0
 229    1145    55    54  0
 230    1556  1325  1450  0
 231    1073    58    59  0
 232    1533  1635  1384  0
 233     693   690   692  0
 234    1074    60    61  0
 235    1166  1129    56  0
 236      56  1215  1180  0
 237      53  1167    52  0
 238    1133  1168  1229  0
 239       5     4  1177  0
 240     786    78   828  0
 241       7  1076     6  0
 242     994   217   769  0
 243      79    78   786  0
 244     556   573   519  0
 245     541   534   539  0
 246     835   737   791  0
 247      76   622   633  0
 248     470   529   460  0
 249     598   613    75  0
 250      75   622   634  0
 251     611   555   547  0
 252     834   791    79  0
 253     232   142    89  0
 254     981  1035   610  0
 255     517   493   513  0
 256      67  1173  1144  0
 257    1169     5     6  0
 258    1128  1070    65  0
 259    1207    63  1174  0
 260    1201  1277  1128  0
 261    1207  1286    64  0
 262     489   530    71  0
 263      97    96   819  0
 264     569    70   521  0
 265     251   252   250  0
 266    1553  1406  1554  0
 267    1489  1632   733  0
 268       2   138   176  0
 269       5  1169  1134  0
 270     494   523   446  0
 271       5  1134     4  0
 272     163   195   151  0
 273      67  1144     4  0
 274     776    94   775  0
 275    1689  1534   221  0
 276     230   456   457  0
 277    1108  1306  1188  0
 278     590   680   700  0
 279    1718  1719   194  0
 280     124   777   125  0
 281     577   578   127  0
 282     690   693   648  0
 283    1419  1559  1483  0
 284     115   767   114  0
 285     227   194   215  0
 286     675   969   727  0
 287    1702  1712   186  0
 288     680   590   651  0
 289      64  1127    63  0
 290     213   138   175  0
 291      68   636   641  0
 292    1137   994  1039  0
 293    1683  1481  1590  0
 294     474   446   523  0
 295      74   554   562  0
 296    1434  1084  1395  0
 297     656   710   672  0
 298    1627  1577  1625  0
 299    1161  1120    17  0
 300     616   580   724  0
 301     583   605   187  0
 302    1422  1557  1582  0
 303    1136    51  1078  0
 304     684   689   677  0
 305    1113    37  1063  0
 306     909   856   736  0
 307     111   753   112  0
 308     159  1638   173  0
 309     847   116   807  0
 310    1615   174  1563  0
 311     162   194   213  0
 312     151   177   163  0
 313      84   785   826  0
 314    1604  1613  1623  0
 315    1694  1682  1693  0
 316     205  1518  1560  0
 317    1073  1132  1258  0
 318    1678  1691  1674  0
 319    1569   177   151  0
 320     288    72   266  0
 321     536   554   528  0
 322     180   181   140  0
 323      23  1158    22  0
 324    1291  1093   980  0
 325    1136    50    51  0
 326     220   648   693  0
 327     778   708   820  0
 328     157  1649   173  0
 329    1586  1532  1605  0
 330     138     2   175  0
 331     195   176   138  0
 332     168  1474  1589  0
 333     178  1485  1594  0
 334    1622   165  1603  0
 335     140     0   180  0
 336    1117  1065    24  0
 337    1693   166  1626  0
 338     750    69   600  0
 339     943  1053  1009  0
 340     222  1714   204  0
 341     203  1410  1509  0
 342     719   686   714  0
 343     535   207   499  0
 344     924   725   889  0
 345     672   208   618  0
 346    1706   209   225  0
 347    1440  1407  1555  0
 348     616   625   602  0
 349     584   579   128  0
 350    1438  1464   593  0
 351    1557  1446  1540  0
 352    1226  1114  1155  0
 353    1607  1591   189  0
 354     779   929   946  0
 355     603   702   226  0
 356     192   191   140  0
 357     181  1705   140  0
 358     191   192   159  0
 359     879   867   935  0
 360    1100   751   793  0
 361    1716  1717   227  0
 362     138   213   195  0
 363     176   195   163  0
 364     658   682   624  0
 365    1444  1467  1494  0
 366      60  1132    59  0
 367     482   492   452  0
 368     744  1029  1244  0
 369     269   250   248  0
 370     399   403   258  0
 371    1544  1598  1609  0
 372     627   619   886  0
 373      52  1078    51  0
 374    1646  1506  1478  0
 375     667   220   708  0
 376     857   874   783  0
 377     824  1373   918  0
 378    1715   146  1714  0
 379    1686  1530  1631  0
 380    1467  1466  1526  0
 381    1088   153   971  0
 382    1508  1486  1575  0
 383     503   505   507  0
 384     501   486   495  0
 385     729   591   660  0
 386     618   224   656  0
 387     209  1706   148  0
 388    1172  1112  1255  0
 389     210  1616  1660  0
 390     144   103   687  0
 391     709   653   671  0
 392     603   226   231  0
 393    1678  1674  1677  0
 394     162   213   175  0
 395     807   117   758  0
 396     194   162   215  0
 397    1415  1494  1266  0
 398    1131    58  1073  0
 399     235   453   467  0
 400      69    70   600  0
 401      15  1068    14  0
 402     154  1577  1627  0
 403    1537  1563   174  0
 404     895   956  1026  0
 405     732   985   788  0
 406     648   220   667  0
 407     787   135   134  0
 408    1410  1488  1509  0
 409    1704  1457  1464  0
 410    1709   204  1648  0
 411     500   502   505  0
 412     229   232   475  0
 413     491   538   570  0
 414     656    90    91  0
 415    1684   186  1612  0
 416     186  1712   165  0
 417     671   604   652  0
 418     581   603   231  0
 419     641   543    68  0
 420    1717   146   150  0
 421     481   451   441  0
 422     563   530   524  0
 423     142   487   457  0
 424     501   223   486  0
 425     234   478   491  0
 426      90   224   230  0
 427     582   128   604  0
 428     581   231   127  0
 429     500   229   485  0
 430     469   458   475  0
 431     429   236   421  0
 432     489    71   461  0
 433     456   230   544  0
 434     484   475   458  0
 435     374   430   362  0
 436     237   438   471  0
 437     353   339   345  0
 438     240   396   422  0
 439     259   378   413  0
 440     438   237   415  0
 441     310   241   314  0
 442     396   240   363  0
 443     271   287   316  0
 444     325   341   334  0
 445     397   454   386  0
 446     363   242   368  0
 447     253   271   243  0
 448     313   301   311  0
 449     384   413   378  0
 450     307   313   245  0
 451     253   244   277  0
 452     254   256   248  0
 453     277   271   253  0
 454     246   244   251  0
 455     261   347   364  0
 456     260   274   247  0
 457     277   281   291  0
 458      72   141   246  0
 459     304   335   272  0
 460     255   260   247  0
 461     252   253   249  0
 462     270   255   247  0
 463     256   267   260  0
 464     251    72   246  0
 465     250   252   254  0
 466     248   263   269  0
 467     252   251   244  0
 468     250    72   251  0
 469     249   253   243  0
 470     252   249   254  0
 471     252   244   253  0
 472     246   281   244  0
 473     254   249   256  0
 474     250   254   248  0
 475     255   248   256  0
 476     304   320   335  0
 477     249   243   267  0
 478     255   256   260  0
 479     322   323   321  0
 480     520   529   470  0
 481     372   374   362  0
 482     408   420   437  0
 483     266    72   250  0
 484     283   289   282  0
 485     256   249   267  0
 486     307   274   301  0
 487     263   248   255  0
 488     393   395   383  0
 489     239   310   339  0
 490     387   358   357  0
 491     270   263   255  0
 492     280   321   284  0
 493     263   270   285  0
 494     348   344   265  0
 495     312   305   309  0
 496     265   338   348  0
 497     282   294   295  0
 498     141    72   288  0
 499     300   308   302  0
 500     274   268   247  0
 501     267   297   260  0
 502     276   270   247  0
 503     275   269   263  0
 504     266   250   269  0
 505     268   276   247  0
 506     268   245   303  0
 507     305   316   287  0
 508     300   271   314  0
 509     275   266   269  0
 510     337   338   332  0
 511     287   271   277  0
 512     273   337   332  0
 513     297   274   260  0
 514     274   297   301  0
 515     280   263   285  0
 516     280   284   275  0
 517     303   298   276  0
 518     263   280   275  0
 519     286   246   141  0
 520     244   281   277  0
 521     284   266   275  0
 522     273   279   272  0
 523     287   291   296  0
 524     272   279   278  0
 525     276   298   285  0
 526     280   285   298  0
 527     286   281   246  0
 528     291   281   286  0
 529     288   266   292  0
 530     279   283   278  0
 531     277   291   287  0
 532     278   283   282  0
 533     280   298   321  0
 534     295   304   278  0
 535     270   276   285  0
 536     268   303   276  0
 537     293   289   283  0
 538     296   291   293  0
 539     309   299   306  0
 540     287   296   305  0
 541     292   266   284  0
 542     288   292   294  0
 543     286   141   289  0
 544     290   282   289  0
 545     141   288   290  0
 546     289   141   290  0
 547     293   286   289  0
 548     286   293   291  0
 549     295   278   282  0
 550     290   294   282  0
 551     279   299   283  0
 552     283   299   293  0
 553     288   294   290  0
 554     294   292   295  0
 555     292   284   295  0
 556     295   284   304  0
 557     279   306   299  0
 558     309   296   299  0
 559     267   243   302  0
 560     267   302   297  0
 561     328   330   323  0
 562     272   278   304  0
 563     306   279   273  0
 564     296   293   299  0
 565     243   300   302  0
 566     243   271   300  0
 567     315   317   334  0
 568     274   307   268  0
 569     308   300   241  0
 570     301   297   302  0
 571     317   327   319  0
 572     319   303   245  0
 573     284   320   304  0
 574     320   330   335  0
 575     324   312   306  0
 576     305   312   318  0
 577     332   265   336  0
 578     273   324   306  0
 579     311   301   308  0
 580     245   268   307  0
 581     311   308   241  0
 582     301   302   308  0
 583     312   309   306  0
 584     305   296   309  0
 585     241   310   311  0
 586     241   300   314  0
 587     310   239   325  0
 588     301   313   307  0
 589     310   345   339  0
 590     314   318   345  0
 591     311   310   325  0
 592     311   325   313  0
 593     318   314   316  0
 594     314   345   310  0
 595     326   303   319  0
 596     325   334   313  0
 597     318   316   305  0
 598     314   271   316  0
 599     245   317   319  0
 600     245   313   317  0
 601     333   312   324  0
 602     312   333   318  0
 603     315   327   317  0
 604     329   326   319  0
 605     298   322   321  0
 606     322   331   328  0
 607     298   303   326  0
 608     284   321   320  0
 609     371   355   354  0
 610     320   321   323  0
 611     328   323   322  0
 612     320   323   330  0
 613     333   324   336  0
 614     324   332   336  0
 615     239   370   341  0
 616     334   317   313  0
 617     329   319   327  0
 618     322   298   326  0
 619     242   340   315  0
 620     340   327   315  0
 621     329   331   322  0
 622     331   380   328  0
 623     329   327   331  0
 624     322   326   329  0
 625     264   355   347  0
 626     354   355   350  0
 627     340   331   327  0
 628     367   331   340  0
 629     324   273   332  0
 630     337   273   272  0
 631     333   365   372  0
 632     360   339   353  0
 633     325   239   341  0
 634     315   334   342  0
 635     335   330   354  0
 636     346   335   350  0
 637     344   359   265  0
 638     265   359   336  0
 639     264   343   346  0
 640     332   338   265  0
 641     337   343   338  0
 642     358   348   356  0
 643     349   353   345  0
 644     339   360   370  0
 645     369   363   381  0
 646     369   340   242  0
 647     396   363   368  0
 648     315   342   242  0
 649     334   341   342  0
 650     342   341   368  0
 651     346   337   272  0
 652     358   344   348  0
 653     338   343   352  0
 654     359   365   336  0
 655     333   349   318  0
 656     345   318   349  0
 657     337   346   343  0
 658     272   335   346  0
 659     264   347   351  0
 660     350   264   346  0
 661     264   351   343  0
 662     356   348   352  0
 663     365   333   336  0
 664     370   373   238  0
 665     350   335   354  0
 666     264   350   355  0
 667     347   261   357  0
 668     338   352   348  0
 669     343   351   352  0
 670     356   352   351  0
 671     349   333   372  0
 672     370   239   339  0
 673     328   361   330  0
 674     330   361   354  0
 675     371   354   361  0
 676     347   355   364  0
 677     357   351   347  0
 678     351   357   356  0
 679     388   392   379  0
 680     344   358   262  0
 681     356   357   358  0
 682     393   387   391  0
 683     262   366   344  0
 684     372   362   349  0
 685     362   353   349  0
 686     353   362   360  0
 687     331   367   380  0
 688     328   380   361  0
 689     401   404   407  0
 690     362   430   360  0
 691     369   367   340  0
 692     368   242   342  0
 693     371   364   355  0
 694     386   390   371  0
 695     366   359   344  0
 696     365   359   366  0
 697     366   389   382  0
 698     385   389   366  0
 699     435   240   415  0
 700     381   397   367  0
 701     238   414   341  0
 702     414   396   368  0
 703     242   363   369  0
 704     381   363   240  0
 705     373   370   360  0
 706     238   341   370  0
 707     386   361   380  0
 708     378   391   384  0
 709     374   372   382  0
 710     365   382   372  0
 711     375   373   360  0
 712     377   376   238  0
 713     382   389   374  0
 714     373   377   238  0
 715     424   441   389  0
 716     421   376   377  0
 717     375   421   377  0
 718     422   438   415  0
 719     373   375   377  0
 720     375   412   421  0
 721     387   357   261  0
 722     364   384   261  0
 723     262   379   385  0
 724     358   387   388  0
 725     369   381   367  0
 726     390   398   416  0
 727     397   386   380  0
 728     416   384   390  0
 729     365   366   382  0
 730     366   262   385  0
 731     387   393   383  0
 732     358   388   262  0
 733     386   371   361  0
 734     390   364   371  0
 735     399   401   379  0
 736     401   385   379  0
 737     397   380   367  0
 738     381   240   435  0
 739     391   378   393  0
 740     387   383   388  0
 741     392   388   383  0
 742     379   262   388  0
 743     440   445   449  0
 744     430   375   360  0
 745     390   386   398  0
 746     384   364   390  0
 747     387   261   391  0
 748     261   384   391  0
 749     393   394   395  0
 750     379   392   400  0
 751     259   394   378  0
 752     378   394   393  0
 753     433   437   420  0
 754     392   383   395  0
 755     405   403   402  0
 756     403   399   400  0
 757     368   341   414  0
 758     376   431   414  0
 759     398   454   427  0
 760     447   257   418  0
 761     397   381   434  0
 762     418   432   443  0
 763     399   379   400  0
 764     401   417   385  0
 765     395   402   392  0
 766     400   392   402  0
 767     258   404   399  0
 768     401   399   404  0
 769     405   395   394  0
 770     400   402   403  0
 771     402   395   405  0
 772     409   411   420  0
 773     417   389   385  0
 774     258   409   410  0
 775     425   394   259  0
 776     406   437   460  0
 777     410   409   419  0
 778     409   258   411  0
 779     407   410   419  0
 780     412   375   440  0
 781     420   408   409  0
 782     408   406   436  0
 783     258   410   404  0
 784     403   411   258  0
 785     419   409   408  0
 786     407   404   410  0
 787     403   405   411  0
 788     411   405   420  0
 789     424   389   417  0
 790     375   430   440  0
 791     432   428   443  0
 792     413   416   423  0
 793     238   376   414  0
 794     431   376   236  0
 795     415   240   422  0
 796     435   415   455  0
 797     423   416   398  0
 798     413   384   416  0
 799     401   407   417  0
 800     424   417   407  0
 801     394   425   405  0
 802     413   428   259  0
 803     459   406    73  0
 804     408   436   419  0
 805     433   405   425  0
 806     433   420   405  0
 807     429   421   412  0
 808     236   376   421  0
 809     431   396   414  0
 810     442   431   236  0
 811     423   398   427  0
 812     413   423   428  0
 813     439   407   419  0
 814     439   424   407  0
 815     433   425   444  0
 816     444   425   432  0
 817     429   426   236  0
 818     489   461   471  0
 819     398   386   454  0
 820     455   472   483  0
 821     423   427   428  0
 822     446   443   428  0
 823     430   445   440  0
 824     429   412   450  0
 825     441   374   389  0
 826     439   481   424  0
 827     442   236   426  0
 828     396   431   422  0
 829     425   259   432  0
 830     259   428   432  0
 831     444   418   448  0
 832     437   406   408  0
 833     455   434   435  0
 834     498   446   427  0
 835     455   415   237  0
 836     434   381   435  0
 837     429   450   453  0
 838     436   462   419  0
 839     444   448   433  0
 840     480   437   433  0
 841     431   438   422  0
 842     426   465   442  0
 843     459   436   406  0
 844     528   509    73  0
 845     374   441   430  0
 846     445   430   441  0
 847     453   235   426  0
 848     412   449   450  0
 849     465   426   235  0
 850     438   431   442  0
 851     446   428   427  0
 852     418   443   447  0
 853     432   418   444  0
 854     448   418   257  0
 855     451   445   441  0
 856     440   449   412  0
 857     434   455   483  0
 858     466   474   534  0
 859     443   446   447  0
 860     466   257   474  0
 861     460    73   406  0
 862     433   448   480  0
 863     441   424   481  0
 864     445   451   449  0
 865     450   449   452  0
 866     450   452   453  0
 867     419   462   439  0
 868     546   467   492  0
 869     451   482   449  0
 870     464   513   481  0
 871     453   452   467  0
 872     426   429   453  0
 873     397   434   454  0
 874     498   434   483  0
 875     461   472   237  0
 876     237   472   455  0
 877     142   456   468  0
 878      90   230   457  0
 879     232   487   142  0
 880     456   142   457  0
 881     475   232   469  0
 882     468    89   142  0
 883     452   449   482  0
 884     462   463   464  0
 885     257   470   448  0
 886     480   470   460  0
 887     465   438   442  0
 888      71   490   461  0
 889     459   463   436  0
 890     462   436   463  0
 891     463   459   473  0
 892     462   464   439  0
 893     459    73   509  0
 894     463   473   464  0
 895     521   531   530  0
 896     237   471   461  0
 897     474   447   446  0
 898     520   470   466  0
 899     493   451   481  0
 900     452   492   467  0
 901     544   532   479  0
 902     469   476   477  0
 903     232    89   469  0
 904     468   476    89  0
 905     257   466   470  0
 906     520   466   199  0
 907     438   465   471  0
 908     235   497   465  0
 909     490   510   472  0
 910     494   446   498  0
 911     459   509   473  0
 912     492   482   514  0
 913     498   427   454  0
 914     483   472   510  0
 915     484   458   234  0
 916     475   484   485  0
 917     477   476   479  0
 918     469   477   458  0
 919     476   468   479  0
 920     458   478   234  0
 921     544   468   456  0
 922     479   478   477  0
 923     491   478   522  0
 924     479   522   478  0
 925     470   480   448  0
 926     460   437   480  0
 927     439   464   481  0
 928     464   473   513  0
 929     492   519   546  0
 930     467   546   488  0
 931     472   461   490  0
 932     494   498   516  0
 933     223   485   486  0
 934     475   485   229  0
 935     486   485   484  0
 936     487   545   457  0
 937     234   495   484  0
 938     486   484   495  0
 939     487   232   496  0
 940     496   229   500  0
 941     235   488   497  0
 942     235   467   488  0
 943     465   489   471  0
 944     488   524   497  0
 945     531   537   490  0
 946     511   512   510  0
 947     479   468   544  0
 948     522   538   491  0
 949     493   482   451  0
 950     509   547   473  0
 951     481   513   493  0
 952     482   493   514  0
 953     511   510   490  0
 954     523   539   474  0
 955      88   525   515  0
 956     535   501   525  0
 957     502   485   223  0
 958     499   504   223  0
 959     524   488   233  0
 960     489   465   497  0
 961     434   498   454  0
 962     516   483   512  0
 963     223   501   499  0
 964     485   502   500  0
 965     496   505   503  0
 966     500   505   496  0
 967     525   495   515  0
 968     501   495   525  0
 969     507   526   503  0
 970     487   496   503  0
 971     502   223   504  0
 972     507   505   506  0
 973     527   499   207  0
 974     504   527   508  0
 975     504   506   502  0
 976     505   502   506  0
 977     527   504   499  0
 978     508   506   504  0
 979     508   507   506  0
 980      90   545   572  0
 981     526   507   549  0
 982     572    91    90  0
 983     611   547   595  0
 984     517   513   551  0
 985     537   531   521  0
 986     483   510   512  0
 987     490   537   511  0
 988     199   466   534  0
 989     512   511   557  0
 990     516   518   494  0
 991     509   528   595  0
 992     514   519   492  0
 993     514   493   517  0
 994     514   517   519  0
 995     495   234   515  0
 996     234   491   515  0
 997     483   516   498  0
 998     518   516   512  0
 999     547   551   473  0
1000     233   488   546  0
1001     537   574   511  0
1002     534   541   564  0
1003     513   473   551  0
1004     596   621   657  0
1005     696   169   597  0
1006     529   536    73  0
1007     524   489   497  0
1008     537   521    70  0
1009     544   571   587  0
1010     479   532   522  0
1011     518   533   494  0
1012     523   494   533  0
1013     599   569   563  0
1014     489   524   530  0
1015     548    87   552  0
1016     535   499   501  0
1017     508   549   507  0
1018     508   527   553  0
1019     553   527   561  0
1020     561   527   207  0
1021     536   550   554  0
1022     528    74   595  0
1023     536   529   520  0
1024      73   460   529  0
1025     233   563   524  0
1026     521   530   569  0
1027     490    71   531  0
1028      71   530   531  0
1029     586   538   591  0
1030     607   548   570  0
1031     541   539   540  0
1032     523   533   539  0
1033     533   540   539  0
1034     199   534   564  0
1035     525    88   552  0
1036     535   525   552  0
1037     536   520   550  0
1038      73   536   528  0
1039     589    70    69  0
1040     540   518   557  0
1041     587   532   544  0
1042     548   607    87  0
1043     540   533   518  0
1044     474   539   534  0
1045     512   557   518  0
1046     540   590   559  0
1047     559   541   540  0
1048     541   559   564  0
1049     768   925   663  0
1050      68   136   542  0
1051     743   749   752  0
1052     136    68   543  0
1053     224   571   230  0
1054     544   230   571  0
1055     503   545   487  0
1056     545   526   572  0
1057     596   558   233  0
1058     612   596   546  0
1059     623    74   598  0
1060     517   556   519  0
1061      88   548   552  0
1062     570    88   491  0
1063     553   549   508  0
1064      92   773    93  0
1065     199   550   520  0
1066     550   597   562  0
1067     555   551   547  0
1068     517   551   556  0
1069     567   560   565  0
1070     535   552   565  0
1071     679   668   566  0
1072     553   561   566  0
1073     562   554   550  0
1074      74   528   554  0
1075     595   547   509  0
1076     615   621   573  0
1077     551   555   556  0
1078     555   601   556  0
1079     537    70   589  0
1080     511   574   557  0
1081     233   558   563  0
1082     546   596   233  0
1083     540   557   590  0
1084     169   697   701  0
1085     567   552    87  0
1086     566   560   184  0
1087     207   560   561  0
1088     566   561   560  0
1089     199   696   550  0
1090     598    74   562  0
1091     599   558   228  0
1092     530   563   569  0
1093     697   698   694  0
1094     564   697   696  0
1095     567   565   552  0
1096     560   207   565  0
1097     822   782   100  0
1098      95   776    96  0
1099      86   567    87  0
1100     184   560   567  0
1101     575   568   576  0
1102     128   579   575  0
1103     563   558   599  0
1104      70   569   600  0
1105     570   538   586  0
1106     570   586   607  0
1107     587   608   592  0
1108     538   532   591  0
1109     526   588   572  0
1110      91   572   695  0
1111     601   573   556  0
1112     615   573   601  0
1113     574   537   589  0
1114     557   574   590  0
1115     143   575   577  0
1116     143   128   575  0
1117     568   187   576  0
1118     187   155   649  0
1119     575   576   577  0
1120     578   577   576  0
1121     580   578   576  0
1122     581   127   578  0
1123     583   187   568  0
1124     568   579   583  0
1125     649   576   187  0
1126     738   649   155  0
1127     602   578   580  0
1128     581   126   603  0
1129     128   582   584  0
1130     231   604   128  0
1131     584   582   585  0
1132     583   584   585  0
1133     585   582   129  0
1134     583   579   584  0
1135     606   129   654  0
1136     583   585   605  0
1137     532   587   591  0
1138      86   705   730  0
1139     571   224   608  0
1140     608   587   571  0
1141     549   553   668  0
1142     588   549   650  0
1143      69   669   589  0
1144     589   651   574  0
1145     590   574   651  0
1146     784   699   701  0
1147     592   591   587  0
1148     592   660   591  0
1149     592   608   626  0
1150     592   626   660  0
1151    1450  1426  1353  0
1152     619   627   740  0
1153    1035   981   979  0
1154    1519  1411  1517  0
1155     614   623   598  0
1156     630   634   622  0
1157     612   546   519  0
1158     612   621   596  0
1159     169   706   597  0
1160     562   597   613  0
1161     613   598   562  0
1162     614   598    75  0
1163     712   228   673  0
1164     569   599   600  0
1165     599   228   712  0
1166     712   750   600  0
1167     555   611   624  0
1168     624   601   555  0
1169     602   580   616  0
1170     126   581   602  0
1171     126   125   603  0
1172     125   777   603  0
1173     604   231   652  0
1174     129   582   617  0
1175     606   585   129  0
1176     605   585   606  0
1177     131   722   130  0
1178     606   130   722  0
1179     607   586   704  0
1180      87   607   705  0
1181     626   618   208  0
1182     608   618   626  0
1183     886   619  1246  0
1184     543   664   635  0
1185     620   628   663  0
1186    1045  1357  1479  0
1187     623   658   595  0
1188     658   611   595  0
1189     519   573   612  0
1190     621   612   573  0
1191     613   597   706  0
1192     622    75   613  0
1193      76    77   723  0
1194     615   601   624  0
1195     673   769   217  0
1196     228   558   657  0
1197     576   649   580  0
1198     739   792   659  0
1199     617   604   653  0
1200     654   129   617  0
1201     608   224   618  0
1202     656   224    90  0
1203     662   676   542  0
1204     642   645   543  0
1205     632   643   628  0
1206     631   664   726  0
1207     892   681   621  0
1208     657   681   228  0
1209     633   622   613  0
1210     630   622    76  0
1211     623   614   658  0
1212     595    74   623  0
1213     624   611   658  0
1214     624   682   770  0
1215     659   625   616  0
1216     125   126   625  0
1217     725   208   711  0
1218     208   725   626  0
1219     627   662   631  0
1220     644   645   642  0
1221     632   638   643  0
1222     620   707   628  0
1223     633    77    76  0
1224     169   696   697  0
1225     737   723    77  0
1226     674   658   614  0
1227     635   631   662  0
1228     645   664   543  0
1229     638   636   637  0
1230     640   632   628  0
1231     633   613   706  0
1232     706   731   633  0
1233     661   634   630  0
1234     614    75   634  0
1235     542   136   635  0
1236     136   543   635  0
1237     636    68   637  0
1238     640   636   632  0
1239     637   542   639  0
1240     636   638   632  0
1241     638   637   639  0
1242     638   639   643  0
1243     635   662   542  0
1244     639   718   768  0
1245     707   644   640  0
1246     543   641   642  0
1247     636   640   641  0
1248     642   641   640  0
1249     644   642   640  0
1250     635   664   631  0
1251     643   639   768  0
1252     628   643   663  0
1253     640   628   707  0
1254     620  1050   707  0
1255     743   740   726  0
1256    1015   740  1013  0
1257     646  1087  1378  0
1258    1477  1571  1520  0
1259    1592  1478   647  0
1260    1500  1346  1472  0
1261     103   144   648  0
1262     144   690   648  0
1263    1248  1012   137  0
1264     580   649   724  0
1265     853   679   184  0
1266     668   686   650  0
1267     651   589   669  0
1268     651   669   680  0
1269     702   670   226  0
1270     226   670   652  0
1271     671   653   604  0
1272     732   829   655  0
1273     655   617   653  0
1274     130   606   654  0
1275     653   709   732  0
1276     131   130   655  0
1277     710    91    92  0
1278     618   656   672  0
1279     596   657   558  0
1280     681   673   228  0
1281     661   614   634  0
1282     614   661   674  0
1283     739   616   724  0
1284     792   124   659  0
1285     971  1084   998  0
1286     586   729   704  0
1287     675   661   630  0
1288     658   674   682  0
1289     713   662   886  0
1290     639   542   676  0
1291     676   713   718  0
1292     643   768   663  0
1293     627   726   740  0
1294     631   726   627  0
1295     105   771   104  0
1296     977  1092  1245  0
1297    1380  1299  1098  0
1298     977   976   910  0
1299     708   220   202  0
1300     104   103   667  0
1301     679   566   184  0
1302     549   668   650  0
1303     795   794   748  0
1304    1241  1358  1290  0
1305     779   212   903  0
1306     212   779   670  0
1307     652   670   671  0
1308     709   671   670  0
1309     710   656    91  0
1310     710    92    93  0
1311     681   657   621  0
1312     599   712   600  0
1313     683   661   675  0
1314     661   683   674  0
1315     723   630    76  0
1316      78    79   791  0
1317     713   676   662  0
1318     639   676   718  0
1319     689   684   687  0
1320     831   860   678  0
1321    1031   923   887  0
1322     789   685   720  0
1323     825   930   906  0
1324     668   679   686  0
1325     669   794   795  0
1326     825   629   784  0
1327     621   615   892  0
1328     673   681   769  0
1329     682   683   727  0
1330     727   770   682  0
1331     737   675   723  0
1332     682   674   683  0
1333     689   103   104  0
1334     720   715   789  0
1335     736   202   721  0
1336     691   684   715  0
1337     686   679   714  0
1338     819   855    97  0
1339     689   687   103  0
1340     690   691   688  0
1341     685   692   688  0
1342     691   687   684  0
1343     106   107   802  0
1344    1079   689   771  0
1345     691   690   687  0
1346     690   688   692  0
1347     715   684   677  0
1348     691   715   720  0
1349     685   831   887  0
1350     721   220   693  0
1351     716   693   692  0
1352     693   716   721  0
1353     700   559   590  0
1354     694   698   700  0
1355     774   695   818  0
1356      92   695   773  0
1357     550   696   597  0
1358     199   564   696  0
1359     698   697   564  0
1360     701   697   694  0
1361     564   559   698  0
1362     700   698   559  0
1363     701   728   784  0
1364     731   699   629  0
1365     101   100   782  0
1366     822   100    99  0
1367     701   694   728  0
1368     699   169   701  0
1369     703   702   603  0
1370     212   670   702  0
1371     703   603   777  0
1372     123   122   845  0
1373     586   591   729  0
1374     730   785    85  0
1375     607   704   705  0
1376     705   704   730  0
1377     169   699   706  0
1378     731   706   699  0
1379    1050   981  1036  0
1380     747   793   751  0
1381     778   820   755  0
1382     104   708   105  0
1383     830   133   788  0
1384     133   132   788  0
1385      94   762   813  0
1386     717   711   208  0
1387     717   672   710  0
1388     626   725   660  0
1389     217   780   673  0
1390    1243   965   780  0
1391     662   627   886  0
1392    1239   972  1292  0
1393     853   907   679  0
1394     741   728   694  0
1395     790   735   715  0
1396     691   720   688  0
1397     887   692   685  0
1398     923   716   887  0
1399      93    94   813  0
1400     711   717   781  0
1401     718   972   891  0
1402     718   891   768  0
1403     872   854   719  0
1404      93   773   775  0
1405     715   735   789  0
1406     685   688   720  0
1407     736   721   716  0
1408     202   220   721  0
1409     783   131   132  0
1410     783   874   722  0
1411     737    77    78  0
1412     675   630   723  0
1413     724   649   738  0
1414     738   739   724  0
1415     185   889   711  0
1416     725   711   889  0
1417     745   664   645  0
1418     747   745   645  0
1419     615   624   770  0
1420     683   675   727  0
1421     700   741   694  0
1422     700   680   890  0
1423     660   725   924  0
1424     704   968   827  0
1425     785   730   827  0
1426     875   816   858  0
1427     629   786   731  0
1428     633   731   828  0
1429     779   709   670  0
1430     929   779   903  0
1431    1375  1535  1244  0
1432    1633  1666   149  0
1433    1707  1633  1669  0
1434     734  1580  1642  0
1435     790   715   677  0
1436     735   790   833  0
1437     692   887   716  0
1438     856   909   172  0
1439      79    80   834  0
1440     737   835   969  0
1441    1296   961  1356  0
1442     739   659   616  0
1443    1017   739  1046  0
1444     836   900   759  0
1445     664   745   726  0
1446     752  1013   743  0
1447     984   795   943  0
1448     907  1025   714  0
1449    1244   742  1424  0
1450    1501  1447  1529  0
1451     749   745   747  0
1452    1013   740   743  0
1453     965   746   748  0
1454    1501  1529  1473  0
1455     747   645   644  0
1456     726   745   743  0
1457     750   965   748  0
1458     700   890   741  0
1459     793   644   707  0
1460     743   745   749  0
1461     794   750   748  0
1462     669   795   680  0
1463     751   749   747  0
1464     749   751   752  0
1465     780   712   673  0
1466     750   712   780  0
1467     644   793   747  0
1468     793  1050  1055  0
1469     752  1045  1014  0
1470    1015   619   740  0
1471     839   797   798  0
1472     757   804   843  0
1473     111   112   754  0
1474     800   112   113  0
1475     796   837   753  0
1476     108   107   755  0
1477     841   864   771  0
1478     106   802   841  0
1479     846   757   904  0
1480     119   118   757  0
1481     119   808   118  0
1482     120   848   119  0
1483     808   848   879  0
1484     121   122   759  0
1485     888   939  1012  0
1486     783   722   131  0
1487      99   100   850  0
1488     921   937   870  0
1489     849    96   811  0
1490     849   868   762  0
1491      83   814    84  0
1492     906   930   152  0
1493     152   763   764  0
1494     764   763   814  0
1495     817    85    84  0
1496     737    78   791  0
1497     853   184   766  0
1498     865   913   933  0
1499     800   754   112  0
1500     972   718   713  0
1501     768   891   925  0
1502     892   615   770  0
1503     217   994   966  0
1504    1042   727  1007  0
1505     769   681   892  0
1506     864   802   912  0
1507    1079   771   864  0
1508     897   819   776  0
1509     776    95    94  0
1510     774   773   695  0
1511     775   773   772  0
1512     818   695   588  0
1513     774   818   854  0
1514     775   772   776  0
1515      94    93   775  0
1516     774   854   772  0
1517      96   776   819  0
1518     124   123   777  0
1519     845   122   805  0
1520     820   708   202  0
1521     106   821   107  0
1522     190  1018   945  0
1523     779   946   986  0
1524     995   217   966  0
1525     750   780   965  0
1526     967   710   813  0
1527     896   781   967  0
1528     782   822   873  0
1529     898   825   728  0
1530     823   132   133  0
1531     823   857   783  0
1532     784   728   825  0
1533     629   699   784  0
1534     730   704   827  0
1535     875   826   859  0
1536     152   852   906  0
1537     852   764   815  0
1538     172  1002   974  0
1539     158   974  1085  0
1540     732   986   985  0
1541     133   830   134  0
1542     789   860   831  0
1543     831   685   789  0
1544     665   833   832  0
1545     790   832   833  0
1546      80   861   834  0
1547     675   737   969  0
1548    1139   934  1010  0
1549     123   836   122  0
1550    1138  1036   610  0
1551    1050   620   981  0
1552     669    69   794  0
1553      69   750   794  0
1554     746   893   748  0
1555     746   744   926  0
1556     801   110   109  0
1557     796   801   837  0
1558     837   901   753  0
1559     757   118   804  0
1560     839   798   753  0
1561     114   798   797  0
1562     878   913   865  0
1563     803   756   108  0
1564     840   113   114  0
1565     800   840   877  0
1566     837   801   755  0
1567     110   801   796  0
1568     802   756   912  0
1569     106   841   105  0
1570     842   109   110  0
1571     913   878   799  0
1572     116   804   117  0
1573     804   838   843  0
1574     846   805   806  0
1575     777   844   703  0
1576     846   806   757  0
1577     121   806   805  0
1578     807   914   866  0
1579     116   847   115  0
1580     121   809   120  0
1581     879   809   915  0
1582     867   879   915  0
1583     119   848   808  0
1584    1026   927  1242  0
1585     824   895   219  0
1586     811   761   916  0
1587      96   849    95  0
1588     812    99   850  0
1589     812   850   870  0
1590     813   762   896  0
1591     710    93   813  0
1592      83    82   851  0
1593     763   853   871  0
1594      79   815    80  0
1595     764   852   152  0
1596      81    82   816  0
1597      83   826   858  0
1598      84   814   817  0
1599     871   817   814  0
1600     650   719   818  0
1601     854   818   719  0
1602     897   776   772  0
1603     822   855   873  0
1604     908   856   172  0
1605     856   908   820  0
1606     778   755   821  0
1607     755   107   821  0
1608      98   855    99  0
1609     855    98    97  0
1610     133   760   823  0
1611     857   823   760  0
1612     824   857   895  0
1613    1373   219  1563  0
1614     728   741   898  0
1615     714   679   907  0
1616     785   827   859  0
1617      83   858    82  0
1618     968   704   729  0
1619     989  1342   765  0
1620     633   828    77  0
1621     731   786   828  0
1622     655   829   131  0
1623     732   788   829  0
1624     788   787   830  0
1625     787   134   830  0
1626     860   789   735  0
1627     831   678   970  0
1628     790   677   832  0
1629     899   677   689  0
1630     833  1034   977  0
1631     860   910   976  0
1632     861    80    81  0
1633     990   911   958  0
1634     862   791   834  0
1635     969   996  1007  0
1636     900   836   792  0
1637     759   122   836  0
1638     908   755   820  0
1639     975  1033   158  0
1640     843   838   797  0
1641     804   116   838  0
1642     901   839   753  0
1643     901   902   839  0
1644     114   767   840  0
1645     877   840   767  0
1646     864   841   802  0
1647     771   105   841  0
1648     110   799   842  0
1649     754   913   799  0
1650     902   797   839  0
1651     158  1019   975  0
1652     905   805   846  0
1653     703   903   212  0
1654     805   844   845  0
1655     777   845   844  0
1656     904   757   843  0
1657     805   905   844  0
1658     866   847   807  0
1659     767   115   847  0
1660     120   809   848  0
1661     759   915   809  0
1662     868   849   811  0
1663     762    95   849  0
1664     869   850   100  0
1665     870   917   812  0
1666      82   764   851  0
1667     764   814   851  0
1668     815   786   852  0
1669     906   786   629  0
1670     871   766   817  0
1671     853   763   907  0
1672     719   714   872  0
1673     772   854   897  0
1674     855   819   873  0
1675      99   855   822  0
1676     820   202   856  0
1677     202   736   856  0
1678     895   857   760  0
1679     918  1012   939  0
1680     826   785   859  0
1681     816    82   858  0
1682     859   919   875  0
1683     826   875   858  0
1684     833   910   735  0
1685     860   735   910  0
1686      81   816   861  0
1687     862   835   791  0
1688     816   876   861  0
1689     834   876   862  0
1690     864   912   950  0
1691     954   988   863  0
1692    1003  1087   982  0
1693     756   932   912  0
1694     799   878   842  0
1695     914   807   758  0
1696     988   992   863  0
1697     960   866   914  0
1698     809   879   848  0
1699     811   916   868  0
1700     999   971   185  0
1701    1539  1407   880  0
1702     881   870   850  0
1703     881   850   869  0
1704     916   938   953  0
1705     763   871   814  0
1706     853   766   871  0
1707     907   957  1025  0
1708     741   890   973  0
1709     897   873   819  0
1710     714  1025   872  0
1711     824   918   939  0
1712     888   605   606  0
1713     919   859   827  0
1714     876   948   931  0
1715     875   919   948  0
1716     911   835   931  0
1717    1044   767   866  0
1718     949   959   964  0
1719     878   949   932  0
1720     756   803   878  0
1721     879   951   758  0
1722     758   808   879  0
1723     955   962   921  0
1724    1016   782  1090  0
1725     885   869   101  0
1726    1350  1252  1425  0
1727     922   955   942  0
1728    1238   873   897  0
1729     922   869   885  0
1730     782  1016   884  0
1731     101   884   885  0
1732     101   782   884  0
1733     941   885   983  0
1734     983   883  1004  0
1735    1246   619  1240  0
1736    1032   972   713  0
1737     970  1049  1031  0
1738    1414  1047  1253  0
1739     874   939   888  0
1740     155   605   888  0
1741     889   997   924  0
1742     924   978   660  0
1743     893   795   748  0
1744     890   680   984  0
1745    1415  1266  1093  0
1746     979   663   925  0
1747     770  1042  1095  0
1748     994  1082   966  0
1749     746   926   893  0
1750     893   926   943  0
1751     895  1026  1443  0
1752    1020  1023   944  0
1753     760   810   895  0
1754     944  1026   956  0
1755     762   868   896  0
1756    1008   999   896  0
1757     854   872   897  0
1758     897   872  1238  0
1759     943   795   893  0
1760     884  1016   883  0
1761     950  1038   864  0
1762     665   832   928  0
1763    1017   792   739  0
1764     936   952   915  0
1765     837   908  1001  0
1766     902   843   797  0
1767    1033   975   902  0
1768     843   975   904  0
1769     905   903   844  0
1770     929   903   190  0
1771     975   843   902  0
1772     905  1018   190  0
1773     904   905   846  0
1774     903   905   190  0
1775     786   906   852  0
1776     629   825   906  0
1777     957   152   930  0
1778     763   957   907  0
1779    1001   908   172  0
1780     837   755   908  0
1781     923   736   716  0
1782     736   923   909  0
1783     665  1034   833  0
1784     678   860   976  0
1785     862   931   835  0
1786     931   862   876  0
1787     878   932   756  0
1788     878   865   949  0
1789     800   920   754  0
1790     920   954   940  0
1791     951   879   935  0
1792     914   758   951  0
1793     900   936   759  0
1794     915   759   936  0
1795     812   917   761  0
1796     761   938   916  0
1797     917   870   937  0
1798     761   917   938  0
1799     857   939   874  0
1800    1392  1402  1372  0
1801     827   968  1081  0
1802     958   911   931  0
1803     940   954   933  0
1804     754   920   940  0
1805     869   922   881  0
1806     955   885   941  0
1807     884   983   885  0
1808     870   942   921  0
1809     887   831   970  0
1810     944  1024   927  0
1811     185   998   889  0
1812     729   978   968  0
1813     925   980   979  0
1814     620   663   979  0
1815    1447  1424   742  0
1816     973  1000   898  0
1817     956   810   135  0
1818     787  1022  1021  0
1819    1079   993   899  0
1820     665   928  1003  0
1821     929   190   945  0
1822     709   779   986  0
1823     947   930   825  0
1824     930   947   957  0
1825     816   948   876  0
1826     816   875   948  0
1827     646   982  1087  0
1828     912   932   950  0
1829     940   913   754  0
1830     160  1027  1080  0
1831     987   867   952  0
1832     952   867   915  0
1833    1005   214  1006  0
1834     936   961   952  0
1835     952  1037   987  0
1836    1252   921   962  0
1837     916   953   868  0
1838     917   937   938  0
1839     938   937   953  0
1840     824   939   857  0
1841     918   137  1012  0
1842     954   920   877  0
1843     933   913   940  0
1844     962   941  1004  0
1845     882  1407  1004  0
1846     881   922   942  0
1847     922   885   955  0
1848     744  1340   926  0
1849     741   973   898  0
1850     135  1020   956  0
1851     787  1021   135  0
1852     974  1002  1085  0
1853     944  1023  1024  0
1854     929   945   946  0
1855    1085   945   158  0
1856     825   898   947  0
1857    1000  1059  1241  0
1858     948   989   958  0
1859     931   948   958  0
1860     933   959   865  0
1861     949   865   959  0
1862     932   949   964  0
1863    1079   899   689  0
1864     951   991   960  0
1865     914   951   960  0
1866     936   900   961  0
1867     867   987   935  0
1868    1088   971   999  0
1869    1088   999  1008  0
1870     988   954   877  0
1871    1080   954   863  0
1872     962   955   941  0
1873     921   942   955  0
1874    1026   944   927  0
1875     895   810   956  0
1876     957   947  1025  0
1877     763   152   957  0
1878     989   948   919  0
1879     958   989   990  0
1880     933  1027   959  0
1881    1027   964   959  0
1882     991   951   935  0
1883     960  1006  1011  0
1884    1017   900   792  0
1885     961   900  1017  0
1886     983  1004   941  0
1887     937   921  1350  0
1888    1028  1058  1051  0
1889    1028   950   932  0
1890     932   964  1028  0
1891     217   995   780  0
1892     746   965  1029  0
1893     769   892  1039  0
1894     995  1243   780  0
1895     710   967   717  0
1896     896   967   813  0
1897     729   660   978  0
1898     827  1081   919  0
1899     911   996   835  0
1900     990  1341   911  0
1901    1047  1414  1482  0
1902     887   970  1031  0
1903     185   971   998  0
1904     999   185   781  0
1905     713   886  1032  0
1906    1416  1326   102  0
1907    1009   890   984  0
1908    1009   973   890  0
1909     837  1001   901  0
1910     909  1002   172  0
1911     902   901  1033  0
1912     158  1018  1019  0
1913     910   833   977  0
1914     976   977  1245  0
1915     977  1034  1092  0
1916    1245  1030   976  0
1917    1040   924   997  0
1918     978  1040  1097  0
1919     980   925   891  0
1920     981   620   979  0
1921     972  1239  1291  0
1922    1171   610  1035  0
1923    1035   979   980  0
1924    1036   981   610  0
1925     993   928   899  0
1926     982  1092  1034  0
1927     884   883   983  0
1928    1004   883   882  0
1929     795   984   680  0
1930     984   943  1009  0
1931     946  1091   985  0
1932     787   788   985  0
1933     985   986   946  0
1934     732   709   986  0
1935    1037   952   961  0
1936    1037  1139   987  0
1937    1044   877   767  0
1938     960  1011   866  0
1939     919  1081  1374  0
1940     990   989   765  0
1941     196  1305  1052  0
1942     996   969   835  0
1943    1010   991   935  0
1944     214   992  1011  0
1945    1468   993  1056  0
1946     877  1044   988  0
1947     665  1003   982  0
1948    1039   994   769  0
1949     198   966  1082  0
1950     198  1083   966  0
1951    1029   744   746  0
1952    1052  1341  1041  0
1953     969  1007   727  0
1954     997   998  1084  0
1955     924  1040   978  0
1956    1084   971   153  0
1957     997   889   998  0
1958     868  1008   896  0
1959    1008   868   953  0
1960    1043  1053   943  0
1961    1385   883  1016  0
1962     172   974  1001  0
1963     974   158  1033  0
1964     923  1086   909  0
1965    1022  1091  1253  0
1966     928   993  1003  0
1967    1003   993  1087  0
1968     880  1407   882  0
1969     962  1004  1440  0
1970     960   991  1006  0
1971    1010  1005   991  0
1972    1005  1006   991  0
1973    1007  1052  1042  0
1974     727  1042   770  0
1975     937  1089   953  0
1976    1008  1089  1088  0
1977    1043   943   926  0
1978     973  1009  1000  0
1979     987  1010   935  0
1980    1005  1010   934  0
1981     214  1011  1006  0
1982     988  1011   992  0
1983     738   155  1012  0
1984     888  1012   155  0
1985    1014  1013   752  0
1986    1014  1015  1013  0
1987     752   751  1045  0
1988    1382  1355   609  0
1989    1015  1014  1354  0
1990    1240   619  1015  0
1991    1090   782   873  0
1992    1000  1009  1053  0
1993     738  1046   739  0
1994    1012  1248   738  0
1995     905   904  1019  0
1996     158   945  1018  0
1997     905  1019  1018  0
1998     904   975  1019  0
1999    1021  1020   135  0
2000     944   956  1020  0
2001    1022   787   985  0
2002    1020  1021  1023  0
2003    1091   945  1085  0
2004    1002  1086  1085  0
2005    1021  1022  1023  0
2006    1023  1022  1024  0
2007    1085  1086  1300  0
2008     927  1024  1047  0
2009    1241   947   898  0
2010    1000  1053  1059  0
2011    1242   927   894  0
2012    1026  1242  1443  0
2013     933   954  1080  0
2014     160  1099  1027  0
2015    1054  1099  1048  0
2016    1051  1056  1038  0
2017    1083   995   966  0
2018     965  1243  1029  0
2019     678  1030  1049  0
2020     678   976  1030  0
2021     678  1049   970  0
2022    1047   894   927  0
2023     886  1246  1032  0
2024    1240  1295  1246  0
2025     901  1001  1033  0
2026     974  1033  1001  0
2027     665   982  1034  0
2028    1092   982   646  0
2029    1093  1035   980  0
2030    1171  1138   610  0
2031    1055  1036  1249  0
2032    1055  1297  1100  0
2033    1296  1037   961  0
2034    1139  1094   934  0
2035    1028  1051   950  0
2036     950  1051  1038  0
2037    1095   892   770  0
2038    1230  1137  1170  0
2039    1140  1040   997  0
2040    1097  1081   968  0
2041    1052  1007   996  0
2042     765  1041  1341  0
2043    1095  1039   892  0
2044    1473  1529  1551  0
2045    1298  1016  1090  0
2046     866  1011  1044  0
2047     988  1044  1011  0
2048     793  1055  1100  0
2049    1397  1404  1382  0
2050    1372  1248   137  0
2051     961  1017  1356  0
2052    1253  1024  1022  0
2053    1299  1049  1098  0
2054     666  1098  1030  0
2055     964  1054  1028  0
2056    1049  1030  1098  0
2057    1055  1050  1036  0
2058     707  1050   793  0
2059    1058  1028  1054  0
2060    1054  1101  1058  0
2061    1341  1052   996  0
2062     196  1052  1041  0
2063    1057  1053  1043  0
2064    1053  1057  1059  0
2065    1054   964  1027  0
2066    1101  1056  1058  0
2067    1138  1411  1036  0
2068    1045   751  1100  0
2069    1496  1497  1495  0
2070     993  1038  1056  0
2071    1043   926  1340  0
2072    1385  1016  1298  0
2073    1101  1054  1048  0
2074    1056  1051  1058  0
2075    1059  1057  1250  0
2076    1241   898  1000  0
2077      32    33  1060  0
2078      33    34  1103  0
2079      28  1108  1151  0
2080      27  1108    28  0
2081    1111    29    30  0
2082    1154  1225  1111  0
2083      37    38  1063  0
2084      38    39  1114  0
2085    1194  1369  1302  0
2086    1063    38  1114  0
2087    1197  1274  1119  0
2088      23    24  1065  0
2089    1160    15    16  0
2090      18    19  1066  0
2091    1423  1195  1122  0
2092      46  1067  1123  0
2093    1498  1261  1421  0
2094    1163    11    12  0
2095    1430  1333  1336  0
2096      10  1069  1126  0
2097      66  1128    65  0
2098      66    67  1165  0
2099    1129    55    56  0
2100    1279   201  1259  0
2101    1129  1071    55  0
2102    1093  1291  1324  0
2103    1132    60  1074  0
2104    1073  1258  1351  0
2105      62  1133    61  0
2106    1168  1133    62  0
2107    1278  1075  1203  0
2108    1325  1335  1338  0
2109    1135     7     8  0
2110    1164  1227  1135  0
2111    1412  1198  1077  0
2112    1275  1121  1198  0
2113      53  1130  1167  0
2114    1078  1259  1136  0
2115     864  1038  1079  0
2116     993  1079  1038  0
2117     968   978  1097  0
2118     933  1080  1027  0
2119    1342  1374  1393  0
2120     994  1137  1082  0
2121     198  1376  1343  0
2122     168  1481  1343  0
2123    1294  1029  1243  0
2124    1433  1395  1377  0
2125     164  1455  1432  0
2126    1086  1002   909  0
2127    1091  1022   985  0
2128    1031  1251   923  0
2129    1086   923  1251  0
2130    1087  1468  1378  0
2131    1475  1345  1378  0
2132    1008   953  1089  0
2133    1377   153  1396  0
2134     921  1252  1350  0
2135     937  1350  1089  0
2136    1025   947  1241  0
2137    1290  1090  1238  0
2138     945  1091   946  0
2139    1086  1251  1300  0
2140    1379   646  1345  0
2141    1030  1245   666  0
2142    1291   980   891  0
2143    1138  1266   594  0
2144    1305  1042  1052  0
2145    1037   193  1094  0
2146    1230  1082  1137  0
2147    1097  1040  1140  0
2148    1084   153  1395  0
2149    1140  1455  1097  0
2150    1380  1346  1478  0
2151    1300  1414  1253  0
2152    1297  1055  1249  0
2153    1027  1099  1054  0
2154    1357  1100  1297  0
2155    1048   963  1101  0
2156    1495  1101   963  0
2157    1225  1154  1102  0
2158    1111  1062    29  0
2159    1112    35    36  0
2160      34  1141  1103  0
2161    1206  1144  1173  0
2162      45    44  1142  0
2163    1217  1146  1181  0
2164    1143  1187  1186  0
2165    1061  1150  1347  0
2166    1147  1105    37  0
2167      30  1268    31  0
2168      29    28  1151  0
2169      24  1190  1283  0
2170    1153    23    22  0
2171    1062  1225  1301  0
2172    1117  1196  1273  0
2173    1254  1110  1062  0
2174    1109    27  1110  0
2175    1154    30    31  0
2176    1102  1270  1225  0
2177    1302  1063  1226  0
2178    1172  1267  1103  0
2179    1255  1113  1063  0
2180    1112    36  1113  0
2181      41  1116    40  0
2182    1226  1155  1116  0
2183    1122    44    45  0
2184      43  1156  1115  0
2185    1116  1271  1226  0
2186      39  1155  1114  0
2187    1157    25    26  0
2188    1117  1157  1196  0
2189    1117  1273  1065  0
2190    1261  1262  1421  0
2191    1159    20    21  0
2192    1119  1159  1197  0
2193    1119  1274  1066  0
2194    1068  1261  1257  0
2195    1162    48    49  0
2196    1121  1162  1198  0
2197    1256  1423  1122  0
2198    1195  1272  1115  0
2199    1256  1123  1067  0
2200    1122    45  1123  0
2201    1257  1124  1125  0
2202    1163  1263  1069  0
2203    1257  1125  1068  0
2204    1124    13  1125  0
2205    1227  1126  1276  0
2206    1135  1076     7  0
2207    1128  1277  1070  0
2208    1133  1074    61  0
2209      67  1200  1165  0
2210    1165  1128    66  0
2211    1166    56    57  0
2212     102  1129  1072  0
2213    1071   102  1278  0
2214    1203  1078  1167  0
2215     216  1202  1073  0
2216    1202  1166  1131  0
2217    1258  1132  1074  0
2218    1073    59  1132  0
2219    1168    62    63  0
2220    1229  1168  1127  0
2221    1134  1169  1264  0
2222    1165  1201  1128  0
2223       9  1164     8  0
2224    1126  1227  1164  0
2225    1078  1279  1259  0
2226    1077    50  1136  0
2227    1095  1170  1039  0
2228    1137  1039  1170  0
2229    1138  1171  1266  0
2230    1138   594  1411  0
2231     987  1139  1010  0
2232    1094  1139  1037  0
2233    1084  1140   997  0
2234     164  1393  1455  0
2235      35  1112  1141  0
2236    1172  1141  1112  0
2237    1182  1142  1104  0
2238      45  1142  1281  0
2239      41  1187    42  0
2240      40  1148  1187  0
2241    1061  1107  1150  0
2242      14    13  1233  0
2243    1061  1347  1106  0
2244    1206  1286  1231  0
2245    1105  1184  1348  0
2246    1219  1178  1220  0
2247      35  1147    36  0
2248    1184  1147  1106  0
2249    1184  1105  1147  0
2250      40  1187    41  0
2251      33  1061  1149  0
2252    1061  1106  1149  0
2253    1283  1221  1189  0
2254    1183  1146  1282  0
2255    1108  1188  1151  0
2256    1188  1268  1151  0
2257      25  1283    26  0
2258      24    23  1190  0
2259    1223  1288    19  0
2260    1188  1306  1269  0
2261      31  1102  1154  0
2262    1102  1060  1270  0
2263      40  1116  1155  0
2264    1064  1271  1116  0
2265      44  1122  1156  0
2266    1195  1156  1122  0
2267      26  1109  1157  0
2268    1196  1157  1109  0
2269      23  1065  1158  0
2270    1260  1158  1065  0
2271      21  1118  1159  0
2272    1197  1159  1118  0
2273    1261  1160  1120  0
2274    1068    15  1160  0
2275      18  1066  1161  0
2276    1262  1161  1066  0
2277      49  1077  1162  0
2278    1198  1162  1077  0
2279    1263  1163  1124  0
2280    1069    11  1163  0
2281    1069  1276  1126  0
2282    1135     8  1164  0
2283    1200    67     4  0
2284    1280  1318  1334  0
2285      57  1131  1166  0
2286    1073  1202  1131  0
2287    1203  1167  1130  0
2288    1078    52  1167  0
2289      63  1127  1168  0
2290    1127  1070  1280  0
2291       6  1076  1169  0
2292    1264  1169  1076  0
2293    1230  1305  1265  0
2294    1376  1474  1343  0
2295    1035  1093  1171  0
2296    1171  1093  1266  0
2297    1112  1113  1255  0
2298    1541  1327  1328  0
2299      65  1286    66  0
2300      64    63  1207  0
2301      60    59  1214  0
2302    1388  1365  1232  0
2303    1206  1469  1144  0
2304    1222  1288  1236  0
2305    1153  1320  1221  0
2306    1209    10  1212  0
2307    1213  1177  1144  0
2308    1211  1176     7  0
2309      52  1220    53  0
2310    1220    51  1183  0
2311    1219  1145  1178  0
2312    1174    62  1208  0
2313    1431  1388  1180  0
2314      57  1216    58  0
2315      46  1281    47  0
2316    1281  1182  1217  0
2317    1104  1143  1186  0
2318    1189  1221  1284  0
2319    1282  1146  1217  0
2320      51  1220    52  0
2321    1184  1106  1347  0
2322    1361  1104  1186  0
2323      38  1105  1185  0
2324    1105  1148  1185  0
2325    1348  1148  1105  0
2326    1347  1150  1269  0
2327    1186  1187  1148  0
2328      42  1187  1143  0
2329    1108  1152  1189  0
2330    1150  1107  1268  0
2331    1284  1221  1320  0
2332    1212  1176  1349  0
2333    1153  1221  1190  0
2334    1221  1283  1190  0
2335      20  1288    21  0
2336      19    18  1223  0
2337    1224    17    16  0
2338    1366  1175  1389  0
2339    1267  1060  1103  0
2340    1428  1301  1367  0
2341    1271  1194  1226  0
2342    1369  1452  1302  0
2343    1123  1256  1122  0
2344    1271  1309  1329  0
2345    1110  1254  1109  0
2346    1418  1118  1260  0
2347    1158  1260  1118  0
2348    1262  1261  1120  0
2349    1077  1259  1412  0
2350    1314  1275  1198  0
2351    1124  1257  1263  0
2352    1566  1264  1303  0
2353       4  1134  1200  0
2354    1165  1228  1201  0
2355    1228  1165  1200  0
2356    1304  1228  1134  0
2357     216  1072  1202  0
2358    1129  1202  1072  0
2359    1071  1203  1130  0
2360    1203  1075  1279  0
2361    1321  1229  1204  0
2362    1280  1229  1127  0
2363    1287  1231  1322  0
2364    1265  1205  1230  0
2365    1188  1269  1150  0
2366    1174  1231  1207  0
2367    1231  1286  1207  0
2368      60  1208    61  0
2369    1208  1214  1232  0
2370      11    10  1209  0
2371      10     9  1212  0
2372    1235  1175  1209  0
2373    1224  1192    17  0
2374       6  1177  1211  0
2375    1213  1211  1177  0
2376    1211  1213  1176  0
2377    1209  1212  1235  0
2378    1365  1287  1322  0
2379    1213  1349  1176  0
2380    1232  1214  1179  0
2381    1208    60  1214  0
2382      55  1145  1215  0
2383    1145  1180  1215  0
2384    1180  1179  1216  0
2385    1179    58  1216  0
2386    1181    47  1281  0
2387    1319  1217  1182  0
2388      49  1146  1218  0
2389    1146  1183  1218  0
2390    1282  1219  1183  0
2391    1322  1231  1174  0
2392    1219  1220  1183  0
2393      53  1220  1178  0
2394    1153  1191  1222  0
2395    1189  1152  1283  0
2396    1237  1289  1192  0
2397    1287  1206  1231  0
2398    1192  1236  1223  0
2399    1236  1288  1223  0
2400      15  1224    16  0
2401    1237  1224  1210  0
2402    1225  1193  1301  0
2403    1062  1111  1225  0
2404    1226  1194  1302  0
2405    1063  1114  1226  0
2406    1227  1199  1303  0
2407    1076  1135  1227  0
2408    1200  1134  1228  0
2409    1304  1134  1264  0
2410    1371  1204  1334  0
2411    1074  1133  1229  0
2412    1230  1170  1305  0
2413     147  1474  1543  0
2414    1174  1208  1232  0
2415    1206  1173  1286  0
2416    1179  1180  1388  0
2417    1387  1282  1319  0
2418      13  1175  1233  0
2419    1175  1210  1233  0
2420       8  1176  1234  0
2421    1176  1212  1234  0
2422    1287  1469  1206  0
2423    1192  1289  1236  0
2424    1192  1224  1237  0
2425    1222  1191  1288  0
2426    1366  1323  1289  0
2427    1469  1400  1401  0
2428    1290   872  1025  0
2429    1090   873  1238  0
2430    1032  1292   972  0
2431    1408  1072   216  0
2432    1293  1240  1015  0
2433    1240   609  1295  0
2434    1059  1250  1358  0
2435     872  1290  1238  0
2436    1409  1242   894  0
2437     219   895  1443  0
2438     995  1083  1243  0
2439    1029  1294  1244  0
2440    1083  1375  1294  0
2441    1294  1375  1244  0
2442     646  1379  1092  0
2443    1092  1379  1476  0
2444    1246  1295  1353  0
2445    1075  1335  1279  0
2446    1373  1392   918  0
2447    1046   738  1248  0
2448    1405  1356  1383  0
2449    1519  1531  1411  0
2450    1504  1503  1479  0
2451    1501  1340  1447  0
2452    1385  1298  1250  0
2453    1031  1049  1299  0
2454    1047  1024  1253  0
2455    1440  1004  1407  0
2456    1344  1435  1527  0
2457    1300  1091  1085  0
2458    1299  1251  1031  0
2459    1254  1062  1301  0
2460    1254  1567  1470  0
2461    1063  1302  1255  0
2462    1172  1368  1328  0
2463    1275  1067  1121  0
2464    1315  1332  1256  0
2465    1160  1261  1068  0
2466    1199  1227  1276  0
2467    1364  1258  1074  0
2468    1351   216  1073  0
2469    1413  1198  1412  0
2470    1077  1136  1259  0
2471    1260  1065  1311  0
2472    1330  1260  1311  0
2473    1120  1161  1262  0
2474    1421  1484  1498  0
2475    1262  1066  1313  0
2476    1262  1331  1421  0
2477    1336  1263  1471  0
2478    1370  1199  1333  0
2479    1076  1227  1303  0
2480    1228  1304  1201  0
2481    1415  1093  1324  0
2482    1305  1170  1095  0
2483    1460  1444  1415  0
2484    1307  1270  1060  0
2485    1270  1193  1225  0
2486      31  1268  1107  0
2487    1268    30    29  0
2488    1306  1360  1269  0
2489    1361  1319  1182  0
2490    1267  1307  1060  0
2491    1267  1172  1328  0
2492    1115  1272  1064  0
2493    1064  1309  1271  0
2494    1272  1195  1308  0
2495    1064  1272  1309  0
2496    1310  1273  1196  0
2497    1065  1273  1311  0
2498    1312  1274  1197  0
2499    1066  1274  1313  0
2500    1198  1413  1314  0
2501    1067  1275  1315  0
2502    1263  1316  1069  0
2503    1276  1069  1316  0
2504    1277  1201  1317  0
2505    1280  1204  1229  0
2506    1071  1278  1203  0
2507    1445  1338  1326  0
2508    1203  1279  1078  0
2509    1335  1075  1337  0
2510    1277  1318  1070  0
2511    1070  1318  1280  0
2512      45  1281    46  0
2513    1182  1281  1142  0
2514    1282  1217  1319  0
2515    1487  1386  1437  0
2516      26  1283  1152  0
2517    1283    25    24  0
2518    1236  1289  1222  0
2519    1366  1289  1237  0
2520    1321  1204  1371  0
2521    1467  1461  1466  0
2522      66  1286  1173  0
2523    1286    65    64  0
2524    1454  1365  1388  0
2525    1284  1399  1386  0
2526      21  1288  1191  0
2527    1288    20    19  0
2528    1366  1237  1210  0
2529    1320  1362  1284  0
2530    1025  1241  1290  0
2531    1298  1090  1358  0
2532     972  1291   891  0
2533    1291  1239  1324  0
2534    1032  1246  1353  0
2535    1335  1325  1279  0
2536    1293  1015  1354  0
2537     609  1293  1382  0
2538    1243  1083  1294  0
2539     198  1394  1083  0
2540     609  1355  1427  0
2541    1279  1325   201  0
2542    1372  1383  1248  0
2543    1398   193  1296  0
2544    1297  1384  1357  0
2545    1045  1100  1357  0
2546    1358  1090  1290  0
2547    1250  1359  1385  0
2548     666  1380  1098  0
2549    1299  1414  1300  0
2550    1299  1300  1251  0
2551    1091  1300  1253  0
2552    1270  1307  1327  0
2553    1196  1470  1310  0
2554    1271  1329  1194  0
2555    1255  1302  1565  0
2556    1276  1316  1333  0
2557    1430  1453  1370  0
2558    1566  1303  1453  0
2559    1522   167  1391  0
2560    1042  1305  1095  0
2561     196  1265  1305  0
2562    1108  1189  1306  0
2563    1360  1306  1189  0
2564    1328  1327  1307  0
2565    1270  1327  1193  0
2566    1423  1256  1332  0
2567    1329  1429  1369  0
2568    1272  1308  1309  0
2569    1309  1308  1329  0
2570    1196  1254  1470  0
2571    1118  1418  1197  0
2572    1273  1310  1311  0
2573    1330  1311  1310  0
2574    1260  1330  1418  0
2575    1262  1313  1331  0
2576    1274  1312  1313  0
2577    1331  1313  1312  0
2578    1308  1423  1512  0
2579    1067  1315  1256  0
2580    1275  1314  1315  0
2581    1332  1315  1314  0
2582    1316  1336  1333  0
2583    1276  1333  1199  0
2584    1201  1304  1317  0
2585    1264  1566  1304  0
2586    1277  1317  1318  0
2587    1318  1317  1334  0
2588    1361  1182  1104  0
2589    1348  1186  1148  0
2590    1153  1222  1320  0
2591    1362  1320  1222  0
2592    1258  1364   197  0
2593    1364  1363   197  0
2594    1174  1232  1322  0
2595    1365  1322  1232  0
2596    1235  1212  1349  0
2597    1287  1365  1400  0
2598    1417  1326  1416  0
2599    1441  1351  1459  0
2600    1353  1292  1032  0
2601    1427  1449  1450  0
2602    1278   102  1326  0
2603     102  1072  1416  0
2604    1267  1328  1307  0
2605    1301  1193  1367  0
2606    1368  1172  1255  0
2607    1367  1451  1428  0
2608    1492  1512  1423  0
2609    1194  1329  1369  0
2610    1419  1330  1310  0
2611    1312  1197  1418  0
2612    1420  1331  1312  0
2613    1484  1331  1420  0
2614    1314  1463  1332  0
2615    1423  1308  1195  0
2616    1336  1316  1263  0
2617    1303  1199  1370  0
2618     167  1371  1391  0
2619    1371   167  1285  0
2620    1337  1075  1278  0
2621    1335  1337  1338  0
2622    1471  1263  1257  0
2623    1499  1680  1692  0
2624    1278  1326  1337  0
2625    1338  1337  1326  0
2626    1445  1326  1417  0
2627    1426  1292  1353  0
2628    1340  1424  1447  0
2629     918  1392   137  0
2630    1043  1340  1501  0
2631     911  1341   996  0
2632     765  1341   990  0
2633    1394  1375  1083  0
2634    1374   989   919  0
2635    1376   198  1082  0
2636     178  1434  1433  0
2637    1396  1088  1089  0
2638    1345   646  1378  0
2639    1502  1476  1379  0
2640     666  1346  1380  0
2641    1245  1472   666  0
2642    1269  1360  1386  0
2643    1184  1347  1348  0
2644    1536  1269  1386  0
2645    1186  1348  1361  0
2646    1144  1469  1213  0
2647    1235  1390  1389  0
2648    1440  1564  1252  0
2649    1089  1350  1448  0
2650    1258   197  1351  0
2651    1441  1408   216  0
2652    1259   201  1352  0
2653     201  1325  1352  0
2654    1295   609  1427  0
2655    1426  1338  1445  0
2656    1381  1014  1045  0
2657    1382  1404  1438  0
2658    1293  1354  1397  0
2659    1449  1427  1355  0
2660    1017  1046  1356  0
2661    1383  1046  1248  0
2662    1384  1297  1249  0
2663    1381  1354  1014  0
2664    1059  1358  1241  0
2665    1250  1298  1358  0
2666    1473  1250  1057  0
2667     880   882  1359  0
2668    1189  1284  1360  0
2669    1386  1360  1284  0
2670    1536  1347  1269  0
2671    1319  1361  1387  0
2672    1222  1289  1362  0
2673    1436  1289  1323  0
2674    1321  1285  1363  0
2675    1494  1415  1444  0
2676    1229  1364  1074  0
2677    1363  1364  1321  0
2678    1232  1179  1388  0
2679    1282  1387  1491  0
2680    1210  1175  1366  0
2681    1389  1175  1235  0
2682    1328  1368  1541  0
2683     170  1637  1624  0
2684    1565  1302  1452  0
2685    1561  1541  1558  0
2686    1429  1329  1308  0
2687    1369  1429  1452  0
2688    1430  1370  1333  0
2689    1453  1303  1370  0
2690    1371  1334  1391  0
2691    1285  1321  1371  0
2692    1553  1247  1406  0
2693    1383  1356  1046  0
2694     219  1373   824  0
2695    1339  1402  1537  0
2696    1393  1374  1081  0
2697    1342   989  1374  0
2698    1375  1394  1481  0
2699    1535  1489   742  0
2700    1376  1543  1474  0
2701    1343  1474   168  0
2702     153  1377  1395  0
2703    1088  1396   153  0
2704     993  1468  1087  0
2705    1345  1475   189  0
2706    1345   189  1477  0
2707     666  1472  1346  0
2708    1478  1346   647  0
2709    1478  1506  1380  0
2710    1381  1479  1503  0
2711    1458  1548  1465  0
2712    1403  1354  1381  0
2713    1397  1382  1293  0
2714    1398  1406  1247  0
2715    1398  1405  1406  0
2716    1411  1249  1036  0
2717    1653  1629  1504  0
2718    1359   882  1385  0
2719     883  1385   882  0
2720    1399  1284  1362  0
2721    1456  1436  1323  0
2722    1511  1437  1400  0
2723    1454  1388  1431  0
2724    1431  1180  1145  0
2725    1400  1365  1454  0
2726    1390  1235  1349  0
2727    1323  1366  1389  0
2728    1401  1390  1349  0
2729    1323  1389  1390  0
2730    1334  1317  1391  0
2731    1480  1505  1523  0
2732    1402  1392  1373  0
2733    1372   137  1392  0
2734    1097  1393  1081  0
2735    1342  1393   164  0
2736     198  1343  1394  0
2737    1481  1394  1343  0
2738    1377  1344  1433  0
2739    1084  1434  1140  0
2740    1448  1350  1425  0
2741    1377  1396  1435  0
2742    1403  1397  1354  0
2743    1439  1397  1403  0
2744    1362  1436  1399  0
2745    1405  1296  1356  0
2746    1390  1401  1323  0
2747    1387  1361  1487  0
2748    1436  1456  1399  0
2749    1349  1213  1469  0
2750    1437  1386  1399  0
2751    1373  1563  1537  0
2752    1554  1339  1538  0
2753    1397  1439  1404  0
2754    1355  1382  1438  0
2755    1403  1381  1458  0
2756    1464  1679  1704  0
2757    1405  1383  1406  0
2758    1398  1296  1405  0
2759    1383  1372  1406  0
2760    1372  1554  1406  0
2761     880   734  1539  0
2762    1252   962  1440  0
2763    1441   216  1351  0
2764    1324  1239  1442  0
2765     894  1507  1409  0
2766    1528  1534  1689  0
2767    1443  1242  1488  0
2768    1606  1410   203  0
2769    1513  1517   594  0
2770    1517  1411   594  0
2771    1259  1352  1412  0
2772    1413  1412  1352  0
2773    1352   171  1413  0
2774    1314  1413   171  0
2775    1506  1299  1380  0
2776     894  1047  1482  0
2777    1324  1442  1460  0
2778    1444   197  1363  0
2779    1072  1408  1416  0
2780    1417  1416  1408  0
2781    1442  1417  1408  0
2782    1462  1292  1445  0
2783    1483  1330  1419  0
2784    1576   218  1546  0
2785    1301  1567  1254  0
2786    1470  1588  1637  0
2787    1418  1545  1312  0
2788    1418  1330  1483  0
2789    1484  1421  1331  0
2790    1257  1498  1471  0
2791    1314   171  1463  0
2792    1446   171  1540  0
2793    1492  1332  1463  0
2794    1332  1492  1423  0
2795    1340   744  1424  0
2796     744  1244  1424  0
2797    1490  1486  1527  0
2798    1435  1344  1377  0
2799    1450  1353  1295  0
2800    1325  1338  1426  0
2801     593  1449  1355  0
2802    1295  1427  1450  0
2803    1367  1327  1451  0
2804    1688  1705  1639  0
2805    1520  1593  1500  0
2806    1472  1476  1521  0
2807    1430  1336  1499  0
2808    1650  1668  1672  0
2809    1145  1219  1431  0
2810    1491  1219  1282  0
2811    1485  1344   139  0
2812    1140  1096  1432  0
2813    1434   178  1096  0
2814    1433  1434  1395  0
2815    1096  1140  1434  0
2816    1448  1396  1089  0
2817    1448  1490  1435  0
2818    1289  1436  1362  0
2819    1456  1323  1401  0
2820    1401  1400  1437  0
2821    1454  1511  1400  0
2822    1464  1438  1404  0
2823     593  1355  1438  0
2824    1458  1439  1403  0
2825    1439  1458  1465  0
2826    1407  1539  1555  0
2827    1564  1425  1252  0
2828    1459  1351   197  0
2829    1408  1460  1442  0
2830    1442  1239  1462  0
2831    1408  1441  1460  0
2832    1488  1242  1409  0
2833     219  1443  1410  0
2834    1285  1461  1363  0
2835    1363  1461  1444  0
2836    1462  1445  1417  0
2837    1426  1445  1292  0
2838     171  1446  1463  0
2839    1556   171  1352  0
2840    1510  1549  1529  0
2841    1473  1359  1250  0
2842    1490  1448  1425  0
2843    1396  1448  1435  0
2844    1457  1542   593  0
2845     171  1556  1540  0
2846    1581  1449  1542  0
2847    1325  1426  1450  0
2848    1327  1541  1451  0
2849    1451  1561  1639  0
2850    1571  1641  1697  0
2851    1587  1558  1565  0
2852    1628  1430  1499  0
2853    1657  1644  1480  0
2854    1431  1219  1491  0
2855    1454  1491  1511  0
2856    1097  1455  1393  0
2857    1140  1432  1455  0
2858    1401  1437  1456  0
2859    1399  1456  1437  0
2860    1457   593  1464  0
2861     156  1422  1582  0
2862    1045  1479  1381  0
2863    1465  1464  1404  0
2864     197  1444  1459  0
2865    1460  1459  1444  0
2866    1460  1441  1459  0
2867    1324  1460  1415  0
2868     167  1466  1285  0
2869    1461  1285  1466  0
2870    1442  1462  1417  0
2871    1292  1462  1239  0
2872    1446  1422  1463  0
2873    1463  1422  1492  0
2874    1404  1439  1465  0
2875    1464  1465  1679  0
2876    1548  1458  1503  0
2877    1465  1548  1679  0
2878    1525  1522  1524  0
2879    1461  1467  1444  0
2880    1525   167  1522  0
2881    1514  1513   594  0
2882    1495  1056  1101  0
2883    1468  1056  1495  0
2884    1400  1469  1287  0
2885    1349  1469  1401  0
2886    1470  1567  1588  0
2887    1419  1310  1470  0
2888    1257  1261  1498  0
2889    1499  1471  1498  0
2890    1092  1476  1245  0
2891    1379  1477  1502  0
2892    1057  1043  1501  0
2893    1510  1447   742  0
2894    1376  1230  1543  0
2895    1589   147  1568  0
2896    1497  1378  1468  0
2897    1616  1591  1607  0
2898    1379  1345  1477  0
2899    1472  1245  1476  0
2900    1571   189  1591  0
2901    1346  1500   647  0
2902    1645   156  1582  0
2903    1506  1482  1414  0
2904    1504  1357  1384  0
2905    1458  1381  1503  0
2906    1523  1505  1522  0
2907    1644  1656  1584  0
2908    1590   168  1569  0
2909    1632  1489  1535  0
2910    1299  1506  1414  0
2911    1507   894  1482  0
2912    1419  1637  1559  0
2913    1418  1483  1545  0
2914    1420  1596  1546  0
2915    1498  1484  1578  0
2916    1573   178  1594  0
2917     178  1433  1485  0
2918    1547  1486  1490  0
2919    1486  1604  1575  0
2920    1361  1348  1487  0
2921    1348  1347  1536  0
2922    1488  1409  1509  0
2923    1410  1443  1488  0
2924     742  1489  1510  0
2925    1535   742  1244  0
2926    1547  1490  1425  0
2927     139  1344  1527  0
2928    1491  1387  1511  0
2929    1491  1454  1431  0
2930    1512  1492  1630  0
2931    1308  1512  1429  0
2932    1493  1515  1518  0
2933    1493   205  1631  0
2934    1518   205  1493  0
2935    1514   594  1266  0
2936    1497   211  1475  0
2937    1468  1495  1497  0
2938     211  1497  1496  0
2939    1495   963  1496  0
2940    1475  1378  1497  0
2941    1546  1484  1420  0
2942    1680  1498  1578  0
2943    1692  1706  1708  0
2944    1336  1471  1499  0
2945    1500  1521  1520  0
2946    1593  1647  1572  0
2947    1529  1447  1510  0
2948    1057  1501  1473  0
2949    1520  1502  1477  0
2950    1472  1521  1500  0
2951    1479  1357  1504  0
2952    1548   222  1679  0
2953    1519  1533  1531  0
2954    1629   150  1715  0
2955    1523  1391  1317  0
2956    1560  1518  1526  0
2957    1646  1478  1592  0
2958    1507  1506   221  0
2959    1506  1507  1482  0
2960     221  1409  1507  0
2961    1486  1508  1527  0
2962    1486  1579  1604  0
2963    1534  1532  1509  0
2964    1532   203  1509  0
2965    1549  1489   733  0
2966     880  1551  1580  0
2967    1387  1487  1511  0
2968    1437  1511  1487  0
2969    1630  1492  1422  0
2970    1593  1572   647  0
2971    1513  1514  1515  0
2972    1516  1513  1493  0
2973    1266  1494  1514  0
2974    1513  1515  1493  0
2975    1514  1494  1515  0
2976    1467  1515  1494  0
2977    1585  1631   205  0
2978    1552  1635  1533  0
2979    1513  1516  1517  0
2980    1519  1517  1516  0
2981    1515  1467  1518  0
2982    1466  1525  1526  0
2983    1519  1516  1530  0
2984    1411  1531  1249  0
2985    1477   189  1571  0
2986    1685  1641  1429  0
2987    1476  1502  1521  0
2988    1520  1521  1502  0
2989    1523  1522  1391  0
2990    1522  1505  1524  0
2991    1304  1640  1317  0
2992    1304  1566  1640  0
2993    1480  1584  1505  0
2994    1656  1550  1584  0
2995    1525  1524  1526  0
2996    1466   167  1525  0
2997    1583  1560  1526  0
2998    1518  1467  1526  0
2999    1490  1527  1435  0
3000     139  1527  1508  0
3001     221  1534  1409  0
3002     161  1605  1614  0
3003    1489  1549  1510  0
3004    1473  1551  1359  0
3005    1516  1493  1631  0
3006    1710  1652  1552  0
3007    1533  1519  1530  0
3008    1384  1249  1531  0
3009    1534  1509  1409  0
3010    1586  1605  1562  0
3011    1631  1651  1686  0
3012    1384  1531  1533  0
3013    1689   221  1659  0
3014    1528  1532  1534  0
3015    1375  1481  1535  0
3016     168  1590  1481  0
3017    1386  1487  1536  0
3018    1348  1536  1487  0
3019    1703  1708  1713  0
3020    1373  1537  1402  0
3021    1402  1554  1372  0
3022    1621   206  1602  0
3023     593  1542  1449  0
3024    1557  1422  1446  0
3025    1558  1368  1565  0
3026    1561  1451  1541  0
3027    1645  1582  1658  0
3028    1581  1542  1540  0
3029    1230  1205  1543  0
3030     147  1543  1205  0
3031    1420  1312  1545  0
3032    1610  1618  1600  0
3033    1597  1483  1559  0
3034    1545  1597  1596  0
3035    1499  1498  1680  0
3036    1484  1546  1578  0
3037    1602  1425  1564  0
3038    1579  1486  1547  0
3039    1629  1548  1503  0
3040    1715  1548  1629  0
3041    1655  1642  1549  0
3042    1529  1580  1551  0
3043    1583  1524  1584  0
3044    1651  1631  1585  0
3045    1529  1549  1580  0
3046     880  1359  1551  0
3047    1629  1652  1717  0
3048    1533  1530  1552  0
3049    1339  1554  1402  0
3050    1538     1  1553  0
3051    1554  1538  1553  0
3052    1555  1539  1636  0
3053    1602  1564  1621  0
3054    1325  1556  1352  0
3055    1581  1450  1449  0
3056    1542  1643  1540  0
3057    1582  1557  1643  0
3058    1639  1561  1688  0
3059    1541  1368  1558  0
3060    1544  1597  1598  0
3061    1544  1596  1597  0
3062    1583  1526  1524  0
3063    1585   205  1560  0
3064    1654   157  1638  0
3065    1639  1588  1428  0
3066     219  1410  1563  0
3067    1532  1586   203  0
3068     203  1586  1606  0
3069    1440  1555  1564  0
3070    1684  1612  1621  0
3071    1565  1452  1587  0
3072    1368  1255  1565  0
3073    1453  1628  1650  0
3074    1640  1523  1317  0
3075    1301  1428  1567  0
3076    1588  1567  1428  0
3077    1670  1674  1634  0
3078    1569   168  1589  0
3079     177  1569  1568  0
3080    1687  1587  1698  0
3081    1475   211  1570  0
3082    1429  1641  1452  0
3083     647  1572  1592  0
3084    1500  1593   647  0
3085    1595  1508  1575  0
3086    1594  1485   139  0
3087    1574  1595  1608  0
3088    1508  1595   139  0
3089    1596  1420  1545  0
3090    1610  1600  1576  0
3091    1601  1577  1578  0
3092    1601  1625  1577  0
3093    1601  1578  1546  0
3094    1578  1577  1680  0
3095    1547  1425  1602  0
3096    1613  1604  1579  0
3097    1642  1580  1549  0
3098     880  1580   734  0
3099    1540  1556  1581  0
3100    1450  1581  1556  0
3101    1540  1643  1557  0
3102    1592  1572  1645  0
3103    1524  1505  1584  0
3104    1585  1583  1550  0
3105    1644   149  1656  0
3106    1550  1583  1584  0
3107    1583  1585  1560  0
3108    1516  1631  1530  0
3109    1605  1532  1528  0
3110    1615  1606  1586  0
3111    1587  1452  1641  0
3112    1698   157  1687  0
3113    1451  1639  1428  0
3114    1624  1588   181  0
3115     147  1589  1474  0
3116    1568  1569  1589  0
3117    1681  1569   151  0
3118    1683  1535  1481  0
3119    1616   210  1591  0
3120     210  1571  1591  0
3121    1572   156  1645  0
3122     188  1664  1658  0
3123    1685  1697  1641  0
3124    1647  1630   156  0
3125    1595  1594   139  0
3126       3  1594  1574  0
3127    1608  1595  1575  0
3128    1594  1595  1574  0
3129    1544  1576  1596  0
3130    1596  1576  1546  0
3131    1483  1597  1545  0
3132    1597  1559  1598  0
3133    1559   170  1598  0
3134    1599  1617   166  0
3135     218  1620  1601  0
3136    1609  1598  1617  0
3137     218  1576  1600  0
3138    1546   218  1601  0
3139    1600  1620   218  0
3140     206  1579  1602  0
3141    1547  1602  1579  0
3142    1579   206  1613  0
3143    1603  1613  1622  0
3144     179  1575  1604  0
3145    1614  1605  1528  0
3146    1562  1605   161  0
3147    1615  1586  1562  0
3148    1563  1410  1606  0
3149    1475  1570  1607  0
3150    1616  1570   145  0
3151    1617  1598   170  0
3152    1575   179  1608  0
3153     200  1600  1618  0
3154    1544  1609  1610  0
3155    1610  1609  1618  0
3156    1612   206  1621  0
3157    1625  1601  1620  0
3158     186   165  1612  0
3159    1622  1613   206  0
3160    1604  1623   179  0
3161    1528   183  1614  0
3162    1648  1614   183  0
3163    1570  1616  1607  0
3164    1606  1615  1563  0
3165    1660  1616   145  0
3166    1617   170  1626  0
3167    1599  1609  1617  0
3168    1600  1619  1620  0
3169    1609  1599  1618  0
3170    1600   200  1619  0
3171    1625  1619  1611  0
3172    1564  1555  1621  0
3173    1555  1636  1684  0
3174     206  1612  1622  0
3175     165  1622  1612  0
3176    1617  1626   166  0
3177    1613  1603  1623  0
3178     170  1559  1637  0
3179    1619  1625  1620  0
3180    1627  1611   148  0
3181     170  1624  1626  0
3182    1626  1624  1694  0
3183    1611  1627  1625  0
3184     148   154  1627  0
3185    1696   186  1684  0
3186    1453  1430  1628  0
3187    1503  1504  1629  0
3188    1635  1504  1384  0
3189    1422   156  1630  0
3190     156  1572  1647  0
3191    1550  1651  1585  0
3192    1691  1550   182  0
3193    1590  1569  1681  0
3194    1667  1670  1661  0
3195    1662  1665  1666  0
3196     149  1663  1669  0
3197    1667  1661   733  0
3198    1642  1655  1662  0
3199    1652  1635  1552  0
3200    1504  1635  1653  0
3201    1707  1539   734  0
3202    1633   149  1669  0
3203    1470  1637  1419  0
3204    1588  1624  1637  0
3205    1558  1654  1561  0
3206     157   173  1638  0
3207    1561  1654  1688  0
3208    1588  1639  1705  0
3209    1650  1672  1453  0
3210    1523  1640  1657  0
3211    1512  1685  1429  0
3212    1571   210  1698  0
3213    1549   733  1655  0
3214    1633   734  1642  0
3215    1542  1457  1643  0
3216    1658  1457   188  0
3217    1584  1480  1644  0
3218    1657  1480  1523  0
3219    1658  1582  1643  0
3220    1646  1659   221  0
3221    1664  1592  1645  0
3222     221  1506  1646  0
3223    1697  1685  1647  0
3224    1512  1630  1647  0
3225    1673  1650  1703  0
3226    1709  1648   183  0
3227    1660   157   210  0
3228    1663  1644  1657  0
3229    1670  1634  1661  0
3230    1530  1686  1552  0
3231    1552  1686  1710  0
3232    1717  1652   227  0
3233    1635  1652  1653  0
3234    1652  1629  1653  0
3235    1558  1587  1687  0
3236    1638   192  1688  0
3237    1634  1665  1661  0
3238    1642  1662  1633  0
3239    1633  1662  1666  0
3240    1656   182  1550  0
3241    1657  1672  1668  0
3242    1644  1663   149  0
3243    1457  1658  1643  0
3244    1664   188  1659  0
3245    1664  1646  1592  0
3246    1457  1704   188  0
3247     145  1649  1660  0
3248     157  1660  1649  0
3249    1655   733  1661  0
3250    1632  1667   733  0
3251    1661  1665  1655  0
3252    1634   182  1666  0
3253    1657  1668  1663  0
3254    1668  1669  1663  0
3255    1658  1664  1645  0
3256    1659  1646  1664  0
3257    1666  1665  1634  0
3258    1662  1655  1665  0
3259     182  1656  1666  0
3260     149  1666  1656  0
3261    1632  1683  1671  0
3262    1632  1675  1667  0
3263    1672  1657  1640  0
3264    1650  1673  1668  0
3265    1673  1669  1668  0
3266    1669  1701  1707  0
3267    1671  1675  1632  0
3268    1634  1674   182  0
3269    1700  1699  1681  0
3270    1719   213   194  0
3271    1640  1566  1672  0
3272    1453  1672  1566  0
3273    1650  1628  1703  0
3274    1669  1673  1701  0
3275    1667  1675  1670  0
3276    1670  1677  1674  0
3277    1676  1675  1671  0
3278    1670  1675  1677  0
3279    1695  1671  1683  0
3280    1651  1711  1686  0
3281    1675  1676  1677  0
3282    1678  1677  1676  0
3283    1676  1699  1700  0
3284    1674  1691   182  0
3285     183  1704  1709  0
3286    1689  1704   183  0
3287    1577   154  1680  0
3288    1692  1680   154  0
3289    1700   151   195  0
3290    1671  1695  1699  0
3291    1683  1590  1695  0
3292     181   180  1682  0
3293    1535  1683  1632  0
3294    1555  1684  1621  0
3295    1684  1636  1696  0
3296    1512  1647  1685  0
3297    1647  1593  1697  0
3298    1678  1711  1691  0
3299     227  1710  1718  0
3300    1587  1641  1698  0
3301     157  1654  1687  0
3302    1638  1688  1654  0
3303    1588  1705   181  0
3304     188  1689  1659  0
3305     183  1528  1689  0
3306    1686  1718  1710  0
3307    1678  1676  1690  0
3308    1711  1678  1690  0
3309    1550  1691  1651  0
3310    1706   225  1708  0
3311    1628  1499  1692  0
3312    1624   181  1694  0
3313    1693  1626  1694  0
3314     181  1682  1694  0
3315    1590  1681  1695  0
3316    1699  1695  1681  0
3317    1701  1696  1636  0
3318    1702   186  1696  0
3319    1593  1520  1697  0
3320    1697  1520  1571  0
3321    1571  1698  1641  0
3322     157  1698   210  0
3323     151  1700  1681  0
3324    1676  1671  1699  0
3325    1719   195   213  0
3326    1676  1700  1690  0
3327    1707  1636  1539  0
3328    1701  1673  1703  0
3329    1713  1696  1701  0
3330     225   209  1702  0
3331    1628  1708  1703  0
3332    1713  1708   225  0
3333    1704  1679  1709  0
3334    1689   188  1704  0
3335    1688   192  1705  0
3336     140  1705   192  0
3337    1692   154  1706  0
3338     154   148  1706  0
3339    1633  1707   734  0
3340    1636  1707  1701  0
3341    1708  1628  1692  0
3342    1713   225  1702  0
3343    1679   222  1709  0
3344     204  1709   222  0
3345    1711  1718  1686  0
3346     227  1652  1710  0
3347    1691  1711  1651  0
3348    1711  1690  1718  0
3349    1696  1713  1702  0
3350    1702   209  1712  0
3351    1703  1713  1701  0
3352     222  1548  1715  0
3353     146  1715   150  0
3354    1714   222  1715  0
3355     227   215  1716  0
3356    1629  1717   150  0
3357     146  1717  1716  0
3358    1718  1690  1719  0
3359    1718   194   227  0
3360    1690  1700  1719  0
3361     195  1719  1700  0
# Generated by C:\Users\lukem\Python\PATH\modflow_exe\triangle.exe -a -q32 -A -p -V -D -e -n _triangle.0
