1720  2  0  1
   0    0  0    1
   1    0  450    1
   2    600  450    2
   3    600  0    3
   4    279.71108360033179  164.11897158022637    5
   5    278.84711682419385  158.29458067903229    5
   6    277.41642014393256  152.58291936473225    6
   7    275.43277195067719  147.0389940580946    7
   8    272.91527586090132  141.71619579044014    8
   9    269.88817673815271  136.66578601882387    9
  10    266.38062720176424  131.93640295018128    10
  11    262.42640687119285  127.57359312880715    11
  12    258.06359704981872  123.61937279823579    12
  13    253.33421398117613  120.11182326184729    13
  14    248.28380420955986  117.08472413909871    14
  15    242.9610059419054  114.56722804932279    15
  16    237.41708063526775  112.58357985606747    16
  17    231.70541932096771  111.15288317580618    17
  18    225.88102841977366  110.28891639966818    18
  19    220  110    19
  20    214.11897158022637  110.28891639966818    20
  21    208.29458067903232  111.15288317580618    21
  22    202.58291936473228  112.58357985606747    22
  23    197.0389940580946  114.56722804932279    23
  24    191.71619579044014  117.0847241390987    24
  25    186.66578601882389  120.11182326184728    25
  26    181.93640295018128  123.61937279823577    26
  27    177.57359312880715  127.57359312880715    27
  28    173.61937279823579  131.93640295018128    28
  29    170.11182326184729  136.66578601882387    29
  30    167.08472413909871  141.71619579044014    30
  31    164.56722804932281  147.0389940580946    31
  32    162.58357985606747  152.58291936473225    32
  33    161.15288317580618  158.29458067903229    33
  34    160.28891639966818  164.11897158022634    34
  35    160  170    35
  36    160.28891639966818  175.88102841977363    36
  37    161.15288317580618  181.70541932096771    37
  38    162.58357985606747  187.41708063526772    38
  39    164.56722804932278  192.96100594190537    39
  40    167.08472413909868  198.28380420955986    40
  41    170.11182326184726  203.33421398117611    41
  42    173.61937279823576  208.06359704981872    42
  43    177.57359312880715  212.42640687119285    43
  44    181.93640295018125  216.38062720176418    44
  45    186.66578601882387  219.88817673815271    45
  46    191.71619579044014  222.91527586090129    46
  47    197.03899405809457  225.43277195067719    47
  48    202.58291936473225  227.41642014393253    48
  49    208.29458067903229  228.84711682419382    49
  50    214.11897158022637  229.71108360033182    50
  51    220  230    51
  52    225.8810284197736  229.71108360033182    52
  53    231.70541932096771  228.84711682419382    53
  54    237.41708063526772  227.41642014393253    54
  55    242.9610059419054  225.43277195067719    55
  56    248.28380420955986  222.91527586090132    56
  57    253.33421398117611  219.88817673815274    57
  58    258.06359704981872  216.38062720176421    58
  59    262.42640687119285  212.42640687119285    59
  60    266.38062720176418  208.06359704981875    60
  61    269.88817673815271  203.33421398117613    61
  62    272.91527586090126  198.28380420955989    62
  63    275.43277195067719  192.96100594190543    63
  64    277.41642014393256  187.41708063526775    64
  65    278.84711682419379  181.70541932096774    65
  66    279.71108360033179  175.88102841977363    66
  67    280  170    67
  68    272.63333919363885  297.21026903245297    69
  69    552.6333391936389  167.21026903245294    69
  70    555.23957897053765  165.8409603691648    70
  71    557.69905327114895  164.22278913141571    71
  72    559.98807601347232  162.37133919280765    72
  73    562.08460265719225  160.30444102835483    73
  74    563.96844250465142  158.04199999726245    74
  75    565.62145314830741  155.60580464343599    75
  76    567.02771519203418  153.01931685989263    76
  77    568.17368556360964  150.30744593790595    77
  78    569.0483279419044  147.49630867691414    78
  79    569.64321904268718  144.6129778654645    79
  80    569.95262973945717  141.6852215554602    80
  81    569.97358023806316  138.74123564064101    81
  82    569.70586877375081  135.80937231471304    82
  83    569.15207355426764  132.91786702422451    83
  84    568.31752793031251  130.0945665457804    84
  85    567.21026903245297  127.36666080636112    85
  86    565.8409603691648  124.76042102946231    86
  87    564.22278913141577  122.30094672885105    87
  88    562.37133919280768  120.01192398652765    88
  89    560.30444102835486  117.91539734280781    89
  90    558.04199999726245  116.03155749534857    90
  91    555.60580464343604  114.37854685169259    91
  92    553.01931685989268  112.97228480796582    92
  93    550.30744593790598  111.82631443639036    93
  94    547.49630867691417  110.95167205809564    94
  95    544.61297786546447  110.35678095731276    95
  96    541.6852215554602  110.04737026054286    96
  97    538.74123564064098  110.02641976193689    97
  98    535.80937231471307  110.29413122624914    98
  99    532.91786702422451  110.84792644573231    99
 100    530.09456654578037  111.68247206968752    100
 101    527.3666608063611  112.78973096754706    101
 102    247.77183027768095  242.60161657014856    102
 103    38.182421042624966  332.42564909945827    103
 104    35.536566893662688  333.71675243090181    104
 105    33.0300035120312  335.26097780432042    105
 106    30.6868704733226  337.0434534852086    106
 107    28.529733429586422  339.04701325835907    107
 108    26.579366789764908  341.25236174789922    108
 109    24.854553650778417  343.6382602423086    109
 110    23.371904906034139  346.18173123482137    110
 111    22.145699273442222  348.85827970937692    111
 112    21.1877457835567  351.64212904101498    112
 113    20.507270052155828  354.50646923886507    113
 114    20.110825432518865  357.42371514101433    114
 115    20.002229903051585  360.36577207469617    115
 116    20.18252929806712  363.30430642334733    116
 117    20.649987235829784  366.21101849482397    117
 118    21.400101840860433  369.05791506290745    118
 119    22.425649099458262  371.81757895737502    119
 120    23.716752430901817  374.46343310633733    120
 121    25.260977804320422  376.96999648796879    121
 122    27.043453485208587  379.31312952667741    122
 123    29.047013258359058  381.47026657041357    123
 124    31.252361747899197  383.42063321023511    124
 125    33.638260242308611  385.14544634922157    125
 126    36.18173123482137  386.62809509396584    126
 127    38.858279709376887  387.85430072655777    127
 128    41.642129041014968  388.81225421644331    128
 129    44.506469238865087  389.49272994784417    129
 130    47.423715141014313  389.88917456748112    130
 131    50.365772074696146  389.99777009694844    131
 132    53.304306423347299  389.8174707019329    132
 133    56.211018494823975  389.35001276417023    133
 134    59.057915062907426  388.59989815913957    134
 135    61.817578957375034  387.57435090054173    135
 136    271.81757895737502  297.57435090054173    136
 137    40  410    138
 138    560  410    138
 139    560  40    139
 140    40  40    140
 141    560  162.35958371813203    73
 142    560  117.66190205495961    90
 143    40  388.24717936565855    128
 144    40  331.64668668915465    103
 145    0  225    1
 146    300  450    2
 147    600  225    3
 148    300  0    4
 149    387.56924554202101  177.69567376884783    102
 150    300  410    138
 151    560  290.35958371813206    139
 152    560  140.01074288654581    139
 153    560  85.661902054959612    139
 154    300  40    140
 155    40  396.24717936565855    141
 156    143.88591513884046  287.12415162965164    103
 157    40  185.82334334457732    141
 158    40  363.64668668915465    141
 159    0  112.5    1
 160    0  337.5    1
 161    150  450    2
 162    450  450    2
 163    600  337.5    3
 164    600  112.5    3
 165    450  0    4
 166    150  0    4
 167    317.67053790985096  210.1486451694982    102
 168    560  226.35958371813203    139
 169    560  154.35958371813203    139
 170    170  40    140
 171    195.82887270826069  264.8628840999001    103
 172    40  347.64668668915465    141
 173    0  168.75    1
 174    75  450    2
 175    525  450    2
 176    600  393.75    3
 177    600  281.25    3
 178    600  56.25    3
 179    525  0    4
 180    75  0    4
 181    105  40    140
 182    412.6333391936389  232.21026903245294    69
 183    170  410    138
 184    560  125.66190205495961    139
 185    560  101.66190205495961    139
 186    430  40    140
 187    40  392.24717936565855    141
 188    166.81757895737502  342.57435090054173    136
 189    40  267.64668668915465    141
 190    40  372.24717936565855    141
 191    0  56.25    1
 192    40  103.99999999999999    141
 193    0  393.75    1
 194    430  410    138
 195    560  346    139
 196    600  168.75    3
 197    282.72118409376594  226.37513086982338    102
 198    560  194.35958371813203    139
 199    560  158.35958371813203    139
 200    225  0    4
 201    221.80035149297083  253.73225033502433    103
 202    40  339.64668668915465    141
 203    105  410    138
 204    225  450    2
 205    342.6333391936389  264.71026903245297    69
 206    495  40    140
 207    560  121.66190205495961    139
 208    560  109.66190205495961    139
 209    375  0    4
 210    40  226.73501501686599    141
 211    0  281.25    1
 212    40  380.24717936565855    141
 213    496  410    138
 214    0  365.625    1
 215    375  450    2
 216    265.24650718572343  234.48837371998599    102
 217    560  178.35958371813203    139
 218    235  40    140
 219    72.5  410    138
 220    40  335.64668668915465    141
 221    114.31757895737502  365.07435090054173    136
 222    235  410    138
 223    560  119.66190205495961    139
 224    560  113.66190205495961    139
 225    365  40    140
 226    40  384.24717936565855    141
 227    365  410    138
 228    560  170.35958371813203    139
 229    560  118.66190205495961    139
 230    560  115.66190205495961    139
 231    40  386.24717936565855    141
 232    560  118.16190205495961    139
 233    560  166.35958371813203    139
 234    561.33789011058127  118.96366066466773    89
 235    560  164.35958371813203    139
 236    560  163.35958371813203    139
 237    558.84356464231064  163.29706416211167    72
 238    560  162.85958371813203    139
 239    560  162.60958371813203    139
 240    559.41582032789142  162.83420167745967    72
 241    560  162.48458371813203    139
 242    559.70194817068182  162.60277043513369    72
 243    560  162.42208371813203    139
 244    560  162.39083371813203    139
 245    559.89088784539206  162.44994873411915    72
 246    560  162.37520871813203    139
 247    559.93948192943219  162.4106439634634    72
 248    559.96377897145226  162.39099157813553    72
 249    559.98195723925949  162.40645871813203    0
 250    559.97592749246235  162.38116538547155    72
 251    559.99087486330029  162.38302121813203    0
 252    559.98817557676625  162.39540944170119    0
 253    560  162.40645871813203    139
 254    559.97554697887801  162.39557671343175    0
 255    559.95163045044228  162.40081777079942    72
 256    559.9650861966694  162.40503070501128    0
 257    560  160.35958371813203    139
 258    560.71212078435804  161.65752674858803    73
 259    560  161.35958371813203    139
 260    559.95415214764444  162.41635839870736    0
 261    560  161.85958371813203    139
 262    560.35606039217896  162.00855523336006    73
 263    559.94142740799089  162.37578038383776    0
 264    560  162.10958371813203    139
 265    560.17803019608948  162.18406947574604    73
 266    559.96572445001095  162.35612799850989    0
 267    559.97208432799687  162.42272653548414    0
 268    559.91518488741212  162.43029634879127    72
 269    559.95949014726386  162.37326617937546    0
 270    559.9351931052438  162.39291856470331    0
 271    560.02588315407536  162.41427121813203    0
 272    560  162.23458371813203    139
 273    560.0890150980448  162.27182659693901    73
 274    559.93865169739991  162.43446341640077    0
 275    559.94837016199426  162.35951809002901    0
 276    559.91632866857162  162.40686454937239    0
 277    560.01647873228967  162.39864621813203    0
 278    560  162.29708371813203    139
 279    560.04450754902234  162.31570515753555    73
 280    559.91795993979122  162.35614841315248    0
 281    560.01379517788848  162.38302121813203    0
 282    560  162.32833371813203    139
 283    560.02225377451123  162.33764443783375    73
 284    559.95143154529103  162.32907528679075    0
 285    559.91991220526074  162.37765687235361    0
 286    560.01353416406596  162.36739621813203    0
 287    560.04102010916449  162.38638835160174    0
 288    559.98320343451451  162.3544715723074    0
 289    560.01112688725561  162.34861407798289    73
 290    560  162.34395871813203    139
 291    560.02861298469759  162.37495900827574    0
 292    559.97256049643329  162.33521419384607    0
 293    560.02873474197065  162.35590264593571    0
 294    559.98737659616688  162.33614621813203    0
 295    559.98141732076249  162.312649489677    0
 296    560.04874003508201  162.36555903637827    0
 297    559.95762269991576  162.43501747655276    0
 298    559.88330683966672  162.37013661318144    0
 299    560.04601442686794  162.33948966471613    0
 300    560  162.45333371813203    139
 301    559.94721938590385  162.46616632686604    0
 302    559.9784906513546  162.44491758040081    0
 303    559.88437320436628  162.41704851636129    0
 304    559.96492361953642  162.27408398951488    0
 305    560.07938428813691  162.3887619200363    0
 306    560.08466054403868  162.325101235033    0
 307    559.92276559161257  162.45576578596717    0
 308    559.98148507956489  162.46895871813203    0
 309    560.07191384303678  162.34995899560701    0
 310    560  162.54708371813203    139
 311    559.96485938570709  162.50744158858421    0
 312    560.11946461733976  162.35864530418306    0
 313    559.91776376539485  162.50147430124022    0
 314    560.05176630815072  162.46895871813203    0
 315    559.79641800803688  162.52635958462645    72
 316    560.05856943350886  162.41396565113325    0
 317    559.84365292671441  162.48815415937284    72
 318    560.11072739235931  162.43584404730601    0
 319    559.84529443291035  162.44188168348137    0
 320    559.88984851688201  162.2871654037443    0
 321    559.88671478341382  162.32866181820728    0
 322    559.81630690699239  162.34375388237683    0
 323    559.84474110936742  162.30462550881967    0
 324    560.13973335350272  162.30278748271539    0
 325    559.93285383289424  162.5712089850245    0
 326    559.84263332621845  162.39452924315802    0
 327    559.78413979096536  162.46287758961086    0
 328    559.76570700200398  162.27708781776892    0
 329    559.80375996955468  162.42046483777298    0
 330    559.83837176737507  162.22117404964894    0
 331    559.7236922296629  162.40916995894543    0
 332    560.13352264706714  162.22794803634253    73
 333    560.22212868778047  162.36429199799446    0
 334    559.86145392549668  162.55846419368524    0
 335    559.92148354314202  162.20018493774489    0
 336    560.20842271979279  162.25940972605733    0
 337    560.06537317760035  162.203333718132    0
 338    560.11709729405982  162.16677517270045    0
 339    560.10353261630155  162.57833371813203    0
 340    559.70582037767952  162.510953928568    0
 341    559.87604185373038  162.68311209681977    0
 342    559.79191834535663  162.6174003422523    0
 343    560.05836696304482  162.13855143635774    0
 344    560.26704529413428  162.09631235455302    73
 345    560.11210233166946  162.50733995201747    0
 346    560  162.17208371813203    139
 347    560  161.98458371813203    139
 348    560.17208760241215  162.08901758200298    0
 349    560.21113550606071  162.46967426977096    0
 350    559.94452857964018  162.14083371813203    0
 351    560.06739082729428  162.04708371813203    0
 352    560.11103795355723  162.10416657821003    0
 353    560.18586558141965  162.55225808573266    0
 354    559.86290959069549  162.14329209910798    0
 355    559.92825232412383  162.04708371813203    0
 356    560.12884132537408  162.04532530281048    0
 357    560.09534485618576  161.94936000717345    0
 358    560.22284167952478  161.99553303909391    0
 359    560.27171777287583  162.19007592657354    0
 360    560.18789395396493  162.70168225851697    0
 361    559.72162752540055  162.14158563363111    0
 362    560.33530244023109  162.55282636034113    0
 363    559.55888424928662  162.71848605629668    72
 364    559.88245975365987  161.92208371813203    0
 365    560.32043559310966  162.29810861512345    0
 366    560.39486572181397  162.13694094233671    0
 367    559.54614893290989  162.43045683025281    0
 368    559.72269849705538  162.75912294986404    0
 369    559.58507541978622  162.55185161790561    0
 370    560  162.73458371813203    139
 371    559.79367525056625  162.02597566983636    0
 372    560.32853066755331  162.42865607754212    0
 373    560.10777176587817  162.79708371813203    0
 374    560.53760734181355  162.47952362946435    0
 375    560.30586746332847  162.88210714442729    0
 376    560  163.10958371813203    139
 377    560.14449982918393  162.98458371813203    0
 378    560  161.60958371813203    139
 379    560.53409058826855  161.83304099097401    73
 380    559.58996208386554  162.25933771956994    0
 381    559.36451905681099  162.55563680055496    0
 382    560.45713910333893  162.35515652595302    0
 383    560.23557990461211  161.76124524808694    0
 384    559.85814663254484  161.73458371813203    0
 385    560.54450595294009  162.02165388622862    0
 386    559.56614095562827  161.96443201997408    0
 387    560.12345587553784  161.8239877841165    0
 388    560.30115600507884  161.88230080417395    0
 389    560.70339004831021  162.28404268157345    0
 390    559.7142545249784  161.86822098146018    0
 391    560  161.73458371813203    139
 392    560.39547128847676  161.75292082929388    0
 393    560.1263720264659  161.67208371813203    0
 394    560.14046280678531  161.48458371813203    0
 395    560.2846363503927  161.58969794626989    0
 396    559.5976510116318  162.91271065715929    0
 397    559.30719691742627  162.27810732504392    0
 398    559.4808220517524  161.67097313520389    0
 399    560.62310568631324  161.74528386978105    73
 400    560.50823810987151  161.71779380918733    0
 401    560.70576762270468  161.91815485923701    0
 402    560.41586743118376  161.61982887960522    0
 403    560.59138730072516  161.62408669445946    0
 404    560.75390776656309  161.78893685139465    0
 405    560.40016444054527  161.38737625878755    0
 406    561.39836172077514  160.98098388847143    73
 407    560.94389014943692  161.93329105600051    0
 408    561.05524125256659  161.31925531852971    73
 409    560.88368101846231  161.48839103355886    73
 410    560.8952043207687  161.67165713113121    0
 411    560.69847835588371  161.47211114769286    0
 412    560.39493833082042  163.2006544448696    0
 413    559.76384988576478  161.48458371813203    0
 414    559.80809524400377  162.95635017412687    0
 415    559.12969248510103  163.06563291978568    72
 416    559.67334374134248  161.67988528348471    0
 417    560.70935833259819  162.10112982803878    0
 418    560  160.85958371813203    139
 419    561.12836163046381  161.56500147069426    0
 420    560.81185095782871  161.24395369504006    0
 421    560.19078419764878  163.18410918736527    0
 422    559.40377986141004  163.11190691650071    0
 423    559.58427847943324  161.51998904709421    0
 424    560.95800470124595  162.20079673534323    0
 425    560.20741277687557  161.26793267206739    0
 426    560  163.85958371813203    139
 427    559.2824418230025  161.42410325705293    0
 428    559.61541448118351  161.20482242244591    0
 429    560.27095197562323  163.46272344263446    0
 430    560.51571064423251  162.73490937438959    0
 431    559.74305915486127  163.23458371813203    0
 432    560  161.10958371813203    139
 433    560.49992044852422  161.01114740581221    0
 434    558.87612434391144  162.51182743979948    0
 435    559.10846611639147  162.74679854150668    0
 436    561.41877061784828  161.3448405651846    0
 437    561.0345563486253  160.95511867845752    0
 438    559.20543465731214  163.45186739969796    0
 439    561.39407643106733  162.04366283204448    0
 440    560.53745295927183  162.98907863644081    0
 441    560.92676657889308  162.64152160697597    0
 442    559.71950042076264  163.60958371813203    0
 443    559.76495980826633  160.98458371813203    0
 444    560.2400709308431  161.01014161630502    0
 445    560.75625575688218  162.84234708411375    0
 446    559.32535691642931  160.84697796679214    0
 447    559.71628492398156  160.60958371813203    0
 448    560.32403065435335  160.60958371813203    0
 449    560.81667559693005  163.33094513817224    0
 450    560.55325127112417  163.43591703947996    0
 451    561.17418296097685  163.02438924971307    0
 452    560.85885168331561  163.81979924319648    0
 453    560.44852263366147  163.83287134585953    0
 454    559.18732766401604  161.91543441882169    0
 455    558.78222934351061  162.92864148482826    0
 456    560  116.66190205495961    139
 457    559.23152358380401  117.02202394332384    90
 458    560.82116556946812  118.43952900373779    89
 459    562.01130270849399  161.12910444267104    0
 460    561.25930532052303  160.36539973141291    0
 461    558.27130895672985  163.75992664676366    72
 462    561.45634149721002  161.69601564318432    0
 463    561.80396778325814  161.48122711411847    0
 464    561.85103459945344  161.94610639062967    0
 465    559.5255251100981  164.10958371813203    0
 466    560  159.35958371813203    139
 467    560.67449951778133  164.47962848153887    0
 468    560.5721410001139  117.28433648008202    0
 469    560.56280329891149  118.1774631732728    89
 470    560.57614579238282  159.94781985561846    0
 471    558.81983038649128  163.85290325122395    0
 472    558.29146326493867  163.19966152304676    0
 473    562.48785717681574  161.64680884891069    0
 474    559.44401199678464  160.01460349246202    0
 475    560.41810754481776  118.57850250202966    0
 476    560.75172169118878  117.73282616834872    0
 477    560.93199765462339  118.07187477665855    0
 478    561.37837485790021  118.40697117437504    0
 479    561.40350110445343  117.60371939809302    0
 480    560.73433551336018  160.66916796594734    0
 481    561.45408757207849  162.57213312809694    0
 482    561.30210232039815  163.53531118252226    0
 483    558.27840492280791  162.59616299603113    0
 484    560.78586181498588  118.99111071988585    0
 485    560  119.16190205495961    139
 486    560.46582244229489  119.41190205495961    0
 487    559.17173906958783  117.91190205495961    0
 488    560  165.35958371813203    139
 489    558.42256157149336  164.5321091098013    0
 490    557.55013185004259  163.4534888177609    0
 491    562.28030079460177  118.75237978848517    0
 492    561.51830118044563  164.35971335204334    0
 493    561.84625885297703  163.12759635631159    0
 494    558.34787870996422  161.06445082150171    0
 495    561.09059747119215  119.55498326749911    0
 496    559.47268056673124  118.41190205495961    0
 497    559.43345113451778  164.85958371813203    0
 498    558.6918697887977  161.56464949124549    0
 499    560  120.66190205495961    139
 500    559.55855430756935  118.91190205495961    0
 501    560.56833945691517  120.16190205495961    0
 502    559.56690674988783  119.41190205495961    0
 503    558.68735650673807  118.80415378392871    0
 504    559.42267656773311  120.16190205495961    0
 505    559.08438448967752  119.16989277035852    0
 506    559.11363720703753  119.71360342028188    0
 507    558.43402357512275  119.47752573689239    0
 508    558.52554039886388  120.44968319446818    0
 509    562.89675924893186  160.79221864067733    0
 510    557.77778331720094  162.90888585443142    0
 511    556.76181086939675  162.8040777040996    0
 512    557.51006186868483  161.92323379154232    0
 513    562.51869332714875  162.5395597948592    0
 514    561.93303554769341  163.81039949011719    0
 515    561.85461465169442  119.48779232559767    89
 516    558.06549312262052  161.62703210294887    0
 517    562.6532757397307  163.37194921713933    0
 518    557.32197086147994  160.90166202228667    0
 519    562.63561878480414  164.7720729668614    0
 520    561.09885543012911  158.85958371813203    0
 521    556.46931612084336  165.03187475029023    71
 522    562.04149447889677  118.02569512353432    0
 523    558.69805440058803  160.33291153344331    0
 524    559.05482326218441  165.85958371813203    0
 525    561.49874051817278  120.43435611327101    0
 526    557.44523468038005  118.72118822112303    0
 527    559.19820337198632  121.00439167204499    0
 528    563.02652258092189  159.17322051280863    74
 529    561.25527951647928  159.60437244344041    0
 530    557.61139334699578  165.42864152907509    0
 531    557.0841846959961  164.627331940853    71
 532    562.42150980560587  116.75785728898713    0
 533    557.92543517033982  160.41265284132558    0
 534    558.5437489703246  158.93806244760495    0
 535    560.82140082571971  121.02256131507143    0
 536    562.05770707437705  159.04702194447447    0
 537    556.13549031353546  163.85494585161607    0
 538    563.36466667016623  117.99344957354147    0
 539    558.23999821152836  159.677624505636    0
 540    556.81364861750399  159.65750561195242    0
 541    557.53685069145888  158.95667097976079    0
 542    271.6223495018881  296.040985301935    0
 543    272.82856864912577  298.74363463105971    0
 544    561.16859686899295  116.16190205495961    0
 545    557.92531714228244  117.38121662275078    0
 546    561.26893808829971  165.63375984627137    0
 547    563.98213671021767  162.04210356475463    0
 548    563.29706416211172  121.15643535768935    88
 549    557.18534615911062  120.08545988589168    0
 550    561.88877677174344  157.36494412131907    0
 551    563.43004767916057  162.81928466209922    0
 552    562.02490255610383  121.72434409676538    0
 553    557.94298516593449  121.84131835320106    0
 554    562.66899027957493  158.13610934524397    0
 555    564.99350967225996  163.3452416624944    0
 556    563.74624117536405  164.08590581056777    0
 557    556.26553332375545  161.62427395822854    0
 558    560  168.35958371813203    139
 559    556.01430176543317  158.10908825055674    0
 560    560  123.66190205495961    139
 561    558.99883862417823  122.06513362962899    0
 562    563.2248839974875  156.79342658971055    0
 563    558.86615963980387  167.35958371813203    0
 564    558.00947439057779  157.27941770311531    0
 565    560.99992756497068  122.09924846665362    0
 566    558.10015699686699  123.70227032682287    0
 567    562.13345234497569  123.60968976131988    0
 568    40  390.24717936565855    141
 569    556.58367838649053  166.54478265133281    0
 570    563.47090634858444  119.2993863698551    0
 571    561.11912786676987  114.66190205495961    0
 572    555.92592252382076  116.52848842393351    0
 573    564.32758087466425  166.26875965779817    0
 574    555.37848082596213  162.6916874000037    0
 575    40  389.24717936565855    141
 576    38.343478139175566  389.74717936565855    0
 577    39.189487345813518  388.74717936565855    0
 578    38.067229558682349  388.65560473438256    0
 579    41.011087660908622  389.74717936565855    0
 580    36.397136609498915  389.65900386262928    0
 581    37.520005472099129  387.2411979102618    127
 582    43.074299139940024  389.15249208214374    129
 583    41.123690034946947  391.24717936565855    0
 584    42.154777753006435  389.83870182088651    0
 585    43.475278985141387  390.64898969606605    0
 586    565.58109936132394  118.47042962191156    0
 587    562.31185194009038  115.37338253579685    0
 588    555.05534458295267  118.97281303664721    0
 589    554.29950241346967  164.22179765833738    0
 590    554.05381337402036  160.68855882482256    0
 591    564.66009356726727  115.88396926095423    0
 592    562.89407287348683  113.04186879399126    0
 593    219.31757895737502  320.07435090054173    136
 594    307.6333391936389  280.96026903245297    69
 595    564.91134840758798  160.1389893934269    0
 596    561.41404531147396  167.35958371813203    0
 597    561.80495194824334  155.32142613351772    0
 598    564.79494782647942  156.82390232034922    75
 599    558.11014225950271  169.35958371813203    0
 600    554.83843407590689  168.24236649657513    0
 601    565.07390982662207  164.90115823341816    0
 602    36.297290109620015  388.14299114245426    0
 603    37.771402356497212  384.92531477494094    0
 604    42.921825552890503  386.60995207200506    0
 605    42.218366878297907  393.60859647333876    0
 606    45.705639082302021  391.60014329612096    0
 607    565.26233638494693  120.51348406166541    0
 608    561.41538153675879  113.20413272615176    0
 609    245.56757895737502  308.82435090054173    136
 610    290.1333391936389  289.08526903245297    69
 611    565.73988971934011  161.72193659010088    0
 612    562.69617175427311  166.38277032088422    0
 613    564.03686903560947  155.42008004387304    0
 614    567.22600591781963  157.5839776155884    0
 615    566.96620700702329  166.82126916989247    0
 616    33.835905147301645  389.06639541231795    0
 617    44.149212266438028  387.8121887651746    0
 618    560  111.66190205495961    139
 619    258.69257895737502  303.19935090054173    136
 620    281.3833391936389  293.14776903245297    69
 621    563.67322127936075  168.99504750034598    0
 622    566.32458417017074  154.31256075166434    76
 623    565.66634831887723  158.30461579460581    0
 624    567.61111956279524  163.99001533464178    0
 625    34.654582468631077  387.50644416619036    0
 626    561.95354332859779  111.28963673797553    0
 627    265.25507895737502  300.38685090054173    136
 628    277.0083391936389  295.17901903245297    69
 629    560  147.18516330233894    139
 630    568.81843645919992  154.83069071451911    0
 631    268.53632895737502  298.98060090054173    136
 632    274.8208391936389  296.19464403245297    69
 633    564.533862903005  152.50118689703788    0
 634    567.33692393141382  155.70073200147553    0
 635    270.17695395737502  298.27747590054173    136
 636    273.7270891936389  296.70245653245297    69
 637    272.76919828729712  296.07109775340916    0
 638    273.83317927383115  295.49916737825163    0
 639    272.2456558287426  294.15626144358208    0
 640    275.11516670108881  298.26037106772969    0
 641    273.60253698844986  297.86598110973819    0
 642    274.09389478123626  299.07938331904666    0
 643    275.32855137648698  294.42459623397195    0
 644    275.96124243975214  300.36163645447004    0
 645    272.9050566737875  301.00754937396664    0
 646    40  299.64668668915465    141
 647    98.825281921155707  306.43585158008796    103
 648    40  333.64668668915465    141
 649    37.254117315245487  392.26781230840277    0
 650    554.73299595278581  122.18501640156852    0
 651    553.48670013555636  162.50315548479998    0
 652    41.607593239335145  385.24717936565855    0
 653    45.52705027378488  385.17787749591292    0
 654    45.965092189939689  389.69095225766262    130
 655    47.022763254994466  387.37382260741651    0
 656    557.58137492020614  112.66190205495961    0
 657    561.71857890677143  169.35958371813203    0
 658    567.38541919440524  159.97707276917652    0
 659    32.148445456319642  387.18599997667644    0
 660    565.32641880706967  110.60774501412344    0
 661    568.94362689935406  156.74025160071247    0
 662    268.19189952398284  295.91130722262665    0
 663    277.41816314305112  292.01920239255378    0
 664    270.31572753862156  300.8669059234503    0
 665    40  315.64668668915465    141
 666    69.41264096057786  319.0412691346213    103
 667    38.009274587006665  334.64668668915465    0
 668    556.43357805035407  122.90591267070262    0
 669    551.37826681130093  164.5518243088388    0
 670    42.358916371871764  382.24717936565855    0
 671    43.557930741853646  384.68140742659642    0
 672    558.17050039079186  110.66190205495961    0
 673    560  174.35958371813203    139
 674    568.82993310432607  158.6789909966086    0
 675    572.04426103183152  155.57809045673423    0
 676    269.96491365880615  294.4474162314803    0
 677    40  323.64668668915465    141
 678    54.70632048028893  325.34397791188798    103
 679    555.94768365721245  126.06481595645114    0
 680    550.76433771895677  160.65642167773271    0
 681    562.31397971529316  172.35958371813203    0
 682    570.2579769827621  161.72090075294139    0
 683    571.12425477890611  157.84083387897047    0
 684    40  327.64668668915465    141
 685    47.353160240144454  328.49533230052134    103
 686    554.84845759509676  124.2789146688655    0
 687    40  329.64668668915465    141
 688    43.676580120072238  330.07100949483799    103
 689    36.68695627835114  328.64668668915465    0
 690    41.838290060036122  330.85884809199632    103
 691    41.978188473941685  328.64668668915465    0
 692    44.062506949048199  333.51009646440326    0
 693    42.067171854807583  334.64668668915465    0
 694    555.63752067888663  154.38920590716549    0
 695    553.13264461699225  115.84559362958514    0
 696    560  156.35958371813203    139
 697    558.33010067788268  155.35958371813203    0
 698    556.55990468511891  156.05063852517233    0
 699    560  150.77237351023547    139
 700    553.8920033979964  156.44502958911409    0
 701    557.80665202457385  152.59119529380445    0
 702    40  382.24717936565855    141
 703    36.68695627835114  381.24717936565855    0
 704    568.80608221544207  120.01999468057845    0
 705    566.60928030772868  122.49285546896435    0
 706    562.00041154956716  152.78016642936615    0
 707    278.40235372990935  298.15775242452514    0
 708    37.748813670776329  337.64668668915465    0
 709    45.188953926716593  382.36561328104187    0
 710    555.16747189039006  110.86408897074207    0
 711    560  105.66190205495961    139
 712    557.73222023657138  172.35958371813203    0
 713    266.65343916269666  292.24232505316792    0
 714    552.43968610199454  126.99275731454091    0
 715    42.25287674957368  325.64668668915465    0
 716    44.94762595602792  337.38370778005873    0
 717    557.71875632602473  107.66190205495961    0
 718    270.62298047273725  290.52373957412732    0
 719    551.32213851982146  123.42323026979179    0
 720    44.499510753518798  327.36497030412289    0
 721    42.14654565425726  337.44736571204049    0
 722    48.782950880433788  392.97214736569697    0
 723    569.42919377222506  152.43605801769368    0
 724    34.575101313477752  391.70269465981966    0
 725    563.04302439083995  107.99593391022469    0
 726    267.69741878691013  301.55439383612361    0
 727    575.33254184973987  158.23347263791848    0
 728    553.74364246470327  149.89698710735456    0
 729    568.82023834937797  115.85980379774537    0
 730    569.22755204350256  124.64395311029463    0
 731    562.95723732191721  149.82643317515348    0
 732    49.912537846765915  383.79816880077215    0
 733    482.6333391936389  199.71026903245294    69
 734    457.46795317419105  145.24270236819746    102
 735    46.222568122837565  322.78423015583218    0
 736    43.629499590079845  341.04191326183451    0
 737    571.47705864287411  149.79360553294813    0
 738    34.978479575545997  396.42310205653791    0
 739    29.877259155676015  390.9215115618689    0
 740    264.54218847590005  305.01641168751979    0
 741    552.16350017901937  153.20849082764516    0
 742    517.6333391936389  183.46026903245294    69
 743    270.14541191916175  305.54793556538488    0
 744    535.1333391936389  175.33526903245294    69
 745    271.48460472103136  303.25304783137238    0
 746    543.8833391936389  171.27276903245294    69
 747    275.13127529707492  303.98782758559918    0
 748    548.2583391936389  169.24151903245294    69
 749    272.90501620500419  305.62012587648513    0
 750    552.02619462295308  171.37910564218302    0
 751    276.72208355327848  308.49182358491646    0
 752    271.40562923360568  310.1553755476578    0
 753    26.278229803599402  351.83707527284434    0
 754    17.05521525339952  348.66333347754755    0
 755    31.207758093335052  343.3805124786162    0
 756    23.901342126016278  336.91886252764209    0
 757    26.484319039872755  368.73890555696539    0
 758    16.309098137808775  368.87704802022267    0
 759    22.270764543323683  381.09427293910227    0
 760    58.877048020222674  393.6909018621912    0
 761    536.8318340846505  105.30357980174401    0
 762    547.0400933844461  105.87792598654913    0
 763    560  132.83632247075272    139
 764    564.98302881355789  137.71877387070376    0
 765    600  140.625    3
 766    563.31257513880155  127.75165992627842    0
 767    15.182946041351162  358.71485273930489    0
 768    274.05537807082152  291.20822633195195    0
 769    563.74992529279575  176.35958371813203    0
 770    571.97869715654508  166.47395399922351    0
 771    31.725242113739242  330.33668808039653    0
 772    547.45301308736134  116.04570357385406    0
 773    550.7758199608993  114.49966112792984    0
 774    550.36372027631558  117.95772835712653    0
 775    548.31437520513612  113.55320640708689    0
 776    544.89824156464624  113.76773636206349    0
 777    33.928598976469331  382.2312380618942    0
 778    34.071261792165458  339.06105919991012    0
 779    43.955273702530953  377.97322103196268    0
 780    556.22035055346419  176.35958371813203    0
 781    556.22923388318429  103.66190205495961    0
 782    530.56481224596746  116.75493701023375    0
 783    52.011391853571602  392.78182963291732    0
 784    557.00383814377142  149.39115982934754    0
 785    570.43428541515038  127.64670170271515    0
 786    564.63367545659798  145.08243946567339    0
 787    58.738905556965342  383.51568096012716    0
 788    54.086661901102445  385.41137612687049    0
 789    46.837465862941301  325.62996188531929    0
 790    43.014827756959811  322.51953242253501    0
 791    572.16302661443945  146.63590117068546    0
 792    26.918862527642059  386.09865787398371    0
 793    280.83258015915635  303.30344865634834    0
 794    550.4458391936389  168.22589403245294    69
 795    547.90963777376953  165.6268880896574    0
 796    25.383462529682163  348.72243966886253    0
 797    24.930109294219289  359.07463447640561    0
 798    23.656319518059764  353.74158305036741    0
 799    19.701612469897963  346.11941692779038    0
 800    17.575820069194162  352.29705061917957    0
 801    28.056605271175606  344.1366866063546    0
 802    27.319809066145481  335.58132246511582    0
 803    22.991754911852134  340.47520625954547    0
 804    23.816750674024831  366.8988940261342    0
 805    30.033666746205327  375.18885307554393    0
 806    25.665761925069422  371.8744322543273    0
 807    17.096172695078305  365.29159919463359    0
 808    18.760750301264235  371.60914086437049    0
 809    21.625834754199584  377.48054976117078    0
 810    61.609140864370445  391.23924969873576    0
 811    540.2371585389717  106.67423475483055    0
 812    533.73106733103145  107.26831265362733    0
 813    549.9009055803574  108.17807450769823    0
 814    564.57730157718413  132.73514114545466    0
 815    567.07619169732004  140.19268424945724    0
 816    574.69642019825608  136.8318340846503    0
 817    565.46913822675083  129.66205851072127    0
 818    552.30836548003469  120.31942597056226    0
 819    540.18079676423929  114.59425012378566    0
 820    36.884207722542854  340.88684120678988    0
 821    31.298442271805552  339.86492667117989    0
 822    532.32458376222951  114.03376674165125    0
 823    55.212826993274355  392.41401187963771    0
 824    56.25  410    138
 825    554.53582636041745  144.2434880554093    0
 826    571.48399659118297  130.69357591216357    0
 827    574.8050374152308  124.14634719618388    0
 828    565.87754894848183  148.05140370440424    0
 829    51.672293784334144  387.25518144904697    0
 830    56.957383253687304  386.40523244705309    0
 831    51.029740360216685  326.91965510620469    103
 832    40  319.64668668915465    141
 833    45.041097442169104  317.53303150878776    0
 834    572.64849781900693  143.45035357763615    0
 835    577.05084893476555  149.35107429254015    0
 836    25.581322465115811  382.68019093385453    0
 837    30.850972659642672  348.83758398156289    0
 838    22.973947010842124  361.65823516946114    0
 839    27.107607112064088  355.7358961090323    0
 840    17.406833491591605  355.57069032484696    0
 841    30.085145848838046  333.82115603428628    0
 842    21.582863992644604  343.43498661688727    0
 843    28.116239937037726  363.51935007595318    0
 844    33.856982338028345  377.67256940119216    0
 845    30.160551781315796  378.42697963389975    0
 846    29.598822123732756  371.22658342459937    0
 847    17.168986595986723  362.01440961791297    0
 848    20.438979871200637  374.42495671355567    0
 849    543.45691611114262  107.28940510715583    0
 850    530.67597131239552  108.45644635942277    0
 851    566.78305095417647  134.87037923451584    0
 852    563.5128091527248  141.08518156541632    0
 853    560  129.24911226285616    139
 854    549.07475740574193  121.0005420162413    0
 855    537.52727511842136  112.91975741855315    0
 856    40  343.64668668915465    141
 857    54.221407572529984  397.90116805120664    0
 858    572.24366858496273  133.82453506839849    0
 859    574.3153454562439  128.01385696537301    0
 860    49.786150385454178  323.50351983880921    0
 861    572.82886912869265  140.23362244141668    0
 862    575.94613888846857  145.58267383430635    0
 863    0  351.5625    1
 864    25.786723286133313  330.12039841662892    0
 865    16.195420737400557  341.66086749919975    0
 866    11.703843469628849  363.53238658764656    0
 867    15.970750631542542  377.91880429667719    0
 868    542.86608046181505  101.64822112613706    0
 869    527.65116480833024  109.57671014464765    0
 870    530.23534986448101  102.80154616473693    0
 871    562.76427554910401  130.54303354410803    0
 872    546.18521190881279  125.93472208809325    0
 873    536.08020216932164  118.15262038563763    0
 874    50.60633338695316  396.42509316286049    0
 875    574.94244903162394  131.51208353215173    0
 876    575.91167408812169  142.01990666311625    0
 877    12.068471043491991  353.65394051202873    0
 878    19.518401892789349  340.63706325816293    0
 879    16.965637930993235  374.58705128295827    0
 880    492.41730699027607  129.01621666787224    102
 881    527.98037839821654  105.82186658429657    0
 882    509.89198389831859  120.90297381770965    102
 883    518.62932235233984  116.84635239262835    102
 884    522.99799157935047  114.8180416800877    102
 885    523.81367275991306  110.8560173913253    0
 886    263.20972193504605  295.84336944682201    0
 887    50.42060639453878  334.09520304544156    0
 888    45.732127873814122  395.67783328870058    0
 889    563.95064686929152  103.66190205495961    0
 890    549.70400150733212  156.60183953957252    0
 891    273.47304654956071  285.18014129677175    0
 892    567.83782932768975  172.63433932539812    0
 893    544.90267722712724  167.74110287381237    0
 894    88.067578957375019  376.32435090054173    136
 895    64.304309846197995  396.99084730259625    0
 896    551.32349249696847  103.47958711819895    0
 897    543.24292556573687  118.19578528152718    0
 898    547.46799301699855  148.9351987280514    0
 899    33.373912556702273  321.64668668915465    0
 900    21.914773285953999  386.08570031629165    0
 901    30.320845230690402  353.01473436698609    0
 902    29.12561761053405  359.43146833284749    0
 903    40  376.24717936565855    141
 904    30.35640204429729  367.08464026983177    0
 905    34.363229018003871  372.70870329940391    0
 906    560  143.59795309444237    139
 907    555.34784505369851  131.04271736680442    0
 908    35.539302482205123  345.64668668915465    0
 909    44.184764984458255  345.64668668915465    0
 910    48.74844991418653  319.45742106832108    0
 911    582.74093165102215  145.63689772185992    0
 912    24.505496451208813  333.42574604963676    0
 913    16.276623265468814  345.20491480799757    0
 914    13.740328093341004  366.43404052203391    0
 915    18.96263198081121  379.82025405132765    0
 916    539.66693506703666  103.17541918815436    0
 917    533.65818321799804  103.72408451711738    0
 918    48.125  410    138
 919    580.42378602591964  128.72415946714418    0
 920    14.313330927542175  350.91031712706064    0
 921    524.10463732965377  100.57629684511434    0
 922    524.80530696906249  107.43533971960188    0
 923    50.348460125003236  341.39631566146869    0
 924    567.25655311361925  106.61626893308299    0
 925    276.62815271845295  287.91751837832203    0
 926    538.54272601346111  167.81838021708944    0
 927    74.942578957375019  381.94935090054173    136
 928    35.781444533849637  317.64668668915465    0
 929    43.227030349964458  374.24717936565855    0
 930    557.01788589634168  141.80434799049408    0
 931    579.35823218276732  143.76811630842687    0
 932    18.416995480390668  334.17150944164638    0
 933    10.365230158615111  343.56740491649794    0
 934    0  379.6875    1
 935    10.94907257917481  374.60487522922108    0
 936    19.481943502570768  383.4037811696225    0
 937    533.4749714894067  97.592817064867191    0
 938    536.5249002422097  101.94216949214069    0
 939    49.968720158982194  403.15158002394367    0
 940    13.863504452627851  347.56503032386883    0
 941    518.64306252244387  107.50301481006622    0
 942    525.03016572349861  103.947060714931    0
 943    542.90391449201752  161.70289960158536    0
 944    68.380078957375019  384.76185090054173    136
 945    44.898421583321607  367.9469330274066    0
 946    49.763421500823185  374.90384916528416    0
 947    551.73636728923475  138.91233214182546    0
 948    579.94559260258677  138.33863497206298    0
 949    16.816107881726879  337.7708096171429    0
 950    21.017101049455505  330.17257585932032    0
 951    12.311725033653005  370.50819311522963    0
 952    15.368838728818409  382.17044521680776    0
 953    539.55818873861688  98.833266019243041    0
 954    10.121892358041279  349.77103550062532    0
 955    521.7023823843399  105.48393454672085    0
 956    66.606101838626429  389.68507095679496    0
 957    556.18874190507927  137.04989347338272    0
 958    582.87304575580788  141.40183733064461    0
 959    12.102817091549355  339.01331617464217    0
 960    9.5093819523891856  367.23800413167584    0
 961    16.255700698841341  388.77477646279618    0
 962    516.82807185840113  101.42564444790838    0
 963    0  309.375    1
 964    13.317161041572632  334.05888747067002    0
 965    547.91680304808563  174.23306618049205    0
 966    560  186.35958371813203    139
 967    553.74024727814276  106.86608704545993    0
 968    574.64184688558987  117.95973286472113    0
 969    576.20116954167997  153.79410624703581    0
 970    54.894997532177044  330.86140643686946    0
 971    560  93.661902054959612    139
 972    265.79133540199075  284.80740035611973    0
 973    548.15804427145792  152.8933334487395    0
 974    40  355.64668668915465    141
 975    33.434727642062633  362.66402996392577    0
 976    53.780154618640211  320.32306143448386    0
 977    50.082567052287068  312.35391587287603    0
 978    570.76737780928727  110.77638732679782    0
 979    280.32613462316351  289.33218607016738    0
 980    280.82057162815209  282.49906435815848    0
 981    285.7583391936389  291.11651903245297    69
 982    40  307.64668668915465    141
 983    519.39238106118501  112.01076086603847    0
 984    546.6203859164666  159.57419118061699    0
 985    54.057403637485663  379.28026888044195    0
 986    48.280537551623787  379.1278414574748    0
 987    11.365677742023252  379.43528373654317    0
 988    5.7227164450402697  354.40581331931003    0
 989    586.4835808503168  135.0208460065036    0
 990    589.82245882337486  143.73821742895308    0
 991    8.0153658466922391  371.35408951127391    0
 992    0  358.59375    1
 993    27.951591101978231  315.65855733837617    0
 994    564.54168243924596  182.35958371813203    0
 995    555.46442726717385  182.35958371813203    0
 996    583.40431902844284  152.86886502263386    0
 997    570.49757330996238  99.662779530456419    0
 998    564.50655447878955  97.661902054959612    0
 999    555.46263596737981  97.661902054959612    0
1000    541.25628195132026  152.05735107649673    0
1001    35.862015619299974  351.59575653322923    0
1002    44.482002945740582  351.64668668915465    0
1003    35.520242589641946  311.64668668915465    0
1004    511.5505419070513  110.99815037819805    0
1005    0  372.65625    1
1006    4.5294143205406279  367.75960887071307    0
1007    580.26021684915747  156.8929820082875    0
1008    545.87516927202523  94.76114861997209    0
1009    542.56224143559677  156.79776663787672    0
1010    5.2946257394743332  376.75862139444172    0
1011    6.5461585391478767  362.98060008861881    0
1012    40  403.12358968282928    141
1013    267.0021543778347  308.88373876008876    0
1014    267.09739766808354  316.8140095160486    0
1015    259.49402838198495  310.94353570130659    0
1016    524.17359800171312  123.06899311361209    0
1017    24.404213307733158  390.95995897119838    0
1018    40  367.9469330274066    141
1019    36.322004729965926  365.7968098582806    0
1020    65.098828957375019  386.16810090054173    136
1021    62.249117256691058  384.05002359894581    0
1022    61.37916166920192  377.96810986281918    0
1023    65.521573988560604  382.62325597330806    0
1024    70.037541906170517  379.56676444773126    0
1025    548.69304689170428  132.75222272008907    0
1026    74.382962454570361  389.70607906066419    0
1027    5.9253441787911498  339.26486377555034    0
1028    15.963880310539242  329.73173382841162    0
1029    541.82827986702114  178.30081432896853    0
1030    62.059480720433406  322.19262352325461    103
1031    56.508508659443926  337.80627368915293    0
1032    259.92506016513602  289.25505831675207    0
1033    34.264863556479533  357.06905884141605    0
1034    44.31812862741409  311.78597840145648    0
1035    285.75972374282952  285.39233767686358    0
1036    291.31064922343853  297.34817717355986    0
1037    9.6073492038197266  386.30583797853546    0
1038    23.316706394160491  322.35769313706373    0
1039    569.57253184265824  178.64347527524137    0
1040    573.20572509295675  105.15711277870845    0
1041    600  154.6875    3
1042    579.77732324391843  164.8452235476604    0
1043    534.60761797917326  159.81632200694671    0
1044    9.6327980365900476  358.50998883803271    0
1045    276.8195665863405  318.13042236889959    0
1046    27.194016591984639  398.52527372291445    0
1047    76.436866976157447  372.63275657066242    0
1048    0  323.4375    1
1049    60.161924025619911  327.91935537650835    0
1050    285.71307439129339  296.74618907355494    0
1051    18.896110709788161  325.302671802438    0
1052    588.49830569605035  160.08919750811262    0
1053    537.56675116295492  155.62389760417008    0
1054    7.5886814128490307  327.58202750717385    0
1055    287.82709154460213  303.41450631253241    0
1056    16.227987013120298  316.50736908072196    0
1057    529.14234189801084  152.81824099753308    0
1058    12.847510191365515  324.48339956835059    0
1059    535.00083207007526  149.27784741130284    0
1060    152.4067396871736  153.0687696948205    0
1061    171.32972334470006  157.80873034894404    0
1062    164.03127158862216  128.49076199955041    0
1063    152.40673968717363  186.9312303051795    0
1064    164.03127158862208  211.50923800044956    0
1065    190.20730761701356  107.00864440308271    0
1066    223.41911054188785  100.40240605834927    0
1067    190.20730761701356  232.99135559691723    0
1068    249.79269238298647  107.00864440308273    0
1069    271.63060688020431  123.2047456193863    0
1070    287.59326031282637  186.93123030517941    0
1071    243.12994603165868  234.64386859629508    0
1072    256.50916873170218  238.54499514506728    102
1073    266.79525438061364  221.63060688020431    0
1074    275.96872841137787  211.50923800044964    0
1075    234.7860908853259  248.16693345258645    103
1076    285.60822951252794  146.52500011510102    0
1077    209.77559627793073  238.92733106607773    0
1078    223.41911054188782  239.59759394165064    0
1079    28.935269771089335  325.30597954832268    0
1080    0  344.53125    1
1081    582.15931520214781  120.85689655089463    0
1082    567.55522653740945  190.35958371813203    0
1083    552.44070991095884  190.35958371813203    0
1084    567.57885359999534  89.661902054959612    0
1085    47.785943570724086  359.71772392386646    0
1086    50.587205601375672  348.33687449025632    0
1087    32.402688335503257  303.64668668915465    0
1088    552.5972279742158  89.838093217654006    0
1089    538.22585250643658  89.830693147534262    0
1090    531.61139368746706  124.20599342194292    0
1091    56.616241187346937  372.47487298041671    0
1092    47.977333512421978  303.64668668915465    0
1093    288.08291818726588  275.76388756561067    0
1094    0  386.71875    1
1095    575.87946803088244  173.56785173109068    0
1096    600  84.375    3
1097    578.96143221038676  110.99332962414182    0
1098    68.718933370175833  327.5769822315018    0
1099    0  330.46875    1
1100    284.22104968439777  310.21042846200385    0
1101    6.7361320182079538  320.1233072734284    0
1102    157.24305799978399  147.54520710011894    0
1103    154.06820226542564  160.21994167286331    0
1104    186.30525045960201  207.17642719275278    0
1105    171.3297233447  182.19126965105593    0
1106    169.55750534667808  167.52191914316907    0
1107    169.01185375835485  151.75614955551771    0
1108    182.82357280724725  136.30525045960206    0
1109    173.20474561938633  118.36939311979569    0
1110    170.61322298297623  125.23843446364064    0
1111    162.82962782071212  135.73339762572408    0
1112    150.40240605834933  173.41911054188785    0
1113    154.06820226542564  179.78005832713669    0
1114    157.24305799978401  192.454792899881    0
1115    170.61322298297617  214.76156553635943    0
1116    162.82962782071212  204.26660237427592    0
1117    185.73339762572408  112.82962782071215    0
1118    203.06876969482053  102.4067396871736    0
1119    216.72948159760034  103.42706854302877    0
1120    236.9312303051795  102.4067396871736    0
1121    197.54520710011894  232.75694200021599    0
1122    178.49076199955036  225.96872841137787    0
1123    185.73339762572411  227.17037217928782    0
1124    261.50923800044956  114.03127158862216    0
1125    254.26660237427589  112.82962782071218    0
1126    273.53636683745577  130.2947242895809    0
1127    282.75694200021604  192.45479289988111    0
1128    285.93179773457427  179.78005832713669    0
1129    248.34999602706381  229.94103043643622    0
1130    236.11134387301141  234.3200901983345    0
1131    259.70527571041907  223.53636683745569    0
1132    269.38677701702375  214.76156553635937    0
1133    277.17037217928788  204.26660237427595    0
1134    288.92733106607773  159.77559627793082    0
1135    280.25379558452897  141.50207707476187    0
1136    216.72948159760034  236.57293145697119    0
1137    570.22274680905559  184.7871569697397    0
1138    298.8833391936389  285.02276903245297    69
1139    5.0722814260813038  382.60675243216332    0
1140    580.95313233784361  97.923833523621582    0
1141    154.29373287142306  166.77205808586191    0
1142    187.74064605504961  213.49670354468765    0
1143    179.87471459430154  206.36743883354006    0
1144    270.11348965868115  167.53808212211428    0
1145    236.9030866922742  217.24096258208175    0
1146    207.80873034894404  218.67027665529994    0
1147    166.43237803311897  177.94600610453816    0
1148    174.34553210895615  191.59295517452503    0
1149    166.31258175041606  162.03622379556367    0
1150    180.19702095024425  150.94283831190995    0
1151    176.50329645531235  137.74064605504964    0
1152    183.63256116645994  129.87471459430159    0
1153    203.09691330772577  122.75903741791824    0
1154    160.53060453336616  141.87307070073123    0
1155    160.5306045333661  198.12692929926877    0
1156    175.82115256369181  218.74384666983482    0
1157    180.81161824864481  117.16058398616612    0
1158    197.54520710011897  107.24305799978399    0
1159    210.34726110279144  104.92652014257055    0
1160    242.45479289988106  107.24305799978399    0
1161    229.78005832713669  104.06820226542564    0
1162    204.01542527202491  233.81399940247235    0
1163    264.76156553635934  120.61322298297623    0
1164    276.42611289665672  136.17948947241183    0
1165    285.70626712857694  173.22794191413811    0
1166    253.79082262490533  226.37658162340529    0
1167    229.64426564921399  235.01635785935477    0
1168    279.46939546663378  198.12692929926882    0
1169    284.65570475800683  153.80458905614034    0
1170    576.66415113587266  180.99918409157547    0
1171    292.23568441145125  282.15907027081801    0
1172    143.32724349562562  163.86959625848232    0
1173    274.08852402099814  172.65719879383178    0
1174    265.35669221466122  191.45211776847881    0
1175    249.88857303054527  129.69992447146092    0
1176    265.35669221466122  148.54788223152113    0
1177    273.56762196688095  162.05399389546179    0
1178    233.15828903272904  222.53083443018193    0
1179    253.69474954039794  207.17642719275275    0
1180    245.96389957935253  213.31814943204179    0
1181    201.75614955551768  220.98814624164515    0
1182    197.4926242007576  207.95880118593016    0
1183    217.5219191431691  220.44249465332192    0
1184    173.74482999118149  174.45777143769465    0
1185    168.89782610214419  188.28465019226255    0
1186    184.41409217303362  196.24676973761311    0
1187    173.44689833833755  197.90285532735007    0
1188    181.14783599016619  143.55900482257147    0
1189    193.88039022453938  134.43008942914014    0
1190    196.84628639664797  121.0455856681547    0
1191    206.84171096727098  117.46916556981806    0
1192    227.36204401867207  120.36913064155203    0
1193    149.49081332341134  139.26324619906865    0
1194    151.5096135099746  205.00514817080546    0
1195    166.6204520197833  225.37975530318681    0
1196    176.0981843708376  106.84207077115246    0
1197    211.05449699630677  93.604506572546995    0
1198    199.02927749108798  244.0035285474099    0
1199    284.72948203823415  128.45017936169876    0
1200    285.58886169594285  166.77782584491302    0
1201    296.67275650437432  176.13040374151782    0
1202    259.43467390657048  230.55109195274505    0
1203    233.56632601359615  241.0633520059686    0
1204    290.50918667658863  200.73675380093155    0
1205    600  196.875    3
1206    263.62107816502879  176.68237177667942    0
1207    270.98814624164515  188.24385044448229    0
1208    266.4492246508247  197.84059384311416    0
1209    256.36743883354006  129.87471459430162    0
1210    241.592955174525  124.34553210895614    0
1211    270.98814624164515  151.75614955551774    0
1212    260.56465351389983  139.91520256208031    0
1213    263.00137842670659  159.22871543385827    0
1214    260.12528540569838  206.36743883354009    0
1215    243.20549355397532  219.06389383912082    0
1216    252.33149735067019  213.59397766668823    0
1217    202.38543610562263  213.5699898213291    0
1218    212.03622379556367  223.68741824958394    0
1219    226.37250352543316  213.75661043027625    0
1220    222.66314123678922  224.20948522623155    0
1221    198.19964923884939  128.36634076962929    0
1222    213.73210049483606  126.31744068126896    0
1223    222.65719879383181  115.91147597900186    0
1224    233.15828903272907  117.46916556981805    0
1225    155.9363834882858  136.65247221769545    0
1226    153.58048435620745  198.36639757522207    0
1227    283.31929434989257  135.25994339694876    0
1228    292.45998730176581  169.87888371456035    0
1229    284.06361651171414  203.34752778230455    0
1230    578.11983339978724  191.99217598811003    0
1231    264.8546186228599  184.02426691195015    0
1232    255.60610124945455  196.40728444227537    0
1233    247.9028553273501  123.44689833833762    0
1234    266.55310166166242  142.09714467264993    0
1235    252.92774967647722  137.2101268685181    0
1236    220.39977819681076  123.00577640163435    0
1237    233.58264343170589  125.55987988154669    0
1238    539.62645858364488  123.99952530997963    0
1239    270.24964449239008  272.26884838195735    0
1240    252.13007895737502  306.01185090054173    136
1241    541.13509232535353  140.31794074058845    0
1242    84.682395856101152  386.55059033090271    0
1243    548.31992063294354  181.42690770039016    0
1244    533.56831891738693  187.90835726309103    0
1245    61.48074500779768  310.68787605261934    0
1246    254.96095166486933  295.84291365635056    0
1247    0  421.875    1
1248    31.536861281333884  406.56179484141461    0
1249    299.61787721768462  306.15193119148148    0
1250    526.20684761253005  141.34332716296817    0
1251    56.378577604574261  344.66327375782328    0
1252    519.05939172256035  88.947180871661132    0
1253    66.557517043302383  368.66674029715591    0
1254    163.19762701245205  118.51733004916622    0
1255    144.16831401312285  181.24856802756128    0
1256    180.58814835378553  235.75470197711925    0
1257    259.41185164621447  104.2452980228808    0
1258    276.24321788432951  220.35107060524126    0
1259    216.51087711915312  245.96645627817796    0
1260    194.17354201474768  97.819885354628141    0
1261    245.82645798525238  97.819885354628113    0
1262    231.24856802756128  94.168314013122952    0
1263    271.48266995083372  113.19762701245205    0
1264    294.36398322107857  151.3727918952348    0
1265    600  182.8125    3
1266    299.27154360642493  273.04436695696171    0
1267    147.32915373352284  158.01706046977847    0
1268    174.2462461248567  146.42342310969011    0
1269    192.90391006198195  148.82596746647204    0
1270    150.26131678727376  146.31120938870171    0
1271    157.44656495337588  208.88072145342329    0
1272    164.63516565518319  218.57342745619178    0
1273    183.16104069293291  106.22277981878511    0
1274    217.57531190789166  96.387748135742385    0
1275    194.06993049348509  238.93674080095619    0
1276    278.44124602846694  125.17519102649599    0
1277    292.67084626647699  181.98293953022144    0
1278    241.27896058150344  245.38427501136749    103
1279    228.29322118914837  250.9495918938054    103
1280    289.73868321272647  193.68879061129829    0
1281    195.73613057843266  216.74169492570974    0
1282    213.54581986423105  207.13632776656931    0
1283    190.76271294536946  127.63914522560928    0
1284    206.08475194471896  138.55316207915223    0
1285    300.19586100180845  218.26188801966077    102
1286    270.62753160765726  179.27976372800339    0
1287    252.07583860248783  182.39670607892339    0
1288    214.18378354447213  118.8586996872947    0
1289    226.2711909552159  127.99917121181336    0
1290    540.90542028850075  131.74691395297828    0
1291    274.99487001315003  277.94218671879821    0
1292    255.49055514230611  277.31361616497304    0
1293    251.84293471390762  314.40434766578448    0
1294    541.81085799719438  186.64030494016751    0
1295    245.05398907014384  298.56347449700235    0
1296    9.6736630842007347  396.31306966613914    0
1297    292.45867087647287  310.22678517785096    0
1298    526.60671397793453  132.048557671683    0
1299    67.802313645436143  341.45000735627968    0
1300    59.568291524190947  356.09360845150485    0
1301    148.38879423203224  127.28063132478978    0
1302    141.54781344294594  198.25533004528506    0
1303    295.304911185511  134.19106811292704    0
1304    304.92215149110689  166.02609944931018    0
1305    588.58197409357263  175.98367319409718    0
1306    189.09484522543235  141.57445634771827    0
1307    145.85826348193498  151.42846179628521    0
1308    154.35297796699788  225.26526164264604    0
1309    158.60898711021198  215.53067824590474    0
1310    178.60374353107795  94.832649397555855    0
1311    187.38413518844683  100.33967883896936    0
1312    218.92540494548754  84.194254902714391    0
1313    224.07302334914084  93.190069245827303    0
1314    188.15635932612861  249.68540139112625    0
1315    186.84312915155652  239.40444436203683    0
1316    276.79098073610675  118.1238061468018    0
1317    304.36665486067056  185.68592343000367    0
1318    294.14173651806493  188.57153820371462    0
1319    205.43835205165647  205.96912851086563    0
1320    206.14379534652204  130.36231949055676    0
1321    291.22991083984351  211.77801441388095    0
1322    257.82588895071586  188.23025640675044    0
1323    233.96765660696715  138.89110640836464    0
1324    280.19400709028423  268.77244548018825    0
1325    229.65632088014638  263.09650170561747    0
1326    249.13492996867899  254.74852638196054    0
1327    141.99223524341352  143.64911058401213    0
1328    138.78157019372341  156.46680395710681    0
1329    150.14288495184022  213.58399032306082    0
1330    187.53649780249935  90.343522204316216    0
1331    228.91955079674281  84.446069387048482    0
1332    179.01933776040576  245.62816110514422    0
1333    285.19862949199387  119.87493041626786    0
1334    298.00776475658762  196.35088941598815    0
1335    234.47435578164556  256.4058954101489    0
1336    282.29714876985776  106.86738371977205    0
1337    240.48931089817827  252.50810294975867    0
1338    242.56473882866072  262.30078478092986    0
1339    37.5  450    2
1340    528.49303606929141  167.79183832336247    0
1341    591.86325601322699  152.30812054923823    0
1342    600  126.5625    3
1343    560  210.35958371813203    139
1344    560  62.830951027479806    139
1345    40  283.64668668915465    141
1346    84.118961440866784  312.73856035735463    103
1347    181.9595353095178  164.7664598962381    0
1348    185.29512688351036  182.30869019184527    0
1349    252.72579955074664  149.91296588219473    0
1350    528.64660218118524  89.302595490466842    0
1351    273.98384563974469  230.4317522949047    102
1352    208.81461210061576  259.29756721746219    103
1353    249.2942911875883  286.40873214681363    0
1354    258.82981426790229  319.66295264530982    0
1355    232.44257895737502  314.44935090054173    136
1356    18.350977903741711  397.24695092497899    0
1357    288.31754482367921  321.45718803654813    0
1358    533.84734685638341  136.22463497423453    0
1359    511.85194118732903  136.06978478980031    0
1360    197.29583338303092  141.89281738493509    0
1361    198.21709436278402  193.99155329538735    0
1362    213.22634683730044  134.50900791525862    0
1363    291.4585225477872  222.31850944474206    102
1364    283.52788419199516  215.69974545641509    0
1365    249.75967565963728  190.43036399214338    0
1366    238.66891372202579  132.08415854994595    0
1367    141.36223055401561  133.96883425982026    0
1368    128.79151956630318  167.69820730456155    0
1369    142.26025941785423  207.92988824471769    0
1370    293.64514500296218  124.63749281063599    0
1371    298.47953965860461  205.76063790094253    0
1372    30.072968633470914  422.3002717193674    0
1373    52.1875  423.45924011919851    0
1374    589.03704631211917  126.49919516702323    0
1375    539.79014485088271  200.92827727603    0
1376    569.0719614661997  202.35958371813203    0
1377    560  74.246426541219705    139
1378    30.936323886047855  291.64668668915465    0
1379    49.00287356324916  291.64668668915465    0
1380    80.33808285535703  324.22523860680229    0
1381    267.68294254185969  331.93391371926862    0
1382    242.15332523302328  318.98275887705438    0
1383    21.483523366117232  406.80283189025891    0
1384    302.78835875516734  320.04873999503639    0
1385    518.00323000125661  129.56034768735236    0
1386    206.35005574193363  152.48601524216244    0
1387    211.25669001905908  194.29563445268192    0
1388    245.73976706378903  200.21035556028295    0
1389    245.34480880156954  135.90870115004498    0
1390    247.94784723504054  143.48398103768096    0
1391    309.78476641746869  200.47712884859391    0
1392    44.0625  418.56894079061794    0
1393    591.1744459540472  116.8808067846863    0
1394    551.23792824390137  201.77548593318357    0
1395    567.85744983549989  79.954164298089665    0
1396    551.90068167479251  79.954164298089665    0
1397    250.31269415907389  323.70839555531359    0
1398    0  407.8125    1
1399    214.65459663429846  145.35893102226208    0
1400    237.60982717542845  182.57676048746998    0
1401    239.68706945504758  154.61325592088173    0
1402    40.570192098894807  433.5660448593631    0
1403    258.24279052100292  329.41558561079182    0
1404    238.40488923219846  334.86175021271839    0
1405    13.211259318802728  404.22320496388738    0
1406    13.409385955260847  418.14128651096985    0
1407    495.81283274535082  113.45415250659842    0
1408    267.59772003044873  250.99027658703477    0
1409    103.31497657715582  387.04510042587583    0
1410    88.75  410    138
1411    308.94985284172736  295.2501638129512    0
1412    207.44260052489929  247.90146145522581    0
1413    199.19471792946246  254.67509212877354    0
1414    77.565584553213199  355.53337741256837    0
1415    291.21675411596016  264.28125745610396    0
1416    255.53316857139788  247.88059307820615    0
1417    259.38739932802707  257.88553452316154    0
1418    200.147026227971  85.832845942834439    0
1419    175.63378333516576  77.790783072953673    0
1420    224.33961406928682  67.764641062009289    0
1421    240.85905562411583  86.725982030421193    0
1422    169.85739392355057  275.99351786477587    103
1423    167.5325033156719  238.74163353714695    0
1424    526.3833391936389  179.39776903245294    69
1425    524.44174903758108  73.243464472027227    0
1426    242.69820164127486  275.25675530998609    0
1427    235.8048773936745  304.16971391857385    0
1428    133.79635802151583  118.98507645319555    0
1429    136.83542848873898  223.81468080162989    0
1430    295.96877725355495  110.64514945701187    0
1431    237.80641426862985  206.90182255781733    0
1432    600  98.4375    3
1433    570.14796989861077  68.538688784349759    0
1434    579.6056098487195  85.149183830564823    0
1435    549.9168200533436  68.538688784349759    0
1436    223.17045953418136  138.7189628673934    0
1437    222.30849700231781  162.67912666452503    0
1438    233.30213797015827  325.27525303155431    0
1439    248.8596514605288  334.09038587995678    0
1440    501.66559201358638  99.30730202231932    0
1441    273.89344703445391  241.67479973114962    0
1442    271.96258967325753  261.25082687288176    0
1443    82.847077298991564  398.94644430421818    0
1444    293.80973539251255  238.82041231179088    0
1445    251.95939379197279  263.83975086483389    0
1446    182.84313331590562  270.42820098233801    103
1447    517.53524975713844  171.79467255383648    0
1448    534.0010879712363  79.320544423322644    0
1449    220.57232597336792  304.87709393785849    0
1450    232.37165228745599  288.07295649174438    0
1451    125.64164354886955  139.85258896232574    0
1452    125.87791927922169  204.27279147709334    0
1453    310.30073443151412  126.66484149653228    0
1454    234.35930067954337  194.76635557682377    0
1455    591.00980137415797  105.46875    0
1456    228.39343811866706  149.82027935723872    0
1457    193.06757895737502  331.32435090054173    136
1458    259.49345983490713  343.68009496817922    0
1459    281.93407097460306  236.11756243003612    0
1460    279.26083186748969  252.08744257440861    0
1461    300.10546239651768  229.5049354559057    0
1462    261.2263133961178  267.79001896537244    0
1463    178.83926310794882  258.35073193158098    0
1464    220.52588149946865  338.22717444840737    0
1465    244.73041292715922  349.35985134743959    0
1466    313.476369428336  223.99055576613148    0
1467    312.38888995029293  244.59168329576548    0
1468    21.388426266633186  306.39589212752946    0
1469    252.30830148992658  168.34620735666238    0
1470    157.45709490974281  96.68684656182711    0
1471    271.41357146369421  100.67682384631327    0
1472    73.17952145798931  307.52192867961094    0
1473    514.73710470964693  150.39043229590823    0
1474    575.11803626295159  218.35958371813203    0
1475    24.876433069104586  275.64668668915465    0
1476    59.215482826441416  298.56329552421943    0
1477    55.164698830742303  275.64668668915465    0
1478    97.428300921960115  323.48495753093533    0
1479    279.63821772334171  329.92164879234542    0
1480    352.61989172593599  193.92215946917301    102
1481    544.31082313417778  217.61012733161454    0
1482    85.376287048426235  364.63589869342621    0
1483    189.66353484064237  76.407085830454704    0
1484    237.25684787463848  73.187607273925764    0
1485    573.09979469911025  51.415475513739906    0
1486    527.5  40    140
1487    205.19643854570174  174.43734602572181    0
1488    93.80131620831277  394.2345239199218    0
1489    500.1333391936389  191.58526903245294    69
1490    536.15936751684569  65.368505424156908    0
1491    222.71945384516218  198.87654016348009    0
1492    167.49497394148861  251.82760561393064    0
1493    325.1333391936389  272.83526903245297    69
1494    305.91309535037385  258.85623406814744    0
1495    10.608020375464747  307.26662743585678    0
1496    0  295.3125    1
1497    14.865313437785774  292.8049210506324    0
1498    260.2136746494528  84.975328609476009    0
1499    287.11015787790296  85.743220051410077    0
1500    85.525220030652662  295.71110211788459    0
1501    519.66718983630517  160.63094830772505    0
1502    59.845115403286997  286.63568383994578    0
1503    276.31155755975669  346.67777730131132    0
1504    297.36996023229267  339.42144898204191    0
1505    335.14521481789347  202.03540231933562    102
1506    96.549461291180336  347.14603862128098    0
1507    101.19257895737502  370.69935090054173    136
1508    543.75  40    140
1509    104.4962959207797  398.49767975797232    0
1510    504.34079510902677  177.73882792713454    0
1511    222.22740960347133  183.47573443824461    0
1512    147.42135368182397  245.22699644838576    0
1513    316.3833391936389  276.89776903245297    69
1514    308.59278004033581  271.57243008687709    0
1515    317.23856791490692  267.28547320133799    0
1516    327.48795925323816  289.36108531466675    0
1517    315.94149828471075  287.40043861322312    0
1518    329.1928820513524  258.67024595675895    0
1519    320.0627081535556  298.10969045528981    0
1520    75.70842112583756  273.38797289436496    0
1521    71.949496730683407  293.25507200687548    0
1522    326.40787636387222  206.09202374441691    102
1523    324.05666351914692  189.59012087736812    0
1524    337.49642766261877  218.5373051863844    0
1525    326.31747775858145  217.33507118066183    0
1526    329.92495761505478  236.36573166481264    0
1527    548.31524905167998  53.949139259966451    0
1528    137.5  410    138
1529    503.89270356185722  161.918247343724    0
1530    338.26758937055996  306.03547865371308    0
1531    311.81314272439317  307.1461525456283    0
1532    121.25  410    138
1533    325.23014199822904  311.11097025573207    0
1534    122.03705108585636  390.90115715548347    0
1535    521.08230747587572  201.87161565155071    0
1536    196.29852473160386  162.88395562993713    0
1537    56.25  450    2
1538    18.75  450    2
1539    468.33617038511096  115.61042194496163    0
1540    198.55507209025683  289.15670372352417    0
1541    124.75966459321616  154.05332278671511    0
1542    199.81294682365535  310.81354258852917    0
1543    583.68427179187984  205.98023303322873    0
1544    202.5  40    140
1545    206.13913173439806  68.625484709682411    0
1546    236.64099741681184  56.558947241373986    0
1547    521.49951227781446  56.210386785292158    0
1548    261.52057698743499  370.97528309287031    0
1549    483.66228858806903  179.01781388199475    0
1550    377.6333391936389  248.46026903245297    69
1551    498.70150655068903  146.17014589616241    0
1552    340.15652847756979  330.17004103633678    0
1553    0  434    1
1554    25.865234618074421  436.74439327969128    0
1555    480.85412432160689  98.981404354374874    0
1556    208.19114189325506  275.77549113258704    0
1557    182.21966310854489  286.90612489746286    0
1558    104.17254258752222  167.55462094823068    0
1559    180.7368705149259  57.714695048687993    0
1560    342.0970675225351  247.9295140929465    0
1561    104.54093458597873  145.6698223378412    0
1562    112.5  450    2
1563    80.625  429.5703125    0
1564    497.68816095862854  72.848072016608057    0
1565    128.43885118407385  187.53015310292494    0
1566    315.32572182810617  147.39960062191875    0
1567    148.5705622237453  110.69364972767055    0
1568    600  253.125    3
1569    560  258.35958371813206    139
1570    0  253.125    1
1571    60.483804885923206  247.19085085301032    0
1572    121.35559852999809  296.78000160486977    103
1573    600  28.125    3
1574    562.5  0    4
1575    535.625  19.4140625    0
1576    218.75  40    140
1577    267.5  40    140
1578    256.40069946931794  64.152871305582735    0
1579    511.25  40    140
1580    484.55904346519367  159.56172364335558    0
1581    214.32295957449082  290.35129789869427    0
1582    163.10447191746846  296.10207531518398    0
1583    345.29773229781023  232.37236344935903    0
1584    359.62239835120823  215.17795235735414    0
1585    360.1333391936389  256.58526903245297    69
1586    113.125  429.1796875    0
1587    104.09663330644015  192.37397710274098    0
1588    129.81125292225954  88.969512483463106    0
1589    578.14240324956143  242.35958371813203    0
1590    540.79294193349006  242.35958371813203    0
1591    40  247.19085085301032    141
1592    116.45661120202124  316.46232553751565    0
1593    103.72362239594126  286.75201832332908    0
1594    579.16089149281197  31.236029238945616    0
1595    551.875  24.896784570683113    0
1596    210.625  53.511138270768825    0
1597    195.9283531014857  57.372107019167409    0
1598    186.25  40    140
1599    187.5  0    4
1600    226.875  20.78125    0
1601    251.25  40    140
1602    503.125  55.869111411515107    0
1603    487.5  0    4
1604    519.375  24.89678457068311    0
1605    129.375  424.75277654022403    0
1606    96.875  424.75277654022403    0
1607    24.911993133374921  257.41876877108251    0
1608    543.75  0    4
1609    194.375  20.234375    0
1610    210.625  25.238185975609756    0
1611    262.5  0    4
1612    462.5  40    140
1613    503.125  25.891944887538742    0
1614    151.79415456741984  427.48620169768128    0
1615    93.75  450    2
1616    22.055984239324815  236.96293293493815    0
1617    178.125  25.107306077075098    0
1618    206.25  0    4
1619    243.75  0    4
1620    243.125  25.238185975609756    0
1621    479.84424674928488  57.774319484134871    0
1622    480.18564997222114  22.074565630208532    0
1623    506.25  0    4
1624    137.5  40    140
1625    259.375  25.911012440496243    0
1626    155.33117462494022  22.334412687529888    0
1627    283.75  21.241459217014548    0
1628    329.67172590967522  94.913795103083089    0
1629    297.76242664229522  374.74510253206984    0
1630    151.85926048274973  265.55455661867558    0
1631    350.3289567023084  286.41647475717559    0
1632    500.98448050911418  216.3271503273227    0
1633    422.51859935810603  161.46918806852264    102
1634    447.6333391936389  215.96026903245294    69
1635    318.80125087091676  334.97152024248601    0
1636    447.04881619051793  86.5596488010695    0
1637    154.23668065646797  61.665296646836886    0
1638    40  144.91167167228866    141
1639    109.20260627057752  121.40132994112032    0
1640    328.10209852115764  166.75430083051936    0
1641    98.985107016073954  232.19508968511207    0
1642    462.61132229657602  168.29883784549546    0
1643    180.07444571418696  306.91186331295029    0
1644    370.0945686339785  185.8089166190104    102
1645    141.29588607364008  312.19404484210929    0
1646    112.82159207441677  335.90356984713566    0
1647    123.94586214687735  271.71065567966281    0
1648    187.5  450    2
1649    0  196.875    1
1650    347.16080989994168  128.70821958640352    0
1651    381.73960807267491  280.21319431037665    0
1652    337.43264494352343  367.9462648388066    0
1653    312.18112288356394  356.92089535990658    0
1654    72.143845661833922  156.06997438675813    0
1655    465.58429423487291  188.49068096023694    0
1656    391.45032025680337  208.93041586519846    0
1657    352.04025721128824  169.79821165003546    0
1658    161.70324274276368  317.02705423555318    0
1659    140.56757895737502  353.82435090054173    136
1660    20.538765264518887  213.44651381600772    0
1661    465.1333391936389  207.83526903245294    69
1662    439.65028174945633  181.99432234918146    0
1663    371.5240337091609  166.01226022412231    0
1664    131.45355406922781  329.32682342545803    0
1665    449.8384896157383  197.80116994159013    0
1666    423.20559287752178  203.7804445774423    0
1667    481.26233866119918  219.6659986548905    0
1668    357.96481169691026  148.2599553998993    0
1669    395.76038035653289  149.58710948646547    0
1670    463.42774625378928  227.0703380850845    0
1671    496.65428482974983  250.66673360445816    0
1672    336.68574663331725  147.25751975546828    0
1673    377.71725068819097  124.58411378426118    0
1674    439.51263832774345  244.28683639821656    0
1675    479.24540562244425  239.98884948141026    0
1676    470.2616967489181  274.16598052228778    0
1677    459.95527950282076  247.46505930742546    0
1678    446.28147719280798  268.0826485884906    0
1679    217.75433274978784  376.13198035702601    0
1680    281.514510559146  61.067023060566207    0
1681    530.40382041764531  274.35958371813206    0
1682    112.5  0    4
1683    522.34725834327526  227.11297557337477    0
1684    456.00430327708989  63.687974741231258    0
1685    121.60002270820917  244.66975364946495    0
1686    373.25792161657625  315.43809327878654    0
1687    81.673997096290691  179.89560395968556    0
1688    81.194328324319713  128.60326296434832    0
1689    151.80461858971626  382.60955104409561    0
1690    448.19441463587663  310.84807247745516    0
1691    414.36843143322704  264.29985422416297    0
1692    310.14656680615053  67.546874664672927    0
1693    131.25  0    4
1694    121.875  21.953125    0
1695    519.3008010088771  249.57994896996166    0
1696    429.61227439588856  66.543193717495669    0
1697    99.674721659199236  260.19401049844231    0
1698    79.88010559375229  209.50410963436414    0
1699    508.88928592917898  269.12232431358672    0
1700    510.97091847897445  307.38025072146502    0
1701    410.0013563377305  101.22927181611847    0
1702    397.5  40    140
1703    358.99912113891281  101.15909495167242    0
1704    190.62482138360431  361.87458322841007    0
1705    84.359973123588603  82.851452177830936    0
1706    332.5  40    140
1707    436.16136119833698  120.61888829081781    0
1708    350.42425993942771  69.443788731918289    0
1709    202.5  410    138
1710    369.3730374374785  351.26303553428829    0
1711    410.2712943657267  305.71683235471062    0
1712    412.5  0    4
1713    381.25  66.373991121057472    0
1714    262.5  450    2
1715    267.5  410    138
1716    337.5  450    2
1717    332.5  410    138
1718    422.58767687574647  357.39453141906017    0
1719    478.01564172843769  357.57049391733642    0
# Generated by C:\Users\lukem\Python\PATH\modflow_exe\triangle.exe -a -q32 -A -p -V -D -e -n _triangle.0
