126 2 0 0
0 2000.0 0.0
1 1990.0083305560515 199.6668332936563
2 1960.1331556824832 397.33866159012246
3 1910.672978251212 591.0404133226792
4 1842.1219880057702 778.836684617301
5 1755.1651237807455 958.851077208406
6 1650.6712298193565 1129.284946790071
7 1529.6843745689769 1288.4353744753823
8 1393.4134186943309 1434.7121817990455
9 1243.2199365413287 1566.6538192549667
10 1080.6046117362796 1682.941969615793
11 907.1922428511547 1782.414720122871
12 724.7155089533468 1864.0781719344527
13 534.9976572491747 1927.1163708343859
14 339.93428580048163 1970.8994599769205
15 141.4744033354058 1994.989973208109
16 -58.39904460257763 1999.1472060830101
17 -257.68898859104974 1983.3296209049372
18 -454.4041893861742 1947.6952617563902
19 -646.5791337270072 1892.600175374829
20 -832.2936730942848 1818.5948536513633
21 -1009.6922091997152 1726.4187332977474
22 -1177.0022345106916 1616.9928076391802
23 -1332.552042559649 1491.41042435344
24 -1474.7874310824916 1350.9263611023011
25 -1602.2872310938674 1196.944288207913
26 -1713.7775067378946 1031.0027436429284
27 -1808.1442840341224 854.7597604676596
28 -1884.4446813373165 669.9763003118094
29 -1941.9163302991813 478.49865842796396
30 -1979.9849932008908 282.24001611973443
31 -1998.270300546559 83.16132486658098
32 -1996.5895515895063 -116.74828685516017
33 -1974.9595398177298 -315.4913882864973
34 -1933.5963851589217 -511.08220405366336
35 -1872.9133745815927 -701.5664553792396
36 -1793.516832668294 -885.0408865897049
37 -1696.2000634208162 -1059.6722818169867
38 -1581.935423828833 -1223.7157818854384
39 -1451.8646084002798 -1375.5323183679482
40 -1307.2872417272238 -1513.6049906158564
41 -1149.647893066537 -1636.5542221288217
42 -980.5216426813988 -1743.1515448271764
43 -801.5983441599509 -1832.3318734989098
44 -614.6657399568387 -1903.2041477790322
45 -421.5915988615594 -1955.060235330194
46 -224.30505387010797 -1987.3820072669291
47 -24.77732692578112 -1999.8465151282016
48 174.99796687889454 -1992.3292176716811
49 373.02473884515155 -1964.905225248665
50 567.3243709264525 -1917.848549326277
51 755.9554854259621 -1851.6293646554643
52 937.0333426007542 -1766.9093114403063
53 1108.7486723583231 -1664.5348844478017
54 1269.3857518852694 -1545.5289751119742
55 1417.33954858252 -1411.0806511407839
56 1551.1317570205003 -1262.5332757446417
57 1669.4255696783196 -1101.371085195275
58 1771.0390338826387 -929.2043588275131
59 1854.9568614880718 -747.753329660472
60 1920.3405733007319 -558.8309963978518
61 1966.5368768851695 -364.32500854419004
62 1993.084194046435 -166.17880563499278
63 100.0 0.0
64 99.50041652780259 9.983341664682815
65 98.00665778412416 19.866933079506122
66 95.5336489125606 29.55202066613396
67 92.10609940028851 38.941834230865055
68 87.75825618903727 47.942553860420304
69 82.53356149096783 56.46424733950355
70 76.48421872844884 64.42176872376912
71 69.67067093471654 71.73560908995228
72 62.16099682706644 78.33269096274834
73 54.03023058681398 84.14709848078965
74 45.35961214255773 89.12073600614355
75 36.235775447667336 93.20390859672264
76 26.749882862458733 96.3558185417193
77 16.99671429002408 98.54497299884602
78 7.073720166770291 99.74949866040545
79 -2.9199522301288816 99.95736030415051
80 -12.884449429552486 99.16648104524685
81 -22.72020946930871 97.38476308781952
82 -32.32895668635036 94.63000876874145
83 -41.61468365471424 90.92974268256818
84 -50.48461045998576 86.32093666488737
85 -58.85011172553458 80.849640381959
86 -66.62760212798244 74.57052121767201
87 -73.73937155412457 67.54631805511507
88 -80.11436155469337 59.847214410395644
89 -85.68887533689474 51.550137182146415
90 -90.40721420170613 42.737988023382975
91 -94.22223406686582 33.498815015590466
92 -97.09581651495907 23.9249329213982
93 -98.99924966004454 14.112000805986721
94 -99.91351502732795 4.158066243329049
95 -99.82947757947531 -5.8374143427580085
96 -98.74797699088649 -15.774569414324866
97 -96.6798192579461 -25.554110202683166
98 -93.64566872907963 -35.07832276896198
99 -89.6758416334147 -44.252044329485244
100 -84.8100031710408 -52.98361409084934
101 -79.09677119144165 -61.185789094271925
102 -72.59323042001398 -68.77661591839741
103 -65.3643620863612 -75.68024953079282
104 -57.48239465332685 -81.82771110644109
105 -49.026082134069945 -87.15757724135882
106 -40.079917207997546 -91.61659367494549
107 -30.733286997841937 -95.16020738895162
108 -21.07957994307797 -97.7530117665097
109 -11.215252693505398 -99.36910036334645
110 -1.2388663462890561 -99.99232575641008
111 8.749898343944727 -99.61646088358405
112 18.651236942257576 -98.24526126243325
113 28.366218546322624 -95.89242746631385
114 37.79777427129811 -92.58146823277322
115 46.85166713003771 -88.34546557201531
116 55.437433617916156 -83.22674422239008
117 63.46928759426347 -77.27644875559872
118 70.866977429126 -70.55403255703919
119 77.55658785102501 -63.12666378723208
120 83.47127848391598 -55.06855425976376
121 88.55195169413193 -46.46021794137566
122 92.74784307440359 -37.3876664830236
123 96.01702866503659 -27.941549819892586
124 98.32684384425848 -18.216250427209502
125 99.65420970232175 -8.30894028174964
