0  2  0  1
314  1
   0       1  3955       1
   1       2  4471       2
   2       3  3879       3
   3       4  3866       4
   4       5  5448       5
   5       6  4419       6
   6       7  3834       7
   7       8  4425       8
   8       9  4412       9
   9      10  3724      10
  10      11  3735      11
  11      12  4684      12
  12      13  2941      13
  13      14  5481      14
  14      15  2886      15
  15      16  4395      16
  16      17  4338      17
  17      18  3638      18
  18      19  3647      19
  19      20  4356      20
  20      21  4673      21
  21      22  5035      22
  22      23  1893      23
  23      24  5423      24
  24      25  2776      25
  25      26  5427      26
  26      27  5460      27
  27      28  4320      28
  28      29  4658      29
  29      30  2725      30
  30      31  3539      31
  31      32  3475      32
  32      33  3447      33
  33      34  4271      34
  34      35  4277      35
  35      36  4283      36
  36      37  4800      37
  37      38  4794      38
  38      39  4785      39
  39      40  4947      40
  40      41  4956      41
  41      42  4923      42
  42      43  4929      43
  43      44  4972      44
  44      45  4978      45
  45      46  4986      46
  46      47  5232      47
  47      48  5311      48
  48      49  5355      49
  49      50  5283      50
  50      51  5138      51
  51      52  5146      52
  52      53  5379      53
  53      54  5394      54
  54      55  5192      55
  55      56  5322      56
  56      57  4019      57
  57      58  3312      58
  58      59  3299      59
  59      60  3295      60
  60      61  3958      61
  61      62  3234      62
  62       0  3250      63
  63      63    64      64
  64      64    65      65
  65      65    66      66
  66      67    66      67
  67      67    68      68
  68      68    69      69
  69      69    70      70
  70      70    71      71
  71      71    72      72
  72      72    73      73
  73      73    74      74
  74      74    75      75
  75      75    76      76
  76      76    77      77
  77      78    77      78
  78      78    79      79
  79      80    79      80
  80      81    80      81
  81      82    81      82
  82      83    82      83
  83      83    84      84
  84      85    84      85
  85      86    85      86
  86      86    87      87
  87      88    87      88
  88      88    89      89
  89      89    90      90
  90      91    90      91
  91      92    91      92
  92      92    93      93
  93      93    94      94
  94      95    94      95
  95      96    95      96
  96      96    97      97
  97      97    98      98
  98      98    99      99
  99      99   100     100
 100     100   101     101
 101     102   101     102
 102     102   103     103
 103     103   104     104
 104     104   105     105
 105     105   106     106
 106     106   107     107
 107     107   108     108
 108     109   108     109
 109     109   110     110
 110     111   110     111
 111     112   111     112
 112     112   113     113
 113     113   114     114
 114     114   115     115
 115     116   115     116
 116     116   117     117
 117     117   118     118
 118     119   118     119
 119     119   120     120
 120     120   121     121
 121     121   122     122
 122     122   123     123
 123     124   123     124
 124     124   125     125
 125     125    63     126
 126    1844  1892      23
 127    1875  1895      24
 128    1892    22      23
 129    1893  1844      23
 130    1895    23      24
 131    2709  2728      31
 132    2715  3536      30
 133    2725  2715      30
 134    2728    30      31
 135    2770  2773      25
 136    2773    24      25
 137    2776  2770      25
 138    2779  5425      26
 139    2877  3683      15
 140    2879  3691      14
 141    2886  2877      15
 142    2887  5433      16
 143    2933  2936      13
 144    2936    12      13
 145    2941  2933      13
 146    3201  3953       1
 147    3217  3307      61
 148    3221  3233      62
 149    3233    61      62
 150    3234  3221      62
 151    3239    62      63
 152    3250  3239      63
 153    3286  3300      60
 154    3293  3305      59
 155    3295  3286      60
 156    3299  3293      59
 157    3300    59      60
 158    3302  4018      58
 159    3305    58      59
 160    3307    60      61
 161    3312  3302      58
 162    3431  3445      34
 163    3437  3439      35
 164    3439    34      35
 165    3444  3459      33
 166    3445    33      34
 167    3447  3444      33
 168    3459    32      33
 169    3473  4304      32
 170    3475  3473      32
 171    3526  5467      28
 172    3536    29      30
 173    3539  2709      31
 174    3589  4349      18
 175    3627  3644      19
 176    3638  3589      18
 177    3644    18      19
 178    3647  3627      19
 179    3649  4359      20
 180    3683    14      15
 181    3687  4835      12
 182    3691    13      14
 183    3717  4410      10
 184    3724  3717      10
 185    3727  3730      11
 186    3730    10      11
 187    3735  3727      11
 188    3764  3833       7
 189    3768  3789       6
 190    3788  4423       5
 191    3789     5       6
 192    3819  3836       8
 193    3833     6       7
 194    3834  3764       7
 195    3836     7       8
 196    3838  4428       9
 197    3861  5450       4
 198    3866  3861       4
 199    3871  4433       3
 200    3879  3871       3
 201    3953     0       1
 202    3955  3201       1
 203    3958  3217      61
 204    4017  4741      57
 205    4018    57      58
 206    4019  4017      57
 207    4271  3431      34
 208    4277  3437      35
 209    4278  4280      36
 210    4280    35      36
 211    4283  4278      36
 212    4304    31      32
 213    4312  4315      29
 214    4315    28      29
 215    4320  3526      28
 216    4333  4398      17
 217    4338  4333      17
 218    4349    17      18
 219    4356  3649      20
 220    4359    19      20
 221    4361  4664      21
 222    4395  2887      16
 223    4398    16      17
 224    4410     9      10
 225    4412  3838       9
 226    4419  3768       6
 227    4423     4       5
 228    4425  3819       8
 229    4428     8       9
 230    4433     2       3
 231    4462  4469       2
 232    4469     1       2
 233    4471  4462       2
 234    4571  4963      42
 235    4572  4926      43
 236    4606  4788      39
 237    4658  4312      29
 238    4664    20      21
 239    4669  5238      22
 240    4673  4361      21
 241    4684  3687      12
 242    4741    56      57
 243    4782  4793      38
 244    4785  4606      39
 245    4788    38      39
 246    4793    37      38
 247    4794  4782      38
 248    4799  4807      37
 249    4800  4799      37
 250    4807    36      37
 251    4808  4953      40
 252    4835    11      12
 253    4915  4974      45
 254    4923  4571      42
 255    4926    42      43
 256    4929  4572      43
 257    4944  4949      41
 258    4947  4808      40
 259    4949    40      41
 260    4953    39      40
 261    4956  4944      41
 262    4963    41      42
 263    4967  4968      44
 264    4968    43      44
 265    4972  4967      44
 266    4974    44      45
 267    4978  4915      45
 268    4980  4981      46
 269    4981    45      46
 270    4986  4980      46
 271    4990  5231      47
 272    5035  4669      22
 273    5129  5144      52
 274    5131  5282      51
 275    5138  5131      51
 276    5144    51      52
 277    5146  5129      52
 278    5174  5193      56
 279    5177  5332      55
 280    5192  5177      55
 281    5193    55      56
 282    5222  5338      48
 283    5231    46      47
 284    5232  4990      47
 285    5238    21      22
 286    5274  5289      50
 287    5282    50      51
 288    5283  5274      50
 289    5289    49      50
 290    5302  5305      49
 291    5305    48      49
 292    5311  5222      48
 293    5322  5174      56
 294    5332    54      55
 295    5338    47      48
 296    5355  5302      49
 297    5368  5373      53
 298    5373    52      53
 299    5379  5368      53
 300    5389  5397      54
 301    5394  5389      54
 302    5397    53      54
 303    5423  1875      24
 304    5425    25      26
 305    5427  2779      26
 306    5433    15      16
 307    5447  5465      27
 308    5448  3788       5
 309    5450     3       4
 310    5460  5447      27
 311    5465    26      27
 312    5467    27      28
 313    5481  2879      14
0
2
   0   0  0  0  100
   1   300  200  0  2000
# Generated by C:\Users\lukem\mf6\modflow_exe\triangle.exe -a -q30 -A -p -V -D -e -n _triangle.0
